M48
;Layer_Color=9474304
;FILE_FORMAT=4:2
METRIC,LZ
;TYPE=PLATED
T1F00S00C0.20
T2F00S00C0.25
T4F00S00C0.80
T5F00S00C0.89
T6F00S00C0.90
T8F00S00C1.00
T10F00S00C1.60
T12F00S00C2.00
%
T01
X0114Y010664
Y010774
X01151
Y010664
X01496Y011761
Y011871
X015071
Y011761
X013865Y014495
Y014605
Y014715
X013755
X013645
Y014605
X013755
Y014495
X013645
X012127Y013117
Y013017
Y012917
Y012817
X012027
X011927
Y012917
Y013017
X012027
Y012917
Y013117
X011927
T02
X00805Y00805
X0084
X00875
X0091
X00945
X0098
X01015
X0105
X01085
X0112
X01155
X0119
X011725Y0084
X011375
X011025
X010675
X010325
X009975
X0098Y00875
X01015
X010325Y0091
X010675
X0105Y00945
X01085
X010858Y009868
X011436Y009862
X011151Y0103
X011163Y010401
X01098Y010553
X010262Y010478
Y010401
Y010325
X010185
Y010401
Y010478
X01015Y01085
X0098
X009975Y0112
X010325
X010516Y010973
X0105Y01155
X01015
X0098
X00945
X0091
X00875
X0084
X00805
X008225Y0119
X008575
X008925Y0112
X009275
X009625
X009975Y0119
X010325
X010675
X011213Y011816
X011265Y011747
X01143Y011811
X011735Y0119
X011595Y011252
X01135Y01119
X011227Y011138
X011087Y011468
X011881Y010763
X01155Y00875
X0112
X009975Y0091
X0098Y00945
X01015
X010046Y009969
X009182Y010046
X00875Y01015
Y00945
X0091
X009275Y0091
X008925
X00875Y00875
X0091
X00945
X009275Y0084
X008925
X008225
X00805Y00875
X0084
X008225Y0091
X00805Y00945
X0084
X008225Y0098
X00805Y01015
X008225Y0105
X008522Y010655
Y010757
Y010858
X0084Y01085
X00805
X008225Y0112
X012075
X012425
X012484Y0111
X01247Y010997
X012141Y010795
X012065Y01002
X0126Y01015
X01295
X013125Y0105
X012775
X013825
X01365Y01085
X014
X014186Y011011
X013825Y0112
X013475
X01365Y01155
X014
X014313Y011671
X014592Y011684
X014746Y011691
X014835Y011627
X014719Y011519
X014592Y011443
X014834Y011303
Y011151
X014707Y011125
X015177Y011183
X015254Y011335
X0154Y011417
X015456Y011506
X015317Y011576
X015176Y011646
X015608Y011862
X015575Y0112
X01505Y01085
X015049Y010579
X015225Y0105
X01505Y01015
X014846Y010008
X0154Y01015
Y00945
X01575
X015575Y0091
X015225
X01505Y00945
X0154Y00875
X01575
X015575Y0084
X015225
X01505Y00805
X0154
X01575
X0147
X01435
X014
X01365
X0133
X01295
X0126
X01225
X012425Y0084
X012775
X013125
X013475
X01365Y00875
X013475Y0091
X013125
X012775
X012425
X01225Y00875
X0126
X01295
Y00945
X0126
X01365
Y01015
X014175Y0091
Y0084
X0147Y00875
X012075Y0084
X011938Y011798
X012775Y0119
X013125
X013373Y0119
X013475Y0119
X014175
X01593Y011757
X015925Y0112
Y0091
Y0084
Y0147
Y0154
X015575
X0154Y01575
Y01505
X01575
X015575Y0147
X015225
X014875
X01505Y01505
X014875Y0154
X014613Y015239
X01448Y01524
X014491Y01508
X014044Y014865
X014237Y014529
X014525Y014
X014875
X015176Y01411
X0154Y01435
X015225Y0133
X014961Y01303
X0147Y01295
X014707Y012687
X014525Y0126
X014643Y012421
X015138
X015055Y012225
X015127Y012101
X015228Y012072
X01365Y01225
X013284Y012179
X012878Y012014
X012636
X01265Y01242
X01252Y01244
X012636Y01256
X012624Y012662
X012636Y012827
X01251Y01284
X012294Y012802
X012319Y0127
X011976Y012624
X01194Y01249
X01195Y012373
X012281Y013091
X012421Y013259
X012522Y01331
X0127Y013259
X012764Y013195
X013136Y013467
X013098Y01362
X01303Y013894
X013018Y014008
X01303Y014199
X012954Y014275
X012649
Y014415
X012636Y014516
X012713Y014148
X012725Y014008
X012649Y013945
X012312Y014018
X012226Y013963
X012179Y013868
X012065Y013881
X012078Y01397
X011913Y014186
X01204Y014313
X01237Y014173
X012357Y013437
X012205
X012103Y013449
X01198Y01347
Y01357
X012268Y013513
X013414Y013577
X013564Y013538
X013678Y013462
X013767Y013449
X013788Y013182
X013691Y013233
X014Y01295
X013825Y0126
X013475
X013125
X0133Y01295
X013462Y013856
X013322Y014135
X013335Y014541
X013408Y014816
X013399Y014923
X013494Y014875
X013449Y015037
X012965Y015025
X012776Y014986
X012827Y014884
Y01477
X012941Y014796
X012929Y014694
X013034Y01471
X012567Y014942
X012459Y014948
X012306
X012179Y014961
X012052Y014948
X01435Y01575
X014Y01365
X014525Y0133
X011773Y013163
X01176Y013043
X011659Y013411
X01157Y013487
X011151Y0135
Y013411
X011239Y013322
X011176Y013043
X011149Y012949
X0112Y012722
X011163Y012548
X011239Y012306
X011275Y012157
X011163Y012192
X010975Y012245
X01085Y01225
X0105
X01015
X010325Y0126
X010675
X009975
X01015Y01295
X010325Y0133
X009975
X009625
X009275
X008925
X008575
X008225
X00805Y01365
X00875
X0091
X00945
X0098
X009625Y014
X009275
X008925
X008575
X00875Y01435
X0091
X00945
X0098
X01015
X010325Y014
X011024Y014205
X011011Y014313
X011341Y014326
X01143Y014313
Y01444
X011341Y014453
Y014211
X011417Y014148
X011354Y014021
X011379Y013919
X011303Y013805
Y013678
X01157Y014084
X011875Y01397
X011817Y0139
X011544Y015088
X011417Y015024
X011036Y014745
X011025Y0154
X01085Y01575
X0105
X01015
X0098
X00945
X0091
X00875
X0084
X00805
Y01505
X00875
X0091
X00945
X0098
X01015
X010325Y0154
X009975
X009625
X009275
X008925
X008575Y0147
X00805Y01435
Y01295
X0084
X00875
X0091
X00945
X008575Y0126
X008225
X00805Y01225
X0084
X00875
X011239Y011925
X011594Y011996
X011811Y012001
X011875Y011925
X01179Y01232
X011811Y012433
X011608Y012611
T04
X013297Y008192
X013551
X013805
X014059
X014313
X014567
X014821
X015075
T05
X008297Y013598
Y013852
Y014106
Y01436
Y014614
Y014868
Y015122
Y015376
X010583
Y015122
Y014868
Y014614
Y01436
Y014106
Y013852
Y013598
T06
X012789Y008192
X013043
X013081Y015557
X012827
X012573
X012319
X012065
Y015812
X012319
X012573
X012827
X013081
X013335Y015557
X011811
X011557
X011303
Y015812
X011557
X011811
T08
X01557Y009792
Y010046
X015824
Y0103
Y010554
Y010808
Y011062
X01557
Y010808
Y010554
Y0103
X015824Y009792
T10
X010518Y008933
T12
X009089Y008946
M30
