M48
;Layer_Color=9474304
;FILE_FORMAT=4:2
METRIC,LZ
;TYPE=PLATED
T3F00S00C0.50
T7F00S00C0.90
T9F00S00C1.50
T11F00S00C1.60
T13F00S00C3.25
%
G90
G05
T03
G00X015882Y012481
M15
G01X015812
M16
G00X015882Y013141
M15
G01X015812
M16
G00X015883Y013318
M15
G01X015813
M16
G00X015883Y013978
M15
G01X015813
M16
T07
G00X010863Y009263
M15
G01Y009263
M16
G00X011117Y009263
M15
G01Y009263
M16
G00X011371Y009263
M15
G01Y009263
M16
G00X011625Y009263
M15
G01Y009263
M16
G00X011498Y009517
M15
G01Y009517
M16
G00X011244Y009517
M15
G01Y009517
M16
G00X01099Y009517
M15
G01Y009517
M16
G00X011015Y01
M15
G01Y01
M16
G00X010761Y01
M15
G01Y01
M16
G00X0116Y01
M15
G01Y01
M16
G00X011854Y01
M15
G01Y01
M16
G00X011752Y009517
M15
G01Y009517
M16
G00X013335Y015812
M15
G01Y015812
M16
T09
G00X009064Y008506
M15
G01X009114
M16
T11
G00X012097Y008933
M15
G01Y008933
M16
T13
G00X010736Y008628
M15
G01Y008628
M16
G00X011879Y008628
M15
G01Y008628
M16
M17
M30
