G04*
G04 #@! TF.GenerationSoftware,Altium Limited,Altium Designer,19.1.7 (138)*
G04*
G04 Layer_Color=65535*
%FSLAX42Y42*%
%MOMM*%
G71*
G01*
G75*
%ADD10C,0.25*%
%ADD11C,0.25*%
%ADD12C,0.60*%
%ADD13C,0.10*%
%ADD14C,0.30*%
%ADD15C,0.03*%
%ADD16C,0.15*%
%ADD17C,0.20*%
%ADD18C,0.02*%
D10*
X8941Y10553D02*
G03*
X8941Y10553I-2J0D01*
G01*
X14333Y14487D02*
G03*
X14334Y14486I-1J-2D01*
G01*
X10712Y13049D02*
G03*
X10712Y13049I-2J0D01*
G01*
X14202Y10138D02*
G03*
X14202Y10138I-0J0D01*
G01*
X13372Y15390D02*
G03*
X13372Y15390I-4J0D01*
G01*
X11738Y10268D02*
G03*
X11738Y10268I-2J0D01*
G01*
X10820Y10776D02*
G03*
X10820Y10776I-1J0D01*
G01*
X10243Y10971D02*
G03*
X10243Y10971I-1J0D01*
G01*
X15619Y12312D02*
X15879D01*
X15619Y11792D02*
X15879D01*
X15619D02*
Y11972D01*
Y12132D02*
Y12312D01*
X15879Y11972D02*
Y12132D01*
X11176Y15430D02*
Y15938D01*
X13462D01*
Y15430D02*
Y15938D01*
X11176Y15430D02*
X13462D01*
X15992Y12418D02*
Y13204D01*
X15993Y13255D02*
Y14041D01*
X15951Y9665D02*
Y11189D01*
X15443Y9665D02*
X15951D01*
X15443D02*
Y11189D01*
X15951D01*
X12662Y8064D02*
X15202D01*
X12662D02*
Y8318D01*
X15202D01*
Y8064D02*
Y8318D01*
X11128Y10078D02*
X11507D01*
X10497D02*
X10678D01*
X11947D02*
X12118D01*
X10497Y9088D02*
Y10078D01*
Y7548D02*
Y8778D01*
X12118Y9088D02*
Y10078D01*
Y7548D02*
Y8778D01*
X10497Y7548D02*
X12118D01*
X8589Y7996D02*
X9589D01*
X8589Y9466D02*
X9589D01*
X14070Y15682D02*
X14120D01*
X14120D01*
X13820D02*
X13870D01*
X13820Y15992D02*
X14120D01*
D11*
X13438Y14855D02*
G03*
X13438Y14855I-12J0D01*
G01*
X11268Y10439D02*
G03*
X11268Y10439I-12J0D01*
G01*
X11422Y13614D02*
G03*
X11422Y13614I-12J0D01*
G01*
X14257Y10972D02*
G03*
X14257Y10972I-12J0D01*
G01*
X15354Y12593D02*
G03*
X15354Y12593I-12J0D01*
G01*
X15318Y13448D02*
G03*
X15318Y13448I-12J0D01*
G01*
D12*
X11662Y13501D02*
G03*
X11662Y13501I-30J0D01*
G01*
D13*
X8998Y10834D02*
G03*
X8998Y10834I-5J0D01*
G01*
X9939Y10455D02*
G03*
X9939Y10455I-5J0D01*
G01*
X14215Y14667D02*
G03*
X14215Y14668I-0J0D01*
G01*
X13204Y15321D02*
Y15331D01*
X13079Y15231D02*
X13094D01*
X13204Y15131D02*
Y15141D01*
X13314Y15231D02*
X13324D01*
D14*
X8043Y13344D02*
G03*
X8297Y13090I254J0D01*
G01*
Y15947D02*
G03*
X8043Y15693I0J-254D01*
G01*
X10583Y13090D02*
G03*
X10837Y13344I0J254D01*
G01*
X10837Y15693D02*
G03*
X10583Y15947I-254J0D01*
G01*
X10456Y13217D02*
X10710Y13471D01*
X10837Y13344D02*
Y15693D01*
X8043Y13344D02*
Y15693D01*
X8297Y13090D02*
X10583D01*
X8424Y13471D02*
Y15503D01*
X8170Y15503D02*
X8424Y15503D01*
X8170Y13471D02*
Y15503D01*
Y13471D02*
X8424D01*
X8170Y15249D02*
X8424D01*
X10456D02*
X10710D01*
X10456Y13471D02*
X10710D01*
X10456D02*
Y15503D01*
X10710Y15503D01*
Y13471D02*
Y15503D01*
D15*
X8915Y12626D02*
X9804D01*
X8915Y12624D02*
X9804D01*
X8915Y12621D02*
X9804D01*
X8915Y12619D02*
X9804D01*
X8915Y12616D02*
X9804D01*
X8915Y12614D02*
X9804D01*
X8915Y12611D02*
X9804D01*
X8915Y12609D02*
X9804D01*
X8915Y12606D02*
X9804D01*
X8915Y12603D02*
X9804D01*
X8915Y12601D02*
X9804D01*
X8915Y12598D02*
X9804D01*
X8915Y12596D02*
X9804D01*
X8915Y12593D02*
X9804D01*
X8915Y12591D02*
X9804D01*
X8915Y12588D02*
X9804D01*
X8915Y12586D02*
X9804D01*
X8915Y12583D02*
X9804D01*
X8915Y12581D02*
X9804D01*
X8915Y12578D02*
X9804D01*
X8915Y12576D02*
X9804D01*
X8915Y12573D02*
X9804D01*
X8915Y12570D02*
X9804D01*
X8915Y12568D02*
X9804D01*
X8915Y12565D02*
X9804D01*
X8915Y12563D02*
X9804D01*
X8915Y12560D02*
X9804D01*
X8915Y12558D02*
X9804D01*
X8915Y12555D02*
X9804D01*
X8915Y12553D02*
X9804D01*
X8915Y12550D02*
X9804D01*
X8915Y12548D02*
X9804D01*
X8915Y12545D02*
X9804D01*
X8915Y12543D02*
X9804D01*
X8915Y12540D02*
X9804D01*
X8915Y12537D02*
X9804D01*
X8915Y12535D02*
X9804D01*
X8915Y12532D02*
X9804D01*
X8915Y12530D02*
X9804D01*
X8915Y12527D02*
X9309D01*
X9411D02*
X9804D01*
X8915Y12525D02*
X9309D01*
X9413D02*
X9804D01*
X8915Y12522D02*
X9309D01*
X9413D02*
X9804D01*
X8915Y12520D02*
X9309D01*
X9413D02*
X9804D01*
X8915Y12517D02*
X9309D01*
X9413D02*
X9804D01*
X8915Y12515D02*
X9307D01*
X9413D02*
X9804D01*
X8915Y12512D02*
X9307D01*
X9413D02*
X9804D01*
X8915Y12510D02*
X9307D01*
X9413D02*
X9804D01*
X8915Y12507D02*
X9304D01*
X9416D02*
X9804D01*
X8915Y12504D02*
X9307D01*
X9416D02*
X9804D01*
X8915Y12502D02*
X9307D01*
X9418D02*
X9804D01*
X8915Y12499D02*
X9304D01*
X9416D02*
X9804D01*
X8915Y12497D02*
X9304D01*
X9416D02*
X9804D01*
X8915Y12494D02*
X9304D01*
X9418D02*
X9804D01*
X8915Y12492D02*
X9304D01*
X9418D02*
X9804D01*
X8915Y12489D02*
X9304D01*
X9418D02*
X9804D01*
X8915Y12487D02*
X9301D01*
X9418D02*
X9804D01*
X8915Y12484D02*
X9301D01*
X9418D02*
X9804D01*
X8915Y12482D02*
X9301D01*
X9421D02*
X9804D01*
X8915Y12479D02*
X9301D01*
X9421D02*
X9804D01*
X8915Y12476D02*
X9301D01*
X9421D02*
X9804D01*
X8915Y12474D02*
X9301D01*
X9421D02*
X9804D01*
X8915Y12471D02*
X9299D01*
X9421D02*
X9804D01*
X8915Y12469D02*
X9299D01*
X9421D02*
X9804D01*
X8915Y12466D02*
X9296D01*
X9423D02*
X9804D01*
X8915Y12464D02*
X9299D01*
X9423D02*
X9804D01*
X8915Y12461D02*
X9299D01*
X9426D02*
X9804D01*
X8915Y12459D02*
X9296D01*
X9423D02*
X9804D01*
X8915Y12456D02*
X9296D01*
X9423D02*
X9804D01*
X8915Y12454D02*
X9296D01*
X9426D02*
X9804D01*
X8915Y12451D02*
X9126D01*
X9136D02*
X9296D01*
X9426D02*
X9583D01*
X9594D02*
X9804D01*
X8915Y12449D02*
X9124D01*
X9141D02*
X9296D01*
X9426D02*
X9581D01*
X9596D02*
X9804D01*
X8915Y12446D02*
X9121D01*
X9144D02*
X9294D01*
X9426D02*
X9576D01*
X9599D02*
X9804D01*
X8915Y12443D02*
X9119D01*
X9149D02*
X9294D01*
X9426D02*
X9573D01*
X9601D02*
X9804D01*
X8915Y12441D02*
X9116D01*
X9152D02*
X9294D01*
X9428D02*
X9568D01*
X9604D02*
X9804D01*
X8915Y12438D02*
X9114D01*
X9157D02*
X9291D01*
X9428D02*
X9566D01*
X9606D02*
X9804D01*
X8915Y12436D02*
X9111D01*
X9159D02*
X9294D01*
X9428D02*
X9561D01*
X9609D02*
X9804D01*
X8915Y12433D02*
X9108D01*
X9164D02*
X9294D01*
X9431D02*
X9558D01*
X9611D02*
X9804D01*
X8915Y12431D02*
X9106D01*
X9167D02*
X9291D01*
X9428D02*
X9553D01*
X9614D02*
X9804D01*
X8915Y12428D02*
X9103D01*
X9172D02*
X9291D01*
X9428D02*
X9550D01*
X9616D02*
X9804D01*
X8915Y12426D02*
X9101D01*
X9174D02*
X9289D01*
X9431D02*
X9548D01*
X9619D02*
X9804D01*
X8915Y12423D02*
X9098D01*
X9180D02*
X9284D01*
X9436D02*
X9543D01*
X9622D02*
X9804D01*
X8915Y12421D02*
X9096D01*
X9182D02*
X9279D01*
X9444D02*
X9540D01*
X9624D02*
X9804D01*
X8915Y12418D02*
X9093D01*
X9185D02*
X9274D01*
X9449D02*
X9535D01*
X9627D02*
X9804D01*
X8915Y12416D02*
X9091D01*
X9190D02*
X9266D01*
X9454D02*
X9533D01*
X9629D02*
X9804D01*
X8915Y12413D02*
X9088D01*
X9192D02*
X9261D01*
X9461D02*
X9528D01*
X9632D02*
X9804D01*
X8915Y12410D02*
X9086D01*
X9197D02*
X9253D01*
X9467D02*
X9525D01*
X9634D02*
X9804D01*
X8915Y12408D02*
X9083D01*
X9200D02*
X9248D01*
X9474D02*
X9520D01*
X9637D02*
X9804D01*
X8915Y12405D02*
X9081D01*
X9205D02*
X9241D01*
X9479D02*
X9517D01*
X9639D02*
X9804D01*
X8915Y12403D02*
X9078D01*
X9207D02*
X9235D01*
X9487D02*
X9512D01*
X9642D02*
X9804D01*
X8915Y12400D02*
X9075D01*
X9213D02*
X9228D01*
X9492D02*
X9510D01*
X9644D02*
X9804D01*
X8915Y12398D02*
X9073D01*
X9215D02*
X9223D01*
X9500D02*
X9507D01*
X9647D02*
X9804D01*
X8915Y12395D02*
X9070D01*
X9649D02*
X9804D01*
X8915Y12393D02*
X9068D01*
X9652D02*
X9804D01*
X8915Y12390D02*
X9065D01*
X9655D02*
X9804D01*
X8915Y12388D02*
X9063D01*
X9657D02*
X9804D01*
X8915Y12385D02*
X9060D01*
X9660D02*
X9804D01*
X8915Y12382D02*
X9060D01*
X9662D02*
X9804D01*
X8915Y12380D02*
X9060D01*
X9662D02*
X9804D01*
X8915Y12377D02*
X9063D01*
X9660D02*
X9804D01*
X8915Y12375D02*
X9063D01*
X9657D02*
X9804D01*
X8915Y12372D02*
X9065D01*
X9657D02*
X9804D01*
X8915Y12370D02*
X9068D01*
X9655D02*
X9804D01*
X8915Y12367D02*
X9068D01*
X9652D02*
X9804D01*
X8915Y12365D02*
X9070D01*
X9649D02*
X9804D01*
X8915Y12362D02*
X9073D01*
X9647D02*
X9804D01*
X8915Y12360D02*
X9075D01*
X9647D02*
X9804D01*
X8915Y12357D02*
X9078D01*
X9644D02*
X9804D01*
X8915Y12355D02*
X9078D01*
X9642D02*
X9804D01*
X8915Y12352D02*
X9081D01*
X9642D02*
X9804D01*
X8915Y12349D02*
X9083D01*
X9639D02*
X9804D01*
X8915Y12347D02*
X9083D01*
X9639D02*
X9804D01*
X8915Y12344D02*
X9086D01*
X9637D02*
X9804D01*
X8915Y12342D02*
X9086D01*
X9634D02*
X9804D01*
X8915Y12339D02*
X9088D01*
X9634D02*
X9804D01*
X8915Y12337D02*
X9091D01*
X9632D02*
X9804D01*
X8915Y12334D02*
X9091D01*
X9629D02*
X9804D01*
X8915Y12332D02*
X9093D01*
X9629D02*
X9804D01*
X8915Y12329D02*
X9096D01*
X9627D02*
X9804D01*
X8915Y12327D02*
X9096D01*
X9624D02*
X9804D01*
X8915Y12324D02*
X9098D01*
X9622D02*
X9804D01*
X8915Y12322D02*
X9101D01*
X9619D02*
X9804D01*
X8915Y12319D02*
X9103D01*
X9619D02*
X9804D01*
X8915Y12316D02*
X9106D01*
X9616D02*
X9804D01*
X8915Y12314D02*
X9106D01*
X9614D02*
X9804D01*
X8915Y12311D02*
X9108D01*
X9614D02*
X9804D01*
X8915Y12309D02*
X9111D01*
X9611D02*
X9804D01*
X8915Y12306D02*
X9111D01*
X9609D02*
X9804D01*
X8915Y12304D02*
X9114D01*
X9609D02*
X9804D01*
X8915Y12301D02*
X9116D01*
X9606D02*
X9804D01*
X8915Y12299D02*
X9116D01*
X9604D02*
X9804D01*
X8915Y12296D02*
X9116D01*
X9604D02*
X9804D01*
X8915Y12294D02*
X9116D01*
X9604D02*
X9804D01*
X8915Y12291D02*
X9114D01*
X9606D02*
X9804D01*
X8915Y12289D02*
X9114D01*
X9609D02*
X9804D01*
X8915Y12286D02*
X9114D01*
X9609D02*
X9804D01*
X8915Y12283D02*
X9111D01*
X9611D02*
X9804D01*
X8915Y12281D02*
X9111D01*
X9609D02*
X9804D01*
X8915Y12278D02*
X9108D01*
X9611D02*
X9804D01*
X8915Y12276D02*
X9108D01*
X9614D02*
X9804D01*
X8915Y12273D02*
X9106D01*
X9614D02*
X9804D01*
X8915Y12271D02*
X9106D01*
X9616D02*
X9804D01*
X8915Y12268D02*
X9106D01*
X9616D02*
X9804D01*
X8915Y12266D02*
X9103D01*
X9619D02*
X9804D01*
X8915Y12263D02*
X9103D01*
X9616D02*
X9804D01*
X8915Y12261D02*
X9101D01*
X9619D02*
X9804D01*
X8915Y12258D02*
X9101D01*
X9347D02*
X9375D01*
X9622D02*
X9804D01*
X8915Y12256D02*
X9098D01*
X9335D02*
X9388D01*
X9622D02*
X9804D01*
X8915Y12253D02*
X9098D01*
X9327D02*
X9395D01*
X9624D02*
X9804D01*
X8915Y12250D02*
X9098D01*
X9319D02*
X9401D01*
X9624D02*
X9804D01*
X8915Y12248D02*
X9096D01*
X9314D02*
X9406D01*
X9627D02*
X9804D01*
X8915Y12245D02*
X9096D01*
X9309D02*
X9411D01*
X9624D02*
X9804D01*
X8915Y12243D02*
X9093D01*
X9307D02*
X9416D01*
X9627D02*
X9804D01*
X8915Y12240D02*
X9093D01*
X9301D02*
X9418D01*
X9629D02*
X9804D01*
X8915Y12238D02*
X9091D01*
X9299D02*
X9423D01*
X9629D02*
X9804D01*
X8915Y12235D02*
X9091D01*
X9296D02*
X9426D01*
X9632D02*
X9804D01*
X8915Y12233D02*
X9091D01*
X9291D02*
X9428D01*
X9632D02*
X9804D01*
X8915Y12230D02*
X9088D01*
X9289D02*
X9431D01*
X9634D02*
X9804D01*
X8915Y12228D02*
X9088D01*
X9286D02*
X9434D01*
X9632D02*
X9804D01*
X8915Y12225D02*
X9086D01*
X9284D02*
X9436D01*
X9634D02*
X9804D01*
X8915Y12222D02*
X9083D01*
X9281D02*
X9439D01*
X9639D02*
X9804D01*
X8915Y12220D02*
X9070D01*
X9279D02*
X9444D01*
X9652D02*
X9804D01*
X8915Y12217D02*
X9058D01*
X9279D02*
X9444D01*
X9665D02*
X9804D01*
X8915Y12215D02*
X9042D01*
X9276D02*
X9446D01*
X9677D02*
X9804D01*
X8915Y12212D02*
X9030D01*
X9274D02*
X9446D01*
X9693D02*
X9804D01*
X8915Y12210D02*
X9017D01*
X9274D02*
X9449D01*
X9705D02*
X9804D01*
X8915Y12207D02*
X9002D01*
X9271D02*
X9451D01*
X9718D02*
X9804D01*
X8915Y12205D02*
X8989D01*
X9268D02*
X9454D01*
X9733D02*
X9804D01*
X8915Y12202D02*
X8984D01*
X9268D02*
X9454D01*
X9736D02*
X9804D01*
X8915Y12200D02*
X8987D01*
X9266D02*
X9456D01*
X9736D02*
X9804D01*
X8915Y12197D02*
X8987D01*
X9266D02*
X9459D01*
X9736D02*
X9804D01*
X8915Y12195D02*
X8987D01*
X9263D02*
X9456D01*
X9736D02*
X9804D01*
X8915Y12192D02*
X8987D01*
X9263D02*
X9459D01*
X9736D02*
X9804D01*
X8915Y12189D02*
X8987D01*
X9261D02*
X9459D01*
X9736D02*
X9804D01*
X8915Y12187D02*
X8987D01*
X9261D02*
X9461D01*
X9736D02*
X9804D01*
X8915Y12184D02*
X8987D01*
X9261D02*
X9461D01*
X9736D02*
X9804D01*
X8915Y12182D02*
X8987D01*
X9258D02*
X9464D01*
X9736D02*
X9804D01*
X8915Y12179D02*
X8987D01*
X9258D02*
X9461D01*
X9736D02*
X9804D01*
X8915Y12177D02*
X8987D01*
X9256D02*
X9464D01*
X9736D02*
X9804D01*
X8915Y12174D02*
X8987D01*
X9256D02*
X9464D01*
X9736D02*
X9804D01*
X8915Y12172D02*
X8987D01*
X9258D02*
X9467D01*
X9736D02*
X9804D01*
X8915Y12169D02*
X8987D01*
X9256D02*
X9467D01*
X9736D02*
X9804D01*
X8915Y12167D02*
X8987D01*
X9256D02*
X9467D01*
X9736D02*
X9804D01*
X8915Y12164D02*
X8987D01*
X9256D02*
X9464D01*
X9736D02*
X9804D01*
X8915Y12162D02*
X8987D01*
X9256D02*
X9467D01*
X9736D02*
X9804D01*
X8915Y12159D02*
X8987D01*
X9256D02*
X9467D01*
X9736D02*
X9804D01*
X8915Y12156D02*
X8987D01*
X9253D02*
X9467D01*
X9736D02*
X9804D01*
X8915Y12154D02*
X8987D01*
X9253D02*
X9467D01*
X9736D02*
X9804D01*
X8915Y12151D02*
X8987D01*
X9253D02*
X9467D01*
X9736D02*
X9804D01*
X8915Y12149D02*
X8987D01*
X9253D02*
X9467D01*
X9736D02*
X9804D01*
X8915Y12146D02*
X8987D01*
X9256D02*
X9467D01*
X9736D02*
X9804D01*
X8915Y12144D02*
X8987D01*
X9256D02*
X9467D01*
X9736D02*
X9804D01*
X8915Y12141D02*
X8987D01*
X9256D02*
X9464D01*
X9736D02*
X9804D01*
X8915Y12139D02*
X8987D01*
X9256D02*
X9467D01*
X9736D02*
X9804D01*
X8915Y12136D02*
X8987D01*
X9256D02*
X9467D01*
X9736D02*
X9804D01*
X8915Y12134D02*
X8987D01*
X9258D02*
X9467D01*
X9736D02*
X9804D01*
X8915Y12131D02*
X8987D01*
X9256D02*
X9464D01*
X9736D02*
X9804D01*
X8915Y12129D02*
X8987D01*
X9256D02*
X9464D01*
X9736D02*
X9804D01*
X8915Y12126D02*
X8987D01*
X9258D02*
X9461D01*
X9736D02*
X9804D01*
X8915Y12123D02*
X8987D01*
X9258D02*
X9464D01*
X9736D02*
X9804D01*
X8915Y12121D02*
X8987D01*
X9261D02*
X9461D01*
X9736D02*
X9804D01*
X8915Y12118D02*
X8987D01*
X9261D02*
X9461D01*
X9736D02*
X9804D01*
X8915Y12116D02*
X8987D01*
X9261D02*
X9459D01*
X9736D02*
X9804D01*
X8915Y12113D02*
X8987D01*
X9263D02*
X9459D01*
X9736D02*
X9804D01*
X8915Y12111D02*
X8987D01*
X9263D02*
X9456D01*
X9736D02*
X9804D01*
X8915Y12108D02*
X8987D01*
X9266D02*
X9456D01*
X9736D02*
X9804D01*
X8915Y12106D02*
X8984D01*
X9266D02*
X9454D01*
X9736D02*
X9804D01*
X8915Y12103D02*
X8987D01*
X9268D02*
X9454D01*
X9736D02*
X9804D01*
X8915Y12101D02*
X8997D01*
X9268D02*
X9451D01*
X9726D02*
X9804D01*
X8915Y12098D02*
X9009D01*
X9271D02*
X9451D01*
X9710D02*
X9804D01*
X8915Y12095D02*
X9025D01*
X9271D02*
X9449D01*
X9698D02*
X9804D01*
X8915Y12093D02*
X9037D01*
X9274D02*
X9449D01*
X9682D02*
X9804D01*
X8915Y12090D02*
X9053D01*
X9276D02*
X9446D01*
X9670D02*
X9804D01*
X8915Y12088D02*
X9065D01*
X9276D02*
X9444D01*
X9657D02*
X9804D01*
X8915Y12085D02*
X9078D01*
X9281D02*
X9441D01*
X9642D02*
X9804D01*
X8915Y12083D02*
X9083D01*
X9284D02*
X9441D01*
X9639D02*
X9804D01*
X8915Y12080D02*
X9086D01*
X9284D02*
X9436D01*
X9637D02*
X9804D01*
X8915Y12078D02*
X9088D01*
X9286D02*
X9434D01*
X9637D02*
X9804D01*
X8915Y12075D02*
X9086D01*
X9289D02*
X9431D01*
X9634D02*
X9804D01*
X8915Y12073D02*
X9088D01*
X9294D02*
X9428D01*
X9634D02*
X9804D01*
X8915Y12070D02*
X9088D01*
X9296D02*
X9426D01*
X9632D02*
X9804D01*
X8915Y12068D02*
X9091D01*
X9299D02*
X9423D01*
X9632D02*
X9804D01*
X8915Y12065D02*
X9093D01*
X9301D02*
X9418D01*
X9632D02*
X9804D01*
X8915Y12062D02*
X9091D01*
X9307D02*
X9416D01*
X9629D02*
X9804D01*
X8915Y12060D02*
X9093D01*
X9309D02*
X9411D01*
X9629D02*
X9804D01*
X8915Y12057D02*
X9093D01*
X9314D02*
X9408D01*
X9627D02*
X9804D01*
X8915Y12055D02*
X9096D01*
X9317D02*
X9403D01*
X9627D02*
X9804D01*
X8915Y12052D02*
X9098D01*
X9319D02*
X9403D01*
X9627D02*
X9804D01*
X8915Y12050D02*
X9096D01*
X9319D02*
X9403D01*
X9624D02*
X9804D01*
X8915Y12047D02*
X9098D01*
X9317D02*
X9403D01*
X9624D02*
X9804D01*
X8915Y12045D02*
X9098D01*
X9317D02*
X9406D01*
X9622D02*
X9804D01*
X8915Y12042D02*
X9101D01*
X9317D02*
X9408D01*
X9622D02*
X9804D01*
X8915Y12040D02*
X9103D01*
X9314D02*
X9406D01*
X9622D02*
X9804D01*
X8915Y12037D02*
X9101D01*
X9314D02*
X9408D01*
X9619D02*
X9804D01*
X8915Y12035D02*
X9103D01*
X9312D02*
X9408D01*
X9619D02*
X9804D01*
X8915Y12032D02*
X9103D01*
X9309D02*
X9411D01*
X9616D02*
X9804D01*
X8915Y12029D02*
X9106D01*
X9312D02*
X9411D01*
X9616D02*
X9804D01*
X8915Y12027D02*
X9108D01*
X9309D02*
X9413D01*
X9616D02*
X9804D01*
X8915Y12024D02*
X9106D01*
X9309D02*
X9413D01*
X9614D02*
X9804D01*
X8915Y12022D02*
X9108D01*
X9307D02*
X9413D01*
X9614D02*
X9804D01*
X8915Y12019D02*
X9108D01*
X9307D02*
X9416D01*
X9611D02*
X9804D01*
X8915Y12017D02*
X9111D01*
X9304D02*
X9416D01*
X9611D02*
X9804D01*
X8915Y12014D02*
X9114D01*
X9304D02*
X9418D01*
X9611D02*
X9804D01*
X8915Y12012D02*
X9111D01*
X9304D02*
X9418D01*
X9609D02*
X9804D01*
X8915Y12009D02*
X9114D01*
X9301D02*
X9418D01*
X9606D02*
X9804D01*
X8915Y12007D02*
X9114D01*
X9301D02*
X9421D01*
X9606D02*
X9804D01*
X8915Y12004D02*
X9114D01*
X9299D02*
X9421D01*
X9606D02*
X9804D01*
X8915Y12001D02*
X9114D01*
X9296D02*
X9423D01*
X9609D02*
X9804D01*
X8915Y11999D02*
X9111D01*
X9299D02*
X9426D01*
X9611D02*
X9804D01*
X8915Y11996D02*
X9108D01*
X9296D02*
X9423D01*
X9611D02*
X9804D01*
X8915Y11994D02*
X9106D01*
X9296D02*
X9426D01*
X9614D02*
X9804D01*
X8915Y11991D02*
X9103D01*
X9294D02*
X9426D01*
X9616D02*
X9804D01*
X8915Y11989D02*
X9103D01*
X9294D02*
X9428D01*
X9619D02*
X9804D01*
X8915Y11986D02*
X9101D01*
X9291D02*
X9428D01*
X9622D02*
X9804D01*
X8915Y11984D02*
X9098D01*
X9291D02*
X9431D01*
X9622D02*
X9804D01*
X8915Y11981D02*
X9098D01*
X9291D02*
X9431D01*
X9624D02*
X9804D01*
X8915Y11979D02*
X9096D01*
X9289D02*
X9431D01*
X9627D02*
X9804D01*
X8915Y11976D02*
X9093D01*
X9289D02*
X9434D01*
X9627D02*
X9804D01*
X8915Y11974D02*
X9093D01*
X9286D02*
X9434D01*
X9629D02*
X9804D01*
X8915Y11971D02*
X9091D01*
X9286D02*
X9436D01*
X9632D02*
X9804D01*
X8915Y11968D02*
X9091D01*
X9286D02*
X9439D01*
X9632D02*
X9804D01*
X8915Y11966D02*
X9088D01*
X9284D02*
X9436D01*
X9634D02*
X9804D01*
X8915Y11963D02*
X9086D01*
X9284D02*
X9439D01*
X9634D02*
X9804D01*
X8915Y11961D02*
X9086D01*
X9281D02*
X9439D01*
X9637D02*
X9804D01*
X8915Y11958D02*
X9083D01*
X9279D02*
X9441D01*
X9639D02*
X9804D01*
X8915Y11956D02*
X9081D01*
X9281D02*
X9441D01*
X9639D02*
X9804D01*
X8915Y11953D02*
X9081D01*
X9279D02*
X9444D01*
X9642D02*
X9804D01*
X8915Y11951D02*
X9075D01*
X9279D02*
X9444D01*
X9644D02*
X9804D01*
X8915Y11948D02*
X9075D01*
X9276D02*
X9444D01*
X9644D02*
X9804D01*
X8915Y11946D02*
X9073D01*
X9276D02*
X9446D01*
X9649D02*
X9804D01*
X8915Y11943D02*
X9070D01*
X9274D02*
X9446D01*
X9649D02*
X9804D01*
X8915Y11941D02*
X9070D01*
X9274D02*
X9449D01*
X9652D02*
X9804D01*
X8915Y11938D02*
X9068D01*
X9274D02*
X9449D01*
X9655D02*
X9804D01*
X8915Y11935D02*
X9065D01*
X9271D02*
X9449D01*
X9655D02*
X9804D01*
X8915Y11933D02*
X9065D01*
X9271D02*
X9451D01*
X9657D02*
X9804D01*
X8915Y11930D02*
X9063D01*
X9268D02*
X9451D01*
X9660D02*
X9804D01*
X8915Y11928D02*
X9063D01*
X9266D02*
X9454D01*
X9660D02*
X9804D01*
X8915Y11925D02*
X9060D01*
X9268D02*
X9456D01*
X9662D02*
X9804D01*
X8915Y11923D02*
X9060D01*
X9266D02*
X9454D01*
X9662D02*
X9804D01*
X8915Y11920D02*
X9063D01*
X9266D02*
X9456D01*
X9660D02*
X9804D01*
X8915Y11918D02*
X9065D01*
X9263D02*
X9456D01*
X9657D02*
X9804D01*
X8915Y11915D02*
X9068D01*
X9263D02*
X9459D01*
X9655D02*
X9804D01*
X8915Y11913D02*
X9070D01*
X9261D02*
X9459D01*
X9652D02*
X9804D01*
X8915Y11910D02*
X9073D01*
X9261D02*
X9461D01*
X9649D02*
X9804D01*
X8915Y11908D02*
X9075D01*
X9261D02*
X9461D01*
X9647D02*
X9804D01*
X8915Y11905D02*
X9078D01*
X9210D02*
X9215D01*
X9258D02*
X9461D01*
X9507D02*
X9512D01*
X9644D02*
X9804D01*
X8915Y11902D02*
X9081D01*
X9205D02*
X9220D01*
X9258D02*
X9464D01*
X9502D02*
X9515D01*
X9642D02*
X9804D01*
X8915Y11900D02*
X9083D01*
X9202D02*
X9223D01*
X9256D02*
X9464D01*
X9497D02*
X9520D01*
X9639D02*
X9804D01*
X8915Y11897D02*
X9086D01*
X9197D02*
X9228D01*
X9256D02*
X9467D01*
X9492D02*
X9522D01*
X9637D02*
X9804D01*
X8915Y11895D02*
X9088D01*
X9195D02*
X9233D01*
X9256D02*
X9469D01*
X9487D02*
X9528D01*
X9634D02*
X9804D01*
X8915Y11892D02*
X9091D01*
X9190D02*
X9238D01*
X9253D02*
X9467D01*
X9484D02*
X9530D01*
X9632D02*
X9804D01*
X8915Y11890D02*
X9093D01*
X9187D02*
X9243D01*
X9253D02*
X9469D01*
X9479D02*
X9535D01*
X9629D02*
X9804D01*
X8915Y11887D02*
X9096D01*
X9185D02*
X9538D01*
X9627D02*
X9804D01*
X8915Y11885D02*
X9098D01*
X9180D02*
X9543D01*
X9624D02*
X9804D01*
X8915Y11882D02*
X9101D01*
X9177D02*
X9545D01*
X9622D02*
X9804D01*
X8915Y11880D02*
X9103D01*
X9172D02*
X9548D01*
X9619D02*
X9804D01*
X8915Y11877D02*
X9106D01*
X9169D02*
X9553D01*
X9616D02*
X9804D01*
X8915Y11875D02*
X9108D01*
X9164D02*
X9555D01*
X9614D02*
X9804D01*
X8915Y11872D02*
X9111D01*
X9162D02*
X9561D01*
X9611D02*
X9804D01*
X8915Y11869D02*
X9114D01*
X9157D02*
X9563D01*
X9609D02*
X9804D01*
X8915Y11867D02*
X9116D01*
X9154D02*
X9568D01*
X9606D02*
X9804D01*
X8915Y11864D02*
X9119D01*
X9149D02*
X9571D01*
X9604D02*
X9804D01*
X8915Y11862D02*
X9121D01*
X9147D02*
X9576D01*
X9601D02*
X9804D01*
X8915Y11859D02*
X9124D01*
X9141D02*
X9578D01*
X9599D02*
X9804D01*
X8915Y11857D02*
X9126D01*
X9139D02*
X9583D01*
X9596D02*
X9804D01*
X8915Y11854D02*
X9129D01*
X9134D02*
X9586D01*
X9591D02*
X9804D01*
X8915Y11852D02*
X9804D01*
X8915Y11849D02*
X9804D01*
X8915Y11847D02*
X9804D01*
X8915Y11844D02*
X9804D01*
X8915Y11841D02*
X9804D01*
X8915Y11839D02*
X9804D01*
X8915Y11836D02*
X9804D01*
X8915Y11834D02*
X9804D01*
X8915Y11831D02*
X9804D01*
X8915Y11829D02*
X9804D01*
X8915Y11826D02*
X9804D01*
X8915Y11824D02*
X9804D01*
X8915Y11821D02*
X9804D01*
X8915Y11819D02*
X9804D01*
X8915Y11816D02*
X9804D01*
X8915Y11814D02*
X9804D01*
X8915Y11811D02*
X9804D01*
X8915Y11808D02*
X9804D01*
X8915Y11806D02*
X9804D01*
X8915Y11803D02*
X9804D01*
X8915Y11801D02*
X9804D01*
X8915Y11798D02*
X9804D01*
X8915Y11796D02*
X9804D01*
X8915Y11793D02*
X9804D01*
X8915Y11791D02*
X9804D01*
X8915Y11788D02*
X9804D01*
X8915Y11786D02*
X9804D01*
X8915Y11783D02*
X9804D01*
X8915Y11781D02*
X9804D01*
X8915Y11778D02*
X9804D01*
X8915Y11775D02*
X9804D01*
X8915Y11773D02*
X9804D01*
X8915Y11770D02*
X9804D01*
X8915Y11768D02*
X9804D01*
X8915Y11765D02*
X9804D01*
X8915Y11763D02*
X9804D01*
X8915Y11760D02*
X9804D01*
X8915Y11758D02*
X9804D01*
X8915Y11755D02*
X9804D01*
X8915Y11753D02*
X9804D01*
X8915Y11750D02*
X9804D01*
X8915Y11747D02*
X9804D01*
X8915Y11745D02*
X9804D01*
X8915Y11742D02*
X9804D01*
X8915Y11740D02*
X9804D01*
D16*
X8854Y10263D02*
X8909D01*
X8854D02*
X8909D01*
X8599D02*
X8644D01*
X8599Y10523D02*
X8634D01*
X8884D02*
X8909D01*
X10456Y10125D02*
Y10231D01*
Y10482D02*
Y10575D01*
X10751Y10500D02*
X10811D01*
X10781Y10471D02*
Y10531D01*
X10521Y10500D02*
X10571D01*
X10846Y10125D02*
X10906Y10186D01*
X10456Y10125D02*
X10846D01*
Y10575D02*
X10906Y10515D01*
X10456Y10575D02*
X10846D01*
X14317Y11095D02*
X14867D01*
X14317Y11715D02*
X14867D01*
X14282Y11130D02*
Y11680D01*
X14902Y11130D02*
Y11680D01*
X14282Y11130D02*
X14317Y11095D01*
X14282Y11680D02*
X14317Y11715D01*
X14867Y11095D02*
X14902Y11130D01*
X14867Y11715D02*
X14902Y11680D01*
X14317Y11095D02*
Y11245D01*
X14367D01*
Y11095D02*
Y11245D01*
X9302Y10504D02*
X9363D01*
X9033D02*
X9093D01*
X9302Y10834D02*
X9363D01*
X9033D02*
X9093D01*
X9363Y10504D02*
Y10506D01*
Y10831D02*
Y10834D01*
X9033Y10504D02*
Y10506D01*
Y10831D02*
Y10834D01*
X9604Y10085D02*
Y10145D01*
Y10354D02*
Y10415D01*
X9934Y10085D02*
Y10145D01*
Y10354D02*
Y10415D01*
X9604Y10085D02*
X9607D01*
X9932D02*
X9934D01*
X9604Y10415D02*
X9607D01*
X9932D02*
X9934D01*
X11055Y13183D02*
X11086D01*
X10961D02*
X10992D01*
X14124Y14809D02*
X14156D01*
X14218D02*
X14249D01*
X14193Y14320D02*
X14193Y14280D01*
X14193Y14399D02*
X14193Y14440D01*
X11079Y12678D02*
Y12798D01*
X10889Y12478D02*
X10929D01*
X10739Y12678D02*
Y12798D01*
X10889Y12998D02*
X10929D01*
X14437Y10551D02*
X14637D01*
X14437Y10161D02*
X14637D01*
X14847Y10336D02*
Y10376D01*
X14227Y10336D02*
Y10376D01*
X8530Y9755D02*
X8960D01*
Y10185D01*
X8530D02*
X8960D01*
X8530Y9755D02*
Y10185D01*
X9158Y10066D02*
Y10119D01*
X9159Y9967D02*
Y10022D01*
X9111Y10066D02*
X9204D01*
X9158D02*
X9204D01*
X9117Y10022D02*
X9158Y10063D01*
Y10066D01*
X9202Y10022D01*
X9117D02*
X9202D01*
X9025Y9826D02*
Y10216D01*
X9295Y9826D02*
Y10216D01*
X15088Y13247D02*
X15141D01*
X15185Y13249D02*
X15240D01*
X15141Y13200D02*
Y13293D01*
Y13247D02*
Y13293D01*
X15144Y13247D02*
X15185Y13206D01*
X15141Y13247D02*
X15144D01*
X15141D02*
X15185Y13291D01*
Y13206D02*
Y13291D01*
X14991Y13114D02*
X15381D01*
X14991Y13384D02*
X15381D01*
X15109Y12393D02*
X15162D01*
X15206Y12394D02*
X15261D01*
X15162Y12346D02*
Y12439D01*
Y12393D02*
Y12439D01*
X15165Y12393D02*
X15206Y12352D01*
X15162Y12393D02*
X15165D01*
X15162D02*
X15206Y12437D01*
Y12352D02*
Y12437D01*
X15012Y12260D02*
X15402D01*
X15012Y12530D02*
X15402D01*
X11786Y10443D02*
X11806Y10443D01*
X11946Y10343D02*
X11946Y10318D01*
X12086Y10443D02*
X12106Y10443D01*
X11946Y10543D02*
X11946Y10568D01*
X14764Y12331D02*
Y12334D01*
Y12254D02*
Y12256D01*
X14755Y12311D02*
X14772Y12294D01*
X14755Y12277D02*
Y12311D01*
Y12277D02*
X14772Y12294D01*
X14779Y12272D02*
Y12316D01*
X14745Y12294D02*
X14755D01*
X14745D02*
X14779D01*
X10058Y9651D02*
Y9654D01*
Y9574D02*
Y9576D01*
X10049Y9631D02*
X10066Y9614D01*
X10049Y9597D02*
Y9631D01*
Y9597D02*
X10066Y9614D01*
X10073Y9592D02*
Y9636D01*
X10039Y9614D02*
X10049D01*
X10039D02*
X10073D01*
X14062Y14651D02*
X14201D01*
X14062Y14566D02*
Y14651D01*
Y14566D02*
X14201D01*
Y14651D01*
X10693Y10693D02*
Y10743D01*
Y10643D02*
Y10693D01*
X10643Y10743D02*
X10693Y10693D01*
X10643Y10643D02*
Y10743D01*
Y10643D02*
X10693Y10693D01*
X10593D02*
X10643D01*
X10500Y10608D02*
X10785D01*
X10500Y10778D02*
X10785D01*
X10275Y10845D02*
X10325D01*
X10375D01*
X10275Y10795D02*
X10325Y10845D01*
X10275Y10795D02*
X10375D01*
X10325Y10845D02*
X10375Y10795D01*
X10325Y10745D02*
Y10795D01*
X10410Y10653D02*
Y10938D01*
X10240Y10653D02*
Y10938D01*
X14131Y10433D02*
X14151D01*
X14071Y10433D02*
X14091D01*
X14908Y10399D02*
X14928D01*
X14968Y10399D02*
X14988D01*
X14616Y15801D02*
X14636D01*
X14676Y15801D02*
X14696D01*
X14874Y10701D02*
Y10721D01*
X14874Y10641D02*
Y10661D01*
X13198Y15044D02*
Y15064D01*
X13198Y14984D02*
Y15004D01*
X12430Y9400D02*
X12450D01*
X12490Y9400D02*
X12510D01*
X12300Y9400D02*
X12320D01*
X12360Y9400D02*
X12380D01*
X12141Y10120D02*
Y10140D01*
X12141Y10180D02*
Y10200D01*
X12177Y10452D02*
X12197D01*
X12237Y10452D02*
X12257D01*
X12300Y9670D02*
X12320D01*
X12360Y9670D02*
X12380D01*
X10361Y9690D02*
X10381D01*
X10421Y9690D02*
X10441D01*
X12974Y14478D02*
X12994D01*
X12914Y14478D02*
X12934D01*
X11514Y13884D02*
X11533D01*
X11454Y13884D02*
X11473D01*
X10599Y12847D02*
X10619D01*
X10659Y12847D02*
X10679D01*
X10960Y12390D02*
Y12410D01*
X10960Y12330D02*
Y12350D01*
X10463Y12930D02*
X10483D01*
X10523Y12930D02*
X10543D01*
X11044Y13462D02*
X11064D01*
X10984Y13462D02*
X11004D01*
X9040Y11012D02*
X9060D01*
X8980Y11012D02*
X9000D01*
X9294Y11014D02*
X9314D01*
X9234Y11014D02*
X9254D01*
X9167Y11012D02*
X9187D01*
X9107Y11012D02*
X9127D01*
X10043Y10199D02*
X10063D01*
X9984Y10199D02*
X10003D01*
X9554Y10565D02*
Y10585D01*
X9554Y10625D02*
Y10645D01*
X9535Y10059D02*
X9555D01*
X9476Y10059D02*
X9495D01*
X8659Y11012D02*
X8679D01*
X8599Y11012D02*
X8619D01*
X8913Y11014D02*
X8933D01*
X8853Y11014D02*
X8873D01*
X8786Y11012D02*
X8806D01*
X8726Y11012D02*
X8746D01*
X8853Y10745D02*
X8873D01*
X8913Y10745D02*
X8933D01*
X9475Y10326D02*
X9495D01*
X9535Y10326D02*
X9555D01*
X9348Y10326D02*
X9368D01*
X9408Y10326D02*
X9428D01*
X8659Y10745D02*
X8679D01*
X8599Y10745D02*
X8619D01*
X13677Y15077D02*
X13697D01*
X13737Y15077D02*
X13757D01*
X13549Y15085D02*
X13569D01*
X13609Y15085D02*
X13629D01*
X13907Y15238D02*
Y15258D01*
X13906Y15298D02*
Y15318D01*
X13804Y15075D02*
X13824D01*
X13864Y15075D02*
X13884D01*
X14122Y15084D02*
X14142D01*
X14062Y15084D02*
X14082D01*
X13907Y15425D02*
Y15445D01*
X13907Y15365D02*
Y15385D01*
X13907Y15552D02*
Y15572D01*
X13907Y15492D02*
Y15512D01*
X14384Y15088D02*
X14404D01*
X14324Y15088D02*
X14344D01*
X14428Y14692D02*
Y14712D01*
X14428Y14752D02*
Y14772D01*
X14350Y14336D02*
X14370D01*
X14410Y14336D02*
X14430D01*
X14192Y14206D02*
Y14226D01*
X14192Y14146D02*
Y14166D01*
X14428Y14819D02*
Y14839D01*
X14428Y14879D02*
Y14899D01*
X14248Y10719D02*
X14268D01*
X14308Y10719D02*
X14327D01*
X14374Y10719D02*
X14395D01*
X14435Y10719D02*
X14454D01*
X13990Y11229D02*
X14010D01*
X13930Y11229D02*
X13950D01*
X14971Y14142D02*
Y14162D01*
X14971Y14082D02*
Y14102D01*
X14629Y10732D02*
X14649D01*
X14689Y10732D02*
X14708D01*
X14874Y10828D02*
Y10848D01*
X14874Y10768D02*
Y10788D01*
X14632Y12096D02*
X14652D01*
X14692Y12096D02*
X14712D01*
X15062Y10987D02*
Y11007D01*
X15062Y11047D02*
Y11067D01*
X14872Y12187D02*
Y12207D01*
X14872Y12127D02*
Y12147D01*
X14872Y11987D02*
Y12007D01*
X14872Y12047D02*
Y12067D01*
X14549Y12179D02*
X14569D01*
X14489Y12179D02*
X14509D01*
X14422Y12179D02*
X14442D01*
X14362Y12179D02*
X14382D01*
X14295Y12179D02*
X14315D01*
X14235Y12179D02*
X14255D01*
X13580Y15820D02*
X13600D01*
X13520Y15820D02*
X13540D01*
X13520Y15550D02*
X13540D01*
X13580Y15550D02*
X13600D01*
X12647Y15276D02*
X12667D01*
X12707Y15276D02*
X12727D01*
X12834Y15276D02*
X12854D01*
X12774Y15276D02*
X12794D01*
X12393Y15278D02*
X12413D01*
X12453Y15278D02*
X12473D01*
X12139Y15278D02*
X12159D01*
X12199Y15278D02*
X12219D01*
X12326Y15278D02*
X12346D01*
X12266Y15278D02*
X12286D01*
X11885Y15278D02*
X11905D01*
X11945Y15278D02*
X11965D01*
X12072Y15278D02*
X12092D01*
X12012Y15278D02*
X12032D01*
X11631Y15278D02*
X11651D01*
X11691Y15278D02*
X11711D01*
X11818Y15278D02*
X11838D01*
X11758Y15278D02*
X11778D01*
X11377Y15278D02*
X11397D01*
X11437Y15278D02*
X11457D01*
X11564Y15278D02*
X11584D01*
X11504Y15278D02*
X11524D01*
X12999Y15227D02*
X13019D01*
X12939Y15227D02*
X12959D01*
X13422Y15230D02*
X13442D01*
X13482Y15230D02*
X13502D01*
X11036Y10713D02*
Y10733D01*
X11036Y10653D02*
Y10673D01*
X11036Y10828D02*
Y10848D01*
X11036Y10768D02*
Y10788D01*
X11087Y11272D02*
Y11292D01*
X11087Y11212D02*
Y11232D01*
X11034Y10942D02*
Y10962D01*
X11034Y10882D02*
Y10902D01*
X11488Y11173D02*
X11508D01*
X11428Y11173D02*
X11448D01*
X11875Y10844D02*
Y10864D01*
X11874Y10904D02*
Y10924D01*
X12230Y10628D02*
Y10648D01*
X12230Y10688D02*
Y10708D01*
X11671Y11089D02*
X11691D01*
X11731Y11089D02*
X11751D01*
X11100Y10120D02*
Y10140D01*
X11100Y10180D02*
Y10200D01*
X11354Y10180D02*
Y10200D01*
X11354Y10120D02*
Y10140D01*
X11610Y10120D02*
Y10140D01*
X11610Y10180D02*
Y10200D01*
X11864Y10180D02*
Y10200D01*
X11864Y10120D02*
Y10140D01*
X12230Y9670D02*
X12250D01*
X12170Y9670D02*
X12190D01*
X10566Y10879D02*
Y10899D01*
X10566Y10819D02*
Y10838D01*
X10361Y9957D02*
X10381D01*
X10421Y9957D02*
X10441D01*
X13041Y14491D02*
X13061D01*
X13101Y14491D02*
X13121D01*
X14070Y15456D02*
X14090D01*
X14130Y15456D02*
X14150D01*
X14770Y13524D02*
Y13544D01*
X14770Y13584D02*
Y13604D01*
X14770Y13663D02*
Y13683D01*
X14770Y13723D02*
Y13743D01*
X9554Y10879D02*
Y10899D01*
X9554Y10819D02*
Y10839D01*
X9879Y9883D02*
X9899D01*
X9939Y9883D02*
X9959D01*
X9719Y9977D02*
Y9997D01*
X9719Y9917D02*
Y9937D01*
X9554Y10692D02*
Y10712D01*
X9554Y10752D02*
Y10772D01*
X9717Y10669D02*
X9737D01*
X9777Y10669D02*
X9797D01*
X8726Y10745D02*
X8746D01*
X8786Y10745D02*
X8806D01*
X9147Y10362D02*
Y10382D01*
X9147Y10422D02*
Y10442D01*
X13198Y14857D02*
Y14877D01*
X13198Y14917D02*
Y14937D01*
X13221Y14730D02*
Y14750D01*
X13221Y14790D02*
Y14810D01*
X13285Y14603D02*
Y14623D01*
X13285Y14663D02*
Y14683D01*
X13285Y14400D02*
Y14420D01*
X13285Y14460D02*
Y14480D01*
X13285Y14273D02*
Y14293D01*
X13285Y14333D02*
Y14353D01*
X14253Y15089D02*
X14273D01*
X14193Y15089D02*
X14213D01*
X13931Y15075D02*
X13951D01*
X13991Y15075D02*
X14011D01*
X12170Y9400D02*
X12190D01*
X12230Y9400D02*
X12250D01*
X13979Y14209D02*
Y14239D01*
X14039Y14209D02*
Y14239D01*
X14753Y14491D02*
Y15631D01*
X15893Y14491D02*
Y15631D01*
X15073Y14498D02*
X15573D01*
X15073Y15623D02*
X15573D01*
X10975Y10505D02*
Y10580D01*
X11013D01*
X11025Y10568D01*
Y10543D01*
X11013Y10530D01*
X10975D01*
X11000D02*
X11025Y10505D01*
X11050Y10568D02*
X11063Y10580D01*
X11088D01*
X11100Y10568D01*
Y10555D01*
X11088Y10543D01*
X11075D01*
X11088D01*
X11100Y10530D01*
Y10518D01*
X11088Y10505D01*
X11063D01*
X11050Y10518D01*
X11175Y10505D02*
X11125D01*
X11175Y10555D01*
Y10568D01*
X11163Y10580D01*
X11138D01*
X11125Y10568D01*
X15304Y11899D02*
Y11824D01*
X15341D01*
X15353Y11836D01*
Y11849D01*
X15341Y11861D01*
X15304D01*
X15341D01*
X15353Y11874D01*
Y11886D01*
X15341Y11899D01*
X15304D01*
X15378D02*
Y11824D01*
X15428D01*
X15503Y11899D02*
X15453D01*
Y11824D01*
X15503D01*
X15453Y11861D02*
X15478D01*
X15240Y12141D02*
Y12216D01*
X15265Y12191D01*
X15290Y12216D01*
Y12141D01*
X15315D02*
X15340D01*
X15327D01*
Y12191D01*
X15315D01*
X15427D02*
X15390D01*
X15377Y12179D01*
Y12154D01*
X15390Y12141D01*
X15427D01*
X15452Y12191D02*
Y12141D01*
Y12166D01*
X15465Y12179D01*
X15477Y12191D01*
X15490D01*
X15540Y12141D02*
X15565D01*
X15577Y12154D01*
Y12179D01*
X15565Y12191D01*
X15540D01*
X15527Y12179D01*
Y12154D01*
X15540Y12141D01*
X15113Y8395D02*
X15038D01*
Y8432D01*
X15051Y8445D01*
X15076D01*
X15088Y8432D01*
Y8395D01*
X15038Y8520D02*
Y8470D01*
X15113D01*
Y8520D01*
X15076Y8470D02*
Y8495D01*
X15113Y8545D02*
Y8570D01*
Y8557D01*
X15038D01*
X15051Y8545D01*
X15113Y8645D02*
X15038D01*
X15076Y8607D01*
Y8657D01*
X14846Y8395D02*
X14771D01*
Y8432D01*
X14784Y8445D01*
X14809D01*
X14821Y8432D01*
Y8395D01*
X14771Y8520D02*
Y8470D01*
X14846D01*
Y8520D01*
X14809Y8470D02*
Y8495D01*
X14846Y8545D02*
Y8570D01*
Y8557D01*
X14771D01*
X14784Y8545D01*
Y8607D02*
X14771Y8620D01*
Y8645D01*
X14784Y8657D01*
X14796D01*
X14809Y8645D01*
Y8632D01*
Y8645D01*
X14821Y8657D01*
X14834D01*
X14846Y8645D01*
Y8620D01*
X14834Y8607D01*
X14605Y8382D02*
X14530D01*
Y8419D01*
X14543Y8432D01*
X14568D01*
X14580Y8419D01*
Y8382D01*
X14530Y8507D02*
Y8457D01*
X14605D01*
Y8507D01*
X14568Y8457D02*
Y8482D01*
X14605Y8532D02*
Y8557D01*
Y8544D01*
X14530D01*
X14543Y8532D01*
X14605Y8644D02*
Y8594D01*
X14555Y8644D01*
X14543D01*
X14530Y8632D01*
Y8607D01*
X14543Y8594D01*
X14338Y8395D02*
X14263D01*
Y8432D01*
X14276Y8445D01*
X14301D01*
X14313Y8432D01*
Y8395D01*
X14263Y8520D02*
Y8470D01*
X14338D01*
Y8520D01*
X14301Y8470D02*
Y8495D01*
X14338Y8545D02*
Y8570D01*
Y8557D01*
X14263D01*
X14276Y8545D01*
X14338Y8607D02*
Y8632D01*
Y8620D01*
X14263D01*
X14276Y8607D01*
X14084Y8382D02*
X14009D01*
Y8419D01*
X14022Y8432D01*
X14047D01*
X14059Y8419D01*
Y8382D01*
X14009Y8507D02*
Y8457D01*
X14084D01*
Y8507D01*
X14047Y8457D02*
Y8482D01*
X14084Y8532D02*
Y8557D01*
Y8544D01*
X14009D01*
X14022Y8532D01*
Y8594D02*
X14009Y8607D01*
Y8632D01*
X14022Y8644D01*
X14072D01*
X14084Y8632D01*
Y8607D01*
X14072Y8594D01*
X14022D01*
X13830Y8395D02*
X13755D01*
Y8432D01*
X13768Y8445D01*
X13793D01*
X13805Y8432D01*
Y8395D01*
X13755Y8520D02*
Y8470D01*
X13830D01*
Y8520D01*
X13793Y8470D02*
Y8495D01*
X13818Y8545D02*
X13830Y8557D01*
Y8582D01*
X13818Y8595D01*
X13768D01*
X13755Y8582D01*
Y8557D01*
X13768Y8545D01*
X13780D01*
X13793Y8557D01*
Y8595D01*
X13589Y8395D02*
X13514D01*
Y8432D01*
X13527Y8445D01*
X13552D01*
X13564Y8432D01*
Y8395D01*
X13514Y8520D02*
Y8470D01*
X13589D01*
Y8520D01*
X13552Y8470D02*
Y8495D01*
X13527Y8545D02*
X13514Y8557D01*
Y8582D01*
X13527Y8595D01*
X13539D01*
X13552Y8582D01*
X13564Y8595D01*
X13577D01*
X13589Y8582D01*
Y8557D01*
X13577Y8545D01*
X13564D01*
X13552Y8557D01*
X13539Y8545D01*
X13527D01*
X13552Y8557D02*
Y8582D01*
X13322Y8395D02*
X13247D01*
Y8432D01*
X13260Y8445D01*
X13285D01*
X13297Y8432D01*
Y8395D01*
X13247Y8520D02*
Y8470D01*
X13322D01*
Y8520D01*
X13285Y8470D02*
Y8495D01*
X13247Y8545D02*
Y8595D01*
X13260D01*
X13310Y8545D01*
X13322D01*
X13019Y8395D02*
X13006Y8407D01*
Y8432D01*
X13019Y8445D01*
X13031D01*
X13044Y8432D01*
Y8420D01*
Y8432D01*
X13056Y8445D01*
X13069D01*
X13081Y8432D01*
Y8407D01*
X13069Y8395D01*
X13081Y8470D02*
X13069D01*
Y8482D01*
X13081D01*
Y8470D01*
X13019Y8532D02*
X13006Y8545D01*
Y8570D01*
X13019Y8582D01*
X13031D01*
X13044Y8570D01*
Y8557D01*
Y8570D01*
X13056Y8582D01*
X13069D01*
X13081Y8570D01*
Y8545D01*
X13069Y8532D01*
X13031Y8607D02*
X13081Y8632D01*
X13031Y8657D01*
X12765Y8432D02*
X12752Y8419D01*
Y8394D01*
X12765Y8382D01*
X12815D01*
X12827Y8394D01*
Y8419D01*
X12815Y8432D01*
X12790D01*
Y8407D01*
X12827Y8457D02*
X12752D01*
X12827Y8507D01*
X12752D01*
Y8532D02*
X12827D01*
Y8569D01*
X12815Y8582D01*
X12765D01*
X12752Y8569D01*
Y8532D01*
X15303Y9829D02*
X15253D01*
Y9791D01*
X15278Y9804D01*
X15290D01*
X15303Y9791D01*
Y9766D01*
X15290Y9754D01*
X15265D01*
X15253Y9766D01*
X15328Y9804D02*
X15353Y9754D01*
X15378Y9804D01*
X15126Y10083D02*
X15138Y10095D01*
X15163D01*
X15176Y10083D01*
Y10070D01*
X15163Y10058D01*
X15151D01*
X15163D01*
X15176Y10045D01*
Y10033D01*
X15163Y10020D01*
X15138D01*
X15126Y10033D01*
X15201Y10020D02*
Y10033D01*
X15213D01*
Y10020D01*
X15201D01*
X15263Y10083D02*
X15276Y10095D01*
X15301D01*
X15313Y10083D01*
Y10070D01*
X15301Y10058D01*
X15288D01*
X15301D01*
X15313Y10045D01*
Y10033D01*
X15301Y10020D01*
X15276D01*
X15263Y10033D01*
X15338Y10070D02*
X15363Y10020D01*
X15388Y10070D01*
X15239Y10337D02*
X15227Y10349D01*
X15202D01*
X15189Y10337D01*
Y10287D01*
X15202Y10274D01*
X15227D01*
X15239Y10287D01*
Y10312D01*
X15214D01*
X15264Y10274D02*
Y10349D01*
X15314Y10274D01*
Y10349D01*
X15339D02*
Y10274D01*
X15377D01*
X15389Y10287D01*
Y10337D01*
X15377Y10349D01*
X15339D01*
X15112Y10591D02*
X15100Y10603D01*
X15075D01*
X15062Y10591D01*
Y10578D01*
X15075Y10566D01*
X15100D01*
X15112Y10553D01*
Y10541D01*
X15100Y10528D01*
X15075D01*
X15062Y10541D01*
X15137Y10603D02*
Y10528D01*
X15162Y10553D01*
X15187Y10528D01*
Y10603D01*
X15212D02*
Y10528D01*
X15250D01*
X15262Y10541D01*
Y10591D01*
X15250Y10603D01*
X15212D01*
X15287D02*
X15312D01*
X15300D01*
Y10528D01*
X15287D01*
X15312D01*
X15387Y10603D02*
X15362D01*
X15350Y10591D01*
Y10541D01*
X15362Y10528D01*
X15387D01*
X15400Y10541D01*
Y10591D01*
X15387Y10603D01*
X15099Y10845D02*
X15087Y10857D01*
X15062D01*
X15049Y10845D01*
Y10832D01*
X15062Y10820D01*
X15087D01*
X15099Y10807D01*
Y10795D01*
X15087Y10782D01*
X15062D01*
X15049Y10795D01*
X15124Y10857D02*
Y10782D01*
X15149Y10807D01*
X15174Y10782D01*
Y10857D01*
X15249Y10845D02*
X15237Y10857D01*
X15212D01*
X15199Y10845D01*
Y10795D01*
X15212Y10782D01*
X15237D01*
X15249Y10795D01*
X15274Y10857D02*
Y10782D01*
X15324D01*
X15349Y10857D02*
Y10782D01*
Y10807D01*
X15399Y10857D01*
X15362Y10820D01*
X15399Y10782D01*
X15215Y11036D02*
Y11111D01*
X15252D01*
X15265Y11099D01*
Y11074D01*
X15252Y11061D01*
X15215D01*
X15240D02*
X15265Y11036D01*
X15290D02*
X15327D01*
X15340Y11049D01*
X15327Y11061D01*
X15302D01*
X15290Y11074D01*
X15302Y11086D01*
X15340D01*
X15377Y11099D02*
Y11086D01*
X15365D01*
X15390D01*
X15377D01*
Y11049D01*
X15390Y11036D01*
X15533Y11252D02*
X15608D01*
Y11290D01*
X15596Y11302D01*
X15583D01*
X15571Y11290D01*
Y11252D01*
Y11290D01*
X15558Y11302D01*
X15546D01*
X15533Y11290D01*
Y11252D01*
Y11327D02*
X15608D01*
Y11377D01*
X15533Y11452D02*
Y11402D01*
X15608D01*
Y11452D01*
X15571Y11402D02*
Y11427D01*
X15862Y11252D02*
X15787D01*
X15812Y11277D01*
X15787Y11302D01*
X15862D01*
Y11327D02*
Y11352D01*
Y11340D01*
X15812D01*
Y11327D01*
Y11440D02*
Y11402D01*
X15825Y11390D01*
X15850D01*
X15862Y11402D01*
Y11440D01*
X15812Y11465D02*
X15862D01*
X15837D01*
X15825Y11477D01*
X15812Y11490D01*
Y11502D01*
X15862Y11552D02*
Y11577D01*
X15850Y11590D01*
X15825D01*
X15812Y11577D01*
Y11552D01*
X15825Y11540D01*
X15850D01*
X15862Y11552D01*
X10060Y14105D02*
X10047Y14117D01*
X10022D01*
X10010Y14105D01*
Y14092D01*
X10022Y14080D01*
X10047D01*
X10060Y14067D01*
Y14055D01*
X10047Y14042D01*
X10022D01*
X10010Y14055D01*
X10085Y14117D02*
Y14042D01*
X10122D01*
X10135Y14055D01*
Y14105D01*
X10122Y14117D01*
X10085D01*
X10160Y14042D02*
Y14092D01*
X10185Y14117D01*
X10210Y14092D01*
Y14042D01*
Y14080D01*
X10160D01*
X8551Y15058D02*
Y15133D01*
X8589D01*
X8601Y15121D01*
Y15096D01*
X8589Y15083D01*
X8551D01*
X8576D02*
X8601Y15058D01*
X8676Y15121D02*
X8664Y15133D01*
X8639D01*
X8626Y15121D01*
Y15108D01*
X8639Y15096D01*
X8664D01*
X8676Y15083D01*
Y15071D01*
X8664Y15058D01*
X8639D01*
X8626Y15071D01*
X8701Y15133D02*
X8751D01*
X8726D01*
Y15058D01*
X8601Y14867D02*
X8589Y14879D01*
X8564D01*
X8551Y14867D01*
Y14817D01*
X8564Y14804D01*
X8589D01*
X8601Y14817D01*
X8676Y14867D02*
X8664Y14879D01*
X8639D01*
X8626Y14867D01*
Y14854D01*
X8639Y14842D01*
X8664D01*
X8676Y14829D01*
Y14817D01*
X8664Y14804D01*
X8639D01*
X8626Y14817D01*
X8551Y14296D02*
Y14371D01*
X8576Y14346D01*
X8601Y14371D01*
Y14296D01*
X8626Y14371D02*
X8651D01*
X8639D01*
Y14296D01*
X8626D01*
X8651D01*
X8739Y14359D02*
X8726Y14371D01*
X8701D01*
X8689Y14359D01*
Y14346D01*
X8701Y14334D01*
X8726D01*
X8739Y14321D01*
Y14309D01*
X8726Y14296D01*
X8701D01*
X8689Y14309D01*
X8801Y14371D02*
X8776D01*
X8764Y14359D01*
Y14309D01*
X8776Y14296D01*
X8801D01*
X8814Y14309D01*
Y14359D01*
X8801Y14371D01*
X8601Y14613D02*
X8589Y14625D01*
X8564D01*
X8551Y14613D01*
Y14600D01*
X8564Y14588D01*
X8589D01*
X8601Y14575D01*
Y14563D01*
X8589Y14550D01*
X8564D01*
X8551Y14563D01*
X8676Y14613D02*
X8664Y14625D01*
X8639D01*
X8626Y14613D01*
Y14563D01*
X8639Y14550D01*
X8664D01*
X8676Y14563D01*
X8701Y14625D02*
Y14550D01*
Y14575D01*
X8751Y14625D01*
X8714Y14588D01*
X8751Y14550D01*
X8551Y14042D02*
Y14117D01*
X8576Y14092D01*
X8601Y14117D01*
Y14042D01*
X8664Y14117D02*
X8639D01*
X8626Y14105D01*
Y14055D01*
X8639Y14042D01*
X8664D01*
X8676Y14055D01*
Y14105D01*
X8664Y14117D01*
X8751Y14105D02*
X8739Y14117D01*
X8714D01*
X8701Y14105D01*
Y14092D01*
X8714Y14080D01*
X8739D01*
X8751Y14067D01*
Y14055D01*
X8739Y14042D01*
X8714D01*
X8701Y14055D01*
X8776Y14117D02*
X8801D01*
X8789D01*
Y14042D01*
X8776D01*
X8801D01*
X8551Y13826D02*
X8601D01*
X8576Y13851D02*
Y13801D01*
X8626Y13851D02*
X8639Y13863D01*
X8664D01*
X8676Y13851D01*
Y13838D01*
X8664Y13826D01*
X8651D01*
X8664D01*
X8676Y13813D01*
Y13801D01*
X8664Y13788D01*
X8639D01*
X8626Y13801D01*
X8701Y13788D02*
Y13801D01*
X8714D01*
Y13788D01*
X8701D01*
X8764Y13851D02*
X8776Y13863D01*
X8801D01*
X8814Y13851D01*
Y13838D01*
X8801Y13826D01*
X8789D01*
X8801D01*
X8814Y13813D01*
Y13801D01*
X8801Y13788D01*
X8776D01*
X8764Y13801D01*
X8839Y13863D02*
Y13813D01*
X8864Y13788D01*
X8889Y13813D01*
Y13863D01*
X8601Y13597D02*
X8589Y13609D01*
X8564D01*
X8551Y13597D01*
Y13547D01*
X8564Y13534D01*
X8589D01*
X8601Y13547D01*
Y13572D01*
X8576D01*
X8626Y13534D02*
Y13609D01*
X8676Y13534D01*
Y13609D01*
X8701D02*
Y13534D01*
X8739D01*
X8751Y13547D01*
Y13597D01*
X8739Y13609D01*
X8701D01*
X10083Y14359D02*
X10071Y14371D01*
X10046D01*
X10033Y14359D01*
Y14346D01*
X10046Y14334D01*
X10071D01*
X10083Y14321D01*
Y14309D01*
X10071Y14296D01*
X10046D01*
X10033Y14309D01*
X10158Y14359D02*
X10146Y14371D01*
X10121D01*
X10108Y14359D01*
Y14309D01*
X10121Y14296D01*
X10146D01*
X10158Y14309D01*
X10183Y14371D02*
Y14296D01*
X10233D01*
X10092Y15133D02*
X10117D01*
X10104D01*
Y15058D01*
X10092D01*
X10117D01*
X10154D02*
Y15133D01*
X10204Y15058D01*
Y15133D01*
X10229D02*
X10279D01*
X10254D01*
Y15058D01*
X10123Y14804D02*
Y14879D01*
X10160D01*
X10173Y14867D01*
Y14842D01*
X10160Y14829D01*
X10123D01*
X10148D02*
X10173Y14804D01*
X10198Y14879D02*
X10248Y14804D01*
Y14879D02*
X10198Y14804D01*
X10131Y14625D02*
X10181D01*
X10156D01*
Y14550D01*
X10206Y14625D02*
X10256Y14550D01*
Y14625D02*
X10206Y14550D01*
X10044Y13597D02*
X10031Y13609D01*
X10006D01*
X9994Y13597D01*
Y13547D01*
X10006Y13534D01*
X10031D01*
X10044Y13547D01*
Y13572D01*
X10019D01*
X10069Y13534D02*
Y13609D01*
X10119Y13534D01*
Y13609D01*
X10144D02*
Y13534D01*
X10181D01*
X10194Y13547D01*
Y13597D01*
X10181Y13609D01*
X10144D01*
X10052Y13826D02*
X10102D01*
X10077Y13851D02*
Y13801D01*
X10177Y13863D02*
X10127D01*
Y13826D01*
X10152Y13838D01*
X10165D01*
X10177Y13826D01*
Y13801D01*
X10165Y13788D01*
X10140D01*
X10127Y13801D01*
X10202Y13863D02*
Y13813D01*
X10227Y13788D01*
X10252Y13813D01*
Y13863D01*
X8551Y15312D02*
Y15362D01*
X8576Y15387D01*
X8601Y15362D01*
Y15312D01*
Y15350D01*
X8551D01*
X8626Y15312D02*
Y15387D01*
X8676Y15312D01*
Y15387D01*
X9965Y15312D02*
Y15387D01*
X10003D01*
X10015Y15375D01*
Y15350D01*
X10003Y15337D01*
X9965D01*
X10040Y15387D02*
Y15312D01*
X10065Y15337D01*
X10090Y15312D01*
Y15387D01*
X10115Y15312D02*
Y15387D01*
X10140Y15362D01*
X10165Y15387D01*
Y15312D01*
X9483Y15758D02*
Y15808D01*
X9496D01*
X9508Y15796D01*
Y15758D01*
Y15796D01*
X9521Y15808D01*
X9533Y15796D01*
Y15758D01*
X9558D02*
X9583D01*
X9571D01*
Y15808D01*
X9558D01*
X9621Y15758D02*
Y15833D01*
Y15783D02*
X9658Y15808D01*
X9621Y15783D02*
X9658Y15758D01*
X9696Y15808D02*
Y15758D01*
Y15783D01*
X9708Y15796D01*
X9721Y15808D01*
X9733D01*
X9783Y15758D02*
X9808D01*
X9821Y15771D01*
Y15796D01*
X9808Y15808D01*
X9783D01*
X9771Y15796D01*
Y15771D01*
X9783Y15758D01*
X9483Y15599D02*
Y15524D01*
X9521D01*
X9533Y15537D01*
Y15549D01*
X9521Y15562D01*
X9483D01*
X9521D01*
X9533Y15574D01*
Y15587D01*
X9521Y15599D01*
X9483D01*
X9558D02*
Y15537D01*
X9571Y15524D01*
X9596D01*
X9608Y15537D01*
Y15599D01*
X9683Y15587D02*
X9671Y15599D01*
X9646D01*
X9633Y15587D01*
Y15574D01*
X9646Y15562D01*
X9671D01*
X9683Y15549D01*
Y15537D01*
X9671Y15524D01*
X9646D01*
X9633Y15537D01*
X9326Y13471D02*
X9351D01*
X9338D01*
Y13546D01*
X9326Y13533D01*
X15303Y8152D02*
X15278D01*
X15290D01*
Y8090D01*
X15278Y8077D01*
X15265D01*
X15253Y8090D01*
X15328Y8152D02*
X15378D01*
Y8140D01*
X15328Y8090D01*
Y8077D01*
X15506Y9613D02*
X15481D01*
X15493D01*
Y9550D01*
X15481Y9538D01*
X15468D01*
X15456Y9550D01*
X15581Y9613D02*
X15556Y9600D01*
X15531Y9575D01*
Y9550D01*
X15543Y9538D01*
X15568D01*
X15581Y9550D01*
Y9563D01*
X15568Y9575D01*
X15531D01*
X8170Y13217D02*
Y13292D01*
X8195Y13267D01*
X8220Y13292D01*
Y13217D01*
X8245Y13292D02*
X8270D01*
X8258D01*
Y13217D01*
X8245D01*
X8270D01*
X8308Y13292D02*
Y13217D01*
Y13242D01*
X8358Y13292D01*
X8320Y13254D01*
X8358Y13217D01*
X8383D02*
Y13292D01*
X8420D01*
X8433Y13279D01*
Y13254D01*
X8420Y13242D01*
X8383D01*
X8408D02*
X8433Y13217D01*
X8495Y13292D02*
X8470D01*
X8458Y13279D01*
Y13229D01*
X8470Y13217D01*
X8495D01*
X8508Y13229D01*
Y13279D01*
X8495Y13292D01*
X8533D02*
Y13217D01*
X8570D01*
X8583Y13229D01*
Y13242D01*
X8570Y13254D01*
X8533D01*
X8570D01*
X8583Y13267D01*
Y13279D01*
X8570Y13292D01*
X8533D01*
X8608D02*
Y13229D01*
X8620Y13217D01*
X8645D01*
X8657Y13229D01*
Y13292D01*
X8732Y13279D02*
X8720Y13292D01*
X8695D01*
X8682Y13279D01*
Y13267D01*
X8695Y13254D01*
X8720D01*
X8732Y13242D01*
Y13229D01*
X8720Y13217D01*
X8695D01*
X8682Y13229D01*
X8832Y13217D02*
X8857D01*
X8845D01*
Y13292D01*
X8832Y13279D01*
X12865Y12216D02*
Y12154D01*
X12878Y12141D01*
X12903D01*
X12915Y12154D01*
Y12216D01*
X12940Y12141D02*
X12965D01*
X12953D01*
Y12216D01*
X12940Y12204D01*
X13053Y12141D02*
X13003D01*
X13053Y12191D01*
Y12204D01*
X13040Y12216D01*
X13015D01*
X13003Y12204D01*
X12338Y9032D02*
X12263D01*
Y9069D01*
X12276Y9082D01*
X12301D01*
X12313Y9069D01*
Y9032D01*
Y9057D02*
X12338Y9082D01*
Y9144D02*
X12263D01*
X12301Y9107D01*
Y9157D01*
X12263Y9232D02*
Y9182D01*
X12301D01*
X12288Y9207D01*
Y9219D01*
X12301Y9232D01*
X12326D01*
X12338Y9219D01*
Y9194D01*
X12326Y9182D01*
X14056Y15308D02*
Y15233D01*
X14106D01*
X14181D02*
X14131D01*
X14181Y15283D01*
Y15295D01*
X14168Y15308D01*
X14143D01*
X14131Y15295D01*
X14604Y10033D02*
Y10083D01*
X14592Y10095D01*
X14567D01*
X14554Y10083D01*
Y10033D01*
X14567Y10020D01*
X14592D01*
X14579Y10045D02*
X14604Y10020D01*
X14592D02*
X14604Y10033D01*
X14629Y10020D02*
X14654D01*
X14642D01*
Y10095D01*
X14629Y10083D01*
X13348Y15086D02*
X13398Y15011D01*
Y15086D02*
X13348Y15011D01*
X13423D02*
X13448D01*
X13435D01*
Y15086D01*
X13423Y15074D01*
X14262Y14642D02*
Y14579D01*
X14275Y14567D01*
X14300D01*
X14312Y14579D01*
Y14642D01*
X14337Y14567D02*
X14362D01*
X14350D01*
Y14642D01*
X14337Y14629D01*
X14400Y14567D02*
X14425D01*
X14412D01*
Y14642D01*
X14400Y14629D01*
X13678Y14261D02*
Y14198D01*
X13690Y14186D01*
X13715D01*
X13728Y14198D01*
Y14261D01*
X13753Y14186D02*
X13778D01*
X13765D01*
Y14261D01*
X13753Y14248D01*
X13815D02*
X13828Y14261D01*
X13853D01*
X13865Y14248D01*
Y14198D01*
X13853Y14186D01*
X13828D01*
X13815Y14198D01*
Y14248D01*
X8459Y10262D02*
X8522D01*
X8534Y10274D01*
Y10299D01*
X8522Y10312D01*
X8459D01*
X8522Y10337D02*
X8534Y10349D01*
Y10374D01*
X8522Y10387D01*
X8472D01*
X8459Y10374D01*
Y10349D01*
X8472Y10337D01*
X8484D01*
X8497Y10349D01*
Y10387D01*
X9982Y10425D02*
Y10363D01*
X9995Y10350D01*
X10020D01*
X10032Y10363D01*
Y10425D01*
X10057Y10413D02*
X10070Y10425D01*
X10095D01*
X10107Y10413D01*
Y10400D01*
X10095Y10388D01*
X10107Y10375D01*
Y10363D01*
X10095Y10350D01*
X10070D01*
X10057Y10363D01*
Y10375D01*
X10070Y10388D01*
X10057Y10400D01*
Y10413D01*
X10070Y10388D02*
X10095D01*
X9385Y11149D02*
Y11087D01*
X9398Y11074D01*
X9423D01*
X9435Y11087D01*
Y11149D01*
X9460D02*
X9510D01*
Y11137D01*
X9460Y11087D01*
Y11074D01*
X15100Y13918D02*
Y13855D01*
X15113Y13843D01*
X15138D01*
X15150Y13855D01*
Y13918D01*
X15225D02*
X15200Y13905D01*
X15175Y13880D01*
Y13855D01*
X15188Y13843D01*
X15213D01*
X15225Y13855D01*
Y13868D01*
X15213Y13880D01*
X15175D01*
X11227Y11060D02*
Y10998D01*
X11239Y10986D01*
X11264D01*
X11277Y10998D01*
Y11060D01*
X11339Y10986D02*
Y11060D01*
X11302Y11023D01*
X11352D01*
X15138Y13067D02*
Y13005D01*
X15151Y12992D01*
X15176D01*
X15188Y13005D01*
Y13067D01*
X15213Y13055D02*
X15226Y13067D01*
X15251D01*
X15263Y13055D01*
Y13042D01*
X15251Y13030D01*
X15238D01*
X15251D01*
X15263Y13017D01*
Y13005D01*
X15251Y12992D01*
X15226D01*
X15213Y13005D01*
X14097Y11848D02*
Y11785D01*
X14109Y11773D01*
X14134D01*
X14147Y11785D01*
Y11848D01*
X14222Y11773D02*
X14172D01*
X14222Y11823D01*
Y11835D01*
X14209Y11848D01*
X14184D01*
X14172Y11835D01*
X15671Y11734D02*
X15658Y11746D01*
X15633D01*
X15621Y11734D01*
Y11721D01*
X15633Y11709D01*
X15658D01*
X15671Y11696D01*
Y11684D01*
X15658Y11671D01*
X15633D01*
X15621Y11684D01*
X15696Y11671D02*
X15721D01*
X15708D01*
Y11746D01*
X15696Y11734D01*
X13195Y14148D02*
Y14223D01*
X13233D01*
X13245Y14210D01*
Y14185D01*
X13233Y14173D01*
X13195D01*
X13220D02*
X13245Y14148D01*
X13320Y14223D02*
X13295Y14210D01*
X13270Y14185D01*
Y14160D01*
X13283Y14148D01*
X13308D01*
X13320Y14160D01*
Y14173D01*
X13308Y14185D01*
X13270D01*
X13395Y14223D02*
X13345D01*
Y14185D01*
X13370Y14198D01*
X13383D01*
X13395Y14185D01*
Y14160D01*
X13383Y14148D01*
X13358D01*
X13345Y14160D01*
X13449Y14288D02*
X13524D01*
Y14250D01*
X13512Y14238D01*
X13487D01*
X13474Y14250D01*
Y14288D01*
Y14263D02*
X13449Y14238D01*
X13524Y14163D02*
X13512Y14188D01*
X13487Y14213D01*
X13462D01*
X13449Y14200D01*
Y14175D01*
X13462Y14163D01*
X13474D01*
X13487Y14175D01*
Y14213D01*
X13449Y14100D02*
X13524D01*
X13487Y14138D01*
Y14088D01*
X12790Y14630D02*
Y14705D01*
X12827D01*
X12840Y14692D01*
Y14667D01*
X12827Y14655D01*
X12790D01*
X12815D02*
X12840Y14630D01*
X12915Y14705D02*
X12890Y14692D01*
X12865Y14667D01*
Y14642D01*
X12877Y14630D01*
X12902D01*
X12915Y14642D01*
Y14655D01*
X12902Y14667D01*
X12865D01*
X12940Y14692D02*
X12952Y14705D01*
X12977D01*
X12990Y14692D01*
Y14680D01*
X12977Y14667D01*
X12965D01*
X12977D01*
X12990Y14655D01*
Y14642D01*
X12977Y14630D01*
X12952D01*
X12940Y14642D01*
X12865Y14745D02*
Y14820D01*
X12903D01*
X12915Y14807D01*
Y14782D01*
X12903Y14770D01*
X12865D01*
X12890D02*
X12915Y14745D01*
X12990Y14820D02*
X12965Y14807D01*
X12940Y14782D01*
Y14757D01*
X12953Y14745D01*
X12978D01*
X12990Y14757D01*
Y14770D01*
X12978Y14782D01*
X12940D01*
X13065Y14745D02*
X13015D01*
X13065Y14795D01*
Y14807D01*
X13053Y14820D01*
X13028D01*
X13015Y14807D01*
X12865Y14859D02*
Y14934D01*
X12903D01*
X12915Y14921D01*
Y14896D01*
X12903Y14884D01*
X12865D01*
X12890D02*
X12915Y14859D01*
X12990Y14934D02*
X12965Y14921D01*
X12940Y14896D01*
Y14871D01*
X12953Y14859D01*
X12978D01*
X12990Y14871D01*
Y14884D01*
X12978Y14896D01*
X12940D01*
X13015Y14859D02*
X13040D01*
X13028D01*
Y14934D01*
X13015Y14921D01*
X8306Y10668D02*
X8231D01*
Y10705D01*
X8243Y10718D01*
X8268D01*
X8281Y10705D01*
Y10668D01*
Y10693D02*
X8306Y10718D01*
X8231Y10793D02*
Y10743D01*
X8268D01*
X8256Y10768D01*
Y10780D01*
X8268Y10793D01*
X8293D01*
X8306Y10780D01*
Y10755D01*
X8293Y10743D01*
Y10818D02*
X8306Y10830D01*
Y10855D01*
X8293Y10868D01*
X8243D01*
X8231Y10855D01*
Y10830D01*
X8243Y10818D01*
X8256D01*
X8268Y10830D01*
Y10868D01*
X9919Y10566D02*
X9844D01*
Y10604D01*
X9856Y10616D01*
X9881D01*
X9894Y10604D01*
Y10566D01*
Y10591D02*
X9919Y10616D01*
X9844Y10691D02*
Y10641D01*
X9881D01*
X9869Y10666D01*
Y10679D01*
X9881Y10691D01*
X9906D01*
X9919Y10679D01*
Y10654D01*
X9906Y10641D01*
X9856Y10716D02*
X9844Y10729D01*
Y10754D01*
X9856Y10766D01*
X9869D01*
X9881Y10754D01*
X9894Y10766D01*
X9906D01*
X9919Y10754D01*
Y10729D01*
X9906Y10716D01*
X9894D01*
X9881Y10729D01*
X9869Y10716D01*
X9856D01*
X9881Y10729D02*
Y10754D01*
X9627Y9792D02*
Y9867D01*
X9664D01*
X9677Y9854D01*
Y9829D01*
X9664Y9817D01*
X9627D01*
X9652D02*
X9677Y9792D01*
X9752Y9867D02*
X9702D01*
Y9829D01*
X9727Y9842D01*
X9739D01*
X9752Y9829D01*
Y9804D01*
X9739Y9792D01*
X9714D01*
X9702Y9804D01*
X9827Y9867D02*
X9802Y9854D01*
X9777Y9829D01*
Y9804D01*
X9789Y9792D01*
X9814D01*
X9827Y9804D01*
Y9817D01*
X9814Y9829D01*
X9777D01*
X10008Y9804D02*
Y9879D01*
X10045D01*
X10058Y9867D01*
Y9842D01*
X10045Y9829D01*
X10008D01*
X10033D02*
X10058Y9804D01*
X10133Y9879D02*
X10083D01*
Y9842D01*
X10108Y9854D01*
X10120D01*
X10133Y9842D01*
Y9817D01*
X10120Y9804D01*
X10095D01*
X10083Y9817D01*
X10208Y9879D02*
X10158D01*
Y9842D01*
X10183Y9854D01*
X10195D01*
X10208Y9842D01*
Y9817D01*
X10195Y9804D01*
X10170D01*
X10158Y9817D01*
X9449Y10947D02*
Y11022D01*
X9486D01*
X9499Y11010D01*
Y10985D01*
X9486Y10972D01*
X9449D01*
X9474D02*
X9499Y10947D01*
X9574Y11022D02*
X9524D01*
Y10985D01*
X9549Y10997D01*
X9561D01*
X9574Y10985D01*
Y10960D01*
X9561Y10947D01*
X9536D01*
X9524Y10960D01*
X9636Y10947D02*
Y11022D01*
X9599Y10985D01*
X9649D01*
X14681Y13792D02*
Y13867D01*
X14719D01*
X14731Y13855D01*
Y13830D01*
X14719Y13817D01*
X14681D01*
X14706D02*
X14731Y13792D01*
X14806Y13867D02*
X14756D01*
Y13830D01*
X14781Y13842D01*
X14794D01*
X14806Y13830D01*
Y13805D01*
X14794Y13792D01*
X14769D01*
X14756Y13805D01*
X14831Y13855D02*
X14844Y13867D01*
X14869D01*
X14881Y13855D01*
Y13842D01*
X14869Y13830D01*
X14856D01*
X14869D01*
X14881Y13817D01*
Y13805D01*
X14869Y13792D01*
X14844D01*
X14831Y13805D01*
X14681Y13399D02*
Y13473D01*
X14719D01*
X14731Y13461D01*
Y13436D01*
X14719Y13423D01*
X14681D01*
X14706D02*
X14731Y13399D01*
X14806Y13473D02*
X14756D01*
Y13436D01*
X14781Y13448D01*
X14794D01*
X14806Y13436D01*
Y13411D01*
X14794Y13399D01*
X14769D01*
X14756Y13411D01*
X14881Y13399D02*
X14831D01*
X14881Y13448D01*
Y13461D01*
X14869Y13473D01*
X14844D01*
X14831Y13461D01*
X14275Y15367D02*
X14200D01*
Y15404D01*
X14212Y15417D01*
X14237D01*
X14250Y15404D01*
Y15367D01*
Y15392D02*
X14275Y15417D01*
X14200Y15492D02*
Y15442D01*
X14237D01*
X14225Y15467D01*
Y15479D01*
X14237Y15492D01*
X14262D01*
X14275Y15479D01*
Y15454D01*
X14262Y15442D01*
X14212Y15517D02*
X14200Y15529D01*
Y15554D01*
X14212Y15567D01*
X14262D01*
X14275Y15554D01*
Y15529D01*
X14262Y15517D01*
X14212D01*
X13119Y14122D02*
X13044D01*
Y14160D01*
X13057Y14172D01*
X13082D01*
X13094Y14160D01*
Y14122D01*
Y14147D02*
X13119Y14172D01*
Y14235D02*
X13044D01*
X13082Y14197D01*
Y14247D01*
X13107Y14272D02*
X13119Y14285D01*
Y14310D01*
X13107Y14322D01*
X13057D01*
X13044Y14310D01*
Y14285D01*
X13057Y14272D01*
X13069D01*
X13082Y14285D01*
Y14322D01*
X10325Y9855D02*
X10250D01*
Y9893D01*
X10263Y9905D01*
X10288D01*
X10300Y9893D01*
Y9855D01*
Y9880D02*
X10325Y9905D01*
Y9968D02*
X10250D01*
X10288Y9930D01*
Y9980D01*
X10263Y10005D02*
X10250Y10018D01*
Y10043D01*
X10263Y10055D01*
X10275D01*
X10288Y10043D01*
X10300Y10055D01*
X10313D01*
X10325Y10043D01*
Y10018D01*
X10313Y10005D01*
X10300D01*
X10288Y10018D01*
X10275Y10005D01*
X10263D01*
X10288Y10018D02*
Y10043D01*
X10516Y10947D02*
Y11022D01*
X10553D01*
X10566Y11010D01*
Y10985D01*
X10553Y10972D01*
X10516D01*
X10541D02*
X10566Y10947D01*
X10628D02*
Y11022D01*
X10591Y10985D01*
X10641D01*
X10666Y11022D02*
X10716D01*
Y11010D01*
X10666Y10960D01*
Y10947D01*
X12502Y9581D02*
X12427D01*
Y9619D01*
X12440Y9631D01*
X12465D01*
X12477Y9619D01*
Y9581D01*
Y9606D02*
X12502Y9631D01*
Y9694D02*
X12427D01*
X12465Y9656D01*
Y9706D01*
X12427Y9781D02*
X12440Y9756D01*
X12465Y9731D01*
X12490D01*
X12502Y9744D01*
Y9769D01*
X12490Y9781D01*
X12477D01*
X12465Y9769D01*
Y9731D01*
X12167Y9995D02*
Y10070D01*
X12204D01*
X12217Y10057D01*
Y10032D01*
X12204Y10020D01*
X12167D01*
X12192D02*
X12217Y9995D01*
X12279D02*
Y10070D01*
X12242Y10032D01*
X12292D01*
X12354Y9995D02*
Y10070D01*
X12317Y10032D01*
X12367D01*
X11481Y10249D02*
Y10324D01*
X11518D01*
X11531Y10311D01*
Y10286D01*
X11518Y10274D01*
X11481D01*
X11506D02*
X11531Y10249D01*
X11593D02*
Y10324D01*
X11556Y10286D01*
X11606D01*
X11631Y10311D02*
X11643Y10324D01*
X11668D01*
X11681Y10311D01*
Y10299D01*
X11668Y10286D01*
X11656D01*
X11668D01*
X11681Y10274D01*
Y10261D01*
X11668Y10249D01*
X11643D01*
X11631Y10261D01*
X11214Y10249D02*
Y10324D01*
X11252D01*
X11264Y10311D01*
Y10286D01*
X11252Y10274D01*
X11214D01*
X11239D02*
X11264Y10249D01*
X11327D02*
Y10324D01*
X11289Y10286D01*
X11339D01*
X11414Y10249D02*
X11364D01*
X11414Y10299D01*
Y10311D01*
X11402Y10324D01*
X11377D01*
X11364Y10311D01*
X11131Y10253D02*
X11056D01*
Y10290D01*
X11069Y10303D01*
X11094D01*
X11106Y10290D01*
Y10253D01*
Y10278D02*
X11131Y10303D01*
Y10365D02*
X11056D01*
X11094Y10328D01*
Y10378D01*
X11131Y10403D02*
Y10428D01*
Y10415D01*
X11056D01*
X11069Y10403D01*
X11876Y10998D02*
X11801D01*
Y11035D01*
X11814Y11048D01*
X11839D01*
X11851Y11035D01*
Y10998D01*
Y11023D02*
X11876Y11048D01*
Y11110D02*
X11801D01*
X11839Y11073D01*
Y11123D01*
X11814Y11148D02*
X11801Y11160D01*
Y11185D01*
X11814Y11197D01*
X11864D01*
X11876Y11185D01*
Y11160D01*
X11864Y11148D01*
X11814D01*
X12141Y10757D02*
Y10832D01*
X12179D01*
X12191Y10819D01*
Y10794D01*
X12179Y10782D01*
X12141D01*
X12166D02*
X12191Y10757D01*
X12216Y10819D02*
X12229Y10832D01*
X12254D01*
X12266Y10819D01*
Y10807D01*
X12254Y10794D01*
X12241D01*
X12254D01*
X12266Y10782D01*
Y10769D01*
X12254Y10757D01*
X12229D01*
X12216Y10769D01*
X12291D02*
X12304Y10757D01*
X12329D01*
X12341Y10769D01*
Y10819D01*
X12329Y10832D01*
X12304D01*
X12291Y10819D01*
Y10807D01*
X12304Y10794D01*
X12341D01*
X12001Y10986D02*
X11927D01*
Y11023D01*
X11939Y11035D01*
X11964D01*
X11977Y11023D01*
Y10986D01*
Y11010D02*
X12001Y11035D01*
X11939Y11060D02*
X11927Y11073D01*
Y11098D01*
X11939Y11110D01*
X11952D01*
X11964Y11098D01*
Y11085D01*
Y11098D01*
X11977Y11110D01*
X11989D01*
X12001Y11098D01*
Y11073D01*
X11989Y11060D01*
X11939Y11135D02*
X11927Y11148D01*
Y11173D01*
X11939Y11185D01*
X11952D01*
X11964Y11173D01*
X11977Y11185D01*
X11989D01*
X12001Y11173D01*
Y11148D01*
X11989Y11135D01*
X11977D01*
X11964Y11148D01*
X11952Y11135D01*
X11939D01*
X11964Y11148D02*
Y11173D01*
X11506Y11328D02*
X11431D01*
Y11366D01*
X11444Y11378D01*
X11469D01*
X11481Y11366D01*
Y11328D01*
Y11353D02*
X11506Y11378D01*
X11444Y11403D02*
X11431Y11416D01*
Y11441D01*
X11444Y11453D01*
X11456D01*
X11469Y11441D01*
Y11428D01*
Y11441D01*
X11481Y11453D01*
X11494D01*
X11506Y11441D01*
Y11416D01*
X11494Y11403D01*
X11431Y11478D02*
Y11528D01*
X11444D01*
X11494Y11478D01*
X11506D01*
X10935Y11011D02*
Y11086D01*
X10972D01*
X10985Y11073D01*
Y11048D01*
X10972Y11036D01*
X10935D01*
X10960D02*
X10985Y11011D01*
X11010Y11073D02*
X11022Y11086D01*
X11047D01*
X11060Y11073D01*
Y11061D01*
X11047Y11048D01*
X11035D01*
X11047D01*
X11060Y11036D01*
Y11023D01*
X11047Y11011D01*
X11022D01*
X11010Y11023D01*
X11135Y11086D02*
X11085D01*
Y11048D01*
X11110Y11061D01*
X11122D01*
X11135Y11048D01*
Y11023D01*
X11122Y11011D01*
X11097D01*
X11085Y11023D01*
X10998Y11328D02*
Y11403D01*
X11036D01*
X11048Y11391D01*
Y11366D01*
X11036Y11353D01*
X10998D01*
X11023D02*
X11048Y11328D01*
X11073Y11391D02*
X11086Y11403D01*
X11111D01*
X11123Y11391D01*
Y11378D01*
X11111Y11366D01*
X11098D01*
X11111D01*
X11123Y11353D01*
Y11341D01*
X11111Y11328D01*
X11086D01*
X11073Y11341D01*
X11186Y11328D02*
Y11403D01*
X11148Y11366D01*
X11198D01*
X10884Y10973D02*
X10809D01*
Y11010D01*
X10821Y11023D01*
X10846D01*
X10859Y11010D01*
Y10973D01*
Y10998D02*
X10884Y11023D01*
X10821Y11048D02*
X10809Y11060D01*
Y11085D01*
X10821Y11098D01*
X10834D01*
X10846Y11085D01*
Y11073D01*
Y11085D01*
X10859Y11098D01*
X10871D01*
X10884Y11085D01*
Y11060D01*
X10871Y11048D01*
X10821Y11123D02*
X10809Y11135D01*
Y11160D01*
X10821Y11173D01*
X10834D01*
X10846Y11160D01*
Y11148D01*
Y11160D01*
X10859Y11173D01*
X10871D01*
X10884Y11160D01*
Y11135D01*
X10871Y11123D01*
X11582Y14935D02*
X11507D01*
Y14973D01*
X11520Y14985D01*
X11545D01*
X11557Y14973D01*
Y14935D01*
Y14960D02*
X11582Y14985D01*
Y15060D02*
Y15010D01*
X11532Y15060D01*
X11520D01*
X11507Y15048D01*
Y15023D01*
X11520Y15010D01*
X11570Y15085D02*
X11582Y15098D01*
Y15123D01*
X11570Y15135D01*
X11520D01*
X11507Y15123D01*
Y15098D01*
X11520Y15085D01*
X11532D01*
X11545Y15098D01*
Y15135D01*
X11455Y14935D02*
X11380D01*
Y14973D01*
X11393Y14985D01*
X11418D01*
X11430Y14973D01*
Y14935D01*
Y14960D02*
X11455Y14985D01*
Y15060D02*
Y15010D01*
X11405Y15060D01*
X11393D01*
X11380Y15048D01*
Y15023D01*
X11393Y15010D01*
Y15085D02*
X11380Y15098D01*
Y15123D01*
X11393Y15135D01*
X11405D01*
X11418Y15123D01*
X11430Y15135D01*
X11443D01*
X11455Y15123D01*
Y15098D01*
X11443Y15085D01*
X11430D01*
X11418Y15098D01*
X11405Y15085D01*
X11393D01*
X11418Y15098D02*
Y15123D01*
X11836Y14935D02*
X11761D01*
Y14973D01*
X11774Y14985D01*
X11799D01*
X11811Y14973D01*
Y14935D01*
Y14960D02*
X11836Y14985D01*
Y15060D02*
Y15010D01*
X11786Y15060D01*
X11774D01*
X11761Y15048D01*
Y15023D01*
X11774Y15010D01*
X11761Y15085D02*
Y15135D01*
X11774D01*
X11824Y15085D01*
X11836D01*
X11709Y14935D02*
X11634D01*
Y14973D01*
X11647Y14985D01*
X11672D01*
X11684Y14973D01*
Y14935D01*
Y14960D02*
X11709Y14985D01*
Y15060D02*
Y15010D01*
X11659Y15060D01*
X11647D01*
X11634Y15048D01*
Y15023D01*
X11647Y15010D01*
X11634Y15135D02*
X11647Y15110D01*
X11672Y15085D01*
X11697D01*
X11709Y15098D01*
Y15123D01*
X11697Y15135D01*
X11684D01*
X11672Y15123D01*
Y15085D01*
X12090Y14935D02*
X12015D01*
Y14973D01*
X12028Y14985D01*
X12053D01*
X12065Y14973D01*
Y14935D01*
Y14960D02*
X12090Y14985D01*
Y15060D02*
Y15010D01*
X12040Y15060D01*
X12028D01*
X12015Y15048D01*
Y15023D01*
X12028Y15010D01*
X12015Y15135D02*
Y15085D01*
X12053D01*
X12040Y15110D01*
Y15123D01*
X12053Y15135D01*
X12078D01*
X12090Y15123D01*
Y15098D01*
X12078Y15085D01*
X11963Y14935D02*
X11888D01*
Y14973D01*
X11901Y14985D01*
X11926D01*
X11938Y14973D01*
Y14935D01*
Y14960D02*
X11963Y14985D01*
Y15060D02*
Y15010D01*
X11913Y15060D01*
X11901D01*
X11888Y15048D01*
Y15023D01*
X11901Y15010D01*
X11963Y15123D02*
X11888D01*
X11926Y15085D01*
Y15135D01*
X12344Y14935D02*
X12269D01*
Y14973D01*
X12282Y14985D01*
X12307D01*
X12319Y14973D01*
Y14935D01*
Y14960D02*
X12344Y14985D01*
Y15060D02*
Y15010D01*
X12294Y15060D01*
X12282D01*
X12269Y15048D01*
Y15023D01*
X12282Y15010D01*
Y15085D02*
X12269Y15098D01*
Y15123D01*
X12282Y15135D01*
X12294D01*
X12307Y15123D01*
Y15110D01*
Y15123D01*
X12319Y15135D01*
X12332D01*
X12344Y15123D01*
Y15098D01*
X12332Y15085D01*
X12217Y14935D02*
X12142D01*
Y14973D01*
X12155Y14985D01*
X12180D01*
X12192Y14973D01*
Y14935D01*
Y14960D02*
X12217Y14985D01*
Y15060D02*
Y15010D01*
X12167Y15060D01*
X12155D01*
X12142Y15048D01*
Y15023D01*
X12155Y15010D01*
X12217Y15135D02*
Y15085D01*
X12167Y15135D01*
X12155D01*
X12142Y15123D01*
Y15098D01*
X12155Y15085D01*
X12471Y14935D02*
X12396D01*
Y14973D01*
X12409Y14985D01*
X12434D01*
X12446Y14973D01*
Y14935D01*
Y14960D02*
X12471Y14985D01*
Y15060D02*
Y15010D01*
X12421Y15060D01*
X12409D01*
X12396Y15048D01*
Y15023D01*
X12409Y15010D01*
X12471Y15085D02*
Y15110D01*
Y15098D01*
X12396D01*
X12409Y15085D01*
X12827Y14923D02*
X12752D01*
Y14960D01*
X12765Y14972D01*
X12790D01*
X12802Y14960D01*
Y14923D01*
Y14947D02*
X12827Y14972D01*
Y15047D02*
Y14997D01*
X12777Y15047D01*
X12765D01*
X12752Y15035D01*
Y15010D01*
X12765Y14997D01*
Y15072D02*
X12752Y15085D01*
Y15110D01*
X12765Y15122D01*
X12815D01*
X12827Y15110D01*
Y15085D01*
X12815Y15072D01*
X12765D01*
X12713Y14923D02*
X12638D01*
Y14960D01*
X12650Y14972D01*
X12675D01*
X12688Y14960D01*
Y14923D01*
Y14947D02*
X12713Y14972D01*
Y14997D02*
Y15022D01*
Y15010D01*
X12638D01*
X12650Y14997D01*
X12700Y15060D02*
X12713Y15072D01*
Y15097D01*
X12700Y15110D01*
X12650D01*
X12638Y15097D01*
Y15072D01*
X12650Y15060D01*
X12663D01*
X12675Y15072D01*
Y15110D01*
X13760Y15460D02*
X13685D01*
Y15497D01*
X13698Y15510D01*
X13723D01*
X13735Y15497D01*
Y15460D01*
Y15485D02*
X13760Y15510D01*
Y15535D02*
Y15560D01*
Y15547D01*
X13685D01*
X13698Y15535D01*
Y15597D02*
X13685Y15610D01*
Y15635D01*
X13698Y15647D01*
X13710D01*
X13723Y15635D01*
X13735Y15647D01*
X13748D01*
X13760Y15635D01*
Y15610D01*
X13748Y15597D01*
X13735D01*
X13723Y15610D01*
X13710Y15597D01*
X13698D01*
X13723Y15610D02*
Y15635D01*
X13762Y15736D02*
X13687D01*
Y15773D01*
X13699Y15786D01*
X13724D01*
X13737Y15773D01*
Y15736D01*
Y15761D02*
X13762Y15786D01*
Y15811D02*
Y15836D01*
Y15823D01*
X13687D01*
X13699Y15811D01*
X13687Y15873D02*
Y15923D01*
X13699D01*
X13749Y15873D01*
X13762D01*
X14173Y12090D02*
X14098D01*
Y12128D01*
X14111Y12140D01*
X14136D01*
X14148Y12128D01*
Y12090D01*
Y12115D02*
X14173Y12140D01*
Y12165D02*
Y12190D01*
Y12178D01*
X14098D01*
X14111Y12165D01*
X14098Y12278D02*
X14111Y12253D01*
X14136Y12228D01*
X14161D01*
X14173Y12240D01*
Y12265D01*
X14161Y12278D01*
X14148D01*
X14136Y12265D01*
Y12228D01*
X14440Y12344D02*
X14365D01*
Y12382D01*
X14377Y12394D01*
X14402D01*
X14415Y12382D01*
Y12344D01*
Y12369D02*
X14440Y12394D01*
Y12419D02*
Y12444D01*
Y12432D01*
X14365D01*
X14377Y12419D01*
X14365Y12532D02*
Y12482D01*
X14402D01*
X14390Y12507D01*
Y12519D01*
X14402Y12532D01*
X14427D01*
X14440Y12519D01*
Y12494D01*
X14427Y12482D01*
X14567Y12344D02*
X14492D01*
Y12382D01*
X14504Y12394D01*
X14529D01*
X14542Y12382D01*
Y12344D01*
Y12369D02*
X14567Y12394D01*
Y12419D02*
Y12444D01*
Y12432D01*
X14492D01*
X14504Y12419D01*
X14567Y12519D02*
X14492D01*
X14529Y12482D01*
Y12532D01*
X14931Y11853D02*
Y11928D01*
X14968D01*
X14981Y11916D01*
Y11891D01*
X14968Y11878D01*
X14931D01*
X14956D02*
X14981Y11853D01*
X15006D02*
X15031D01*
X15018D01*
Y11928D01*
X15006Y11916D01*
X15068D02*
X15081Y11928D01*
X15106D01*
X15118Y11916D01*
Y11903D01*
X15106Y11891D01*
X15093D01*
X15106D01*
X15118Y11878D01*
Y11866D01*
X15106Y11853D01*
X15081D01*
X15068Y11866D01*
X15240Y11227D02*
X15165D01*
Y11264D01*
X15178Y11277D01*
X15203D01*
X15215Y11264D01*
Y11227D01*
Y11252D02*
X15240Y11277D01*
Y11302D02*
Y11327D01*
Y11314D01*
X15165D01*
X15178Y11302D01*
X15240Y11364D02*
Y11389D01*
Y11377D01*
X15165D01*
X15178Y11364D01*
X14580Y10681D02*
X14505D01*
Y10718D01*
X14517Y10731D01*
X14542D01*
X14555Y10718D01*
Y10681D01*
Y10706D02*
X14580Y10731D01*
X14505Y10756D02*
Y10806D01*
X14517D01*
X14567Y10756D01*
X14580D01*
X14910Y13957D02*
Y14032D01*
X14947D01*
X14960Y14020D01*
Y13995D01*
X14947Y13982D01*
X14910D01*
X14935D02*
X14960Y13957D01*
X15035Y14032D02*
X14985D01*
Y13995D01*
X15010Y14007D01*
X15022D01*
X15035Y13995D01*
Y13970D01*
X15022Y13957D01*
X14997D01*
X14985Y13970D01*
X14008Y11405D02*
X13933D01*
Y11442D01*
X13946Y11455D01*
X13971D01*
X13983Y11442D01*
Y11405D01*
Y11430D02*
X14008Y11455D01*
X13946Y11480D02*
X13933Y11492D01*
Y11517D01*
X13946Y11530D01*
X13958D01*
X13971Y11517D01*
Y11505D01*
Y11517D01*
X13983Y11530D01*
X13996D01*
X14008Y11517D01*
Y11492D01*
X13996Y11480D01*
X14199Y10655D02*
X14124D01*
Y10693D01*
X14136Y10705D01*
X14161D01*
X14174Y10693D01*
Y10655D01*
Y10680D02*
X14199Y10705D01*
Y10780D02*
Y10730D01*
X14149Y10780D01*
X14136D01*
X14124Y10768D01*
Y10743D01*
X14136Y10730D01*
X14072Y10655D02*
X13997D01*
Y10693D01*
X14009Y10705D01*
X14034D01*
X14047Y10693D01*
Y10655D01*
Y10680D02*
X14072Y10705D01*
Y10730D02*
Y10755D01*
Y10743D01*
X13997D01*
X14009Y10730D01*
X14410Y14112D02*
Y14162D01*
X14397Y14175D01*
X14372D01*
X14360Y14162D01*
Y14112D01*
X14372Y14100D01*
X14397D01*
X14385Y14125D02*
X14410Y14100D01*
X14397D02*
X14410Y14112D01*
X14485Y14175D02*
X14460Y14162D01*
X14435Y14137D01*
Y14112D01*
X14447Y14100D01*
X14472D01*
X14485Y14112D01*
Y14125D01*
X14472Y14137D01*
X14435D01*
X10694Y12547D02*
X10644D01*
X10631Y12534D01*
Y12509D01*
X10644Y12497D01*
X10694D01*
X10706Y12509D01*
Y12534D01*
X10681Y12522D02*
X10706Y12547D01*
Y12534D02*
X10694Y12547D01*
X10706Y12609D02*
X10631D01*
X10669Y12572D01*
Y12622D01*
X11202Y13194D02*
X11152D01*
X11139Y13182D01*
Y13157D01*
X11152Y13145D01*
X11202D01*
X11214Y13157D01*
Y13182D01*
X11189Y13169D02*
X11214Y13194D01*
Y13182D02*
X11202Y13194D01*
X11152Y13219D02*
X11139Y13232D01*
Y13257D01*
X11152Y13269D01*
X11164D01*
X11177Y13257D01*
Y13244D01*
Y13257D01*
X11189Y13269D01*
X11202D01*
X11214Y13257D01*
Y13232D01*
X11202Y13219D01*
X11823Y10630D02*
Y10680D01*
X11810Y10692D01*
X11785D01*
X11773Y10680D01*
Y10630D01*
X11785Y10617D01*
X11810D01*
X11798Y10642D02*
X11823Y10617D01*
X11810D02*
X11823Y10630D01*
X11898Y10617D02*
X11848D01*
X11898Y10667D01*
Y10680D01*
X11885Y10692D01*
X11860D01*
X11848Y10680D01*
X14580Y14896D02*
Y14821D01*
X14630D01*
X14692D02*
Y14896D01*
X14655Y14858D01*
X14705D01*
X13971Y13983D02*
X14046D01*
Y14033D01*
X13984Y14058D02*
X13971Y14070D01*
Y14095D01*
X13984Y14108D01*
X13996D01*
X14009Y14095D01*
Y14083D01*
Y14095D01*
X14021Y14108D01*
X14034D01*
X14046Y14095D01*
Y14070D01*
X14034Y14058D01*
X8522Y9714D02*
Y9639D01*
X8572D01*
X8597D02*
X8622D01*
X8609D01*
Y9714D01*
X8597Y9702D01*
X8434Y8203D02*
Y8178D01*
Y8191D01*
X8497D01*
X8509Y8178D01*
Y8166D01*
X8497Y8153D01*
X8434Y8278D02*
Y8228D01*
X8472D01*
X8459Y8253D01*
Y8266D01*
X8472Y8278D01*
X8497D01*
X8509Y8266D01*
Y8241D01*
X8497Y8228D01*
X15381Y13918D02*
Y13893D01*
Y13906D01*
X15443D01*
X15456Y13893D01*
Y13881D01*
X15443Y13868D01*
X15456Y13981D02*
X15381D01*
X15418Y13943D01*
Y13993D01*
X10364Y8216D02*
Y8191D01*
Y8204D01*
X10427D01*
X10439Y8191D01*
Y8179D01*
X10427Y8166D01*
X10377Y8241D02*
X10364Y8254D01*
Y8279D01*
X10377Y8291D01*
X10389D01*
X10402Y8279D01*
Y8266D01*
Y8279D01*
X10414Y8291D01*
X10427D01*
X10439Y8279D01*
Y8254D01*
X10427Y8241D01*
X11050Y15849D02*
Y15824D01*
Y15836D01*
X11113D01*
X11125Y15824D01*
Y15811D01*
X11113Y15799D01*
X11125Y15924D02*
Y15874D01*
X11075Y15924D01*
X11063D01*
X11050Y15911D01*
Y15886D01*
X11063Y15874D01*
X15394Y13017D02*
Y12992D01*
Y13004D01*
X15456D01*
X15469Y12992D01*
Y12979D01*
X15456Y12967D01*
X15469Y13042D02*
Y13067D01*
Y13054D01*
X15394D01*
X15406Y13042D01*
X14834Y12610D02*
Y12535D01*
X14871D01*
X14884Y12547D01*
Y12597D01*
X14871Y12610D01*
X14834D01*
X14909D02*
X14959D01*
Y12597D01*
X14909Y12547D01*
Y12535D01*
X14771Y13195D02*
X14846D01*
Y13233D01*
X14834Y13245D01*
X14784D01*
X14771Y13233D01*
Y13195D01*
Y13320D02*
X14784Y13295D01*
X14809Y13270D01*
X14834D01*
X14846Y13283D01*
Y13308D01*
X14834Y13320D01*
X14821D01*
X14809Y13308D01*
Y13270D01*
X9093Y9689D02*
Y9614D01*
X9131D01*
X9143Y9626D01*
Y9676D01*
X9131Y9689D01*
X9093D01*
X9218D02*
X9168D01*
Y9651D01*
X9193Y9664D01*
X9206D01*
X9218Y9651D01*
Y9626D01*
X9206Y9614D01*
X9181D01*
X9168Y9626D01*
X10020Y9765D02*
Y9690D01*
X10058D01*
X10070Y9703D01*
Y9753D01*
X10058Y9765D01*
X10020D01*
X10133Y9690D02*
Y9765D01*
X10095Y9728D01*
X10145D01*
X10110Y10643D02*
X10185D01*
Y10680D01*
X10173Y10693D01*
X10123D01*
X10110Y10680D01*
Y10643D01*
X10123Y10718D02*
X10110Y10730D01*
Y10755D01*
X10123Y10768D01*
X10135D01*
X10148Y10755D01*
Y10743D01*
Y10755D01*
X10160Y10768D01*
X10173D01*
X10185Y10755D01*
Y10730D01*
X10173Y10718D01*
X10719Y10908D02*
Y10833D01*
X10756D01*
X10769Y10846D01*
Y10896D01*
X10756Y10908D01*
X10719D01*
X10844Y10833D02*
X10794D01*
X10844Y10883D01*
Y10896D01*
X10831Y10908D01*
X10806D01*
X10794Y10896D01*
X14770Y12457D02*
Y12382D01*
X14808D01*
X14820Y12395D01*
Y12445D01*
X14808Y12457D01*
X14770D01*
X14845Y12382D02*
X14870D01*
X14858D01*
Y12457D01*
X14845Y12445D01*
X14152Y14083D02*
X14140Y14096D01*
X14115D01*
X14102Y14083D01*
Y14033D01*
X14115Y14021D01*
X14140D01*
X14152Y14033D01*
X14177Y14096D02*
X14227D01*
Y14083D01*
X14177Y14033D01*
Y14021D01*
X14252D02*
X14277D01*
X14264D01*
Y14096D01*
X14252Y14083D01*
X14492Y14287D02*
X14479Y14274D01*
Y14249D01*
X14492Y14237D01*
X14542D01*
X14554Y14249D01*
Y14274D01*
X14542Y14287D01*
X14479Y14312D02*
Y14362D01*
X14492D01*
X14542Y14312D01*
X14554D01*
X14492Y14387D02*
X14479Y14399D01*
Y14424D01*
X14492Y14437D01*
X14542D01*
X14554Y14424D01*
Y14399D01*
X14542Y14387D01*
X14492D01*
X14528Y14629D02*
X14515Y14642D01*
X14490D01*
X14478Y14629D01*
Y14579D01*
X14490Y14567D01*
X14515D01*
X14528Y14579D01*
X14603Y14642D02*
X14578Y14629D01*
X14553Y14604D01*
Y14579D01*
X14565Y14567D01*
X14590D01*
X14603Y14579D01*
Y14592D01*
X14590Y14604D01*
X14553D01*
X14628Y14579D02*
X14640Y14567D01*
X14665D01*
X14678Y14579D01*
Y14629D01*
X14665Y14642D01*
X14640D01*
X14628Y14629D01*
Y14617D01*
X14640Y14604D01*
X14678D01*
X14466Y15036D02*
X14453Y15024D01*
Y14999D01*
X14466Y14986D01*
X14516D01*
X14528Y14999D01*
Y15024D01*
X14516Y15036D01*
X14453Y15111D02*
X14466Y15086D01*
X14491Y15061D01*
X14516D01*
X14528Y15074D01*
Y15099D01*
X14516Y15111D01*
X14503D01*
X14491Y15099D01*
Y15061D01*
X14466Y15136D02*
X14453Y15149D01*
Y15174D01*
X14466Y15186D01*
X14478D01*
X14491Y15174D01*
X14503Y15186D01*
X14516D01*
X14528Y15174D01*
Y15149D01*
X14516Y15136D01*
X14503D01*
X14491Y15149D01*
X14478Y15136D01*
X14466D01*
X14491Y15149D02*
Y15174D01*
X13600Y15302D02*
X13587Y15315D01*
X13562D01*
X13550Y15302D01*
Y15252D01*
X13562Y15240D01*
X13587D01*
X13600Y15252D01*
X13675Y15315D02*
X13625D01*
Y15277D01*
X13650Y15290D01*
X13662D01*
X13675Y15277D01*
Y15252D01*
X13662Y15240D01*
X13637D01*
X13625Y15252D01*
X13700Y15315D02*
X13750D01*
Y15302D01*
X13700Y15252D01*
Y15240D01*
X8116Y10718D02*
X8104Y10705D01*
Y10680D01*
X8116Y10668D01*
X8166D01*
X8179Y10680D01*
Y10705D01*
X8166Y10718D01*
X8104Y10793D02*
Y10743D01*
X8141D01*
X8129Y10768D01*
Y10780D01*
X8141Y10793D01*
X8166D01*
X8179Y10780D01*
Y10755D01*
X8166Y10743D01*
X8179Y10855D02*
X8104D01*
X8141Y10818D01*
Y10868D01*
X9361Y10019D02*
X9348Y10007D01*
Y9982D01*
X9361Y9969D01*
X9411D01*
X9423Y9982D01*
Y10007D01*
X9411Y10019D01*
X9348Y10094D02*
Y10044D01*
X9386D01*
X9373Y10069D01*
Y10082D01*
X9386Y10094D01*
X9411D01*
X9423Y10082D01*
Y10057D01*
X9411Y10044D01*
X9361Y10119D02*
X9348Y10132D01*
Y10157D01*
X9361Y10169D01*
X9373D01*
X9386Y10157D01*
Y10144D01*
Y10157D01*
X9398Y10169D01*
X9411D01*
X9423Y10157D01*
Y10132D01*
X9411Y10119D01*
X8370Y10718D02*
X8358Y10705D01*
Y10680D01*
X8370Y10668D01*
X8420D01*
X8433Y10680D01*
Y10705D01*
X8420Y10718D01*
X8358Y10793D02*
Y10743D01*
X8395D01*
X8383Y10768D01*
Y10780D01*
X8395Y10793D01*
X8420D01*
X8433Y10780D01*
Y10755D01*
X8420Y10743D01*
X8433Y10818D02*
Y10843D01*
Y10830D01*
X8358D01*
X8370Y10818D01*
X8728Y11230D02*
X8715Y11217D01*
Y11192D01*
X8728Y11180D01*
X8778D01*
X8790Y11192D01*
Y11217D01*
X8778Y11230D01*
X8715Y11305D02*
Y11255D01*
X8753D01*
X8740Y11280D01*
Y11292D01*
X8753Y11305D01*
X8778D01*
X8790Y11292D01*
Y11267D01*
X8778Y11255D01*
X8728Y11330D02*
X8715Y11342D01*
Y11367D01*
X8728Y11380D01*
X8778D01*
X8790Y11367D01*
Y11342D01*
X8778Y11330D01*
X8728D01*
X8848Y11230D02*
X8835Y11217D01*
Y11192D01*
X8848Y11180D01*
X8898D01*
X8910Y11192D01*
Y11217D01*
X8898Y11230D01*
X8910Y11292D02*
X8835D01*
X8873Y11255D01*
Y11305D01*
X8898Y11330D02*
X8910Y11342D01*
Y11367D01*
X8898Y11380D01*
X8848D01*
X8835Y11367D01*
Y11342D01*
X8848Y11330D01*
X8860D01*
X8873Y11342D01*
Y11380D01*
X8598Y11230D02*
X8585Y11217D01*
Y11192D01*
X8598Y11180D01*
X8648D01*
X8660Y11192D01*
Y11217D01*
X8648Y11230D01*
X8660Y11292D02*
X8585D01*
X8623Y11255D01*
Y11305D01*
X8598Y11330D02*
X8585Y11342D01*
Y11367D01*
X8598Y11380D01*
X8610D01*
X8623Y11367D01*
X8635Y11380D01*
X8648D01*
X8660Y11367D01*
Y11342D01*
X8648Y11330D01*
X8635D01*
X8623Y11342D01*
X8610Y11330D01*
X8598D01*
X8623Y11342D02*
Y11367D01*
X9501Y9765D02*
X9488Y9753D01*
Y9728D01*
X9501Y9715D01*
X9551D01*
X9563Y9728D01*
Y9753D01*
X9551Y9765D01*
X9563Y9828D02*
X9488D01*
X9526Y9790D01*
Y9840D01*
X9488Y9865D02*
Y9915D01*
X9501D01*
X9551Y9865D01*
X9563D01*
X10172Y10199D02*
X10184Y10211D01*
Y10236D01*
X10172Y10249D01*
X10122D01*
X10109Y10236D01*
Y10211D01*
X10122Y10199D01*
X10109Y10136D02*
X10184D01*
X10147Y10174D01*
Y10124D01*
X10184Y10049D02*
Y10099D01*
X10147D01*
X10159Y10074D01*
Y10061D01*
X10147Y10049D01*
X10122D01*
X10109Y10061D01*
Y10086D01*
X10122Y10099D01*
X9118Y11230D02*
X9105Y11217D01*
Y11192D01*
X9118Y11180D01*
X9168D01*
X9180Y11192D01*
Y11217D01*
X9168Y11230D01*
X9180Y11292D02*
X9105D01*
X9143Y11255D01*
Y11305D01*
X9180Y11367D02*
X9105D01*
X9143Y11330D01*
Y11380D01*
X9258Y11230D02*
X9245Y11217D01*
Y11192D01*
X9258Y11180D01*
X9308D01*
X9320Y11192D01*
Y11217D01*
X9308Y11230D01*
X9320Y11292D02*
X9245D01*
X9283Y11255D01*
Y11305D01*
X9258Y11330D02*
X9245Y11342D01*
Y11367D01*
X9258Y11380D01*
X9270D01*
X9283Y11367D01*
Y11355D01*
Y11367D01*
X9295Y11380D01*
X9308D01*
X9320Y11367D01*
Y11342D01*
X9308Y11330D01*
X8978Y11230D02*
X8965Y11217D01*
Y11192D01*
X8978Y11180D01*
X9028D01*
X9040Y11192D01*
Y11217D01*
X9028Y11230D01*
X9040Y11292D02*
X8965D01*
X9003Y11255D01*
Y11305D01*
X9040Y11380D02*
Y11330D01*
X8990Y11380D01*
X8978D01*
X8965Y11367D01*
Y11342D01*
X8978Y11330D01*
X11012Y13677D02*
X10999Y13665D01*
Y13640D01*
X11012Y13627D01*
X11062D01*
X11074Y13640D01*
Y13665D01*
X11062Y13677D01*
X11074Y13740D02*
X10999D01*
X11037Y13702D01*
Y13752D01*
X11074Y13777D02*
Y13802D01*
Y13790D01*
X10999D01*
X11012Y13777D01*
X10478Y12600D02*
X10465Y12587D01*
Y12562D01*
X10478Y12550D01*
X10528D01*
X10540Y12562D01*
Y12587D01*
X10528Y12600D01*
X10540Y12662D02*
X10465D01*
X10503Y12625D01*
Y12675D01*
X10478Y12700D02*
X10465Y12712D01*
Y12737D01*
X10478Y12750D01*
X10528D01*
X10540Y12737D01*
Y12712D01*
X10528Y12700D01*
X10478D01*
X10654Y12394D02*
X10642Y12407D01*
X10617D01*
X10604Y12394D01*
Y12344D01*
X10617Y12332D01*
X10642D01*
X10654Y12344D01*
X10679Y12394D02*
X10692Y12407D01*
X10717D01*
X10729Y12394D01*
Y12382D01*
X10717Y12369D01*
X10704D01*
X10717D01*
X10729Y12357D01*
Y12344D01*
X10717Y12332D01*
X10692D01*
X10679Y12344D01*
X10754D02*
X10767Y12332D01*
X10792D01*
X10804Y12344D01*
Y12394D01*
X10792Y12407D01*
X10767D01*
X10754Y12394D01*
Y12382D01*
X10767Y12369D01*
X10804D01*
X10468Y12340D02*
X10455Y12327D01*
Y12302D01*
X10468Y12290D01*
X10518D01*
X10530Y12302D01*
Y12327D01*
X10518Y12340D01*
X10468Y12365D02*
X10455Y12377D01*
Y12402D01*
X10468Y12415D01*
X10480D01*
X10493Y12402D01*
Y12390D01*
Y12402D01*
X10505Y12415D01*
X10518D01*
X10530Y12402D01*
Y12377D01*
X10518Y12365D01*
X10468Y12440D02*
X10455Y12452D01*
Y12477D01*
X10468Y12490D01*
X10480D01*
X10493Y12477D01*
X10505Y12490D01*
X10518D01*
X10530Y12477D01*
Y12452D01*
X10518Y12440D01*
X10505D01*
X10493Y12452D01*
X10480Y12440D01*
X10468D01*
X10493Y12452D02*
Y12477D01*
X11329Y13829D02*
X11317Y13817D01*
Y13792D01*
X11329Y13779D01*
X11379D01*
X11392Y13792D01*
Y13817D01*
X11379Y13829D01*
X11329Y13854D02*
X11317Y13867D01*
Y13892D01*
X11329Y13904D01*
X11342D01*
X11354Y13892D01*
Y13879D01*
Y13892D01*
X11367Y13904D01*
X11379D01*
X11392Y13892D01*
Y13867D01*
X11379Y13854D01*
X11329Y13929D02*
X11317Y13942D01*
Y13967D01*
X11329Y13979D01*
X11342D01*
X11354Y13967D01*
Y13954D01*
Y13967D01*
X11367Y13979D01*
X11379D01*
X11392Y13967D01*
Y13942D01*
X11379Y13929D01*
X12790Y14426D02*
X12777Y14414D01*
Y14389D01*
X12790Y14376D01*
X12840D01*
X12852Y14389D01*
Y14414D01*
X12840Y14426D01*
X12852Y14501D02*
Y14451D01*
X12802Y14501D01*
X12790D01*
X12777Y14489D01*
Y14464D01*
X12790Y14451D01*
Y14526D02*
X12777Y14539D01*
Y14564D01*
X12790Y14576D01*
X12802D01*
X12815Y14564D01*
X12827Y14576D01*
X12840D01*
X12852Y14564D01*
Y14539D01*
X12840Y14526D01*
X12827D01*
X12815Y14539D01*
X12802Y14526D01*
X12790D01*
X12815Y14539D02*
Y14564D01*
X10263Y9651D02*
X10250Y9639D01*
Y9614D01*
X10263Y9601D01*
X10313D01*
X10325Y9614D01*
Y9639D01*
X10313Y9651D01*
X10325Y9726D02*
Y9676D01*
X10275Y9726D01*
X10263D01*
X10250Y9714D01*
Y9689D01*
X10263Y9676D01*
X10325Y9801D02*
Y9751D01*
X10275Y9801D01*
X10263D01*
X10250Y9789D01*
Y9764D01*
X10263Y9751D01*
X12570Y9631D02*
X12557Y9619D01*
Y9594D01*
X12570Y9581D01*
X12620D01*
X12632Y9594D01*
Y9619D01*
X12620Y9631D01*
X12632Y9706D02*
Y9656D01*
X12582Y9706D01*
X12570D01*
X12557Y9694D01*
Y9669D01*
X12570Y9656D01*
X12632Y9731D02*
Y9756D01*
Y9744D01*
X12557D01*
X12570Y9731D01*
X10248Y10553D02*
X10236Y10565D01*
X10211D01*
X10198Y10553D01*
Y10503D01*
X10211Y10490D01*
X10236D01*
X10248Y10503D01*
X10323Y10490D02*
X10273D01*
X10323Y10540D01*
Y10553D01*
X10311Y10565D01*
X10286D01*
X10273Y10553D01*
X10348D02*
X10361Y10565D01*
X10386D01*
X10398Y10553D01*
Y10503D01*
X10386Y10490D01*
X10361D01*
X10348Y10503D01*
Y10553D01*
X12320Y10413D02*
X12308Y10401D01*
Y10376D01*
X12320Y10363D01*
X12370D01*
X12382Y10376D01*
Y10401D01*
X12370Y10413D01*
X12382Y10438D02*
Y10463D01*
Y10451D01*
X12308D01*
X12320Y10438D01*
X12370Y10501D02*
X12382Y10513D01*
Y10538D01*
X12370Y10551D01*
X12320D01*
X12308Y10538D01*
Y10513D01*
X12320Y10501D01*
X12333D01*
X12345Y10513D01*
Y10551D01*
X12356Y10184D02*
X12344Y10197D01*
X12319D01*
X12306Y10184D01*
Y10134D01*
X12319Y10122D01*
X12344D01*
X12356Y10134D01*
X12381Y10122D02*
X12406D01*
X12394D01*
Y10197D01*
X12381Y10184D01*
X12444D02*
X12456Y10197D01*
X12481D01*
X12494Y10184D01*
Y10172D01*
X12481Y10159D01*
X12494Y10147D01*
Y10134D01*
X12481Y10122D01*
X12456D01*
X12444Y10134D01*
Y10147D01*
X12456Y10159D01*
X12444Y10172D01*
Y10184D01*
X12456Y10159D02*
X12481D01*
X12409Y9082D02*
X12396Y9069D01*
Y9044D01*
X12409Y9032D01*
X12459D01*
X12471Y9044D01*
Y9069D01*
X12459Y9082D01*
X12471Y9107D02*
Y9132D01*
Y9119D01*
X12396D01*
X12409Y9107D01*
X12396Y9169D02*
Y9219D01*
X12409D01*
X12459Y9169D01*
X12471D01*
X12542Y9092D02*
X12529Y9079D01*
Y9054D01*
X12542Y9042D01*
X12592D01*
X12604Y9054D01*
Y9079D01*
X12592Y9092D01*
X12604Y9117D02*
Y9142D01*
Y9129D01*
X12529D01*
X12542Y9117D01*
X12529Y9229D02*
X12542Y9204D01*
X12567Y9179D01*
X12592D01*
X12604Y9192D01*
Y9217D01*
X12592Y9229D01*
X12579D01*
X12567Y9217D01*
Y9179D01*
X12953Y15048D02*
X12941Y15061D01*
X12916D01*
X12903Y15048D01*
Y14998D01*
X12916Y14986D01*
X12941D01*
X12953Y14998D01*
X12978D02*
X12991Y14986D01*
X13016D01*
X13028Y14998D01*
Y15048D01*
X13016Y15061D01*
X12991D01*
X12978Y15048D01*
Y15036D01*
X12991Y15023D01*
X13028D01*
X14758Y15734D02*
X14746Y15722D01*
Y15697D01*
X14758Y15685D01*
X14808D01*
X14821Y15697D01*
Y15722D01*
X14808Y15734D01*
X14746Y15759D02*
Y15809D01*
X14758D01*
X14808Y15759D01*
X14821D01*
X14924Y10172D02*
X14911Y10159D01*
Y10134D01*
X14924Y10122D01*
X14974D01*
X14986Y10134D01*
Y10159D01*
X14974Y10172D01*
X14911Y10247D02*
X14924Y10222D01*
X14949Y10197D01*
X14974D01*
X14986Y10209D01*
Y10234D01*
X14974Y10247D01*
X14961D01*
X14949Y10234D01*
Y10197D01*
X13958Y10426D02*
X13946Y10413D01*
Y10388D01*
X13958Y10376D01*
X14008D01*
X14021Y10388D01*
Y10413D01*
X14008Y10426D01*
X13946Y10501D02*
Y10451D01*
X13983D01*
X13971Y10476D01*
Y10488D01*
X13983Y10501D01*
X14008D01*
X14021Y10488D01*
Y10463D01*
X14008Y10451D01*
X15359Y14452D02*
Y14377D01*
X15396D01*
X15409Y14389D01*
Y14402D01*
X15396Y14414D01*
X15359D01*
X15396D01*
X15409Y14427D01*
Y14439D01*
X15396Y14452D01*
X15359D01*
X15434Y14377D02*
Y14452D01*
X15471D01*
X15484Y14439D01*
Y14414D01*
X15471Y14402D01*
X15434D01*
X15509Y14377D02*
X15534D01*
X15521D01*
Y14452D01*
X15509Y14439D01*
X14295Y15710D02*
X14245D01*
X14220Y15735D01*
X14245Y15760D01*
X14295D01*
X14258D01*
Y15710D01*
X14295Y15785D02*
X14220D01*
X14295Y15835D01*
X14220D01*
Y15860D02*
Y15910D01*
Y15885D01*
X14295D01*
Y15935D02*
Y15960D01*
Y15947D01*
X14220D01*
X14233Y15935D01*
D17*
X13490Y14835D02*
Y14870D01*
X13525D01*
X13985D02*
X14020D01*
Y14835D02*
Y14870D01*
Y14340D02*
Y14375D01*
X13985Y14340D02*
X14020D01*
X13490D02*
Y14375D01*
Y14340D02*
X13525D01*
X11240Y10504D02*
X11278D01*
X11240D02*
Y10541D01*
Y10896D02*
Y10934D01*
X11278D01*
X11633D02*
X11670D01*
Y10896D02*
Y10934D01*
X11633Y10504D02*
X11670D01*
Y10541D01*
X11532Y12281D02*
Y13601D01*
X12852Y12281D02*
Y13601D01*
X11532D02*
X12852D01*
X11532Y12281D02*
X12852D01*
X15144Y12601D02*
X15244D01*
X15144Y12951D02*
X15244D01*
Y12601D02*
Y12951D01*
X15144Y12601D02*
Y12951D01*
X15108Y13455D02*
X15208D01*
X15108Y13805D02*
X15208D01*
Y13455D02*
Y13805D01*
X15108Y13455D02*
Y13805D01*
D18*
X9369Y15713D02*
Y15731D01*
Y15627D02*
Y15713D01*
Y15627D02*
X9379Y15625D01*
X9387Y15621D01*
X9395Y15616D01*
X9401Y15609D01*
X9407Y15602D01*
X9411Y15594D01*
X9413Y15584D01*
X9414Y15575D01*
X9413Y15564D02*
X9414Y15575D01*
X9410Y15554D02*
X9413Y15564D01*
X9405Y15545D02*
X9410Y15554D01*
X9399Y15537D02*
X9405Y15545D01*
X9391Y15531D02*
X9399Y15537D01*
X9382Y15526D02*
X9391Y15531D01*
X9372Y15523D02*
X9382Y15526D01*
X9361Y15522D02*
X9372Y15523D01*
X9350D02*
X9361Y15522D01*
X9340Y15526D02*
X9350Y15523D01*
X9331Y15531D02*
X9340Y15526D01*
X9323Y15537D02*
X9331Y15531D01*
X9317Y15545D02*
X9323Y15537D01*
X9312Y15554D02*
X9317Y15545D01*
X9309Y15564D02*
X9312Y15554D01*
X9308Y15575D02*
X9309Y15564D01*
X9308Y15575D02*
X9309Y15584D01*
X9311Y15593D01*
X9315Y15602D01*
X9320Y15609D01*
X9327Y15616D01*
X9334Y15621D01*
X9343Y15625D01*
X9352Y15627D01*
Y15713D01*
X9256D02*
X9352D01*
X9238D02*
X9256D01*
X9143D02*
X9238D01*
X9143Y15627D02*
Y15713D01*
Y15627D02*
X9152Y15625D01*
X9160Y15621D01*
X9168Y15616D01*
X9175Y15609D01*
X9180Y15602D01*
X9184Y15594D01*
X9187Y15584D01*
X9187Y15575D01*
X9186Y15564D02*
X9187Y15575D01*
X9183Y15554D02*
X9186Y15564D01*
X9178Y15545D02*
X9183Y15554D01*
X9172Y15537D02*
X9178Y15545D01*
X9164Y15531D02*
X9172Y15537D01*
X9155Y15526D02*
X9164Y15531D01*
X9145Y15523D02*
X9155Y15526D01*
X9134Y15522D02*
X9145Y15523D01*
X9123D02*
X9134Y15522D01*
X9113Y15526D02*
X9123Y15523D01*
X9104Y15531D02*
X9113Y15526D01*
X9097Y15537D02*
X9104Y15531D01*
X9090Y15545D02*
X9097Y15537D01*
X9085Y15554D02*
X9090Y15545D01*
X9082Y15564D02*
X9085Y15554D01*
X9081Y15575D02*
X9082Y15564D01*
X9081Y15575D02*
X9082Y15584D01*
X9084Y15593D01*
X9088Y15602D01*
X9094Y15609D01*
X9100Y15616D01*
X9107Y15621D01*
X9116Y15625D01*
X9125Y15627D01*
Y15713D01*
X9029D02*
X9125D01*
X9011D02*
X9029D01*
X8915D02*
X9011D01*
X8915Y15627D02*
Y15713D01*
Y15627D02*
X8924Y15625D01*
X8933Y15621D01*
X8941Y15616D01*
X8947Y15609D01*
X8953Y15602D01*
X8957Y15594D01*
X8959Y15584D01*
X8960Y15575D01*
X8959Y15564D02*
X8960Y15575D01*
X8956Y15554D02*
X8959Y15564D01*
X8951Y15545D02*
X8956Y15554D01*
X8945Y15537D02*
X8951Y15545D01*
X8937Y15531D02*
X8945Y15537D01*
X8928Y15526D02*
X8937Y15531D01*
X8918Y15523D02*
X8928Y15526D01*
X8907Y15522D02*
X8918Y15523D01*
X8896D02*
X8907Y15522D01*
X8886Y15526D02*
X8896Y15523D01*
X8877Y15531D02*
X8886Y15526D01*
X8869Y15537D02*
X8877Y15531D01*
X8863Y15545D02*
X8869Y15537D01*
X8858Y15554D02*
X8863Y15545D01*
X8855Y15564D02*
X8858Y15554D01*
X8854Y15575D02*
X8855Y15564D01*
X8854Y15575D02*
X8855Y15584D01*
X8857Y15593D01*
X8861Y15602D01*
X8866Y15609D01*
X8873Y15616D01*
X8880Y15621D01*
X8888Y15625D01*
X8898Y15627D01*
X8897Y15661D02*
X8898Y15627D01*
X8897Y15661D02*
X8897Y15731D01*
X9011D01*
Y15817D01*
X9002Y15819D02*
X9011Y15817D01*
X8994Y15823D02*
X9002Y15819D01*
X8986Y15828D02*
X8994Y15823D01*
X8980Y15835D02*
X8986Y15828D01*
X8975Y15842D02*
X8980Y15835D01*
X8971Y15850D02*
X8975Y15842D01*
X8968Y15859D02*
X8971Y15850D01*
X8967Y15869D02*
X8968Y15859D01*
X8967Y15869D02*
X8968Y15880D01*
X8971Y15890D01*
X8976Y15899D01*
X8983Y15907D01*
X8991Y15913D01*
X9000Y15918D01*
X9010Y15921D01*
X9021Y15922D01*
X9031Y15921D01*
X9041Y15918D01*
X9050Y15913D01*
X9058Y15907D01*
X9065Y15899D01*
X9070Y15890D01*
X9073Y15880D01*
X9074Y15869D01*
X9073Y15859D02*
X9074Y15869D01*
X9070Y15850D02*
X9073Y15859D01*
X9066Y15842D02*
X9070Y15850D01*
X9061Y15834D02*
X9066Y15842D01*
X9054Y15828D02*
X9061Y15834D01*
X9047Y15823D02*
X9054Y15828D01*
X9038Y15819D02*
X9047Y15823D01*
X9029Y15816D02*
X9038Y15819D01*
X9029Y15731D02*
Y15816D01*
Y15731D02*
X9125D01*
X9143D01*
X9238D01*
Y15817D01*
X9229Y15819D02*
X9238Y15817D01*
X9221Y15823D02*
X9229Y15819D01*
X9213Y15828D02*
X9221Y15823D01*
X9207Y15835D02*
X9213Y15828D01*
X9201Y15842D02*
X9207Y15835D01*
X9197Y15850D02*
X9201Y15842D01*
X9195Y15859D02*
X9197Y15850D01*
X9194Y15869D02*
X9195Y15859D01*
X9194Y15869D02*
X9195Y15880D01*
X9198Y15890D01*
X9203Y15899D01*
X9210Y15907D01*
X9218Y15913D01*
X9227Y15918D01*
X9237Y15921D01*
X9247Y15922D01*
X9258Y15921D01*
X9268Y15918D01*
X9277Y15913D01*
X9285Y15907D01*
X9291Y15899D01*
X9296Y15890D01*
X9299Y15880D01*
X9300Y15869D01*
X9300Y15859D02*
X9300Y15869D01*
X9297Y15850D02*
X9300Y15859D01*
X9293Y15842D02*
X9297Y15850D01*
X9288Y15834D02*
X9293Y15842D01*
X9281Y15828D02*
X9288Y15834D01*
X9273Y15823D02*
X9281Y15828D01*
X9265Y15819D02*
X9273Y15823D01*
X9256Y15816D02*
X9265Y15819D01*
X9256Y15731D02*
Y15816D01*
Y15731D02*
X9352D01*
X9369D01*
X9010Y15921D02*
X9032D01*
X9236D02*
X9258D01*
X9002Y15919D02*
X9039D01*
X9229D02*
X9266D01*
X8997Y15917D02*
X9044D01*
X9224D02*
X9271D01*
X8993Y15915D02*
X9048D01*
X9220D02*
X9275D01*
X8990Y15912D02*
X9051D01*
X9216D02*
X9278D01*
X8987Y15910D02*
X9054D01*
X9214D02*
X9281D01*
X8984Y15908D02*
X9057D01*
X9211D02*
X9283D01*
X8982Y15906D02*
X9059D01*
X9209D02*
X9286D01*
X8980Y15904D02*
X9061D01*
X9207D02*
X9288D01*
X8978Y15901D02*
X9063D01*
X9205D02*
X9289D01*
X8977Y15899D02*
X9064D01*
X9204D02*
X9291D01*
X8975Y15897D02*
X9066D01*
X9202D02*
X9292D01*
X8974Y15895D02*
X9067D01*
X9201D02*
X9294D01*
X8973Y15893D02*
X9068D01*
X9200D02*
X9295D01*
X8972Y15891D02*
X9069D01*
X9199D02*
X9296D01*
X8971Y15888D02*
X9070D01*
X9198D02*
X9297D01*
X8970Y15886D02*
X9071D01*
X9197D02*
X9298D01*
X8969Y15884D02*
X9072D01*
X9196D02*
X9298D01*
X8969Y15882D02*
X9072D01*
X9196D02*
X9299D01*
X8968Y15880D02*
X9073D01*
X9195D02*
X9299D01*
X8968Y15877D02*
X9073D01*
X9195D02*
X9300D01*
X8968Y15875D02*
X9073D01*
X9194D02*
X9300D01*
X8967Y15873D02*
X9074D01*
X9194D02*
X9300D01*
X8967Y15871D02*
X9074D01*
X9194D02*
X9300D01*
X8967Y15869D02*
X9074D01*
X9194D02*
X9300D01*
X8967Y15867D02*
X9074D01*
X9194D02*
X9300D01*
X8967Y15864D02*
X9074D01*
X9194D02*
X9300D01*
X8968Y15862D02*
X9073D01*
X9194D02*
X9300D01*
X8968Y15860D02*
X9073D01*
X9195D02*
X9300D01*
X8968Y15858D02*
X9073D01*
X9195D02*
X9299D01*
X8969Y15856D02*
X9072D01*
X9196D02*
X9299D01*
X8970Y15854D02*
X9071D01*
X9196D02*
X9298D01*
X8970Y15851D02*
X9071D01*
X9197D02*
X9298D01*
X8971Y15849D02*
X9070D01*
X9198D02*
X9297D01*
X8972Y15847D02*
X9069D01*
X9199D02*
X9296D01*
X8973Y15845D02*
X9068D01*
X9200D02*
X9295D01*
X8974Y15843D02*
X9067D01*
X9201D02*
X9294D01*
X8976Y15840D02*
X9065D01*
X9202D02*
X9292D01*
X8977Y15838D02*
X9064D01*
X9204D02*
X9291D01*
X8979Y15836D02*
X9062D01*
X9205D02*
X9289D01*
X8980Y15834D02*
X9061D01*
X9207D02*
X9287D01*
X8982Y15832D02*
X9059D01*
X9209D02*
X9285D01*
X8985Y15830D02*
X9056D01*
X9212D02*
X9283D01*
X8987Y15827D02*
X9054D01*
X9214D02*
X9280D01*
X8990Y15825D02*
X9051D01*
X9217D02*
X9278D01*
X8994Y15823D02*
X9047D01*
X9220D02*
X9274D01*
X8998Y15821D02*
X9043D01*
X9225D02*
X9270D01*
X9003Y15819D02*
X9038D01*
X9230D02*
X9265D01*
X9011Y15817D02*
X9029D01*
X9238D02*
X9256D01*
X9011Y15814D02*
X9029D01*
X9238D02*
X9256D01*
X9011Y15812D02*
X9029D01*
X9238D02*
X9256D01*
X9011Y15810D02*
X9029D01*
X9238D02*
X9256D01*
X9011Y15808D02*
X9029D01*
X9238D02*
X9256D01*
X9011Y15806D02*
X9029D01*
X9238D02*
X9256D01*
X9011Y15803D02*
X9029D01*
X9238D02*
X9256D01*
X9011Y15801D02*
X9029D01*
X9238D02*
X9256D01*
X9011Y15799D02*
X9029D01*
X9238D02*
X9256D01*
X9011Y15797D02*
X9029D01*
X9238D02*
X9256D01*
X9011Y15795D02*
X9029D01*
X9238D02*
X9256D01*
X9011Y15793D02*
X9029D01*
X9238D02*
X9256D01*
X9011Y15790D02*
X9029D01*
X9238D02*
X9256D01*
X9011Y15788D02*
X9029D01*
X9238D02*
X9256D01*
X9011Y15786D02*
X9029D01*
X9238D02*
X9256D01*
X9011Y15784D02*
X9029D01*
X9238D02*
X9256D01*
X9011Y15782D02*
X9029D01*
X9238D02*
X9256D01*
X9011Y15779D02*
X9029D01*
X9238D02*
X9256D01*
X9011Y15777D02*
X9029D01*
X9238D02*
X9256D01*
X9011Y15775D02*
X9029D01*
X9238D02*
X9256D01*
X9011Y15773D02*
X9029D01*
X9238D02*
X9256D01*
X9011Y15771D02*
X9029D01*
X9238D02*
X9256D01*
X9011Y15769D02*
X9029D01*
X9238D02*
X9256D01*
X9011Y15766D02*
X9029D01*
X9238D02*
X9256D01*
X9011Y15764D02*
X9029D01*
X9238D02*
X9256D01*
X9011Y15762D02*
X9029D01*
X9238D02*
X9256D01*
X9011Y15760D02*
X9029D01*
X9238D02*
X9256D01*
X9011Y15758D02*
X9029D01*
X9238D02*
X9256D01*
X9011Y15756D02*
X9029D01*
X9238D02*
X9256D01*
X9011Y15753D02*
X9029D01*
X9238D02*
X9256D01*
X9011Y15751D02*
X9029D01*
X9238D02*
X9256D01*
X9011Y15749D02*
X9029D01*
X9238D02*
X9256D01*
X9011Y15747D02*
X9029D01*
X9238D02*
X9256D01*
X9011Y15745D02*
X9029D01*
X9238D02*
X9256D01*
X9011Y15742D02*
X9029D01*
X9238D02*
X9256D01*
X9011Y15740D02*
X9029D01*
X9238D02*
X9256D01*
X9011Y15738D02*
X9029D01*
X9238D02*
X9256D01*
X9011Y15736D02*
X9029D01*
X9238D02*
X9256D01*
X9011Y15734D02*
X9029D01*
X9238D02*
X9256D01*
X9011Y15732D02*
X9029D01*
X9238D02*
X9256D01*
X8897Y15729D02*
X9369D01*
X8897Y15727D02*
X9369D01*
X8897Y15725D02*
X9369D01*
X8897Y15723D02*
X9369D01*
X8897Y15721D02*
X9369D01*
X8897Y15719D02*
X9369D01*
X8897Y15716D02*
X9369D01*
X8897Y15714D02*
X9369D01*
X8897Y15712D02*
X8915D01*
X9125D02*
X9143D01*
X9352D02*
X9369D01*
X8897Y15710D02*
X8915D01*
X9125D02*
X9143D01*
X9352D02*
X9369D01*
X8897Y15708D02*
X8915D01*
X9125D02*
X9143D01*
X9352D02*
X9369D01*
X8897Y15705D02*
X8915D01*
X9125D02*
X9143D01*
X9352D02*
X9369D01*
X8897Y15703D02*
X8915D01*
X9125D02*
X9143D01*
X9352D02*
X9369D01*
X8897Y15701D02*
X8915D01*
X9125D02*
X9143D01*
X9352D02*
X9369D01*
X8897Y15699D02*
X8915D01*
X9125D02*
X9143D01*
X9352D02*
X9369D01*
X8897Y15697D02*
X8915D01*
X9125D02*
X9143D01*
X9352D02*
X9369D01*
X8897Y15695D02*
X8915D01*
X9125D02*
X9143D01*
X9352D02*
X9369D01*
X8897Y15692D02*
X8915D01*
X9125D02*
X9143D01*
X9352D02*
X9369D01*
X8897Y15690D02*
X8915D01*
X9125D02*
X9143D01*
X9352D02*
X9369D01*
X8897Y15688D02*
X8915D01*
X9125D02*
X9143D01*
X9352D02*
X9369D01*
X8897Y15686D02*
X8915D01*
X9125D02*
X9143D01*
X9352D02*
X9369D01*
X8897Y15684D02*
X8915D01*
X9125D02*
X9143D01*
X9352D02*
X9369D01*
X8897Y15681D02*
X8915D01*
X9125D02*
X9143D01*
X9352D02*
X9369D01*
X8897Y15679D02*
X8915D01*
X9125D02*
X9143D01*
X9352D02*
X9369D01*
X8897Y15677D02*
X8915D01*
X9125D02*
X9143D01*
X9352D02*
X9369D01*
X8897Y15675D02*
X8915D01*
X9125D02*
X9143D01*
X9352D02*
X9369D01*
X8897Y15673D02*
X8915D01*
X9125D02*
X9143D01*
X9352D02*
X9369D01*
X8897Y15671D02*
X8915D01*
X9125D02*
X9143D01*
X9352D02*
X9369D01*
X8897Y15668D02*
X8915D01*
X9125D02*
X9143D01*
X9352D02*
X9369D01*
X8897Y15666D02*
X8915D01*
X9125D02*
X9143D01*
X9352D02*
X9369D01*
X8897Y15664D02*
X8915D01*
X9125D02*
X9143D01*
X9352D02*
X9369D01*
X8897Y15662D02*
X8915D01*
X9125D02*
X9143D01*
X9352D02*
X9369D01*
X8897Y15660D02*
X8915D01*
X9125D02*
X9143D01*
X9352D02*
X9369D01*
X8897Y15658D02*
X8915D01*
X9125D02*
X9143D01*
X9352D02*
X9369D01*
X8897Y15655D02*
X8915D01*
X9125D02*
X9143D01*
X9352D02*
X9369D01*
X8897Y15653D02*
X8915D01*
X9125D02*
X9143D01*
X9352D02*
X9369D01*
X8897Y15651D02*
X8915D01*
X9125D02*
X9143D01*
X9352D02*
X9369D01*
X8897Y15649D02*
X8915D01*
X9125D02*
X9143D01*
X9352D02*
X9369D01*
X8897Y15647D02*
X8915D01*
X9125D02*
X9143D01*
X9352D02*
X9369D01*
X8897Y15644D02*
X8915D01*
X9125D02*
X9143D01*
X9352D02*
X9369D01*
X8897Y15642D02*
X8915D01*
X9125D02*
X9143D01*
X9352D02*
X9369D01*
X8897Y15640D02*
X8915D01*
X9125D02*
X9143D01*
X9352D02*
X9369D01*
X8897Y15638D02*
X8915D01*
X9125D02*
X9143D01*
X9352D02*
X9369D01*
X8898Y15636D02*
X8915D01*
X9125D02*
X9143D01*
X9352D02*
X9369D01*
X8898Y15634D02*
X8915D01*
X9125D02*
X9143D01*
X9352D02*
X9369D01*
X8898Y15631D02*
X8915D01*
X9125D02*
X9143D01*
X9352D02*
X9369D01*
X8898Y15629D02*
X8915D01*
X9125D02*
X9143D01*
X9352D02*
X9369D01*
X8897Y15627D02*
X8916D01*
X9124D02*
X9144D01*
X9351D02*
X9370D01*
X8889Y15625D02*
X8925D01*
X9116D02*
X9152D01*
X9343D02*
X9379D01*
X8884Y15623D02*
X8930D01*
X9111D02*
X9157D01*
X9338D02*
X9384D01*
X8880Y15621D02*
X8934D01*
X9107D02*
X9161D01*
X9334D02*
X9388D01*
X8876Y15618D02*
X8937D01*
X9104D02*
X9165D01*
X9330D02*
X9391D01*
X8873Y15616D02*
X8940D01*
X9101D02*
X9168D01*
X9328D02*
X9394D01*
X8871Y15614D02*
X8943D01*
X9098D02*
X9170D01*
X9325D02*
X9397D01*
X8869Y15612D02*
X8945D01*
X9096D02*
X9172D01*
X9323D02*
X9399D01*
X8867Y15610D02*
X8947D01*
X9094D02*
X9174D01*
X9321D02*
X9401D01*
X8865Y15607D02*
X8949D01*
X9092D02*
X9176D01*
X9319D02*
X9403D01*
X8863Y15605D02*
X8950D01*
X9091D02*
X9178D01*
X9317D02*
X9404D01*
X8862Y15603D02*
X8952D01*
X9089D02*
X9179D01*
X9316D02*
X9406D01*
X8861Y15601D02*
X8953D01*
X9088D02*
X9181D01*
X9315D02*
X9407D01*
X8859Y15599D02*
X8954D01*
X9087D02*
X9182D01*
X9313D02*
X9408D01*
X8858Y15597D02*
X8955D01*
X9086D02*
X9183D01*
X9312D02*
X9409D01*
X8857Y15594D02*
X8956D01*
X9085D02*
X9184D01*
X9311D02*
X9410D01*
X8857Y15592D02*
X8957D01*
X9084D02*
X9184D01*
X9311D02*
X9411D01*
X8856Y15590D02*
X8958D01*
X9083D02*
X9185D01*
X9310D02*
X9412D01*
X8855Y15588D02*
X8958D01*
X9083D02*
X9186D01*
X9309D02*
X9413D01*
X8855Y15586D02*
X8959D01*
X9082D02*
X9186D01*
X9309D02*
X9413D01*
X8854Y15583D02*
X8959D01*
X9082D02*
X9187D01*
X9308D02*
X9413D01*
X8854Y15581D02*
X8960D01*
X9081D02*
X9187D01*
X9308D02*
X9414D01*
X8854Y15579D02*
X8960D01*
X9081D02*
X9187D01*
X9308D02*
X9414D01*
X8854Y15577D02*
X8960D01*
X9081D02*
X9187D01*
X9308D02*
X9414D01*
X8854Y15575D02*
X8960D01*
X9081D02*
X9187D01*
X9308D02*
X9414D01*
X8854Y15573D02*
X8960D01*
X9081D02*
X9187D01*
X9308D02*
X9414D01*
X8854Y15570D02*
X8960D01*
X9081D02*
X9187D01*
X9308D02*
X9414D01*
X8854Y15568D02*
X8960D01*
X9081D02*
X9187D01*
X9308D02*
X9414D01*
X8854Y15566D02*
X8959D01*
X9082D02*
X9187D01*
X9308D02*
X9413D01*
X8855Y15564D02*
X8959D01*
X9082D02*
X9186D01*
X9309D02*
X9413D01*
X8855Y15562D02*
X8958D01*
X9083D02*
X9186D01*
X9309D02*
X9413D01*
X8856Y15560D02*
X8958D01*
X9083D02*
X9185D01*
X9310D02*
X9412D01*
X8857Y15557D02*
X8957D01*
X9084D02*
X9184D01*
X9311D02*
X9411D01*
X8857Y15555D02*
X8956D01*
X9085D02*
X9184D01*
X9311D02*
X9410D01*
X8858Y15553D02*
X8955D01*
X9086D02*
X9183D01*
X9312D02*
X9410D01*
X8859Y15551D02*
X8954D01*
X9087D02*
X9182D01*
X9313D02*
X9408D01*
X8860Y15549D02*
X8953D01*
X9088D02*
X9181D01*
X9315D02*
X9407D01*
X8862Y15546D02*
X8952D01*
X9089D02*
X9179D01*
X9316D02*
X9406D01*
X8863Y15544D02*
X8951D01*
X9091D02*
X9178D01*
X9317D02*
X9405D01*
X8865Y15542D02*
X8949D01*
X9092D02*
X9176D01*
X9319D02*
X9403D01*
X8867Y15540D02*
X8947D01*
X9094D02*
X9174D01*
X9321D02*
X9401D01*
X8869Y15538D02*
X8945D01*
X9096D02*
X9172D01*
X9323D02*
X9399D01*
X8871Y15536D02*
X8943D01*
X9098D02*
X9170D01*
X9325D02*
X9397D01*
X8873Y15533D02*
X8940D01*
X9101D02*
X9168D01*
X9327D02*
X9394D01*
X8876Y15531D02*
X8938D01*
X9104D02*
X9165D01*
X9330D02*
X9392D01*
X8880Y15529D02*
X8934D01*
X9107D02*
X9161D01*
X9334D02*
X9388D01*
X8884Y15527D02*
X8930D01*
X9111D02*
X9157D01*
X9338D02*
X9384D01*
X8889Y15525D02*
X8925D01*
X9116D02*
X9152D01*
X9343D02*
X9379D01*
X8897Y15523D02*
X8917D01*
X9124D02*
X9145D01*
X9351D02*
X9371D01*
M02*
