G04*
G04 #@! TF.GenerationSoftware,Altium Limited,Altium Designer,19.1.7 (138)*
G04*
G04 Layer_Color=8388736*
%FSLAX42Y42*%
%MOMM*%
G71*
G01*
G75*
%ADD62R,0.51X0.86*%
%ADD63R,0.51X1.61*%
%ADD64R,0.51X1.96*%
%ADD65R,0.86X0.51*%
%ADD66R,0.86X1.01*%
%ADD67R,1.80X1.20*%
%ADD68O,1.20X0.50*%
%ADD69O,0.50X1.20*%
%ADD70R,3.65X3.65*%
%ADD71O,0.51X1.26*%
%ADD72O,1.26X0.51*%
%ADD73R,2.76X2.76*%
%ADD74R,2.80X1.80*%
%ADD75O,1.85X0.55*%
%ADD76O,0.55X1.85*%
%ADD77R,1.69X2.60*%
%ADD78R,0.85X0.70*%
%ADD79R,2.60X1.69*%
%ADD80R,0.70X0.85*%
%ADD81R,1.40X0.85*%
%ADD82R,1.45X1.20*%
%ADD83R,1.10X1.00*%
%ADD84R,1.40X2.20*%
%ADD85R,1.61X0.66*%
%ADD86R,2.16X2.16*%
%ADD87R,1.66X1.86*%
%ADD88R,2.00X1.60*%
%ADD89R,1.25X1.15*%
%ADD90R,1.18X3.60*%
%ADD91R,2.20X1.60*%
%ADD92R,1.60X2.20*%
%ADD93R,1.60X1.40*%
%ADD94R,1.00X1.00*%
%ADD95C,0.46*%
%ADD96R,1.40X1.10*%
%ADD97R,1.10X1.40*%
%ADD98R,3.20X2.20*%
%ADD99R,1.17X1.00*%
%ADD100R,1.00X1.17*%
%ADD101R,0.84X0.70*%
%ADD102R,1.25X2.40*%
%ADD103R,1.20X1.25*%
%ADD104R,2.20X3.20*%
%ADD105C,1.80*%
%ADD106R,1.80X1.80*%
%ADD107O,1.86X1.16*%
%ADD108C,2.70*%
%ADD109C,3.45*%
G04:AMPARAMS|DCode=110|XSize=1.7mm|YSize=2.2mm|CornerRadius=0.48mm|HoleSize=0mm|Usage=FLASHONLY|Rotation=270.000|XOffset=0mm|YOffset=0mm|HoleType=Round|Shape=RoundedRectangle|*
%AMROUNDEDRECTD110*
21,1,1.70,1.25,0,0,270.0*
21,1,0.75,2.20,0,0,270.0*
1,1,0.95,-0.63,-0.38*
1,1,0.95,-0.63,0.38*
1,1,0.95,0.63,0.38*
1,1,0.95,0.63,-0.38*
%
%ADD110ROUNDEDRECTD110*%
%ADD111C,2.30*%
%ADD112C,1.85*%
%ADD113R,1.85X1.85*%
%ADD114C,0.90*%
%ADD115C,0.70*%
D62*
X8829Y10508D02*
D03*
X8779D02*
D03*
X8729D02*
D03*
X8679D02*
D03*
D63*
X8804Y10315D02*
D03*
X8704D02*
D03*
D64*
X8754Y10333D02*
D03*
D65*
X8894Y10465D02*
D03*
Y10415D02*
D03*
X8614Y10415D02*
D03*
Y10465D02*
D03*
D66*
X8894Y10340D02*
D03*
X8614D02*
D03*
D67*
X15864Y11877D02*
D03*
Y12227D02*
D03*
X15634Y12052D02*
D03*
D68*
X13513Y14780D02*
D03*
Y14730D02*
D03*
Y14680D02*
D03*
Y14630D02*
D03*
Y14580D02*
D03*
Y14530D02*
D03*
Y14480D02*
D03*
Y14430D02*
D03*
X13998D02*
D03*
Y14480D02*
D03*
Y14530D02*
D03*
Y14580D02*
D03*
Y14630D02*
D03*
Y14680D02*
D03*
Y14730D02*
D03*
Y14780D02*
D03*
D69*
X13580Y14362D02*
D03*
X13630D02*
D03*
X13680D02*
D03*
X13730D02*
D03*
X13780D02*
D03*
X13830D02*
D03*
X13880D02*
D03*
X13930D02*
D03*
Y14848D02*
D03*
X13880D02*
D03*
X13830D02*
D03*
X13780D02*
D03*
X13730D02*
D03*
X13680D02*
D03*
X13630D02*
D03*
X13580D02*
D03*
D70*
X13755Y14605D02*
D03*
D71*
X11330Y10526D02*
D03*
X11380D02*
D03*
X11430D02*
D03*
X11480D02*
D03*
X11530D02*
D03*
X11580D02*
D03*
Y10911D02*
D03*
X11530D02*
D03*
X11480D02*
D03*
X11430D02*
D03*
X11380D02*
D03*
X11330D02*
D03*
D72*
X11648Y10594D02*
D03*
Y10644D02*
D03*
Y10694D02*
D03*
Y10744D02*
D03*
Y10794D02*
D03*
Y10844D02*
D03*
X11263D02*
D03*
Y10794D02*
D03*
Y10744D02*
D03*
Y10694D02*
D03*
Y10644D02*
D03*
Y10594D02*
D03*
D73*
X11455Y10719D02*
D03*
D74*
X10501Y10350D02*
D03*
X10861D02*
D03*
D75*
X11410Y13541D02*
D03*
Y13491D02*
D03*
Y13441D02*
D03*
Y13391D02*
D03*
Y13341D02*
D03*
Y13291D02*
D03*
Y13241D02*
D03*
Y13191D02*
D03*
Y13141D02*
D03*
Y13091D02*
D03*
Y13041D02*
D03*
Y12991D02*
D03*
Y12941D02*
D03*
Y12891D02*
D03*
Y12841D02*
D03*
Y12791D02*
D03*
Y12741D02*
D03*
Y12691D02*
D03*
Y12641D02*
D03*
Y12591D02*
D03*
Y12541D02*
D03*
Y12491D02*
D03*
Y12441D02*
D03*
Y12391D02*
D03*
Y12341D02*
D03*
X12974D02*
D03*
Y12391D02*
D03*
Y12441D02*
D03*
Y12491D02*
D03*
Y12541D02*
D03*
Y12591D02*
D03*
Y12641D02*
D03*
Y12691D02*
D03*
Y12741D02*
D03*
Y12791D02*
D03*
Y12841D02*
D03*
Y12891D02*
D03*
Y12941D02*
D03*
Y12991D02*
D03*
Y13041D02*
D03*
Y13091D02*
D03*
Y13141D02*
D03*
Y13191D02*
D03*
Y13241D02*
D03*
Y13291D02*
D03*
Y13341D02*
D03*
Y13391D02*
D03*
Y13441D02*
D03*
Y13491D02*
D03*
Y13541D02*
D03*
X15025Y11130D02*
D03*
Y11180D02*
D03*
Y11230D02*
D03*
Y11280D02*
D03*
Y11330D02*
D03*
Y11380D02*
D03*
Y11430D02*
D03*
Y11480D02*
D03*
Y11530D02*
D03*
Y11580D02*
D03*
Y11630D02*
D03*
Y11680D02*
D03*
X14160D02*
D03*
Y11630D02*
D03*
Y11580D02*
D03*
Y11530D02*
D03*
Y11480D02*
D03*
Y11430D02*
D03*
Y11380D02*
D03*
Y11330D02*
D03*
Y11280D02*
D03*
Y11230D02*
D03*
Y11180D02*
D03*
Y11130D02*
D03*
D76*
X11592Y12159D02*
D03*
X11642D02*
D03*
X11692D02*
D03*
X11742D02*
D03*
X11792D02*
D03*
X11842D02*
D03*
X11892D02*
D03*
X11942D02*
D03*
X11992D02*
D03*
X12042D02*
D03*
X12092D02*
D03*
X12142D02*
D03*
X12192D02*
D03*
X12242D02*
D03*
X12292D02*
D03*
X12342D02*
D03*
X12392D02*
D03*
X12442D02*
D03*
X12492D02*
D03*
X12542D02*
D03*
X12592D02*
D03*
X12642D02*
D03*
X12692D02*
D03*
X12742D02*
D03*
X12792D02*
D03*
Y13724D02*
D03*
X12742D02*
D03*
X12692D02*
D03*
X12642D02*
D03*
X12592D02*
D03*
X12542D02*
D03*
X12492D02*
D03*
X12442D02*
D03*
X12392D02*
D03*
X12342D02*
D03*
X12292D02*
D03*
X12242D02*
D03*
X12192D02*
D03*
X12142D02*
D03*
X12092D02*
D03*
X12042D02*
D03*
X11992D02*
D03*
X11942D02*
D03*
X11892D02*
D03*
X11842D02*
D03*
X11792D02*
D03*
X11742D02*
D03*
X11692D02*
D03*
X11642D02*
D03*
X11592D02*
D03*
X14317Y10972D02*
D03*
X14367D02*
D03*
X14417D02*
D03*
X14467D02*
D03*
X14517D02*
D03*
X14567D02*
D03*
X14617D02*
D03*
X14667D02*
D03*
X14717D02*
D03*
X14767D02*
D03*
X14817D02*
D03*
X14867D02*
D03*
Y11837D02*
D03*
X14817D02*
D03*
X14767D02*
D03*
X14717D02*
D03*
X14667D02*
D03*
X14617D02*
D03*
X14567D02*
D03*
X14517D02*
D03*
X14467D02*
D03*
X14417D02*
D03*
X14367D02*
D03*
X14317D02*
D03*
D77*
X9198Y10669D02*
D03*
D78*
X9325Y10571D02*
D03*
Y10636D02*
D03*
Y10701D02*
D03*
Y10766D02*
D03*
X9071Y10571D02*
D03*
Y10636D02*
D03*
Y10701D02*
D03*
Y10766D02*
D03*
D79*
X9769Y10250D02*
D03*
D80*
X9672Y10123D02*
D03*
X9737D02*
D03*
X9802D02*
D03*
X9867D02*
D03*
X9672Y10377D02*
D03*
X9737D02*
D03*
X9802D02*
D03*
X9867D02*
D03*
D81*
X15342Y12681D02*
D03*
Y12776D02*
D03*
Y12871D02*
D03*
X15047D02*
D03*
Y12776D02*
D03*
Y12681D02*
D03*
X15306Y13535D02*
D03*
Y13630D02*
D03*
Y13725D02*
D03*
X15011D02*
D03*
Y13630D02*
D03*
Y13535D02*
D03*
D82*
X11024Y13258D02*
D03*
Y13108D02*
D03*
X14187Y14734D02*
D03*
Y14884D02*
D03*
D83*
X14123Y14415D02*
D03*
X14263D02*
D03*
X14123Y14304D02*
D03*
X14263D02*
D03*
D84*
X10799Y12553D02*
D03*
Y12923D02*
D03*
X11019Y12553D02*
D03*
Y12923D02*
D03*
D85*
X15579Y12681D02*
D03*
Y12746D02*
D03*
Y12811D02*
D03*
Y12876D02*
D03*
Y12941D02*
D03*
X15581Y13518D02*
D03*
Y13583D02*
D03*
Y13648D02*
D03*
Y13713D02*
D03*
Y13778D02*
D03*
D86*
X15847Y12931D02*
D03*
Y12691D02*
D03*
X15848Y13768D02*
D03*
Y13528D02*
D03*
D87*
X15604Y13131D02*
D03*
Y12491D02*
D03*
X15606Y13968D02*
D03*
Y13328D02*
D03*
D88*
X14317Y10476D02*
D03*
X14757D02*
D03*
X14317Y10236D02*
D03*
X14757D02*
D03*
D89*
X13297Y15159D02*
D03*
X13112D02*
D03*
X13297Y15304D02*
D03*
X13112D02*
D03*
D90*
X8863Y9970D02*
D03*
X8626D02*
D03*
D91*
X9160Y9801D02*
D03*
Y10241D02*
D03*
D92*
X15406Y13249D02*
D03*
X14966D02*
D03*
X15427Y12395D02*
D03*
X14987D02*
D03*
D93*
X11836Y10528D02*
D03*
X12056D02*
D03*
X11836Y10358D02*
D03*
X12056D02*
D03*
D94*
X14681Y12294D02*
D03*
X14846D02*
D03*
X9976Y9614D02*
D03*
X10141D02*
D03*
D95*
X14081Y14628D02*
D03*
X14181D02*
D03*
X14081Y14588D02*
D03*
X14181D02*
D03*
D96*
X10778Y10693D02*
D03*
X10508D02*
D03*
D97*
X10325Y10930D02*
D03*
Y10660D02*
D03*
D98*
X9639Y8506D02*
D03*
X8539D02*
D03*
X8539Y9106D02*
D03*
X9639D02*
D03*
D99*
X14111Y10355D02*
D03*
Y10512D02*
D03*
X14948Y10478D02*
D03*
Y10320D02*
D03*
X14656Y15880D02*
D03*
Y15723D02*
D03*
X12470Y9479D02*
D03*
Y9321D02*
D03*
X12340Y9479D02*
D03*
Y9321D02*
D03*
X12217Y10531D02*
D03*
Y10373D02*
D03*
X12340Y9749D02*
D03*
Y9591D02*
D03*
X10401Y9769D02*
D03*
Y9611D02*
D03*
X12954Y14399D02*
D03*
Y14557D02*
D03*
X11493Y13805D02*
D03*
Y13962D02*
D03*
X10639Y12926D02*
D03*
Y12768D02*
D03*
X10503Y13009D02*
D03*
Y12851D02*
D03*
X11024Y13383D02*
D03*
Y13541D02*
D03*
X9020Y10933D02*
D03*
Y11090D02*
D03*
X9274Y10935D02*
D03*
Y11093D02*
D03*
X9147Y10933D02*
D03*
Y11090D02*
D03*
X10023Y10120D02*
D03*
Y10277D02*
D03*
X9515Y9980D02*
D03*
Y10138D02*
D03*
X8639Y10933D02*
D03*
Y11090D02*
D03*
X8893Y10935D02*
D03*
Y11093D02*
D03*
X8766Y10933D02*
D03*
Y11090D02*
D03*
X8893Y10824D02*
D03*
Y10666D02*
D03*
X9515Y10404D02*
D03*
Y10247D02*
D03*
X9388Y10404D02*
D03*
Y10247D02*
D03*
X8639Y10666D02*
D03*
Y10824D02*
D03*
X13717Y15156D02*
D03*
Y14999D02*
D03*
X13589Y15164D02*
D03*
Y15006D02*
D03*
X13844Y15154D02*
D03*
Y14996D02*
D03*
X14102Y15005D02*
D03*
Y15163D02*
D03*
X14364Y15009D02*
D03*
Y15167D02*
D03*
X14390Y14415D02*
D03*
Y14257D02*
D03*
X14288Y10798D02*
D03*
Y10640D02*
D03*
X14415Y10798D02*
D03*
Y10640D02*
D03*
X13970Y11151D02*
D03*
Y11308D02*
D03*
X14668Y10810D02*
D03*
Y10653D02*
D03*
X14672Y12175D02*
D03*
Y12017D02*
D03*
X14529Y12101D02*
D03*
Y12258D02*
D03*
X14402Y12101D02*
D03*
Y12258D02*
D03*
X14275Y12101D02*
D03*
Y12258D02*
D03*
X13560Y15741D02*
D03*
Y15899D02*
D03*
Y15629D02*
D03*
Y15471D02*
D03*
X12687Y15354D02*
D03*
Y15197D02*
D03*
X12814Y15197D02*
D03*
Y15354D02*
D03*
X12433Y15357D02*
D03*
Y15199D02*
D03*
X12179Y15357D02*
D03*
Y15199D02*
D03*
X12306Y15199D02*
D03*
Y15357D02*
D03*
X11925Y15357D02*
D03*
Y15199D02*
D03*
X12052Y15199D02*
D03*
Y15357D02*
D03*
X11671Y15357D02*
D03*
Y15199D02*
D03*
X11798Y15199D02*
D03*
Y15357D02*
D03*
X11417Y15357D02*
D03*
Y15199D02*
D03*
X11544Y15199D02*
D03*
Y15357D02*
D03*
X12979Y15149D02*
D03*
Y15306D02*
D03*
X13462Y15309D02*
D03*
Y15151D02*
D03*
X11468Y11095D02*
D03*
Y11252D02*
D03*
X11711Y11168D02*
D03*
Y11010D02*
D03*
X12210Y9591D02*
D03*
Y9749D02*
D03*
X10401Y10036D02*
D03*
Y9878D02*
D03*
X13081Y14569D02*
D03*
Y14412D02*
D03*
X14110Y15535D02*
D03*
Y15377D02*
D03*
X9919Y9962D02*
D03*
Y9804D02*
D03*
X9757Y10747D02*
D03*
Y10590D02*
D03*
X8766Y10824D02*
D03*
Y10666D02*
D03*
X14233Y15010D02*
D03*
Y15168D02*
D03*
X13971Y15154D02*
D03*
Y14996D02*
D03*
X12210Y9479D02*
D03*
Y9321D02*
D03*
D100*
X14953Y10681D02*
D03*
X14796D02*
D03*
X13277Y15024D02*
D03*
X13119D02*
D03*
X12062Y10160D02*
D03*
X12220D02*
D03*
X11039Y12370D02*
D03*
X10881D02*
D03*
X9475Y10605D02*
D03*
X9632D02*
D03*
X13828Y15278D02*
D03*
X13985D02*
D03*
X13985Y15405D02*
D03*
X13828D02*
D03*
X13985Y15532D02*
D03*
X13828D02*
D03*
X14350Y14732D02*
D03*
X14507D02*
D03*
X14271Y14186D02*
D03*
X14113D02*
D03*
X14350Y14859D02*
D03*
X14507D02*
D03*
X15049Y14122D02*
D03*
X14892D02*
D03*
X14953Y10808D02*
D03*
X14796D02*
D03*
X14983Y11027D02*
D03*
X15141D02*
D03*
X14950Y12167D02*
D03*
X14793D02*
D03*
X14793Y12027D02*
D03*
X14950D02*
D03*
X11115Y10693D02*
D03*
X10958D02*
D03*
X11115Y10808D02*
D03*
X10958D02*
D03*
X11166Y11252D02*
D03*
X11008D02*
D03*
X11112Y10922D02*
D03*
X10955D02*
D03*
X11796Y10884D02*
D03*
X11953D02*
D03*
X12151Y10668D02*
D03*
X12309D02*
D03*
X11021Y10160D02*
D03*
X11179D02*
D03*
X11433D02*
D03*
X11275D02*
D03*
X11532D02*
D03*
X11689D02*
D03*
X11943D02*
D03*
X11786D02*
D03*
X10645Y10858D02*
D03*
X10488D02*
D03*
X14691Y13564D02*
D03*
X14849D02*
D03*
X14691Y13703D02*
D03*
X14849D02*
D03*
X9632Y10859D02*
D03*
X9475D02*
D03*
X9797Y9957D02*
D03*
X9640D02*
D03*
X9475Y10732D02*
D03*
X9632D02*
D03*
X9068Y10402D02*
D03*
X9226D02*
D03*
X13119Y14897D02*
D03*
X13277D02*
D03*
X13142Y14770D02*
D03*
X13299D02*
D03*
X13207Y14643D02*
D03*
X13364D02*
D03*
X13207Y14440D02*
D03*
X13364D02*
D03*
X13207Y14313D02*
D03*
X13364D02*
D03*
D101*
X14009Y14160D02*
D03*
Y14288D02*
D03*
D102*
X13823Y15837D02*
D03*
X14118D02*
D03*
D103*
X13970Y15685D02*
D03*
D104*
X15698Y15761D02*
D03*
Y14361D02*
D03*
X14948Y15761D02*
D03*
Y14361D02*
D03*
D105*
X11303Y15557D02*
D03*
Y15812D02*
D03*
X11557Y15557D02*
D03*
Y15812D02*
D03*
X11811Y15557D02*
D03*
Y15812D02*
D03*
X12065Y15557D02*
D03*
Y15812D02*
D03*
X12319Y15557D02*
D03*
Y15812D02*
D03*
X12573Y15557D02*
D03*
Y15812D02*
D03*
X12827Y15557D02*
D03*
Y15812D02*
D03*
X13081Y15557D02*
D03*
Y15812D02*
D03*
X13335Y15557D02*
D03*
X15824Y11062D02*
D03*
Y10808D02*
D03*
Y10554D02*
D03*
Y10300D02*
D03*
Y10046D02*
D03*
X15570Y11062D02*
D03*
Y10808D02*
D03*
Y10554D02*
D03*
Y10300D02*
D03*
Y10046D02*
D03*
X15824Y9792D02*
D03*
X15570D02*
D03*
X12789Y8192D02*
D03*
X13043D02*
D03*
X15075D02*
D03*
X14821D02*
D03*
X14567D02*
D03*
X14313D02*
D03*
X14059D02*
D03*
X13805D02*
D03*
X13551D02*
D03*
X13297D02*
D03*
X11600Y10000D02*
D03*
X11015D02*
D03*
X10761D02*
D03*
X11854D02*
D03*
X10863Y9263D02*
D03*
X11117D02*
D03*
X11371D02*
D03*
X11625D02*
D03*
X10990Y9517D02*
D03*
X11244D02*
D03*
X11498D02*
D03*
X11752D02*
D03*
D106*
X13335Y15812D02*
D03*
D107*
X15847Y13141D02*
D03*
Y12481D02*
D03*
X15848Y13978D02*
D03*
Y13318D02*
D03*
D108*
X10518Y8933D02*
D03*
X12097D02*
D03*
D109*
X10736Y8628D02*
D03*
X11879D02*
D03*
D110*
X9089Y8506D02*
D03*
D111*
Y8946D02*
D03*
D112*
X8297Y13598D02*
D03*
Y14106D02*
D03*
Y14360D02*
D03*
Y14614D02*
D03*
Y14868D02*
D03*
Y15122D02*
D03*
Y13852D02*
D03*
X10583D02*
D03*
Y15122D02*
D03*
Y14868D02*
D03*
Y14614D02*
D03*
Y14360D02*
D03*
Y14106D02*
D03*
Y13598D02*
D03*
D113*
X8297Y15376D02*
D03*
X10583D02*
D03*
D114*
X15925Y15400D02*
D03*
X15750Y15050D02*
D03*
X15925Y14700D02*
D03*
Y11200D02*
D03*
X15750Y9450D02*
D03*
X15925Y9100D02*
D03*
X15750Y8750D02*
D03*
X15925Y8400D02*
D03*
X15750Y8050D02*
D03*
X15400Y15750D02*
D03*
X15575Y15400D02*
D03*
X15400Y15050D02*
D03*
X15575Y14700D02*
D03*
X15400Y14350D02*
D03*
X15575Y11200D02*
D03*
X15400Y10150D02*
D03*
Y9450D02*
D03*
X15575Y9100D02*
D03*
X15400Y8750D02*
D03*
X15575Y8400D02*
D03*
X15400Y8050D02*
D03*
X15050Y15050D02*
D03*
X15225Y14700D02*
D03*
Y13300D02*
D03*
X15050Y10850D02*
D03*
X15225Y10500D02*
D03*
X15050Y10150D02*
D03*
Y9450D02*
D03*
X15225Y9100D02*
D03*
Y8400D02*
D03*
X15050Y8050D02*
D03*
X14875Y15400D02*
D03*
Y14700D02*
D03*
Y14000D02*
D03*
X14700Y12950D02*
D03*
Y8750D02*
D03*
Y8050D02*
D03*
X14350Y15750D02*
D03*
X14525Y14000D02*
D03*
Y13300D02*
D03*
Y12600D02*
D03*
X14350Y8050D02*
D03*
X14000Y13650D02*
D03*
Y12950D02*
D03*
X14175Y11900D02*
D03*
X14000Y11550D02*
D03*
Y10850D02*
D03*
X14175Y9100D02*
D03*
Y8400D02*
D03*
X14000Y8050D02*
D03*
X13825Y12600D02*
D03*
X13650Y12250D02*
D03*
Y11550D02*
D03*
X13825Y11200D02*
D03*
X13650Y10850D02*
D03*
X13825Y10500D02*
D03*
X13650Y10150D02*
D03*
Y9450D02*
D03*
Y8750D02*
D03*
Y8050D02*
D03*
X13300Y12950D02*
D03*
X13475Y12600D02*
D03*
Y11900D02*
D03*
Y11200D02*
D03*
Y9100D02*
D03*
Y8400D02*
D03*
X13300Y8050D02*
D03*
X13125Y12600D02*
D03*
Y11900D02*
D03*
Y10500D02*
D03*
X12950Y10150D02*
D03*
Y9450D02*
D03*
X13125Y9100D02*
D03*
X12950Y8750D02*
D03*
X13125Y8400D02*
D03*
X12950Y8050D02*
D03*
X12775Y11900D02*
D03*
Y10500D02*
D03*
X12600Y10150D02*
D03*
Y9450D02*
D03*
X12775Y9100D02*
D03*
X12600Y8750D02*
D03*
X12775Y8400D02*
D03*
X12600Y8050D02*
D03*
X12425Y11200D02*
D03*
Y9100D02*
D03*
X12250Y8750D02*
D03*
X12425Y8400D02*
D03*
X12250Y8050D02*
D03*
X12075Y11200D02*
D03*
Y8400D02*
D03*
X11900Y8050D02*
D03*
X11550Y8750D02*
D03*
X11725Y8400D02*
D03*
X11550Y8050D02*
D03*
X11200Y8750D02*
D03*
X11375Y8400D02*
D03*
X11200Y8050D02*
D03*
X10850Y15750D02*
D03*
X11025Y15400D02*
D03*
X10850Y12250D02*
D03*
Y9450D02*
D03*
X11025Y8400D02*
D03*
X10850Y8050D02*
D03*
X10500Y15750D02*
D03*
X10675Y12600D02*
D03*
X10500Y12250D02*
D03*
X10675Y11900D02*
D03*
X10500Y11550D02*
D03*
Y9450D02*
D03*
X10675Y9100D02*
D03*
Y8400D02*
D03*
X10500Y8050D02*
D03*
X10150Y15750D02*
D03*
X10325Y15400D02*
D03*
X10150Y15050D02*
D03*
Y14350D02*
D03*
X10325Y14000D02*
D03*
Y13300D02*
D03*
X10150Y12950D02*
D03*
X10325Y12600D02*
D03*
X10150Y12250D02*
D03*
X10325Y11900D02*
D03*
X10150Y11550D02*
D03*
X10325Y11200D02*
D03*
X10150Y10850D02*
D03*
Y9450D02*
D03*
X10325Y9100D02*
D03*
X10150Y8750D02*
D03*
X10325Y8400D02*
D03*
X10150Y8050D02*
D03*
X9800Y15750D02*
D03*
X9975Y15400D02*
D03*
X9800Y15050D02*
D03*
Y14350D02*
D03*
Y13650D02*
D03*
X9975Y13300D02*
D03*
Y12600D02*
D03*
Y11900D02*
D03*
X9800Y11550D02*
D03*
X9975Y11200D02*
D03*
X9800Y10850D02*
D03*
Y9450D02*
D03*
X9975Y9100D02*
D03*
X9800Y8750D02*
D03*
X9975Y8400D02*
D03*
X9800Y8050D02*
D03*
X9450Y15750D02*
D03*
X9625Y15400D02*
D03*
X9450Y15050D02*
D03*
Y14350D02*
D03*
X9625Y14000D02*
D03*
X9450Y13650D02*
D03*
X9625Y13300D02*
D03*
X9450Y12950D02*
D03*
Y11550D02*
D03*
X9625Y11200D02*
D03*
X9450Y8750D02*
D03*
Y8050D02*
D03*
X9100Y15750D02*
D03*
X9275Y15400D02*
D03*
X9100Y15050D02*
D03*
Y14350D02*
D03*
X9275Y14000D02*
D03*
X9100Y13650D02*
D03*
X9275Y13300D02*
D03*
X9100Y12950D02*
D03*
Y11550D02*
D03*
X9275Y11200D02*
D03*
X9100Y9450D02*
D03*
X9275Y9100D02*
D03*
X9100Y8750D02*
D03*
X9275Y8400D02*
D03*
X9100Y8050D02*
D03*
X8750Y15750D02*
D03*
X8925Y15400D02*
D03*
X8750Y15050D02*
D03*
Y14350D02*
D03*
X8925Y14000D02*
D03*
X8750Y13650D02*
D03*
X8925Y13300D02*
D03*
X8750Y12950D02*
D03*
Y12250D02*
D03*
Y11550D02*
D03*
X8925Y11200D02*
D03*
X8750Y10150D02*
D03*
Y9450D02*
D03*
X8925Y9100D02*
D03*
X8750Y8750D02*
D03*
X8925Y8400D02*
D03*
X8750Y8050D02*
D03*
X8400Y15750D02*
D03*
X8575Y14700D02*
D03*
Y14000D02*
D03*
Y13300D02*
D03*
X8400Y12950D02*
D03*
X8575Y12600D02*
D03*
X8400Y12250D02*
D03*
X8575Y11900D02*
D03*
X8400Y11550D02*
D03*
Y10850D02*
D03*
Y9450D02*
D03*
Y8750D02*
D03*
Y8050D02*
D03*
X8050Y15750D02*
D03*
Y15050D02*
D03*
Y14350D02*
D03*
Y13650D02*
D03*
X8225Y13300D02*
D03*
X8050Y12950D02*
D03*
X8225Y12600D02*
D03*
X8050Y12250D02*
D03*
X8225Y11900D02*
D03*
X8050Y11550D02*
D03*
X8225Y11200D02*
D03*
X8050Y10850D02*
D03*
X8225Y10500D02*
D03*
X8050Y10150D02*
D03*
X8225Y9800D02*
D03*
X8050Y9450D02*
D03*
X8225Y9100D02*
D03*
X8050Y8750D02*
D03*
X8225Y8400D02*
D03*
X8050Y8050D02*
D03*
X11087Y11468D02*
D03*
X12650Y12420D02*
D03*
X11790Y12320D02*
D03*
X11980Y13570D02*
D03*
Y13470D02*
D03*
X13136Y13467D02*
D03*
X12520Y12440D02*
D03*
X11940Y12490D02*
D03*
X12624Y12662D02*
D03*
X14480Y15240D02*
D03*
X14613Y15239D02*
D03*
X14491Y15080D02*
D03*
X10980Y10553D02*
D03*
X13414Y13577D02*
D03*
X14044Y14865D02*
D03*
X13788Y13182D02*
D03*
X12470Y10997D02*
D03*
X12226Y13963D02*
D03*
X12312Y14018D02*
D03*
X11950Y12373D02*
D03*
X11275Y12157D02*
D03*
X11024Y14205D02*
D03*
X11773Y13163D02*
D03*
X13098Y13620D02*
D03*
X11594Y11996D02*
D03*
X15127Y12101D02*
D03*
X15228Y12072D02*
D03*
X15177Y11183D02*
D03*
X14835Y11627D02*
D03*
X15254Y11335D02*
D03*
X15400Y11417D02*
D03*
X15317Y11576D02*
D03*
X14746Y11691D02*
D03*
X15456Y11506D02*
D03*
X13408Y14816D02*
D03*
X13494Y14875D02*
D03*
X13034Y14710D02*
D03*
X12929Y14694D02*
D03*
X11881Y10763D02*
D03*
X11350Y11190D02*
D03*
X12965Y15025D02*
D03*
X12776Y14986D02*
D03*
X15055Y12225D02*
D03*
X14237Y14529D02*
D03*
X10975Y12245D02*
D03*
X11303Y13805D02*
D03*
X11239Y13322D02*
D03*
X12636Y12560D02*
D03*
X12370Y14173D02*
D03*
X14846Y10008D02*
D03*
X13462Y13856D02*
D03*
X10262Y10325D02*
D03*
X10185D02*
D03*
X10262Y10401D02*
D03*
X10185D02*
D03*
X10262Y10478D02*
D03*
X10185D02*
D03*
X10046Y9969D02*
D03*
X14834Y11303D02*
D03*
Y11151D02*
D03*
X14707Y11125D02*
D03*
X15930Y11757D02*
D03*
X11570Y14084D02*
D03*
X11379Y13919D02*
D03*
X11151Y13500D02*
D03*
X11570Y13487D02*
D03*
X13322Y14135D02*
D03*
X11354Y14021D02*
D03*
X11303Y13678D02*
D03*
X13030Y14199D02*
D03*
X11149Y12949D02*
D03*
X11976Y12624D02*
D03*
X8522Y10757D02*
D03*
Y10655D02*
D03*
X12636Y12827D02*
D03*
X12319Y12700D02*
D03*
X12421Y13259D02*
D03*
X12649Y13945D02*
D03*
X12522Y13310D02*
D03*
X11735Y11900D02*
D03*
X11227Y11138D02*
D03*
X14719Y11519D02*
D03*
X14592Y11684D02*
D03*
Y11443D02*
D03*
X11875Y11925D02*
D03*
X11811Y12001D02*
D03*
X11938Y11798D02*
D03*
X11595Y11252D02*
D03*
X10516Y10973D02*
D03*
X11436Y9862D02*
D03*
X12065Y10020D02*
D03*
X10858Y9868D02*
D03*
X12510Y12840D02*
D03*
X13335Y14541D02*
D03*
X8522Y10858D02*
D03*
X11163Y10401D02*
D03*
X11151Y10300D02*
D03*
X11265Y11747D02*
D03*
X11239Y11925D02*
D03*
X9182Y10046D02*
D03*
X11239Y12306D02*
D03*
X11163Y12192D02*
D03*
X11213Y11816D02*
D03*
X11430Y11811D02*
D03*
X14643Y12421D02*
D03*
X13030Y13894D02*
D03*
X13691Y13233D02*
D03*
X13564Y13538D02*
D03*
X11163Y12548D02*
D03*
X11200Y12722D02*
D03*
X11176Y13043D02*
D03*
X11151Y13411D02*
D03*
X11341Y14326D02*
D03*
X12878Y12014D02*
D03*
X12636D02*
D03*
X14961Y13030D02*
D03*
X14707Y12687D02*
D03*
X15176Y14110D02*
D03*
X15608Y11862D02*
D03*
X12954Y14275D02*
D03*
X15138Y12421D02*
D03*
X13678Y13462D02*
D03*
X13767Y13449D02*
D03*
X13399Y14923D02*
D03*
X15176Y11646D02*
D03*
X15049Y10579D02*
D03*
X14313Y11671D02*
D03*
X14186Y11011D02*
D03*
X11036Y14745D02*
D03*
X11011Y14313D02*
D03*
X12306Y14948D02*
D03*
X13018Y14008D02*
D03*
X12725D02*
D03*
X12649Y14275D02*
D03*
X12713Y14148D02*
D03*
X12649Y14415D02*
D03*
X12636Y14516D02*
D03*
X12078Y13970D02*
D03*
X11760Y13043D02*
D03*
X11417Y14148D02*
D03*
X12357Y13437D02*
D03*
X12205D02*
D03*
X12103Y13449D02*
D03*
X12281Y13091D02*
D03*
X11430Y14440D02*
D03*
X11341Y14453D02*
D03*
X11430Y14313D02*
D03*
X11913Y14186D02*
D03*
X12179Y13868D02*
D03*
X12065Y13881D02*
D03*
X11341Y14211D02*
D03*
X12268Y13513D02*
D03*
X11659Y13411D02*
D03*
X11817Y13900D02*
D03*
X12294Y12802D02*
D03*
X12941Y14796D02*
D03*
X12827Y14770D02*
D03*
X11875Y13970D02*
D03*
X12827Y14884D02*
D03*
X13449Y15037D02*
D03*
X11811Y12433D02*
D03*
X12567Y14942D02*
D03*
X12040Y14313D02*
D03*
X12459Y14948D02*
D03*
X12179Y14961D02*
D03*
X12052Y14948D02*
D03*
X12700Y13259D02*
D03*
X12764Y13195D02*
D03*
X11417Y15024D02*
D03*
X11544Y15088D02*
D03*
X11608Y12611D02*
D03*
X13373Y11900D02*
D03*
X13284Y12179D02*
D03*
X12141Y10795D02*
D03*
X12484Y11100D02*
D03*
D115*
X13645Y14715D02*
D03*
X13755D02*
D03*
X13865D02*
D03*
X13645Y14605D02*
D03*
X13755D02*
D03*
X13865D02*
D03*
X13645Y14495D02*
D03*
X13755D02*
D03*
X13865D02*
D03*
X11400Y10664D02*
D03*
Y10774D02*
D03*
X11510Y10664D02*
D03*
Y10774D02*
D03*
X14960Y11871D02*
D03*
Y11761D02*
D03*
X15071Y11871D02*
D03*
Y11761D02*
D03*
X11927Y12817D02*
D03*
X12027D02*
D03*
X12127D02*
D03*
X11927Y12917D02*
D03*
X12027D02*
D03*
X12127D02*
D03*
X11927Y13017D02*
D03*
X12027D02*
D03*
X12127D02*
D03*
X11927Y13117D02*
D03*
X12027D02*
D03*
X12127D02*
D03*
M02*
