G04*
G04 #@! TF.GenerationSoftware,Altium Limited,Altium Designer,19.1.7 (138)*
G04*
G04 Layer_Physical_Order=3*
G04 Layer_Color=16440176*
%FSLAX42Y42*%
%MOMM*%
G71*
G01*
G75*
%ADD118C,1.60*%
%ADD119R,1.60X1.60*%
%ADD125C,1.65*%
%ADD127C,0.70*%
%ADD129C,1.37*%
G36*
X16000Y8000D02*
X15788D01*
X15784Y8013D01*
X15786Y8014D01*
X15797Y8030D01*
X15801Y8050D01*
X15797Y8070D01*
X15786Y8086D01*
X15770Y8097D01*
X15750Y8101D01*
X15730Y8097D01*
X15714Y8086D01*
X15703Y8070D01*
X15699Y8050D01*
X15703Y8030D01*
X15714Y8014D01*
X15716Y8013D01*
X15712Y8000D01*
X15438D01*
X15434Y8013D01*
X15436Y8014D01*
X15447Y8030D01*
X15451Y8050D01*
X15447Y8070D01*
X15436Y8086D01*
X15420Y8097D01*
X15400Y8101D01*
X15380Y8097D01*
X15364Y8086D01*
X15353Y8070D01*
X15349Y8050D01*
X15353Y8030D01*
X15364Y8014D01*
X15366Y8013D01*
X15362Y8000D01*
X15088D01*
X15084Y8013D01*
X15086Y8014D01*
X15097Y8030D01*
X15101Y8050D01*
X15097Y8070D01*
X15087Y8084D01*
X15089Y8092D01*
X15091Y8098D01*
X15100Y8099D01*
X15123Y8109D01*
X15143Y8124D01*
X15158Y8144D01*
X15167Y8167D01*
X15171Y8192D01*
X15167Y8216D01*
X15158Y8239D01*
X15143Y8259D01*
X15123Y8274D01*
X15100Y8284D01*
X15075Y8287D01*
X15050Y8284D01*
X15027Y8274D01*
X15007Y8259D01*
X14992Y8239D01*
X14982Y8216D01*
X14979Y8192D01*
X14982Y8167D01*
X14992Y8144D01*
X15007Y8124D01*
X15027Y8109D01*
X15027Y8107D01*
X15027Y8095D01*
X15014Y8086D01*
X15003Y8070D01*
X14999Y8050D01*
X15003Y8030D01*
X15014Y8014D01*
X15016Y8013D01*
X15012Y8000D01*
X14738D01*
X14734Y8013D01*
X14736Y8014D01*
X14747Y8030D01*
X14751Y8050D01*
X14747Y8070D01*
X14736Y8086D01*
X14720Y8097D01*
X14700Y8101D01*
X14680Y8097D01*
X14664Y8086D01*
X14653Y8070D01*
X14649Y8050D01*
X14653Y8030D01*
X14664Y8014D01*
X14666Y8013D01*
X14662Y8000D01*
X14388D01*
X14384Y8013D01*
X14386Y8014D01*
X14397Y8030D01*
X14401Y8050D01*
X14397Y8070D01*
X14386Y8086D01*
X14370Y8097D01*
X14367Y8098D01*
X14366Y8099D01*
X14364Y8111D01*
X14381Y8124D01*
X14396Y8144D01*
X14405Y8167D01*
X14409Y8192D01*
X14405Y8216D01*
X14396Y8239D01*
X14381Y8259D01*
X14361Y8274D01*
X14338Y8284D01*
X14313Y8287D01*
X14288Y8284D01*
X14265Y8274D01*
X14245Y8259D01*
X14230Y8239D01*
X14220Y8216D01*
X14217Y8192D01*
X14220Y8167D01*
X14230Y8144D01*
X14245Y8124D01*
X14265Y8109D01*
X14288Y8099D01*
X14307Y8096D01*
X14309Y8093D01*
X14312Y8083D01*
X14303Y8070D01*
X14299Y8050D01*
X14303Y8030D01*
X14314Y8014D01*
X14316Y8013D01*
X14312Y8000D01*
X14038D01*
X14034Y8013D01*
X14036Y8014D01*
X14047Y8030D01*
X14051Y8050D01*
X14047Y8070D01*
X14036Y8086D01*
X14036Y8087D01*
X14041Y8098D01*
X14059Y8096D01*
X14084Y8099D01*
X14107Y8109D01*
X14127Y8124D01*
X14142Y8144D01*
X14151Y8167D01*
X14155Y8192D01*
X14151Y8216D01*
X14142Y8239D01*
X14127Y8259D01*
X14107Y8274D01*
X14084Y8284D01*
X14059Y8287D01*
X14034Y8284D01*
X14011Y8274D01*
X13991Y8259D01*
X13976Y8239D01*
X13966Y8216D01*
X13963Y8192D01*
X13966Y8167D01*
X13976Y8144D01*
X13991Y8124D01*
X14005Y8113D01*
X14000Y8101D01*
X14000Y8101D01*
X13980Y8097D01*
X13964Y8086D01*
X13953Y8070D01*
X13949Y8050D01*
X13953Y8030D01*
X13964Y8014D01*
X13966Y8013D01*
X13962Y8000D01*
X13688D01*
X13684Y8013D01*
X13686Y8014D01*
X13697Y8030D01*
X13701Y8050D01*
X13697Y8070D01*
X13686Y8086D01*
X13670Y8097D01*
X13650Y8101D01*
X13630Y8097D01*
X13614Y8086D01*
X13603Y8070D01*
X13599Y8050D01*
X13603Y8030D01*
X13614Y8014D01*
X13616Y8013D01*
X13612Y8000D01*
X13338D01*
X13334Y8013D01*
X13336Y8014D01*
X13347Y8030D01*
X13351Y8050D01*
X13347Y8070D01*
X13336Y8086D01*
X13331Y8089D01*
X13333Y8104D01*
X13345Y8109D01*
X13365Y8124D01*
X13380Y8144D01*
X13389Y8167D01*
X13393Y8192D01*
X13389Y8216D01*
X13380Y8239D01*
X13365Y8259D01*
X13345Y8274D01*
X13322Y8284D01*
X13297Y8287D01*
X13272Y8284D01*
X13249Y8274D01*
X13229Y8259D01*
X13214Y8239D01*
X13204Y8216D01*
X13201Y8192D01*
X13204Y8167D01*
X13214Y8144D01*
X13229Y8124D01*
X13249Y8109D01*
X13265Y8102D01*
X13266Y8088D01*
X13264Y8086D01*
X13253Y8070D01*
X13249Y8050D01*
X13253Y8030D01*
X13264Y8014D01*
X13266Y8013D01*
X13262Y8000D01*
X12988D01*
X12984Y8013D01*
X12986Y8014D01*
X12997Y8030D01*
X13001Y8050D01*
X12997Y8070D01*
X12986Y8086D01*
X12970Y8097D01*
X12950Y8101D01*
X12930Y8097D01*
X12914Y8086D01*
X12903Y8070D01*
X12899Y8050D01*
X12903Y8030D01*
X12914Y8014D01*
X12916Y8013D01*
X12912Y8000D01*
X12638D01*
X12634Y8013D01*
X12636Y8014D01*
X12647Y8030D01*
X12651Y8050D01*
X12647Y8070D01*
X12636Y8086D01*
X12620Y8097D01*
X12600Y8101D01*
X12580Y8097D01*
X12564Y8086D01*
X12553Y8070D01*
X12549Y8050D01*
X12553Y8030D01*
X12564Y8014D01*
X12566Y8013D01*
X12562Y8000D01*
X12288D01*
X12284Y8013D01*
X12286Y8014D01*
X12297Y8030D01*
X12301Y8050D01*
X12297Y8070D01*
X12286Y8086D01*
X12270Y8097D01*
X12250Y8101D01*
X12230Y8097D01*
X12214Y8086D01*
X12203Y8070D01*
X12199Y8050D01*
X12203Y8030D01*
X12214Y8014D01*
X12216Y8013D01*
X12212Y8000D01*
X11938D01*
X11934Y8013D01*
X11936Y8014D01*
X11947Y8030D01*
X11951Y8050D01*
X11947Y8070D01*
X11936Y8086D01*
X11920Y8097D01*
X11900Y8101D01*
X11880Y8097D01*
X11864Y8086D01*
X11853Y8070D01*
X11849Y8050D01*
X11853Y8030D01*
X11864Y8014D01*
X11866Y8013D01*
X11862Y8000D01*
X11588D01*
X11584Y8013D01*
X11586Y8014D01*
X11597Y8030D01*
X11601Y8050D01*
X11597Y8070D01*
X11586Y8086D01*
X11570Y8097D01*
X11550Y8101D01*
X11530Y8097D01*
X11514Y8086D01*
X11503Y8070D01*
X11499Y8050D01*
X11503Y8030D01*
X11514Y8014D01*
X11516Y8013D01*
X11512Y8000D01*
X11238D01*
X11234Y8013D01*
X11236Y8014D01*
X11247Y8030D01*
X11251Y8050D01*
X11247Y8070D01*
X11236Y8086D01*
X11220Y8097D01*
X11200Y8101D01*
X11180Y8097D01*
X11164Y8086D01*
X11153Y8070D01*
X11149Y8050D01*
X11153Y8030D01*
X11164Y8014D01*
X11166Y8013D01*
X11162Y8000D01*
X10888D01*
X10884Y8013D01*
X10886Y8014D01*
X10897Y8030D01*
X10901Y8050D01*
X10897Y8070D01*
X10886Y8086D01*
X10870Y8097D01*
X10850Y8101D01*
X10830Y8097D01*
X10814Y8086D01*
X10803Y8070D01*
X10799Y8050D01*
X10803Y8030D01*
X10814Y8014D01*
X10816Y8013D01*
X10812Y8000D01*
X10538D01*
X10534Y8013D01*
X10536Y8014D01*
X10547Y8030D01*
X10551Y8050D01*
X10547Y8070D01*
X10536Y8086D01*
X10520Y8097D01*
X10500Y8101D01*
X10480Y8097D01*
X10464Y8086D01*
X10453Y8070D01*
X10449Y8050D01*
X10453Y8030D01*
X10464Y8014D01*
X10466Y8013D01*
X10462Y8000D01*
X10188D01*
X10184Y8013D01*
X10186Y8014D01*
X10197Y8030D01*
X10201Y8050D01*
X10197Y8070D01*
X10186Y8086D01*
X10170Y8097D01*
X10150Y8101D01*
X10130Y8097D01*
X10114Y8086D01*
X10103Y8070D01*
X10099Y8050D01*
X10103Y8030D01*
X10114Y8014D01*
X10116Y8013D01*
X10112Y8000D01*
X9838D01*
X9834Y8013D01*
X9836Y8014D01*
X9847Y8030D01*
X9851Y8050D01*
X9847Y8070D01*
X9836Y8086D01*
X9820Y8097D01*
X9800Y8101D01*
X9780Y8097D01*
X9764Y8086D01*
X9753Y8070D01*
X9749Y8050D01*
X9753Y8030D01*
X9764Y8014D01*
X9766Y8013D01*
X9762Y8000D01*
X9488D01*
X9484Y8013D01*
X9486Y8014D01*
X9497Y8030D01*
X9501Y8050D01*
X9497Y8070D01*
X9486Y8086D01*
X9470Y8097D01*
X9450Y8101D01*
X9430Y8097D01*
X9414Y8086D01*
X9403Y8070D01*
X9399Y8050D01*
X9403Y8030D01*
X9414Y8014D01*
X9416Y8013D01*
X9412Y8000D01*
X9138D01*
X9134Y8013D01*
X9136Y8014D01*
X9147Y8030D01*
X9151Y8050D01*
X9147Y8070D01*
X9136Y8086D01*
X9120Y8097D01*
X9100Y8101D01*
X9080Y8097D01*
X9064Y8086D01*
X9053Y8070D01*
X9049Y8050D01*
X9053Y8030D01*
X9064Y8014D01*
X9066Y8013D01*
X9062Y8000D01*
X8788D01*
X8784Y8013D01*
X8786Y8014D01*
X8797Y8030D01*
X8801Y8050D01*
X8797Y8070D01*
X8786Y8086D01*
X8770Y8097D01*
X8750Y8101D01*
X8730Y8097D01*
X8714Y8086D01*
X8703Y8070D01*
X8699Y8050D01*
X8703Y8030D01*
X8714Y8014D01*
X8716Y8013D01*
X8712Y8000D01*
X8438D01*
X8434Y8013D01*
X8436Y8014D01*
X8447Y8030D01*
X8451Y8050D01*
X8447Y8070D01*
X8436Y8086D01*
X8420Y8097D01*
X8400Y8101D01*
X8380Y8097D01*
X8364Y8086D01*
X8353Y8070D01*
X8349Y8050D01*
X8353Y8030D01*
X8364Y8014D01*
X8366Y8013D01*
X8362Y8000D01*
X8088D01*
X8084Y8013D01*
X8086Y8014D01*
X8097Y8030D01*
X8101Y8050D01*
X8097Y8070D01*
X8086Y8086D01*
X8070Y8097D01*
X8050Y8101D01*
X8030Y8097D01*
X8014Y8086D01*
X8013Y8084D01*
X8000Y8088D01*
Y8712D01*
X8013Y8716D01*
X8014Y8714D01*
X8030Y8703D01*
X8050Y8699D01*
X8070Y8703D01*
X8086Y8714D01*
X8097Y8730D01*
X8101Y8750D01*
X8097Y8770D01*
X8086Y8786D01*
X8070Y8797D01*
X8050Y8801D01*
X8030Y8797D01*
X8014Y8786D01*
X8013Y8784D01*
X8000Y8788D01*
Y9412D01*
X8013Y9416D01*
X8014Y9414D01*
X8030Y9403D01*
X8050Y9399D01*
X8070Y9403D01*
X8086Y9414D01*
X8097Y9430D01*
X8101Y9450D01*
X8097Y9470D01*
X8086Y9486D01*
X8070Y9497D01*
X8050Y9501D01*
X8030Y9497D01*
X8014Y9486D01*
X8013Y9484D01*
X8000Y9488D01*
Y10112D01*
X8013Y10116D01*
X8014Y10114D01*
X8030Y10103D01*
X8050Y10099D01*
X8070Y10103D01*
X8086Y10114D01*
X8097Y10130D01*
X8101Y10150D01*
X8097Y10170D01*
X8086Y10186D01*
X8070Y10197D01*
X8050Y10201D01*
X8030Y10197D01*
X8014Y10186D01*
X8013Y10184D01*
X8000Y10188D01*
Y10812D01*
X8013Y10816D01*
X8014Y10814D01*
X8030Y10803D01*
X8050Y10799D01*
X8070Y10803D01*
X8086Y10814D01*
X8097Y10830D01*
X8101Y10850D01*
X8097Y10870D01*
X8086Y10886D01*
X8070Y10897D01*
X8050Y10901D01*
X8030Y10897D01*
X8014Y10886D01*
X8013Y10884D01*
X8000Y10888D01*
Y11512D01*
X8013Y11516D01*
X8014Y11514D01*
X8030Y11503D01*
X8050Y11499D01*
X8070Y11503D01*
X8086Y11514D01*
X8097Y11530D01*
X8101Y11550D01*
X8097Y11570D01*
X8086Y11586D01*
X8070Y11597D01*
X8050Y11601D01*
X8030Y11597D01*
X8014Y11586D01*
X8013Y11584D01*
X8000Y11588D01*
Y12212D01*
X8013Y12216D01*
X8014Y12214D01*
X8030Y12203D01*
X8050Y12199D01*
X8070Y12203D01*
X8086Y12214D01*
X8097Y12230D01*
X8101Y12250D01*
X8097Y12270D01*
X8086Y12286D01*
X8070Y12297D01*
X8050Y12301D01*
X8030Y12297D01*
X8014Y12286D01*
X8013Y12284D01*
X8000Y12288D01*
Y12912D01*
X8013Y12916D01*
X8014Y12914D01*
X8030Y12903D01*
X8050Y12899D01*
X8070Y12903D01*
X8086Y12914D01*
X8097Y12930D01*
X8101Y12950D01*
X8097Y12970D01*
X8086Y12986D01*
X8070Y12997D01*
X8050Y13001D01*
X8030Y12997D01*
X8014Y12986D01*
X8013Y12984D01*
X8000Y12988D01*
Y13612D01*
X8013Y13616D01*
X8014Y13614D01*
X8030Y13603D01*
X8050Y13599D01*
X8070Y13603D01*
X8086Y13614D01*
X8097Y13630D01*
X8101Y13650D01*
X8097Y13670D01*
X8086Y13686D01*
X8070Y13697D01*
X8050Y13701D01*
X8030Y13697D01*
X8014Y13686D01*
X8013Y13684D01*
X8000Y13688D01*
Y14312D01*
X8013Y14316D01*
X8014Y14314D01*
X8030Y14303D01*
X8050Y14299D01*
X8070Y14303D01*
X8086Y14314D01*
X8097Y14330D01*
X8101Y14350D01*
X8097Y14370D01*
X8086Y14386D01*
X8070Y14397D01*
X8050Y14401D01*
X8030Y14397D01*
X8014Y14386D01*
X8013Y14384D01*
X8000Y14388D01*
Y15012D01*
X8013Y15016D01*
X8014Y15014D01*
X8030Y15003D01*
X8050Y14999D01*
X8070Y15003D01*
X8086Y15014D01*
X8097Y15030D01*
X8101Y15050D01*
X8097Y15070D01*
X8086Y15086D01*
X8070Y15097D01*
X8050Y15101D01*
X8030Y15097D01*
X8014Y15086D01*
X8013Y15084D01*
X8000Y15088D01*
Y15712D01*
X8013Y15716D01*
X8014Y15714D01*
X8030Y15703D01*
X8050Y15699D01*
X8070Y15703D01*
X8086Y15714D01*
X8097Y15730D01*
X8101Y15750D01*
X8097Y15770D01*
X8086Y15786D01*
X8070Y15797D01*
X8050Y15801D01*
X8030Y15797D01*
X8014Y15786D01*
X8013Y15784D01*
X8000Y15788D01*
Y16000D01*
X16000D01*
Y8000D01*
D02*
G37*
%LPC*%
G36*
X13081Y15907D02*
X13056Y15904D01*
X13033Y15894D01*
X13013Y15879D01*
X12998Y15859D01*
X12988Y15836D01*
X12985Y15812D01*
X12988Y15787D01*
X12998Y15764D01*
X13013Y15744D01*
X13033Y15729D01*
X13056Y15719D01*
X13081Y15716D01*
X13106Y15719D01*
X13129Y15729D01*
X13149Y15744D01*
X13164Y15764D01*
X13174Y15787D01*
X13177Y15812D01*
X13174Y15836D01*
X13164Y15859D01*
X13149Y15879D01*
X13129Y15894D01*
X13106Y15904D01*
X13081Y15907D01*
D02*
G37*
G36*
X12827D02*
X12802Y15904D01*
X12779Y15894D01*
X12759Y15879D01*
X12744Y15859D01*
X12734Y15836D01*
X12731Y15812D01*
X12734Y15787D01*
X12744Y15764D01*
X12759Y15744D01*
X12779Y15729D01*
X12802Y15719D01*
X12827Y15716D01*
X12852Y15719D01*
X12875Y15729D01*
X12895Y15744D01*
X12910Y15764D01*
X12920Y15787D01*
X12923Y15812D01*
X12920Y15836D01*
X12910Y15859D01*
X12895Y15879D01*
X12875Y15894D01*
X12852Y15904D01*
X12827Y15907D01*
D02*
G37*
G36*
X12573D02*
X12548Y15904D01*
X12525Y15894D01*
X12505Y15879D01*
X12490Y15859D01*
X12480Y15836D01*
X12477Y15812D01*
X12480Y15787D01*
X12490Y15764D01*
X12505Y15744D01*
X12525Y15729D01*
X12548Y15719D01*
X12573Y15716D01*
X12598Y15719D01*
X12621Y15729D01*
X12641Y15744D01*
X12656Y15764D01*
X12666Y15787D01*
X12669Y15812D01*
X12666Y15836D01*
X12656Y15859D01*
X12641Y15879D01*
X12621Y15894D01*
X12598Y15904D01*
X12573Y15907D01*
D02*
G37*
G36*
X12319D02*
X12294Y15904D01*
X12271Y15894D01*
X12251Y15879D01*
X12236Y15859D01*
X12226Y15836D01*
X12223Y15812D01*
X12226Y15787D01*
X12236Y15764D01*
X12251Y15744D01*
X12271Y15729D01*
X12294Y15719D01*
X12319Y15716D01*
X12344Y15719D01*
X12367Y15729D01*
X12387Y15744D01*
X12402Y15764D01*
X12412Y15787D01*
X12415Y15812D01*
X12412Y15836D01*
X12402Y15859D01*
X12387Y15879D01*
X12367Y15894D01*
X12344Y15904D01*
X12319Y15907D01*
D02*
G37*
G36*
X12065D02*
X12040Y15904D01*
X12017Y15894D01*
X11997Y15879D01*
X11982Y15859D01*
X11972Y15836D01*
X11969Y15812D01*
X11972Y15787D01*
X11982Y15764D01*
X11997Y15744D01*
X12017Y15729D01*
X12040Y15719D01*
X12065Y15716D01*
X12090Y15719D01*
X12113Y15729D01*
X12133Y15744D01*
X12148Y15764D01*
X12158Y15787D01*
X12161Y15812D01*
X12158Y15836D01*
X12148Y15859D01*
X12133Y15879D01*
X12113Y15894D01*
X12090Y15904D01*
X12065Y15907D01*
D02*
G37*
G36*
X11811D02*
X11786Y15904D01*
X11763Y15894D01*
X11743Y15879D01*
X11728Y15859D01*
X11718Y15836D01*
X11715Y15812D01*
X11718Y15787D01*
X11728Y15764D01*
X11743Y15744D01*
X11763Y15729D01*
X11786Y15719D01*
X11811Y15716D01*
X11836Y15719D01*
X11859Y15729D01*
X11879Y15744D01*
X11894Y15764D01*
X11904Y15787D01*
X11907Y15812D01*
X11904Y15836D01*
X11894Y15859D01*
X11879Y15879D01*
X11859Y15894D01*
X11836Y15904D01*
X11811Y15907D01*
D02*
G37*
G36*
X11557D02*
X11532Y15904D01*
X11509Y15894D01*
X11489Y15879D01*
X11474Y15859D01*
X11464Y15836D01*
X11461Y15812D01*
X11464Y15787D01*
X11474Y15764D01*
X11489Y15744D01*
X11509Y15729D01*
X11532Y15719D01*
X11557Y15716D01*
X11582Y15719D01*
X11605Y15729D01*
X11625Y15744D01*
X11640Y15764D01*
X11650Y15787D01*
X11653Y15812D01*
X11650Y15836D01*
X11640Y15859D01*
X11625Y15879D01*
X11605Y15894D01*
X11582Y15904D01*
X11557Y15907D01*
D02*
G37*
G36*
X11303D02*
X11278Y15904D01*
X11255Y15894D01*
X11235Y15879D01*
X11220Y15859D01*
X11210Y15836D01*
X11207Y15812D01*
X11210Y15787D01*
X11220Y15764D01*
X11235Y15744D01*
X11255Y15729D01*
X11278Y15719D01*
X11303Y15716D01*
X11328Y15719D01*
X11351Y15729D01*
X11371Y15744D01*
X11386Y15764D01*
X11396Y15787D01*
X11399Y15812D01*
X11396Y15836D01*
X11386Y15859D01*
X11371Y15879D01*
X11351Y15894D01*
X11328Y15904D01*
X11303Y15907D01*
D02*
G37*
G36*
X15400Y15801D02*
X15380Y15797D01*
X15364Y15786D01*
X15353Y15770D01*
X15349Y15750D01*
X15353Y15730D01*
X15364Y15714D01*
X15380Y15703D01*
X15400Y15699D01*
X15420Y15703D01*
X15436Y15714D01*
X15447Y15730D01*
X15451Y15750D01*
X15447Y15770D01*
X15436Y15786D01*
X15420Y15797D01*
X15400Y15801D01*
D02*
G37*
G36*
X14350D02*
X14330Y15797D01*
X14314Y15786D01*
X14303Y15770D01*
X14299Y15750D01*
X14303Y15730D01*
X14314Y15714D01*
X14330Y15703D01*
X14350Y15699D01*
X14370Y15703D01*
X14386Y15714D01*
X14397Y15730D01*
X14401Y15750D01*
X14397Y15770D01*
X14386Y15786D01*
X14370Y15797D01*
X14350Y15801D01*
D02*
G37*
G36*
X10850D02*
X10830Y15797D01*
X10814Y15786D01*
X10803Y15770D01*
X10799Y15750D01*
X10803Y15730D01*
X10814Y15714D01*
X10830Y15703D01*
X10850Y15699D01*
X10870Y15703D01*
X10886Y15714D01*
X10897Y15730D01*
X10901Y15750D01*
X10897Y15770D01*
X10886Y15786D01*
X10870Y15797D01*
X10850Y15801D01*
D02*
G37*
G36*
X10500D02*
X10480Y15797D01*
X10464Y15786D01*
X10453Y15770D01*
X10449Y15750D01*
X10453Y15730D01*
X10464Y15714D01*
X10480Y15703D01*
X10500Y15699D01*
X10520Y15703D01*
X10536Y15714D01*
X10547Y15730D01*
X10551Y15750D01*
X10547Y15770D01*
X10536Y15786D01*
X10520Y15797D01*
X10500Y15801D01*
D02*
G37*
G36*
X10150D02*
X10130Y15797D01*
X10114Y15786D01*
X10103Y15770D01*
X10099Y15750D01*
X10103Y15730D01*
X10114Y15714D01*
X10130Y15703D01*
X10150Y15699D01*
X10170Y15703D01*
X10186Y15714D01*
X10197Y15730D01*
X10201Y15750D01*
X10197Y15770D01*
X10186Y15786D01*
X10170Y15797D01*
X10150Y15801D01*
D02*
G37*
G36*
X9800D02*
X9780Y15797D01*
X9764Y15786D01*
X9753Y15770D01*
X9749Y15750D01*
X9753Y15730D01*
X9764Y15714D01*
X9780Y15703D01*
X9800Y15699D01*
X9820Y15703D01*
X9836Y15714D01*
X9847Y15730D01*
X9851Y15750D01*
X9847Y15770D01*
X9836Y15786D01*
X9820Y15797D01*
X9800Y15801D01*
D02*
G37*
G36*
X9450D02*
X9430Y15797D01*
X9414Y15786D01*
X9403Y15770D01*
X9399Y15750D01*
X9403Y15730D01*
X9414Y15714D01*
X9430Y15703D01*
X9450Y15699D01*
X9470Y15703D01*
X9486Y15714D01*
X9497Y15730D01*
X9501Y15750D01*
X9497Y15770D01*
X9486Y15786D01*
X9470Y15797D01*
X9450Y15801D01*
D02*
G37*
G36*
X9100D02*
X9080Y15797D01*
X9064Y15786D01*
X9053Y15770D01*
X9049Y15750D01*
X9053Y15730D01*
X9064Y15714D01*
X9080Y15703D01*
X9100Y15699D01*
X9120Y15703D01*
X9136Y15714D01*
X9147Y15730D01*
X9151Y15750D01*
X9147Y15770D01*
X9136Y15786D01*
X9120Y15797D01*
X9100Y15801D01*
D02*
G37*
G36*
X8750D02*
X8730Y15797D01*
X8714Y15786D01*
X8703Y15770D01*
X8699Y15750D01*
X8703Y15730D01*
X8714Y15714D01*
X8730Y15703D01*
X8750Y15699D01*
X8770Y15703D01*
X8786Y15714D01*
X8797Y15730D01*
X8801Y15750D01*
X8797Y15770D01*
X8786Y15786D01*
X8770Y15797D01*
X8750Y15801D01*
D02*
G37*
G36*
X8400D02*
X8380Y15797D01*
X8364Y15786D01*
X8353Y15770D01*
X8349Y15750D01*
X8353Y15730D01*
X8364Y15714D01*
X8380Y15703D01*
X8400Y15699D01*
X8420Y15703D01*
X8436Y15714D01*
X8447Y15730D01*
X8451Y15750D01*
X8447Y15770D01*
X8436Y15786D01*
X8420Y15797D01*
X8400Y15801D01*
D02*
G37*
G36*
X13335Y15653D02*
X13310Y15650D01*
X13287Y15640D01*
X13267Y15625D01*
X13252Y15605D01*
X13242Y15582D01*
X13239Y15557D01*
X13242Y15533D01*
X13252Y15510D01*
X13267Y15490D01*
X13287Y15475D01*
X13310Y15465D01*
X13335Y15462D01*
X13360Y15465D01*
X13383Y15475D01*
X13403Y15490D01*
X13418Y15510D01*
X13428Y15533D01*
X13431Y15557D01*
X13428Y15582D01*
X13418Y15605D01*
X13403Y15625D01*
X13383Y15640D01*
X13360Y15650D01*
X13335Y15653D01*
D02*
G37*
G36*
X13081D02*
X13056Y15650D01*
X13033Y15640D01*
X13013Y15625D01*
X12998Y15605D01*
X12988Y15582D01*
X12985Y15557D01*
X12988Y15533D01*
X12998Y15510D01*
X13013Y15490D01*
X13033Y15475D01*
X13056Y15465D01*
X13081Y15462D01*
X13106Y15465D01*
X13129Y15475D01*
X13149Y15490D01*
X13164Y15510D01*
X13174Y15533D01*
X13177Y15557D01*
X13174Y15582D01*
X13164Y15605D01*
X13149Y15625D01*
X13129Y15640D01*
X13106Y15650D01*
X13081Y15653D01*
D02*
G37*
G36*
X12827D02*
X12802Y15650D01*
X12779Y15640D01*
X12759Y15625D01*
X12744Y15605D01*
X12734Y15582D01*
X12731Y15557D01*
X12734Y15533D01*
X12744Y15510D01*
X12759Y15490D01*
X12779Y15475D01*
X12802Y15465D01*
X12827Y15462D01*
X12852Y15465D01*
X12875Y15475D01*
X12895Y15490D01*
X12910Y15510D01*
X12920Y15533D01*
X12923Y15557D01*
X12920Y15582D01*
X12910Y15605D01*
X12895Y15625D01*
X12875Y15640D01*
X12852Y15650D01*
X12827Y15653D01*
D02*
G37*
G36*
X12573D02*
X12548Y15650D01*
X12525Y15640D01*
X12505Y15625D01*
X12490Y15605D01*
X12480Y15582D01*
X12477Y15557D01*
X12480Y15533D01*
X12490Y15510D01*
X12505Y15490D01*
X12525Y15475D01*
X12548Y15465D01*
X12573Y15462D01*
X12598Y15465D01*
X12621Y15475D01*
X12641Y15490D01*
X12656Y15510D01*
X12666Y15533D01*
X12669Y15557D01*
X12666Y15582D01*
X12656Y15605D01*
X12641Y15625D01*
X12621Y15640D01*
X12598Y15650D01*
X12573Y15653D01*
D02*
G37*
G36*
X12319D02*
X12294Y15650D01*
X12271Y15640D01*
X12251Y15625D01*
X12236Y15605D01*
X12226Y15582D01*
X12223Y15557D01*
X12226Y15533D01*
X12236Y15510D01*
X12251Y15490D01*
X12271Y15475D01*
X12294Y15465D01*
X12319Y15462D01*
X12344Y15465D01*
X12367Y15475D01*
X12387Y15490D01*
X12402Y15510D01*
X12412Y15533D01*
X12415Y15557D01*
X12412Y15582D01*
X12402Y15605D01*
X12387Y15625D01*
X12367Y15640D01*
X12344Y15650D01*
X12319Y15653D01*
D02*
G37*
G36*
X12065D02*
X12040Y15650D01*
X12017Y15640D01*
X11997Y15625D01*
X11982Y15605D01*
X11972Y15582D01*
X11969Y15557D01*
X11972Y15533D01*
X11982Y15510D01*
X11997Y15490D01*
X12017Y15475D01*
X12040Y15465D01*
X12065Y15462D01*
X12090Y15465D01*
X12113Y15475D01*
X12133Y15490D01*
X12148Y15510D01*
X12158Y15533D01*
X12161Y15557D01*
X12158Y15582D01*
X12148Y15605D01*
X12133Y15625D01*
X12113Y15640D01*
X12090Y15650D01*
X12065Y15653D01*
D02*
G37*
G36*
X11811D02*
X11786Y15650D01*
X11763Y15640D01*
X11743Y15625D01*
X11728Y15605D01*
X11718Y15582D01*
X11715Y15557D01*
X11718Y15533D01*
X11728Y15510D01*
X11743Y15490D01*
X11763Y15475D01*
X11786Y15465D01*
X11811Y15462D01*
X11836Y15465D01*
X11859Y15475D01*
X11879Y15490D01*
X11894Y15510D01*
X11904Y15533D01*
X11907Y15557D01*
X11904Y15582D01*
X11894Y15605D01*
X11879Y15625D01*
X11859Y15640D01*
X11836Y15650D01*
X11811Y15653D01*
D02*
G37*
G36*
X11557D02*
X11532Y15650D01*
X11509Y15640D01*
X11489Y15625D01*
X11474Y15605D01*
X11464Y15582D01*
X11461Y15557D01*
X11464Y15533D01*
X11474Y15510D01*
X11489Y15490D01*
X11509Y15475D01*
X11532Y15465D01*
X11557Y15462D01*
X11582Y15465D01*
X11605Y15475D01*
X11625Y15490D01*
X11640Y15510D01*
X11650Y15533D01*
X11653Y15557D01*
X11650Y15582D01*
X11640Y15605D01*
X11625Y15625D01*
X11605Y15640D01*
X11582Y15650D01*
X11557Y15653D01*
D02*
G37*
G36*
X11303D02*
X11278Y15650D01*
X11255Y15640D01*
X11235Y15625D01*
X11220Y15605D01*
X11210Y15582D01*
X11207Y15557D01*
X11210Y15533D01*
X11220Y15510D01*
X11235Y15490D01*
X11255Y15475D01*
X11278Y15465D01*
X11303Y15462D01*
X11328Y15465D01*
X11351Y15475D01*
X11371Y15490D01*
X11386Y15510D01*
X11396Y15533D01*
X11399Y15557D01*
X11396Y15582D01*
X11386Y15605D01*
X11371Y15625D01*
X11351Y15640D01*
X11328Y15650D01*
X11303Y15653D01*
D02*
G37*
G36*
X15925Y15451D02*
X15905Y15447D01*
X15889Y15436D01*
X15878Y15420D01*
X15874Y15400D01*
X15878Y15380D01*
X15889Y15364D01*
X15905Y15353D01*
X15925Y15349D01*
X15945Y15353D01*
X15961Y15364D01*
X15972Y15380D01*
X15976Y15400D01*
X15972Y15420D01*
X15961Y15436D01*
X15945Y15447D01*
X15925Y15451D01*
D02*
G37*
G36*
X15575D02*
X15555Y15447D01*
X15539Y15436D01*
X15528Y15420D01*
X15524Y15400D01*
X15528Y15380D01*
X15539Y15364D01*
X15555Y15353D01*
X15575Y15349D01*
X15595Y15353D01*
X15611Y15364D01*
X15622Y15380D01*
X15626Y15400D01*
X15622Y15420D01*
X15611Y15436D01*
X15595Y15447D01*
X15575Y15451D01*
D02*
G37*
G36*
X14875D02*
X14855Y15447D01*
X14839Y15436D01*
X14828Y15420D01*
X14824Y15400D01*
X14828Y15380D01*
X14839Y15364D01*
X14855Y15353D01*
X14875Y15349D01*
X14895Y15353D01*
X14911Y15364D01*
X14922Y15380D01*
X14926Y15400D01*
X14922Y15420D01*
X14911Y15436D01*
X14895Y15447D01*
X14875Y15451D01*
D02*
G37*
G36*
X11025D02*
X11005Y15447D01*
X10989Y15436D01*
X10978Y15420D01*
X10974Y15400D01*
X10978Y15380D01*
X10989Y15364D01*
X11005Y15353D01*
X11025Y15349D01*
X11045Y15353D01*
X11061Y15364D01*
X11072Y15380D01*
X11076Y15400D01*
X11072Y15420D01*
X11061Y15436D01*
X11045Y15447D01*
X11025Y15451D01*
D02*
G37*
G36*
X10325D02*
X10305Y15447D01*
X10289Y15436D01*
X10278Y15420D01*
X10274Y15400D01*
X10278Y15380D01*
X10289Y15364D01*
X10305Y15353D01*
X10325Y15349D01*
X10345Y15353D01*
X10361Y15364D01*
X10372Y15380D01*
X10376Y15400D01*
X10372Y15420D01*
X10361Y15436D01*
X10345Y15447D01*
X10325Y15451D01*
D02*
G37*
G36*
X9975D02*
X9955Y15447D01*
X9939Y15436D01*
X9928Y15420D01*
X9924Y15400D01*
X9928Y15380D01*
X9939Y15364D01*
X9955Y15353D01*
X9975Y15349D01*
X9995Y15353D01*
X10011Y15364D01*
X10022Y15380D01*
X10026Y15400D01*
X10022Y15420D01*
X10011Y15436D01*
X9995Y15447D01*
X9975Y15451D01*
D02*
G37*
G36*
X9625D02*
X9605Y15447D01*
X9589Y15436D01*
X9578Y15420D01*
X9574Y15400D01*
X9578Y15380D01*
X9589Y15364D01*
X9605Y15353D01*
X9625Y15349D01*
X9645Y15353D01*
X9661Y15364D01*
X9672Y15380D01*
X9676Y15400D01*
X9672Y15420D01*
X9661Y15436D01*
X9645Y15447D01*
X9625Y15451D01*
D02*
G37*
G36*
X9275D02*
X9255Y15447D01*
X9239Y15436D01*
X9228Y15420D01*
X9224Y15400D01*
X9228Y15380D01*
X9239Y15364D01*
X9255Y15353D01*
X9275Y15349D01*
X9295Y15353D01*
X9311Y15364D01*
X9322Y15380D01*
X9326Y15400D01*
X9322Y15420D01*
X9311Y15436D01*
X9295Y15447D01*
X9275Y15451D01*
D02*
G37*
G36*
X8925D02*
X8905Y15447D01*
X8889Y15436D01*
X8878Y15420D01*
X8874Y15400D01*
X8878Y15380D01*
X8889Y15364D01*
X8905Y15353D01*
X8925Y15349D01*
X8945Y15353D01*
X8961Y15364D01*
X8972Y15380D01*
X8976Y15400D01*
X8972Y15420D01*
X8961Y15436D01*
X8945Y15447D01*
X8925Y15451D01*
D02*
G37*
G36*
X10681Y15473D02*
X10486D01*
Y15278D01*
X10681D01*
Y15473D01*
D02*
G37*
G36*
X8395D02*
X8200D01*
Y15278D01*
X8395D01*
Y15473D01*
D02*
G37*
G36*
X14613Y15290D02*
X14593Y15286D01*
X14577Y15275D01*
X14566Y15259D01*
X14562Y15239D01*
X14566Y15219D01*
X14577Y15203D01*
X14593Y15192D01*
X14613Y15188D01*
X14633Y15192D01*
X14649Y15203D01*
X14660Y15219D01*
X14664Y15239D01*
X14660Y15259D01*
X14649Y15275D01*
X14633Y15286D01*
X14613Y15290D01*
D02*
G37*
G36*
X11544Y15139D02*
X11525Y15135D01*
X11508Y15124D01*
X11497Y15107D01*
X11493Y15088D01*
X11497Y15068D01*
X11508Y15052D01*
X11525Y15041D01*
X11544Y15037D01*
X11564Y15041D01*
X11580Y15052D01*
X11591Y15068D01*
X11595Y15088D01*
X11591Y15107D01*
X11580Y15124D01*
X11564Y15135D01*
X11544Y15139D01*
D02*
G37*
G36*
X14491Y15131D02*
X14471Y15127D01*
X14455Y15116D01*
X14444Y15100D01*
X14440Y15080D01*
X14444Y15060D01*
X14455Y15044D01*
X14471Y15033D01*
X14491Y15029D01*
X14511Y15033D01*
X14527Y15044D01*
X14538Y15060D01*
X14542Y15080D01*
X14538Y15100D01*
X14527Y15116D01*
X14511Y15127D01*
X14491Y15131D01*
D02*
G37*
G36*
X10583Y15220D02*
X10558Y15217D01*
X10534Y15207D01*
X10514Y15191D01*
X10498Y15171D01*
X10488Y15147D01*
X10485Y15122D01*
X10488Y15096D01*
X10498Y15072D01*
X10514Y15052D01*
X10534Y15036D01*
X10558Y15027D01*
X10583Y15023D01*
X10609Y15027D01*
X10632Y15036D01*
X10653Y15052D01*
X10668Y15072D01*
X10678Y15096D01*
X10682Y15122D01*
X10678Y15147D01*
X10668Y15171D01*
X10653Y15191D01*
X10632Y15207D01*
X10609Y15217D01*
X10583Y15220D01*
D02*
G37*
G36*
X8297D02*
X8272Y15217D01*
X8248Y15207D01*
X8228Y15191D01*
X8212Y15171D01*
X8202Y15147D01*
X8199Y15122D01*
X8202Y15096D01*
X8212Y15072D01*
X8228Y15052D01*
X8248Y15036D01*
X8272Y15027D01*
X8297Y15023D01*
X8323Y15027D01*
X8346Y15036D01*
X8367Y15052D01*
X8382Y15072D01*
X8392Y15096D01*
X8396Y15122D01*
X8392Y15147D01*
X8382Y15171D01*
X8367Y15191D01*
X8346Y15207D01*
X8323Y15217D01*
X8297Y15220D01*
D02*
G37*
G36*
X15750Y15101D02*
X15730Y15097D01*
X15714Y15086D01*
X15703Y15070D01*
X15699Y15050D01*
X15703Y15030D01*
X15714Y15014D01*
X15730Y15003D01*
X15750Y14999D01*
X15770Y15003D01*
X15786Y15014D01*
X15797Y15030D01*
X15801Y15050D01*
X15797Y15070D01*
X15786Y15086D01*
X15770Y15097D01*
X15750Y15101D01*
D02*
G37*
G36*
X15400D02*
X15380Y15097D01*
X15364Y15086D01*
X15353Y15070D01*
X15349Y15050D01*
X15353Y15030D01*
X15364Y15014D01*
X15380Y15003D01*
X15400Y14999D01*
X15420Y15003D01*
X15436Y15014D01*
X15447Y15030D01*
X15451Y15050D01*
X15447Y15070D01*
X15436Y15086D01*
X15420Y15097D01*
X15400Y15101D01*
D02*
G37*
G36*
X15050D02*
X15030Y15097D01*
X15014Y15086D01*
X15003Y15070D01*
X14999Y15050D01*
X15003Y15030D01*
X15014Y15014D01*
X15030Y15003D01*
X15050Y14999D01*
X15070Y15003D01*
X15086Y15014D01*
X15097Y15030D01*
X15101Y15050D01*
X15097Y15070D01*
X15086Y15086D01*
X15070Y15097D01*
X15050Y15101D01*
D02*
G37*
G36*
X10150D02*
X10130Y15097D01*
X10114Y15086D01*
X10103Y15070D01*
X10099Y15050D01*
X10103Y15030D01*
X10114Y15014D01*
X10130Y15003D01*
X10150Y14999D01*
X10170Y15003D01*
X10186Y15014D01*
X10197Y15030D01*
X10201Y15050D01*
X10197Y15070D01*
X10186Y15086D01*
X10170Y15097D01*
X10150Y15101D01*
D02*
G37*
G36*
X9800D02*
X9780Y15097D01*
X9764Y15086D01*
X9753Y15070D01*
X9749Y15050D01*
X9753Y15030D01*
X9764Y15014D01*
X9780Y15003D01*
X9800Y14999D01*
X9820Y15003D01*
X9836Y15014D01*
X9847Y15030D01*
X9851Y15050D01*
X9847Y15070D01*
X9836Y15086D01*
X9820Y15097D01*
X9800Y15101D01*
D02*
G37*
G36*
X9450D02*
X9430Y15097D01*
X9414Y15086D01*
X9403Y15070D01*
X9399Y15050D01*
X9403Y15030D01*
X9414Y15014D01*
X9430Y15003D01*
X9450Y14999D01*
X9470Y15003D01*
X9486Y15014D01*
X9497Y15030D01*
X9501Y15050D01*
X9497Y15070D01*
X9486Y15086D01*
X9470Y15097D01*
X9450Y15101D01*
D02*
G37*
G36*
X9100D02*
X9080Y15097D01*
X9064Y15086D01*
X9053Y15070D01*
X9049Y15050D01*
X9053Y15030D01*
X9064Y15014D01*
X9080Y15003D01*
X9100Y14999D01*
X9120Y15003D01*
X9136Y15014D01*
X9147Y15030D01*
X9151Y15050D01*
X9147Y15070D01*
X9136Y15086D01*
X9120Y15097D01*
X9100Y15101D01*
D02*
G37*
G36*
X8750D02*
X8730Y15097D01*
X8714Y15086D01*
X8703Y15070D01*
X8699Y15050D01*
X8703Y15030D01*
X8714Y15014D01*
X8730Y15003D01*
X8750Y14999D01*
X8770Y15003D01*
X8786Y15014D01*
X8797Y15030D01*
X8801Y15050D01*
X8797Y15070D01*
X8786Y15086D01*
X8770Y15097D01*
X8750Y15101D01*
D02*
G37*
G36*
X13449Y15088D02*
X13430Y15084D01*
X13413Y15073D01*
X13402Y15056D01*
X13398Y15037D01*
X13402Y15017D01*
X13413Y15001D01*
X13430Y14990D01*
X13449Y14986D01*
X13469Y14990D01*
X13485Y15001D01*
X13496Y15017D01*
X13500Y15037D01*
X13496Y15056D01*
X13485Y15073D01*
X13469Y15084D01*
X13449Y15088D01*
D02*
G37*
G36*
X12965Y15076D02*
X12945Y15072D01*
X12929Y15061D01*
X12918Y15045D01*
X12914Y15025D01*
X12918Y15005D01*
X12929Y14989D01*
X12945Y14978D01*
X12965Y14974D01*
X12985Y14978D01*
X13001Y14989D01*
X13012Y15005D01*
X13016Y15025D01*
X13012Y15045D01*
X13001Y15061D01*
X12985Y15072D01*
X12965Y15076D01*
D02*
G37*
G36*
X11417Y15075D02*
X11398Y15071D01*
X11381Y15060D01*
X11370Y15044D01*
X11366Y15024D01*
X11370Y15005D01*
X11381Y14988D01*
X11398Y14977D01*
X11417Y14973D01*
X11437Y14977D01*
X11453Y14988D01*
X11464Y15005D01*
X11468Y15024D01*
X11464Y15044D01*
X11453Y15060D01*
X11437Y15071D01*
X11417Y15075D01*
D02*
G37*
G36*
X12776Y15037D02*
X12757Y15033D01*
X12740Y15022D01*
X12729Y15006D01*
X12725Y14986D01*
X12729Y14966D01*
X12740Y14950D01*
X12757Y14939D01*
X12776Y14935D01*
X12796Y14939D01*
X12812Y14950D01*
X12823Y14966D01*
X12827Y14986D01*
X12823Y15006D01*
X12812Y15022D01*
X12796Y15033D01*
X12776Y15037D01*
D02*
G37*
G36*
X12179Y15012D02*
X12160Y15008D01*
X12143Y14997D01*
X12132Y14980D01*
X12128Y14961D01*
X12132Y14941D01*
X12143Y14925D01*
X12160Y14914D01*
X12179Y14910D01*
X12199Y14914D01*
X12215Y14925D01*
X12226Y14941D01*
X12230Y14961D01*
X12226Y14980D01*
X12215Y14997D01*
X12199Y15008D01*
X12179Y15012D01*
D02*
G37*
G36*
X12306Y14999D02*
X12287Y14995D01*
X12270Y14984D01*
X12259Y14967D01*
X12255Y14948D01*
X12259Y14928D01*
X12270Y14912D01*
X12287Y14901D01*
X12306Y14897D01*
X12326Y14901D01*
X12342Y14912D01*
X12353Y14928D01*
X12357Y14948D01*
X12353Y14967D01*
X12342Y14984D01*
X12326Y14995D01*
X12306Y14999D01*
D02*
G37*
G36*
X12052D02*
X12033Y14995D01*
X12016Y14984D01*
X12005Y14967D01*
X12001Y14948D01*
X12005Y14928D01*
X12016Y14912D01*
X12033Y14901D01*
X12052Y14897D01*
X12072Y14901D01*
X12088Y14912D01*
X12099Y14928D01*
X12103Y14948D01*
X12099Y14967D01*
X12088Y14984D01*
X12072Y14995D01*
X12052Y14999D01*
D02*
G37*
G36*
X12459D02*
X12439Y14995D01*
X12423Y14984D01*
X12412Y14967D01*
X12408Y14948D01*
X12412Y14928D01*
X12423Y14912D01*
X12439Y14901D01*
X12459Y14897D01*
X12478Y14901D01*
X12495Y14912D01*
X12505Y14928D01*
X12508Y14928D01*
X12519Y14927D01*
X12520Y14922D01*
X12531Y14906D01*
X12547Y14894D01*
X12567Y14891D01*
X12586Y14894D01*
X12603Y14906D01*
X12614Y14922D01*
X12618Y14942D01*
X12614Y14961D01*
X12603Y14978D01*
X12586Y14989D01*
X12567Y14993D01*
X12547Y14989D01*
X12531Y14978D01*
X12520Y14962D01*
X12518Y14961D01*
X12507Y14962D01*
X12506Y14967D01*
X12495Y14984D01*
X12478Y14995D01*
X12459Y14999D01*
D02*
G37*
G36*
X12827Y14935D02*
X12807Y14931D01*
X12791Y14920D01*
X12780Y14904D01*
X12776Y14884D01*
X12780Y14865D01*
X12791Y14848D01*
X12807Y14837D01*
X12827Y14833D01*
X12847Y14837D01*
X12863Y14848D01*
X12874Y14865D01*
X12878Y14884D01*
X12874Y14904D01*
X12863Y14920D01*
X12847Y14931D01*
X12827Y14935D01*
D02*
G37*
G36*
X13399Y14973D02*
X13379Y14970D01*
X13362Y14959D01*
X13351Y14942D01*
X13348Y14923D01*
X13351Y14903D01*
X13362Y14886D01*
X13379Y14875D01*
X13384Y14874D01*
X13385Y14873D01*
X13386Y14861D01*
X13372Y14852D01*
X13361Y14835D01*
X13357Y14816D01*
X13361Y14796D01*
X13372Y14780D01*
X13388Y14769D01*
X13408Y14765D01*
X13427Y14769D01*
X13444Y14780D01*
X13455Y14796D01*
X13459Y14816D01*
X13457Y14824D01*
X13469Y14832D01*
X13474Y14828D01*
X13494Y14824D01*
X13514Y14828D01*
X13530Y14839D01*
X13541Y14855D01*
X13545Y14875D01*
X13541Y14895D01*
X13530Y14911D01*
X13514Y14922D01*
X13494Y14926D01*
X13474Y14922D01*
X13460Y14913D01*
X13451Y14917D01*
X13449Y14919D01*
X13449Y14923D01*
X13446Y14942D01*
X13435Y14959D01*
X13418Y14970D01*
X13399Y14973D01*
D02*
G37*
G36*
X10583Y14966D02*
X10558Y14963D01*
X10534Y14953D01*
X10514Y14937D01*
X10498Y14917D01*
X10488Y14893D01*
X10485Y14868D01*
X10488Y14842D01*
X10498Y14818D01*
X10514Y14798D01*
X10534Y14782D01*
X10558Y14773D01*
X10583Y14769D01*
X10609Y14773D01*
X10632Y14782D01*
X10653Y14798D01*
X10668Y14818D01*
X10678Y14842D01*
X10682Y14868D01*
X10678Y14893D01*
X10668Y14917D01*
X10653Y14937D01*
X10632Y14953D01*
X10609Y14963D01*
X10583Y14966D01*
D02*
G37*
G36*
X8297D02*
X8272Y14963D01*
X8248Y14953D01*
X8228Y14937D01*
X8212Y14917D01*
X8202Y14893D01*
X8199Y14868D01*
X8202Y14842D01*
X8212Y14818D01*
X8228Y14798D01*
X8248Y14782D01*
X8272Y14773D01*
X8297Y14769D01*
X8323Y14773D01*
X8346Y14782D01*
X8367Y14798D01*
X8382Y14818D01*
X8392Y14842D01*
X8396Y14868D01*
X8392Y14893D01*
X8382Y14917D01*
X8367Y14937D01*
X8346Y14953D01*
X8323Y14963D01*
X8297Y14966D01*
D02*
G37*
G36*
X12827Y14821D02*
X12807Y14817D01*
X12791Y14806D01*
X12780Y14790D01*
X12776Y14770D01*
X12780Y14751D01*
X12791Y14734D01*
X12807Y14723D01*
X12827Y14719D01*
X12847Y14723D01*
X12863Y14734D01*
X12874Y14751D01*
X12878Y14770D01*
X12874Y14790D01*
X12863Y14806D01*
X12847Y14817D01*
X12827Y14821D01*
D02*
G37*
G36*
X11036Y14796D02*
X11017Y14792D01*
X11000Y14781D01*
X10989Y14764D01*
X10985Y14745D01*
X10989Y14725D01*
X11000Y14709D01*
X11017Y14698D01*
X11036Y14694D01*
X11056Y14698D01*
X11072Y14709D01*
X11083Y14725D01*
X11087Y14745D01*
X11083Y14764D01*
X11072Y14781D01*
X11056Y14792D01*
X11036Y14796D01*
D02*
G37*
G36*
X13865Y14756D02*
X13850Y14753D01*
X13836Y14744D01*
X13827Y14731D01*
X13824Y14715D01*
X13827Y14699D01*
X13836Y14686D01*
X13850Y14677D01*
X13865Y14674D01*
X13881Y14677D01*
X13894Y14686D01*
X13903Y14699D01*
X13906Y14715D01*
X13903Y14731D01*
X13894Y14744D01*
X13881Y14753D01*
X13865Y14756D01*
D02*
G37*
G36*
X13755D02*
X13740Y14753D01*
X13726Y14744D01*
X13717Y14731D01*
X13714Y14715D01*
X13717Y14699D01*
X13726Y14686D01*
X13740Y14677D01*
X13755Y14674D01*
X13771Y14677D01*
X13784Y14686D01*
X13793Y14699D01*
X13796Y14715D01*
X13793Y14731D01*
X13784Y14744D01*
X13771Y14753D01*
X13755Y14756D01*
D02*
G37*
G36*
X13645D02*
X13630Y14753D01*
X13616Y14744D01*
X13607Y14731D01*
X13604Y14715D01*
X13607Y14699D01*
X13616Y14686D01*
X13630Y14677D01*
X13645Y14674D01*
X13661Y14677D01*
X13674Y14686D01*
X13683Y14699D01*
X13686Y14715D01*
X13683Y14731D01*
X13674Y14744D01*
X13661Y14753D01*
X13645Y14756D01*
D02*
G37*
G36*
X15925Y14751D02*
X15905Y14747D01*
X15889Y14736D01*
X15878Y14720D01*
X15874Y14700D01*
X15878Y14680D01*
X15889Y14664D01*
X15905Y14653D01*
X15925Y14649D01*
X15945Y14653D01*
X15961Y14664D01*
X15972Y14680D01*
X15976Y14700D01*
X15972Y14720D01*
X15961Y14736D01*
X15945Y14747D01*
X15925Y14751D01*
D02*
G37*
G36*
X15575D02*
X15555Y14747D01*
X15539Y14736D01*
X15528Y14720D01*
X15524Y14700D01*
X15528Y14680D01*
X15539Y14664D01*
X15555Y14653D01*
X15575Y14649D01*
X15595Y14653D01*
X15611Y14664D01*
X15622Y14680D01*
X15626Y14700D01*
X15622Y14720D01*
X15611Y14736D01*
X15595Y14747D01*
X15575Y14751D01*
D02*
G37*
G36*
X15225D02*
X15205Y14747D01*
X15189Y14736D01*
X15178Y14720D01*
X15174Y14700D01*
X15178Y14680D01*
X15189Y14664D01*
X15205Y14653D01*
X15225Y14649D01*
X15245Y14653D01*
X15261Y14664D01*
X15272Y14680D01*
X15276Y14700D01*
X15272Y14720D01*
X15261Y14736D01*
X15245Y14747D01*
X15225Y14751D01*
D02*
G37*
G36*
X14875D02*
X14855Y14747D01*
X14839Y14736D01*
X14828Y14720D01*
X14824Y14700D01*
X14828Y14680D01*
X14839Y14664D01*
X14855Y14653D01*
X14875Y14649D01*
X14895Y14653D01*
X14911Y14664D01*
X14922Y14680D01*
X14926Y14700D01*
X14922Y14720D01*
X14911Y14736D01*
X14895Y14747D01*
X14875Y14751D01*
D02*
G37*
G36*
X8575D02*
X8555Y14747D01*
X8539Y14736D01*
X8528Y14720D01*
X8524Y14700D01*
X8528Y14680D01*
X8539Y14664D01*
X8555Y14653D01*
X8575Y14649D01*
X8595Y14653D01*
X8611Y14664D01*
X8622Y14680D01*
X8626Y14700D01*
X8622Y14720D01*
X8611Y14736D01*
X8595Y14747D01*
X8575Y14751D01*
D02*
G37*
G36*
X12941Y14846D02*
X12922Y14843D01*
X12905Y14832D01*
X12894Y14815D01*
X12890Y14796D01*
X12894Y14776D01*
X12905Y14759D01*
X12912Y14755D01*
X12910Y14741D01*
X12909Y14741D01*
X12893Y14730D01*
X12882Y14713D01*
X12878Y14694D01*
X12882Y14674D01*
X12893Y14658D01*
X12909Y14647D01*
X12929Y14643D01*
X12948Y14647D01*
X12965Y14658D01*
X12976Y14674D01*
X12980Y14694D01*
X12976Y14713D01*
X12965Y14730D01*
X12958Y14735D01*
X12960Y14748D01*
X12961Y14748D01*
X12977Y14759D01*
X12988Y14776D01*
X12992Y14796D01*
X12988Y14815D01*
X12977Y14832D01*
X12961Y14843D01*
X12941Y14846D01*
D02*
G37*
G36*
X13865Y14646D02*
X13850Y14643D01*
X13836Y14634D01*
X13827Y14621D01*
X13824Y14605D01*
X13827Y14589D01*
X13836Y14576D01*
X13850Y14567D01*
X13865Y14564D01*
X13881Y14567D01*
X13894Y14576D01*
X13903Y14589D01*
X13906Y14605D01*
X13903Y14621D01*
X13894Y14634D01*
X13881Y14643D01*
X13865Y14646D01*
D02*
G37*
G36*
X13755D02*
X13740Y14643D01*
X13726Y14634D01*
X13717Y14621D01*
X13714Y14605D01*
X13717Y14589D01*
X13726Y14576D01*
X13740Y14567D01*
X13755Y14564D01*
X13771Y14567D01*
X13784Y14576D01*
X13793Y14589D01*
X13796Y14605D01*
X13793Y14621D01*
X13784Y14634D01*
X13771Y14643D01*
X13755Y14646D01*
D02*
G37*
G36*
X13645D02*
X13630Y14643D01*
X13616Y14634D01*
X13607Y14621D01*
X13604Y14605D01*
X13607Y14589D01*
X13616Y14576D01*
X13630Y14567D01*
X13645Y14564D01*
X13661Y14567D01*
X13674Y14576D01*
X13683Y14589D01*
X13686Y14605D01*
X13683Y14621D01*
X13674Y14634D01*
X13661Y14643D01*
X13645Y14646D01*
D02*
G37*
G36*
X10583Y14712D02*
X10558Y14709D01*
X10534Y14699D01*
X10514Y14683D01*
X10498Y14663D01*
X10488Y14639D01*
X10485Y14614D01*
X10488Y14588D01*
X10498Y14564D01*
X10514Y14544D01*
X10534Y14528D01*
X10558Y14519D01*
X10583Y14515D01*
X10609Y14519D01*
X10632Y14528D01*
X10653Y14544D01*
X10668Y14564D01*
X10678Y14588D01*
X10682Y14614D01*
X10678Y14639D01*
X10668Y14663D01*
X10653Y14683D01*
X10632Y14699D01*
X10609Y14709D01*
X10583Y14712D01*
D02*
G37*
G36*
X8297D02*
X8272Y14709D01*
X8248Y14699D01*
X8228Y14683D01*
X8212Y14663D01*
X8202Y14639D01*
X8199Y14614D01*
X8202Y14588D01*
X8212Y14564D01*
X8228Y14544D01*
X8248Y14528D01*
X8272Y14519D01*
X8297Y14515D01*
X8323Y14519D01*
X8346Y14528D01*
X8367Y14544D01*
X8382Y14564D01*
X8392Y14588D01*
X8396Y14614D01*
X8392Y14639D01*
X8382Y14663D01*
X8367Y14683D01*
X8346Y14699D01*
X8323Y14709D01*
X8297Y14712D01*
D02*
G37*
G36*
X13865Y14536D02*
X13850Y14533D01*
X13836Y14524D01*
X13827Y14511D01*
X13824Y14495D01*
X13827Y14479D01*
X13836Y14466D01*
X13850Y14457D01*
X13865Y14454D01*
X13881Y14457D01*
X13894Y14466D01*
X13903Y14479D01*
X13906Y14495D01*
X13903Y14511D01*
X13894Y14524D01*
X13881Y14533D01*
X13865Y14536D01*
D02*
G37*
G36*
X13755D02*
X13740Y14533D01*
X13726Y14524D01*
X13717Y14511D01*
X13714Y14495D01*
X13717Y14479D01*
X13726Y14466D01*
X13740Y14457D01*
X13755Y14454D01*
X13771Y14457D01*
X13784Y14466D01*
X13793Y14479D01*
X13796Y14495D01*
X13793Y14511D01*
X13784Y14524D01*
X13771Y14533D01*
X13755Y14536D01*
D02*
G37*
G36*
X13645D02*
X13630Y14533D01*
X13616Y14524D01*
X13607Y14511D01*
X13604Y14495D01*
X13607Y14479D01*
X13616Y14466D01*
X13630Y14457D01*
X13645Y14454D01*
X13661Y14457D01*
X13674Y14466D01*
X13683Y14479D01*
X13686Y14495D01*
X13683Y14511D01*
X13674Y14524D01*
X13661Y14533D01*
X13645Y14536D01*
D02*
G37*
G36*
X11341Y14504D02*
X11322Y14500D01*
X11305Y14489D01*
X11294Y14472D01*
X11290Y14453D01*
X11294Y14433D01*
X11305Y14417D01*
X11322Y14406D01*
X11341Y14402D01*
X11361Y14406D01*
X11373Y14414D01*
X11377Y14417D01*
X11389Y14411D01*
X11394Y14404D01*
X11410Y14393D01*
X11430Y14389D01*
X11450Y14393D01*
X11466Y14404D01*
X11477Y14420D01*
X11481Y14440D01*
X11477Y14459D01*
X11466Y14476D01*
X11450Y14487D01*
X11430Y14491D01*
X11410Y14487D01*
X11398Y14479D01*
X11394Y14476D01*
X11382Y14481D01*
X11377Y14489D01*
X11361Y14500D01*
X11341Y14504D01*
D02*
G37*
G36*
X12636Y14567D02*
X12617Y14563D01*
X12600Y14552D01*
X12589Y14536D01*
X12586Y14516D01*
X12589Y14497D01*
X12600Y14480D01*
X12617Y14469D01*
X12618Y14469D01*
X12620Y14455D01*
X12613Y14451D01*
X12602Y14434D01*
X12598Y14415D01*
X12602Y14395D01*
X12613Y14378D01*
X12630Y14367D01*
X12649Y14364D01*
X12669Y14367D01*
X12685Y14378D01*
X12696Y14395D01*
X12700Y14415D01*
X12696Y14434D01*
X12685Y14451D01*
X12669Y14462D01*
X12668Y14462D01*
X12665Y14475D01*
X12673Y14480D01*
X12684Y14497D01*
X12687Y14516D01*
X12684Y14536D01*
X12673Y14552D01*
X12656Y14563D01*
X12636Y14567D01*
D02*
G37*
G36*
X15400Y14401D02*
X15380Y14397D01*
X15364Y14386D01*
X15353Y14370D01*
X15349Y14350D01*
X15353Y14330D01*
X15364Y14314D01*
X15380Y14303D01*
X15400Y14299D01*
X15420Y14303D01*
X15436Y14314D01*
X15447Y14330D01*
X15451Y14350D01*
X15447Y14370D01*
X15436Y14386D01*
X15420Y14397D01*
X15400Y14401D01*
D02*
G37*
G36*
X10150D02*
X10130Y14397D01*
X10114Y14386D01*
X10103Y14370D01*
X10099Y14350D01*
X10103Y14330D01*
X10114Y14314D01*
X10130Y14303D01*
X10150Y14299D01*
X10170Y14303D01*
X10186Y14314D01*
X10197Y14330D01*
X10201Y14350D01*
X10197Y14370D01*
X10186Y14386D01*
X10170Y14397D01*
X10150Y14401D01*
D02*
G37*
G36*
X9800D02*
X9780Y14397D01*
X9764Y14386D01*
X9753Y14370D01*
X9749Y14350D01*
X9753Y14330D01*
X9764Y14314D01*
X9780Y14303D01*
X9800Y14299D01*
X9820Y14303D01*
X9836Y14314D01*
X9847Y14330D01*
X9851Y14350D01*
X9847Y14370D01*
X9836Y14386D01*
X9820Y14397D01*
X9800Y14401D01*
D02*
G37*
G36*
X9450D02*
X9430Y14397D01*
X9414Y14386D01*
X9403Y14370D01*
X9399Y14350D01*
X9403Y14330D01*
X9414Y14314D01*
X9430Y14303D01*
X9450Y14299D01*
X9470Y14303D01*
X9486Y14314D01*
X9497Y14330D01*
X9501Y14350D01*
X9497Y14370D01*
X9486Y14386D01*
X9470Y14397D01*
X9450Y14401D01*
D02*
G37*
G36*
X9100D02*
X9080Y14397D01*
X9064Y14386D01*
X9053Y14370D01*
X9049Y14350D01*
X9053Y14330D01*
X9064Y14314D01*
X9080Y14303D01*
X9100Y14299D01*
X9120Y14303D01*
X9136Y14314D01*
X9147Y14330D01*
X9151Y14350D01*
X9147Y14370D01*
X9136Y14386D01*
X9120Y14397D01*
X9100Y14401D01*
D02*
G37*
G36*
X8750D02*
X8730Y14397D01*
X8714Y14386D01*
X8703Y14370D01*
X8699Y14350D01*
X8703Y14330D01*
X8714Y14314D01*
X8730Y14303D01*
X8750Y14299D01*
X8770Y14303D01*
X8786Y14314D01*
X8797Y14330D01*
X8801Y14350D01*
X8797Y14370D01*
X8786Y14386D01*
X8770Y14397D01*
X8750Y14401D01*
D02*
G37*
G36*
X12040Y14364D02*
X12020Y14360D01*
X12004Y14349D01*
X11993Y14332D01*
X11989Y14313D01*
X11993Y14293D01*
X12004Y14277D01*
X12020Y14266D01*
X12040Y14262D01*
X12059Y14266D01*
X12076Y14277D01*
X12087Y14293D01*
X12091Y14313D01*
X12087Y14332D01*
X12076Y14349D01*
X12059Y14360D01*
X12040Y14364D01*
D02*
G37*
G36*
X11341Y14377D02*
X11322Y14373D01*
X11305Y14362D01*
X11294Y14345D01*
X11290Y14326D01*
X11294Y14306D01*
X11305Y14290D01*
X11322Y14279D01*
X11341Y14275D01*
X11361Y14279D01*
X11373Y14287D01*
X11377Y14290D01*
X11389Y14284D01*
X11394Y14277D01*
X11410Y14266D01*
X11430Y14262D01*
X11450Y14266D01*
X11466Y14277D01*
X11477Y14293D01*
X11481Y14313D01*
X11477Y14332D01*
X11466Y14349D01*
X11450Y14360D01*
X11430Y14364D01*
X11410Y14360D01*
X11398Y14352D01*
X11394Y14349D01*
X11382Y14354D01*
X11377Y14362D01*
X11361Y14373D01*
X11341Y14377D01*
D02*
G37*
G36*
X10583Y14458D02*
X10558Y14455D01*
X10534Y14445D01*
X10514Y14429D01*
X10498Y14409D01*
X10488Y14385D01*
X10485Y14360D01*
X10488Y14334D01*
X10498Y14310D01*
X10514Y14290D01*
X10534Y14274D01*
X10558Y14265D01*
X10583Y14261D01*
X10609Y14265D01*
X10632Y14274D01*
X10653Y14290D01*
X10668Y14310D01*
X10678Y14334D01*
X10682Y14360D01*
X10678Y14385D01*
X10668Y14409D01*
X10653Y14429D01*
X10632Y14445D01*
X10609Y14455D01*
X10583Y14458D01*
D02*
G37*
G36*
X8297D02*
X8272Y14455D01*
X8248Y14445D01*
X8228Y14429D01*
X8212Y14409D01*
X8202Y14385D01*
X8199Y14360D01*
X8202Y14334D01*
X8212Y14310D01*
X8228Y14290D01*
X8248Y14274D01*
X8272Y14265D01*
X8297Y14261D01*
X8323Y14265D01*
X8346Y14274D01*
X8367Y14290D01*
X8382Y14310D01*
X8392Y14334D01*
X8396Y14360D01*
X8392Y14385D01*
X8382Y14409D01*
X8367Y14429D01*
X8346Y14445D01*
X8323Y14455D01*
X8297Y14458D01*
D02*
G37*
G36*
X12649Y14326D02*
X12630Y14322D01*
X12613Y14311D01*
X12602Y14294D01*
X12598Y14275D01*
X12602Y14255D01*
X12613Y14239D01*
X12630Y14228D01*
X12649Y14224D01*
X12669Y14228D01*
X12685Y14239D01*
X12696Y14255D01*
X12700Y14275D01*
X12696Y14294D01*
X12685Y14311D01*
X12669Y14322D01*
X12649Y14326D01*
D02*
G37*
G36*
X11011Y14364D02*
X10991Y14360D01*
X10975Y14349D01*
X10964Y14332D01*
X10960Y14313D01*
X10964Y14293D01*
X10975Y14277D01*
X10991Y14266D01*
X11001Y14264D01*
X11002Y14259D01*
X11002Y14251D01*
X10988Y14241D01*
X10977Y14225D01*
X10973Y14205D01*
X10977Y14185D01*
X10988Y14169D01*
X11004Y14158D01*
X11024Y14154D01*
X11044Y14158D01*
X11060Y14169D01*
X11071Y14185D01*
X11075Y14205D01*
X11071Y14225D01*
X11060Y14241D01*
X11044Y14252D01*
X11034Y14254D01*
X11033Y14258D01*
X11033Y14267D01*
X11047Y14277D01*
X11058Y14293D01*
X11062Y14313D01*
X11058Y14332D01*
X11047Y14349D01*
X11030Y14360D01*
X11011Y14364D01*
D02*
G37*
G36*
X12954Y14326D02*
X12934Y14322D01*
X12918Y14311D01*
X12907Y14294D01*
X12903Y14275D01*
X12907Y14255D01*
X12918Y14239D01*
X12934Y14228D01*
X12954Y14224D01*
X12974Y14228D01*
X12975Y14229D01*
X12984Y14219D01*
X12983Y14218D01*
X12979Y14199D01*
X12983Y14179D01*
X12994Y14163D01*
X13011Y14152D01*
X13030Y14148D01*
X13050Y14152D01*
X13066Y14163D01*
X13077Y14179D01*
X13081Y14199D01*
X13077Y14218D01*
X13066Y14235D01*
X13050Y14246D01*
X13030Y14250D01*
X13011Y14246D01*
X13009Y14245D01*
X13000Y14254D01*
X13001Y14255D01*
X13005Y14275D01*
X13001Y14294D01*
X12990Y14311D01*
X12974Y14322D01*
X12954Y14326D01*
D02*
G37*
G36*
X11913Y14237D02*
X11893Y14233D01*
X11877Y14222D01*
X11866Y14205D01*
X11862Y14186D01*
X11866Y14166D01*
X11877Y14150D01*
X11893Y14139D01*
X11913Y14135D01*
X11932Y14139D01*
X11949Y14150D01*
X11960Y14166D01*
X11964Y14186D01*
X11960Y14205D01*
X11949Y14222D01*
X11932Y14233D01*
X11913Y14237D01*
D02*
G37*
G36*
X12370Y14224D02*
X12350Y14220D01*
X12334Y14209D01*
X12323Y14193D01*
X12319Y14173D01*
X12323Y14154D01*
X12334Y14137D01*
X12350Y14126D01*
X12370Y14122D01*
X12389Y14126D01*
X12406Y14137D01*
X12417Y14154D01*
X12421Y14173D01*
X12417Y14193D01*
X12406Y14209D01*
X12389Y14220D01*
X12370Y14224D01*
D02*
G37*
G36*
X12713Y14199D02*
X12693Y14195D01*
X12677Y14184D01*
X12666Y14167D01*
X12662Y14148D01*
X12666Y14128D01*
X12677Y14112D01*
X12693Y14101D01*
X12713Y14097D01*
X12732Y14101D01*
X12749Y14112D01*
X12760Y14128D01*
X12764Y14148D01*
X12760Y14167D01*
X12749Y14184D01*
X12732Y14195D01*
X12713Y14199D01*
D02*
G37*
G36*
X11341Y14262D02*
X11322Y14258D01*
X11305Y14247D01*
X11294Y14231D01*
X11290Y14211D01*
X11294Y14192D01*
X11305Y14175D01*
X11322Y14164D01*
X11341Y14160D01*
X11356Y14163D01*
X11366Y14156D01*
X11367Y14154D01*
X11366Y14148D01*
X11370Y14128D01*
X11381Y14112D01*
X11398Y14101D01*
X11417Y14097D01*
X11437Y14101D01*
X11453Y14112D01*
X11464Y14128D01*
X11468Y14148D01*
X11464Y14167D01*
X11453Y14184D01*
X11437Y14195D01*
X11417Y14199D01*
X11402Y14196D01*
X11393Y14203D01*
X11391Y14205D01*
X11392Y14211D01*
X11388Y14231D01*
X11377Y14247D01*
X11361Y14258D01*
X11341Y14262D01*
D02*
G37*
G36*
X13322Y14186D02*
X13303Y14182D01*
X13286Y14171D01*
X13275Y14155D01*
X13271Y14135D01*
X13275Y14116D01*
X13286Y14099D01*
X13303Y14088D01*
X13322Y14084D01*
X13342Y14088D01*
X13358Y14099D01*
X13369Y14116D01*
X13373Y14135D01*
X13369Y14155D01*
X13358Y14171D01*
X13342Y14182D01*
X13322Y14186D01*
D02*
G37*
G36*
X15176Y14161D02*
X15157Y14157D01*
X15140Y14146D01*
X15129Y14129D01*
X15126Y14110D01*
X15129Y14090D01*
X15140Y14074D01*
X15157Y14063D01*
X15176Y14059D01*
X15196Y14063D01*
X15213Y14074D01*
X15224Y14090D01*
X15227Y14110D01*
X15224Y14129D01*
X15213Y14146D01*
X15196Y14157D01*
X15176Y14161D01*
D02*
G37*
G36*
X11570Y14135D02*
X11550Y14131D01*
X11534Y14120D01*
X11523Y14104D01*
X11519Y14084D01*
X11523Y14065D01*
X11534Y14048D01*
X11550Y14037D01*
X11570Y14033D01*
X11589Y14037D01*
X11606Y14048D01*
X11617Y14065D01*
X11621Y14084D01*
X11617Y14104D01*
X11606Y14120D01*
X11589Y14131D01*
X11570Y14135D01*
D02*
G37*
G36*
X10583Y14204D02*
X10558Y14201D01*
X10534Y14191D01*
X10514Y14175D01*
X10498Y14155D01*
X10488Y14131D01*
X10485Y14106D01*
X10488Y14080D01*
X10498Y14056D01*
X10514Y14036D01*
X10534Y14020D01*
X10558Y14011D01*
X10583Y14007D01*
X10609Y14011D01*
X10632Y14020D01*
X10653Y14036D01*
X10668Y14056D01*
X10678Y14080D01*
X10682Y14106D01*
X10678Y14131D01*
X10668Y14155D01*
X10653Y14175D01*
X10632Y14191D01*
X10609Y14201D01*
X10583Y14204D01*
D02*
G37*
G36*
X8297D02*
X8272Y14201D01*
X8248Y14191D01*
X8228Y14175D01*
X8212Y14155D01*
X8202Y14131D01*
X8199Y14106D01*
X8202Y14080D01*
X8212Y14056D01*
X8228Y14036D01*
X8248Y14020D01*
X8272Y14011D01*
X8297Y14007D01*
X8323Y14011D01*
X8346Y14020D01*
X8367Y14036D01*
X8382Y14056D01*
X8392Y14080D01*
X8396Y14106D01*
X8392Y14131D01*
X8382Y14155D01*
X8367Y14175D01*
X8346Y14191D01*
X8323Y14201D01*
X8297Y14204D01*
D02*
G37*
G36*
X12312Y14069D02*
X12292Y14065D01*
X12276Y14054D01*
X12265Y14038D01*
X12261Y14018D01*
X12262Y14014D01*
X12250Y14007D01*
X12245Y14010D01*
X12226Y14014D01*
X12206Y14010D01*
X12190Y13999D01*
X12179Y13982D01*
X12175Y13963D01*
X12179Y13943D01*
X12187Y13931D01*
X12180Y13919D01*
X12179Y13919D01*
X12160Y13915D01*
X12143Y13904D01*
X12132Y13888D01*
X12128Y13868D01*
X12132Y13849D01*
X12143Y13832D01*
X12160Y13821D01*
X12179Y13817D01*
X12199Y13821D01*
X12215Y13832D01*
X12226Y13849D01*
X12230Y13868D01*
X12226Y13888D01*
X12218Y13901D01*
X12225Y13912D01*
X12226Y13912D01*
X12245Y13916D01*
X12262Y13927D01*
X12273Y13943D01*
X12277Y13963D01*
X12276Y13967D01*
X12288Y13974D01*
X12292Y13971D01*
X12312Y13967D01*
X12332Y13971D01*
X12348Y13982D01*
X12359Y13998D01*
X12363Y14018D01*
X12359Y14038D01*
X12348Y14054D01*
X12332Y14065D01*
X12312Y14069D01*
D02*
G37*
G36*
X12725Y14059D02*
X12706Y14055D01*
X12689Y14044D01*
X12678Y14028D01*
X12674Y14008D01*
X12676Y14002D01*
X12674Y13999D01*
X12665Y13993D01*
X12649Y13996D01*
X12630Y13992D01*
X12613Y13981D01*
X12602Y13964D01*
X12598Y13945D01*
X12602Y13925D01*
X12613Y13909D01*
X12630Y13898D01*
X12649Y13894D01*
X12669Y13898D01*
X12685Y13909D01*
X12696Y13925D01*
X12700Y13945D01*
X12699Y13950D01*
X12701Y13953D01*
X12710Y13960D01*
X12725Y13957D01*
X12745Y13961D01*
X12761Y13972D01*
X12772Y13989D01*
X12776Y14008D01*
X12772Y14028D01*
X12761Y14044D01*
X12745Y14055D01*
X12725Y14059D01*
D02*
G37*
G36*
X13018D02*
X12998Y14055D01*
X12981Y14044D01*
X12970Y14028D01*
X12967Y14008D01*
X12970Y13989D01*
X12981Y13972D01*
X12998Y13961D01*
X13018Y13957D01*
X13037Y13961D01*
X13054Y13972D01*
X13065Y13989D01*
X13068Y14008D01*
X13065Y14028D01*
X13054Y14044D01*
X13037Y14055D01*
X13018Y14059D01*
D02*
G37*
G36*
X14875Y14051D02*
X14855Y14047D01*
X14839Y14036D01*
X14828Y14020D01*
X14824Y14000D01*
X14828Y13980D01*
X14839Y13964D01*
X14855Y13953D01*
X14875Y13949D01*
X14895Y13953D01*
X14911Y13964D01*
X14922Y13980D01*
X14926Y14000D01*
X14922Y14020D01*
X14911Y14036D01*
X14895Y14047D01*
X14875Y14051D01*
D02*
G37*
G36*
X14525D02*
X14505Y14047D01*
X14489Y14036D01*
X14478Y14020D01*
X14474Y14000D01*
X14478Y13980D01*
X14489Y13964D01*
X14505Y13953D01*
X14525Y13949D01*
X14545Y13953D01*
X14561Y13964D01*
X14572Y13980D01*
X14576Y14000D01*
X14572Y14020D01*
X14561Y14036D01*
X14545Y14047D01*
X14525Y14051D01*
D02*
G37*
G36*
X10325D02*
X10305Y14047D01*
X10289Y14036D01*
X10278Y14020D01*
X10274Y14000D01*
X10278Y13980D01*
X10289Y13964D01*
X10305Y13953D01*
X10325Y13949D01*
X10345Y13953D01*
X10361Y13964D01*
X10372Y13980D01*
X10376Y14000D01*
X10372Y14020D01*
X10361Y14036D01*
X10345Y14047D01*
X10325Y14051D01*
D02*
G37*
G36*
X9625D02*
X9605Y14047D01*
X9589Y14036D01*
X9578Y14020D01*
X9574Y14000D01*
X9578Y13980D01*
X9589Y13964D01*
X9605Y13953D01*
X9625Y13949D01*
X9645Y13953D01*
X9661Y13964D01*
X9672Y13980D01*
X9676Y14000D01*
X9672Y14020D01*
X9661Y14036D01*
X9645Y14047D01*
X9625Y14051D01*
D02*
G37*
G36*
X9275D02*
X9255Y14047D01*
X9239Y14036D01*
X9228Y14020D01*
X9224Y14000D01*
X9228Y13980D01*
X9239Y13964D01*
X9255Y13953D01*
X9275Y13949D01*
X9295Y13953D01*
X9311Y13964D01*
X9322Y13980D01*
X9326Y14000D01*
X9322Y14020D01*
X9311Y14036D01*
X9295Y14047D01*
X9275Y14051D01*
D02*
G37*
G36*
X8925D02*
X8905Y14047D01*
X8889Y14036D01*
X8878Y14020D01*
X8874Y14000D01*
X8878Y13980D01*
X8889Y13964D01*
X8905Y13953D01*
X8925Y13949D01*
X8945Y13953D01*
X8961Y13964D01*
X8972Y13980D01*
X8976Y14000D01*
X8972Y14020D01*
X8961Y14036D01*
X8945Y14047D01*
X8925Y14051D01*
D02*
G37*
G36*
X8575D02*
X8555Y14047D01*
X8539Y14036D01*
X8528Y14020D01*
X8524Y14000D01*
X8528Y13980D01*
X8539Y13964D01*
X8555Y13953D01*
X8575Y13949D01*
X8595Y13953D01*
X8611Y13964D01*
X8622Y13980D01*
X8626Y14000D01*
X8622Y14020D01*
X8611Y14036D01*
X8595Y14047D01*
X8575Y14051D01*
D02*
G37*
G36*
X15883Y14039D02*
X15813D01*
X15790Y14034D01*
X15770Y14021D01*
X15757Y14001D01*
X15752Y13978D01*
X15757Y13954D01*
X15770Y13934D01*
X15790Y13921D01*
X15813Y13917D01*
X15883D01*
X15907Y13921D01*
X15927Y13934D01*
X15940Y13954D01*
X15945Y13978D01*
X15940Y14001D01*
X15927Y14021D01*
X15907Y14034D01*
X15883Y14039D01*
D02*
G37*
G36*
X11354Y14072D02*
X11334Y14068D01*
X11318Y14057D01*
X11307Y14040D01*
X11303Y14021D01*
X11307Y14001D01*
X11318Y13985D01*
X11334Y13974D01*
X11345Y13972D01*
X11347Y13958D01*
X11343Y13955D01*
X11332Y13939D01*
X11328Y13919D01*
X11332Y13900D01*
X11343Y13883D01*
X11360Y13872D01*
X11379Y13868D01*
X11399Y13872D01*
X11415Y13883D01*
X11426Y13900D01*
X11430Y13919D01*
X11426Y13939D01*
X11415Y13955D01*
X11399Y13966D01*
X11388Y13968D01*
X11386Y13982D01*
X11390Y13985D01*
X11401Y14001D01*
X11405Y14021D01*
X11401Y14040D01*
X11390Y14057D01*
X11373Y14068D01*
X11354Y14072D01*
D02*
G37*
G36*
X11875Y14021D02*
X11855Y14017D01*
X11838Y14006D01*
X11827Y13990D01*
X11824Y13970D01*
X11825Y13963D01*
X11817Y13951D01*
X11798Y13947D01*
X11781Y13936D01*
X11770Y13920D01*
X11766Y13900D01*
X11770Y13881D01*
X11781Y13864D01*
X11798Y13853D01*
X11817Y13849D01*
X11837Y13853D01*
X11853Y13864D01*
X11864Y13881D01*
X11868Y13900D01*
X11867Y13908D01*
X11875Y13919D01*
X11894Y13923D01*
X11911Y13934D01*
X11922Y13950D01*
X11925Y13970D01*
X11922Y13990D01*
X11911Y14006D01*
X11894Y14017D01*
X11875Y14021D01*
D02*
G37*
G36*
X13030Y13945D02*
X13011Y13941D01*
X12994Y13930D01*
X12983Y13913D01*
X12979Y13894D01*
X12983Y13874D01*
X12994Y13858D01*
X13011Y13847D01*
X13030Y13843D01*
X13050Y13847D01*
X13066Y13858D01*
X13077Y13874D01*
X13081Y13894D01*
X13077Y13913D01*
X13066Y13930D01*
X13050Y13941D01*
X13030Y13945D01*
D02*
G37*
G36*
X12078Y14021D02*
X12058Y14017D01*
X12042Y14006D01*
X12031Y13990D01*
X12027Y13970D01*
X12031Y13950D01*
X12039Y13938D01*
X12042Y13934D01*
X12036Y13922D01*
X12029Y13917D01*
X12018Y13901D01*
X12014Y13881D01*
X12018Y13862D01*
X12029Y13845D01*
X12045Y13834D01*
X12065Y13830D01*
X12085Y13834D01*
X12101Y13845D01*
X12112Y13862D01*
X12116Y13881D01*
X12112Y13901D01*
X12104Y13913D01*
X12101Y13917D01*
X12106Y13929D01*
X12114Y13934D01*
X12125Y13950D01*
X12129Y13970D01*
X12125Y13990D01*
X12114Y14006D01*
X12097Y14017D01*
X12078Y14021D01*
D02*
G37*
G36*
X13462Y13907D02*
X13442Y13903D01*
X13426Y13892D01*
X13415Y13875D01*
X13411Y13856D01*
X13415Y13836D01*
X13426Y13820D01*
X13442Y13809D01*
X13462Y13805D01*
X13482Y13809D01*
X13498Y13820D01*
X13509Y13836D01*
X13513Y13856D01*
X13509Y13875D01*
X13498Y13892D01*
X13482Y13903D01*
X13462Y13907D01*
D02*
G37*
G36*
X10583Y13950D02*
X10558Y13947D01*
X10534Y13937D01*
X10532Y13936D01*
X10301D01*
X10279Y13933D01*
X10259Y13924D01*
X10241Y13911D01*
X10052Y13721D01*
X10038Y13704D01*
X10030Y13684D01*
X10027Y13662D01*
Y13335D01*
X10014Y13331D01*
X10011Y13336D01*
X9995Y13347D01*
X9975Y13351D01*
X9955Y13347D01*
X9939Y13336D01*
X9928Y13320D01*
X9924Y13300D01*
X9928Y13280D01*
X9939Y13264D01*
X9955Y13253D01*
X9975Y13249D01*
X9995Y13253D01*
X10011Y13264D01*
X10014Y13269D01*
X10027Y13265D01*
Y13219D01*
X8462Y11655D01*
X8449Y11637D01*
X8440Y11617D01*
X8438Y11600D01*
X8428Y11594D01*
X8425Y11593D01*
X8420Y11597D01*
X8400Y11601D01*
X8380Y11597D01*
X8364Y11586D01*
X8353Y11570D01*
X8349Y11550D01*
X8353Y11530D01*
X8364Y11514D01*
X8380Y11503D01*
X8400Y11499D01*
X8420Y11503D01*
X8425Y11507D01*
X8438Y11500D01*
Y10900D01*
X8425Y10893D01*
X8420Y10897D01*
X8400Y10901D01*
X8380Y10897D01*
X8364Y10886D01*
X8353Y10870D01*
X8349Y10850D01*
X8353Y10830D01*
X8364Y10814D01*
X8380Y10803D01*
X8400Y10799D01*
X8420Y10803D01*
X8425Y10807D01*
X8438Y10800D01*
Y10690D01*
X8402Y10655D01*
X8389Y10637D01*
X8381Y10617D01*
X8378Y10595D01*
Y9988D01*
X8381Y9967D01*
X8389Y9946D01*
X8402Y9929D01*
X8647Y9684D01*
X8665Y9670D01*
X8685Y9662D01*
X8707Y9659D01*
X15504D01*
X15526Y9662D01*
X15547Y9670D01*
X15564Y9684D01*
X15577Y9697D01*
X15595Y9699D01*
X15615Y9708D01*
X15779D01*
X15799Y9699D01*
X15824Y9696D01*
X15849Y9699D01*
X15872Y9709D01*
X15892Y9724D01*
X15907Y9744D01*
X15917Y9767D01*
X15920Y9792D01*
X15917Y9817D01*
X15907Y9840D01*
X15892Y9859D01*
X15872Y9875D01*
X15849Y9884D01*
X15824Y9888D01*
X15799Y9884D01*
X15779Y9876D01*
X15615D01*
X15595Y9884D01*
X15591Y9885D01*
X15588Y9886D01*
X15566Y9889D01*
X15544Y9886D01*
X15524Y9878D01*
X15507Y9864D01*
X15470Y9827D01*
X8742D01*
X8546Y10023D01*
Y10561D01*
X8581Y10596D01*
X8595Y10613D01*
X8603Y10634D01*
X8606Y10655D01*
Y10757D01*
Y10858D01*
Y11560D01*
X10170Y13125D01*
X10184Y13142D01*
X10192Y13163D01*
X10195Y13184D01*
Y13627D01*
X10335Y13768D01*
X10532D01*
X10534Y13766D01*
X10558Y13757D01*
X10583Y13753D01*
X10609Y13757D01*
X10632Y13766D01*
X10653Y13782D01*
X10668Y13802D01*
X10678Y13826D01*
X10682Y13852D01*
X10678Y13877D01*
X10668Y13901D01*
X10653Y13921D01*
X10632Y13937D01*
X10609Y13947D01*
X10583Y13950D01*
D02*
G37*
G36*
X11303Y13729D02*
X11283Y13725D01*
X11267Y13714D01*
X11256Y13697D01*
X11252Y13678D01*
X11256Y13658D01*
X11267Y13642D01*
X11283Y13631D01*
X11303Y13627D01*
X11323Y13631D01*
X11339Y13642D01*
X11350Y13658D01*
X11354Y13678D01*
X11350Y13697D01*
X11339Y13714D01*
X11323Y13725D01*
X11303Y13729D01*
D02*
G37*
G36*
X14000Y13701D02*
X13980Y13697D01*
X13964Y13686D01*
X13953Y13670D01*
X13949Y13650D01*
X13953Y13630D01*
X13964Y13614D01*
X13980Y13603D01*
X14000Y13599D01*
X14020Y13603D01*
X14036Y13614D01*
X14047Y13630D01*
X14051Y13650D01*
X14047Y13670D01*
X14036Y13686D01*
X14020Y13697D01*
X14000Y13701D01*
D02*
G37*
G36*
X9800D02*
X9780Y13697D01*
X9764Y13686D01*
X9753Y13670D01*
X9749Y13650D01*
X9753Y13630D01*
X9764Y13614D01*
X9780Y13603D01*
X9800Y13599D01*
X9820Y13603D01*
X9836Y13614D01*
X9847Y13630D01*
X9851Y13650D01*
X9847Y13670D01*
X9836Y13686D01*
X9820Y13697D01*
X9800Y13701D01*
D02*
G37*
G36*
X9450D02*
X9430Y13697D01*
X9414Y13686D01*
X9403Y13670D01*
X9399Y13650D01*
X9403Y13630D01*
X9414Y13614D01*
X9430Y13603D01*
X9450Y13599D01*
X9470Y13603D01*
X9486Y13614D01*
X9497Y13630D01*
X9501Y13650D01*
X9497Y13670D01*
X9486Y13686D01*
X9470Y13697D01*
X9450Y13701D01*
D02*
G37*
G36*
X9100D02*
X9080Y13697D01*
X9064Y13686D01*
X9053Y13670D01*
X9049Y13650D01*
X9053Y13630D01*
X9064Y13614D01*
X9080Y13603D01*
X9100Y13599D01*
X9120Y13603D01*
X9136Y13614D01*
X9147Y13630D01*
X9151Y13650D01*
X9147Y13670D01*
X9136Y13686D01*
X9120Y13697D01*
X9100Y13701D01*
D02*
G37*
G36*
X8750D02*
X8730Y13697D01*
X8714Y13686D01*
X8703Y13670D01*
X8699Y13650D01*
X8703Y13630D01*
X8714Y13614D01*
X8730Y13603D01*
X8750Y13599D01*
X8770Y13603D01*
X8786Y13614D01*
X8797Y13630D01*
X8801Y13650D01*
X8797Y13670D01*
X8786Y13686D01*
X8770Y13697D01*
X8750Y13701D01*
D02*
G37*
G36*
X13414Y13628D02*
X13395Y13624D01*
X13378Y13613D01*
X13367Y13597D01*
X13363Y13577D01*
X13367Y13558D01*
X13378Y13541D01*
X13395Y13530D01*
X13414Y13526D01*
X13434Y13530D01*
X13450Y13541D01*
X13461Y13558D01*
X13465Y13577D01*
X13461Y13597D01*
X13450Y13613D01*
X13434Y13624D01*
X13414Y13628D01*
D02*
G37*
G36*
X10583Y13696D02*
X10558Y13693D01*
X10534Y13683D01*
X10514Y13667D01*
X10498Y13647D01*
X10488Y13623D01*
X10485Y13598D01*
X10488Y13572D01*
X10498Y13548D01*
X10514Y13528D01*
X10534Y13512D01*
X10558Y13503D01*
X10583Y13499D01*
X10609Y13503D01*
X10632Y13512D01*
X10653Y13528D01*
X10668Y13548D01*
X10678Y13572D01*
X10682Y13598D01*
X10678Y13623D01*
X10668Y13647D01*
X10653Y13667D01*
X10632Y13683D01*
X10609Y13693D01*
X10583Y13696D01*
D02*
G37*
G36*
X8297D02*
X8272Y13693D01*
X8248Y13683D01*
X8228Y13667D01*
X8212Y13647D01*
X8202Y13623D01*
X8199Y13598D01*
X8202Y13572D01*
X8212Y13548D01*
X8228Y13528D01*
X8248Y13512D01*
X8272Y13503D01*
X8297Y13499D01*
X8323Y13503D01*
X8346Y13512D01*
X8367Y13528D01*
X8382Y13548D01*
X8392Y13572D01*
X8396Y13598D01*
X8392Y13623D01*
X8382Y13647D01*
X8367Y13667D01*
X8346Y13683D01*
X8323Y13693D01*
X8297Y13696D01*
D02*
G37*
G36*
X13564Y13589D02*
X13544Y13585D01*
X13528Y13574D01*
X13517Y13558D01*
X13513Y13538D01*
X13517Y13519D01*
X13528Y13502D01*
X13544Y13491D01*
X13564Y13487D01*
X13583Y13491D01*
X13600Y13502D01*
X13611Y13519D01*
X13615Y13538D01*
X13611Y13558D01*
X13600Y13574D01*
X13583Y13585D01*
X13564Y13589D01*
D02*
G37*
G36*
X12268Y13564D02*
X12249Y13560D01*
X12232Y13549D01*
X12221Y13532D01*
X12217Y13513D01*
X12220Y13497D01*
X12213Y13488D01*
X12211Y13486D01*
X12205Y13488D01*
X12185Y13484D01*
X12169Y13473D01*
X12164Y13465D01*
X12150Y13468D01*
X12150Y13469D01*
X12139Y13485D01*
X12123Y13496D01*
X12103Y13500D01*
X12084Y13496D01*
X12067Y13485D01*
X12056Y13469D01*
X12052Y13449D01*
X12056Y13430D01*
X12067Y13413D01*
X12084Y13402D01*
X12103Y13398D01*
X12123Y13402D01*
X12139Y13413D01*
X12144Y13420D01*
X12157Y13418D01*
X12158Y13417D01*
X12169Y13401D01*
X12185Y13390D01*
X12205Y13386D01*
X12224Y13390D01*
X12241Y13401D01*
X12252Y13417D01*
X12256Y13437D01*
X12253Y13452D01*
X12260Y13461D01*
X12262Y13463D01*
X12268Y13462D01*
X12288Y13466D01*
X12304Y13477D01*
X12315Y13493D01*
X12319Y13513D01*
X12315Y13532D01*
X12304Y13549D01*
X12288Y13560D01*
X12268Y13564D01*
D02*
G37*
G36*
X11570Y13538D02*
X11550Y13534D01*
X11534Y13523D01*
X11523Y13507D01*
X11519Y13487D01*
X11523Y13468D01*
X11534Y13451D01*
X11550Y13440D01*
X11570Y13436D01*
X11589Y13440D01*
X11606Y13451D01*
X11617Y13468D01*
X11621Y13487D01*
X11617Y13507D01*
X11606Y13523D01*
X11589Y13534D01*
X11570Y13538D01*
D02*
G37*
G36*
X11980Y13621D02*
X11960Y13617D01*
X11944Y13606D01*
X11933Y13590D01*
X11929Y13570D01*
X11933Y13550D01*
X11944Y13534D01*
X11953Y13528D01*
Y13512D01*
X11944Y13506D01*
X11933Y13490D01*
X11929Y13470D01*
X11933Y13450D01*
X11944Y13434D01*
X11960Y13423D01*
X11980Y13419D01*
X12000Y13423D01*
X12016Y13434D01*
X12027Y13450D01*
X12031Y13470D01*
X12027Y13490D01*
X12016Y13506D01*
X12007Y13512D01*
Y13528D01*
X12016Y13534D01*
X12027Y13550D01*
X12031Y13570D01*
X12027Y13590D01*
X12016Y13606D01*
X12000Y13617D01*
X11980Y13621D01*
D02*
G37*
G36*
X13136Y13518D02*
X13116Y13515D01*
X13100Y13504D01*
X13089Y13487D01*
X13085Y13467D01*
X13089Y13448D01*
X13100Y13431D01*
X13116Y13420D01*
X13136Y13417D01*
X13155Y13420D01*
X13172Y13431D01*
X13183Y13448D01*
X13187Y13467D01*
X13183Y13487D01*
X13172Y13504D01*
X13155Y13515D01*
X13136Y13518D01*
D02*
G37*
G36*
X13678Y13513D02*
X13658Y13509D01*
X13642Y13498D01*
X13631Y13482D01*
X13627Y13462D01*
X13631Y13442D01*
X13642Y13426D01*
X13658Y13415D01*
X13678Y13411D01*
X13697Y13415D01*
X13710Y13423D01*
X13714Y13426D01*
X13726Y13421D01*
X13731Y13413D01*
X13747Y13402D01*
X13767Y13398D01*
X13786Y13402D01*
X13803Y13413D01*
X13814Y13430D01*
X13818Y13449D01*
X13814Y13469D01*
X13803Y13485D01*
X13786Y13496D01*
X13767Y13500D01*
X13747Y13496D01*
X13735Y13488D01*
X13731Y13485D01*
X13719Y13491D01*
X13714Y13498D01*
X13697Y13509D01*
X13678Y13513D01*
D02*
G37*
G36*
X12357Y13488D02*
X12338Y13484D01*
X12321Y13473D01*
X12310Y13456D01*
X12306Y13437D01*
X12310Y13417D01*
X12321Y13401D01*
X12338Y13390D01*
X12357Y13386D01*
X12377Y13390D01*
X12393Y13401D01*
X12404Y13417D01*
X12408Y13437D01*
X12404Y13456D01*
X12393Y13473D01*
X12377Y13484D01*
X12357Y13488D01*
D02*
G37*
G36*
X11659Y13462D02*
X11639Y13458D01*
X11623Y13447D01*
X11612Y13431D01*
X11608Y13411D01*
X11612Y13392D01*
X11623Y13375D01*
X11639Y13364D01*
X11659Y13360D01*
X11678Y13364D01*
X11695Y13375D01*
X11706Y13392D01*
X11710Y13411D01*
X11706Y13431D01*
X11695Y13447D01*
X11678Y13458D01*
X11659Y13462D01*
D02*
G37*
G36*
X11151Y13551D02*
X11131Y13547D01*
X11115Y13536D01*
X11104Y13520D01*
X11100Y13500D01*
X11104Y13481D01*
X11115Y13464D01*
X11118Y13462D01*
Y13449D01*
X11115Y13447D01*
X11104Y13431D01*
X11100Y13411D01*
X11104Y13392D01*
X11115Y13375D01*
X11131Y13364D01*
X11151Y13360D01*
X11170Y13364D01*
X11187Y13375D01*
X11198Y13392D01*
X11202Y13411D01*
X11198Y13431D01*
X11187Y13447D01*
X11184Y13449D01*
Y13462D01*
X11187Y13464D01*
X11198Y13481D01*
X11202Y13500D01*
X11198Y13520D01*
X11187Y13536D01*
X11170Y13547D01*
X11151Y13551D01*
D02*
G37*
G36*
X12522Y13361D02*
X12503Y13357D01*
X12486Y13346D01*
X12475Y13329D01*
X12471Y13310D01*
X12475Y13290D01*
X12486Y13274D01*
X12503Y13263D01*
X12522Y13259D01*
X12542Y13263D01*
X12558Y13274D01*
X12569Y13290D01*
X12573Y13310D01*
X12569Y13329D01*
X12558Y13346D01*
X12542Y13357D01*
X12522Y13361D01*
D02*
G37*
G36*
X15883Y13379D02*
X15813D01*
X15790Y13374D01*
X15770Y13361D01*
X15757Y13341D01*
X15752Y13318D01*
X15757Y13294D01*
X15770Y13274D01*
X15790Y13261D01*
X15813Y13257D01*
X15883D01*
X15907Y13261D01*
X15927Y13274D01*
X15940Y13294D01*
X15945Y13318D01*
X15940Y13341D01*
X15927Y13361D01*
X15907Y13374D01*
X15883Y13379D01*
D02*
G37*
G36*
X15225Y13351D02*
X15205Y13347D01*
X15189Y13336D01*
X15178Y13320D01*
X15174Y13300D01*
X15178Y13280D01*
X15189Y13264D01*
X15205Y13253D01*
X15225Y13249D01*
X15245Y13253D01*
X15261Y13264D01*
X15272Y13280D01*
X15276Y13300D01*
X15272Y13320D01*
X15261Y13336D01*
X15245Y13347D01*
X15225Y13351D01*
D02*
G37*
G36*
X14525D02*
X14505Y13347D01*
X14489Y13336D01*
X14478Y13320D01*
X14474Y13300D01*
X14478Y13280D01*
X14489Y13264D01*
X14505Y13253D01*
X14525Y13249D01*
X14545Y13253D01*
X14561Y13264D01*
X14572Y13280D01*
X14576Y13300D01*
X14572Y13320D01*
X14561Y13336D01*
X14545Y13347D01*
X14525Y13351D01*
D02*
G37*
G36*
X10325D02*
X10305Y13347D01*
X10289Y13336D01*
X10278Y13320D01*
X10274Y13300D01*
X10278Y13280D01*
X10289Y13264D01*
X10305Y13253D01*
X10325Y13249D01*
X10345Y13253D01*
X10361Y13264D01*
X10372Y13280D01*
X10376Y13300D01*
X10372Y13320D01*
X10361Y13336D01*
X10345Y13347D01*
X10325Y13351D01*
D02*
G37*
G36*
X9625D02*
X9605Y13347D01*
X9589Y13336D01*
X9578Y13320D01*
X9574Y13300D01*
X9578Y13280D01*
X9589Y13264D01*
X9605Y13253D01*
X9625Y13249D01*
X9645Y13253D01*
X9661Y13264D01*
X9672Y13280D01*
X9676Y13300D01*
X9672Y13320D01*
X9661Y13336D01*
X9645Y13347D01*
X9625Y13351D01*
D02*
G37*
G36*
X9275D02*
X9255Y13347D01*
X9239Y13336D01*
X9228Y13320D01*
X9224Y13300D01*
X9228Y13280D01*
X9239Y13264D01*
X9255Y13253D01*
X9275Y13249D01*
X9295Y13253D01*
X9311Y13264D01*
X9322Y13280D01*
X9326Y13300D01*
X9322Y13320D01*
X9311Y13336D01*
X9295Y13347D01*
X9275Y13351D01*
D02*
G37*
G36*
X8925D02*
X8905Y13347D01*
X8889Y13336D01*
X8878Y13320D01*
X8874Y13300D01*
X8878Y13280D01*
X8889Y13264D01*
X8905Y13253D01*
X8925Y13249D01*
X8945Y13253D01*
X8961Y13264D01*
X8972Y13280D01*
X8976Y13300D01*
X8972Y13320D01*
X8961Y13336D01*
X8945Y13347D01*
X8925Y13351D01*
D02*
G37*
G36*
X8575D02*
X8555Y13347D01*
X8539Y13336D01*
X8528Y13320D01*
X8524Y13300D01*
X8528Y13280D01*
X8539Y13264D01*
X8555Y13253D01*
X8575Y13249D01*
X8595Y13253D01*
X8611Y13264D01*
X8622Y13280D01*
X8626Y13300D01*
X8622Y13320D01*
X8611Y13336D01*
X8595Y13347D01*
X8575Y13351D01*
D02*
G37*
G36*
X8225D02*
X8205Y13347D01*
X8189Y13336D01*
X8178Y13320D01*
X8174Y13300D01*
X8178Y13280D01*
X8189Y13264D01*
X8205Y13253D01*
X8225Y13249D01*
X8245Y13253D01*
X8261Y13264D01*
X8272Y13280D01*
X8276Y13300D01*
X8272Y13320D01*
X8261Y13336D01*
X8245Y13347D01*
X8225Y13351D01*
D02*
G37*
G36*
X12421Y13310D02*
X12401Y13306D01*
X12385Y13295D01*
X12374Y13278D01*
X12370Y13259D01*
X12374Y13239D01*
X12385Y13223D01*
X12401Y13212D01*
X12421Y13208D01*
X12440Y13212D01*
X12457Y13223D01*
X12468Y13239D01*
X12472Y13259D01*
X12468Y13278D01*
X12457Y13295D01*
X12440Y13306D01*
X12421Y13310D01*
D02*
G37*
G36*
X12700D02*
X12680Y13306D01*
X12664Y13295D01*
X12653Y13278D01*
X12649Y13259D01*
X12653Y13239D01*
X12664Y13223D01*
X12680Y13212D01*
X12700Y13208D01*
X12704Y13209D01*
X12713Y13200D01*
X12713Y13195D01*
X12716Y13176D01*
X12727Y13159D01*
X12744Y13148D01*
X12764Y13144D01*
X12783Y13148D01*
X12800Y13159D01*
X12811Y13176D01*
X12814Y13195D01*
X12811Y13215D01*
X12800Y13231D01*
X12783Y13242D01*
X12764Y13246D01*
X12759Y13245D01*
X12750Y13254D01*
X12751Y13259D01*
X12747Y13278D01*
X12736Y13295D01*
X12720Y13306D01*
X12700Y13310D01*
D02*
G37*
G36*
X13691Y13284D02*
X13671Y13280D01*
X13655Y13269D01*
X13644Y13253D01*
X13640Y13233D01*
X13644Y13214D01*
X13655Y13197D01*
X13671Y13186D01*
X13691Y13182D01*
X13710Y13186D01*
X13727Y13197D01*
X13727Y13198D01*
X13739Y13193D01*
X13737Y13182D01*
X13741Y13162D01*
X13752Y13146D01*
X13768Y13135D01*
X13788Y13131D01*
X13808Y13135D01*
X13824Y13146D01*
X13835Y13162D01*
X13839Y13182D01*
X13835Y13202D01*
X13824Y13218D01*
X13808Y13229D01*
X13788Y13233D01*
X13768Y13229D01*
X13752Y13218D01*
X13751Y13217D01*
X13739Y13222D01*
X13742Y13233D01*
X13738Y13253D01*
X13727Y13269D01*
X13710Y13280D01*
X13691Y13284D01*
D02*
G37*
G36*
X11773Y13214D02*
X11753Y13210D01*
X11737Y13199D01*
X11726Y13183D01*
X11722Y13163D01*
X11726Y13143D01*
X11737Y13127D01*
X11753Y13116D01*
X11773Y13112D01*
X11793Y13116D01*
X11809Y13127D01*
X11820Y13143D01*
X11824Y13163D01*
X11820Y13183D01*
X11809Y13199D01*
X11793Y13210D01*
X11773Y13214D01*
D02*
G37*
G36*
X15882Y13203D02*
X15812D01*
X15789Y13198D01*
X15769Y13185D01*
X15755Y13165D01*
X15751Y13141D01*
X15755Y13118D01*
X15769Y13098D01*
X15789Y13085D01*
X15812Y13080D01*
X15882D01*
X15905Y13085D01*
X15925Y13098D01*
X15939Y13118D01*
X15943Y13141D01*
X15939Y13165D01*
X15925Y13185D01*
X15905Y13198D01*
X15882Y13203D01*
D02*
G37*
G36*
X12127Y13157D02*
X12111Y13154D01*
X12098Y13146D01*
X12089Y13132D01*
X12086Y13117D01*
X12089Y13101D01*
X12098Y13088D01*
X12111Y13079D01*
X12127Y13076D01*
X12143Y13079D01*
X12156Y13088D01*
X12165Y13101D01*
X12168Y13117D01*
X12165Y13132D01*
X12156Y13146D01*
X12143Y13154D01*
X12127Y13157D01*
D02*
G37*
G36*
X12027D02*
X12011Y13154D01*
X11998Y13146D01*
X11989Y13132D01*
X11986Y13117D01*
X11989Y13101D01*
X11998Y13088D01*
X12011Y13079D01*
X12027Y13076D01*
X12043Y13079D01*
X12056Y13088D01*
X12065Y13101D01*
X12068Y13117D01*
X12065Y13132D01*
X12056Y13146D01*
X12043Y13154D01*
X12027Y13157D01*
D02*
G37*
G36*
X11927D02*
X11911Y13154D01*
X11898Y13146D01*
X11889Y13132D01*
X11886Y13117D01*
X11889Y13101D01*
X11898Y13088D01*
X11911Y13079D01*
X11927Y13076D01*
X11943Y13079D01*
X11956Y13088D01*
X11965Y13101D01*
X11968Y13117D01*
X11965Y13132D01*
X11956Y13146D01*
X11943Y13154D01*
X11927Y13157D01*
D02*
G37*
G36*
X12281Y13142D02*
X12261Y13138D01*
X12245Y13127D01*
X12234Y13111D01*
X12230Y13091D01*
X12234Y13072D01*
X12245Y13055D01*
X12261Y13044D01*
X12281Y13040D01*
X12300Y13044D01*
X12317Y13055D01*
X12328Y13072D01*
X12332Y13091D01*
X12328Y13111D01*
X12317Y13127D01*
X12300Y13138D01*
X12281Y13142D01*
D02*
G37*
G36*
X11760Y13094D02*
X11741Y13090D01*
X11724Y13079D01*
X11713Y13062D01*
X11709Y13043D01*
X11713Y13023D01*
X11724Y13007D01*
X11741Y12996D01*
X11760Y12992D01*
X11780Y12996D01*
X11796Y13007D01*
X11807Y13023D01*
X11811Y13043D01*
X11807Y13062D01*
X11796Y13079D01*
X11780Y13090D01*
X11760Y13094D01*
D02*
G37*
G36*
X12127Y13057D02*
X12111Y13054D01*
X12098Y13046D01*
X12089Y13032D01*
X12086Y13017D01*
X12089Y13001D01*
X12098Y12988D01*
X12111Y12979D01*
X12127Y12976D01*
X12143Y12979D01*
X12156Y12988D01*
X12165Y13001D01*
X12168Y13017D01*
X12165Y13032D01*
X12156Y13046D01*
X12143Y13054D01*
X12127Y13057D01*
D02*
G37*
G36*
X12027D02*
X12011Y13054D01*
X11998Y13046D01*
X11989Y13032D01*
X11986Y13017D01*
X11989Y13001D01*
X11998Y12988D01*
X12011Y12979D01*
X12027Y12976D01*
X12043Y12979D01*
X12056Y12988D01*
X12065Y13001D01*
X12068Y13017D01*
X12065Y13032D01*
X12056Y13046D01*
X12043Y13054D01*
X12027Y13057D01*
D02*
G37*
G36*
X11927D02*
X11911Y13054D01*
X11898Y13046D01*
X11889Y13032D01*
X11886Y13017D01*
X11889Y13001D01*
X11898Y12988D01*
X11911Y12979D01*
X11927Y12976D01*
X11943Y12979D01*
X11956Y12988D01*
X11965Y13001D01*
X11968Y13017D01*
X11965Y13032D01*
X11956Y13046D01*
X11943Y13054D01*
X11927Y13057D01*
D02*
G37*
G36*
X14700Y13001D02*
X14680Y12997D01*
X14664Y12986D01*
X14653Y12970D01*
X14649Y12950D01*
X14653Y12930D01*
X14664Y12914D01*
X14680Y12903D01*
X14700Y12899D01*
X14720Y12903D01*
X14736Y12914D01*
X14747Y12930D01*
X14751Y12950D01*
X14747Y12970D01*
X14736Y12986D01*
X14720Y12997D01*
X14700Y13001D01*
D02*
G37*
G36*
X14000D02*
X13980Y12997D01*
X13964Y12986D01*
X13953Y12970D01*
X13949Y12950D01*
X13953Y12930D01*
X13964Y12914D01*
X13980Y12903D01*
X14000Y12899D01*
X14020Y12903D01*
X14036Y12914D01*
X14047Y12930D01*
X14051Y12950D01*
X14047Y12970D01*
X14036Y12986D01*
X14020Y12997D01*
X14000Y13001D01*
D02*
G37*
G36*
X13300D02*
X13280Y12997D01*
X13264Y12986D01*
X13253Y12970D01*
X13249Y12950D01*
X13253Y12930D01*
X13264Y12914D01*
X13280Y12903D01*
X13300Y12899D01*
X13320Y12903D01*
X13336Y12914D01*
X13347Y12930D01*
X13351Y12950D01*
X13347Y12970D01*
X13336Y12986D01*
X13320Y12997D01*
X13300Y13001D01*
D02*
G37*
G36*
X10150D02*
X10130Y12997D01*
X10114Y12986D01*
X10103Y12970D01*
X10099Y12950D01*
X10103Y12930D01*
X10114Y12914D01*
X10130Y12903D01*
X10150Y12899D01*
X10170Y12903D01*
X10186Y12914D01*
X10197Y12930D01*
X10201Y12950D01*
X10197Y12970D01*
X10186Y12986D01*
X10170Y12997D01*
X10150Y13001D01*
D02*
G37*
G36*
X9450D02*
X9430Y12997D01*
X9414Y12986D01*
X9403Y12970D01*
X9399Y12950D01*
X9403Y12930D01*
X9414Y12914D01*
X9430Y12903D01*
X9450Y12899D01*
X9470Y12903D01*
X9486Y12914D01*
X9497Y12930D01*
X9501Y12950D01*
X9497Y12970D01*
X9486Y12986D01*
X9470Y12997D01*
X9450Y13001D01*
D02*
G37*
G36*
X9100D02*
X9080Y12997D01*
X9064Y12986D01*
X9053Y12970D01*
X9049Y12950D01*
X9053Y12930D01*
X9064Y12914D01*
X9080Y12903D01*
X9100Y12899D01*
X9120Y12903D01*
X9136Y12914D01*
X9147Y12930D01*
X9151Y12950D01*
X9147Y12970D01*
X9136Y12986D01*
X9120Y12997D01*
X9100Y13001D01*
D02*
G37*
G36*
X8750D02*
X8730Y12997D01*
X8714Y12986D01*
X8703Y12970D01*
X8699Y12950D01*
X8703Y12930D01*
X8714Y12914D01*
X8730Y12903D01*
X8750Y12899D01*
X8770Y12903D01*
X8786Y12914D01*
X8797Y12930D01*
X8801Y12950D01*
X8797Y12970D01*
X8786Y12986D01*
X8770Y12997D01*
X8750Y13001D01*
D02*
G37*
G36*
X8400D02*
X8380Y12997D01*
X8364Y12986D01*
X8353Y12970D01*
X8349Y12950D01*
X8353Y12930D01*
X8364Y12914D01*
X8380Y12903D01*
X8400Y12899D01*
X8420Y12903D01*
X8436Y12914D01*
X8447Y12930D01*
X8451Y12950D01*
X8447Y12970D01*
X8436Y12986D01*
X8420Y12997D01*
X8400Y13001D01*
D02*
G37*
G36*
X11149Y13000D02*
X11129Y12996D01*
X11113Y12985D01*
X11102Y12969D01*
X11098Y12949D01*
X11102Y12929D01*
X11113Y12913D01*
X11129Y12902D01*
X11149Y12898D01*
X11169Y12902D01*
X11185Y12913D01*
X11196Y12929D01*
X11200Y12949D01*
X11196Y12969D01*
X11185Y12985D01*
X11169Y12996D01*
X11149Y13000D01*
D02*
G37*
G36*
X12127Y12957D02*
X12111Y12954D01*
X12098Y12946D01*
X12089Y12932D01*
X12086Y12917D01*
X12089Y12901D01*
X12098Y12888D01*
X12111Y12879D01*
X12127Y12876D01*
X12143Y12879D01*
X12156Y12888D01*
X12165Y12901D01*
X12168Y12917D01*
X12165Y12932D01*
X12156Y12946D01*
X12143Y12954D01*
X12127Y12957D01*
D02*
G37*
G36*
X12027D02*
X12011Y12954D01*
X11998Y12946D01*
X11989Y12932D01*
X11986Y12917D01*
X11989Y12901D01*
X11998Y12888D01*
X12011Y12879D01*
X12027Y12876D01*
X12043Y12879D01*
X12056Y12888D01*
X12065Y12901D01*
X12068Y12917D01*
X12065Y12932D01*
X12056Y12946D01*
X12043Y12954D01*
X12027Y12957D01*
D02*
G37*
G36*
X11927D02*
X11911Y12954D01*
X11898Y12946D01*
X11889Y12932D01*
X11886Y12917D01*
X11889Y12901D01*
X11898Y12888D01*
X11911Y12879D01*
X11927Y12876D01*
X11943Y12879D01*
X11956Y12888D01*
X11965Y12901D01*
X11968Y12917D01*
X11965Y12932D01*
X11956Y12946D01*
X11943Y12954D01*
X11927Y12957D01*
D02*
G37*
G36*
X12636Y12878D02*
X12617Y12874D01*
X12600Y12863D01*
X12589Y12847D01*
X12586Y12827D01*
X12589Y12807D01*
X12600Y12791D01*
X12617Y12780D01*
X12636Y12776D01*
X12656Y12780D01*
X12673Y12791D01*
X12684Y12807D01*
X12687Y12827D01*
X12684Y12847D01*
X12673Y12863D01*
X12656Y12874D01*
X12636Y12878D01*
D02*
G37*
G36*
X12127Y12857D02*
X12111Y12854D01*
X12098Y12846D01*
X12089Y12832D01*
X12086Y12817D01*
X12089Y12801D01*
X12098Y12788D01*
X12111Y12779D01*
X12127Y12776D01*
X12143Y12779D01*
X12156Y12788D01*
X12165Y12801D01*
X12168Y12817D01*
X12165Y12832D01*
X12156Y12846D01*
X12143Y12854D01*
X12127Y12857D01*
D02*
G37*
G36*
X12027D02*
X12011Y12854D01*
X11998Y12846D01*
X11989Y12832D01*
X11986Y12817D01*
X11989Y12801D01*
X11998Y12788D01*
X12011Y12779D01*
X12027Y12776D01*
X12043Y12779D01*
X12056Y12788D01*
X12065Y12801D01*
X12068Y12817D01*
X12065Y12832D01*
X12056Y12846D01*
X12043Y12854D01*
X12027Y12857D01*
D02*
G37*
G36*
X11927D02*
X11911Y12854D01*
X11898Y12846D01*
X11889Y12832D01*
X11886Y12817D01*
X11889Y12801D01*
X11898Y12788D01*
X11911Y12779D01*
X11927Y12776D01*
X11943Y12779D01*
X11956Y12788D01*
X11965Y12801D01*
X11968Y12817D01*
X11965Y12832D01*
X11956Y12846D01*
X11943Y12854D01*
X11927Y12857D01*
D02*
G37*
G36*
X11200Y12773D02*
X11180Y12769D01*
X11164Y12758D01*
X11153Y12742D01*
X11149Y12722D01*
X11153Y12703D01*
X11164Y12686D01*
X11180Y12675D01*
X11200Y12671D01*
X11219Y12675D01*
X11236Y12686D01*
X11247Y12703D01*
X11251Y12722D01*
X11247Y12742D01*
X11236Y12758D01*
X11219Y12769D01*
X11200Y12773D01*
D02*
G37*
G36*
X12294Y12853D02*
X12274Y12849D01*
X12258Y12838D01*
X12247Y12821D01*
X12243Y12802D01*
X12247Y12782D01*
X12258Y12766D01*
X12274Y12755D01*
X12285Y12752D01*
X12287Y12739D01*
X12283Y12736D01*
X12272Y12720D01*
X12268Y12700D01*
X12272Y12680D01*
X12283Y12664D01*
X12299Y12653D01*
X12319Y12649D01*
X12339Y12653D01*
X12355Y12664D01*
X12366Y12680D01*
X12370Y12700D01*
X12366Y12720D01*
X12355Y12736D01*
X12339Y12747D01*
X12328Y12749D01*
X12325Y12763D01*
X12330Y12766D01*
X12341Y12782D01*
X12345Y12802D01*
X12341Y12821D01*
X12330Y12838D01*
X12313Y12849D01*
X12294Y12853D01*
D02*
G37*
G36*
X14707Y12738D02*
X14687Y12734D01*
X14671Y12723D01*
X14660Y12707D01*
X14656Y12687D01*
X14660Y12668D01*
X14671Y12651D01*
X14687Y12640D01*
X14707Y12636D01*
X14726Y12640D01*
X14743Y12651D01*
X14754Y12668D01*
X14758Y12687D01*
X14754Y12707D01*
X14743Y12723D01*
X14726Y12734D01*
X14707Y12738D01*
D02*
G37*
G36*
X11976Y12675D02*
X11957Y12671D01*
X11940Y12660D01*
X11929Y12643D01*
X11925Y12624D01*
X11929Y12604D01*
X11940Y12588D01*
X11957Y12577D01*
X11976Y12573D01*
X11996Y12577D01*
X12012Y12588D01*
X12023Y12604D01*
X12027Y12624D01*
X12023Y12643D01*
X12012Y12660D01*
X11996Y12671D01*
X11976Y12675D01*
D02*
G37*
G36*
X11608Y12662D02*
X11588Y12658D01*
X11572Y12647D01*
X11561Y12631D01*
X11557Y12611D01*
X11561Y12592D01*
X11572Y12575D01*
X11588Y12564D01*
X11608Y12560D01*
X11627Y12564D01*
X11644Y12575D01*
X11655Y12592D01*
X11659Y12611D01*
X11655Y12631D01*
X11644Y12647D01*
X11627Y12658D01*
X11608Y12662D01*
D02*
G37*
G36*
X14525Y12651D02*
X14505Y12647D01*
X14489Y12636D01*
X14478Y12620D01*
X14474Y12600D01*
X14478Y12580D01*
X14489Y12564D01*
X14505Y12553D01*
X14525Y12549D01*
X14545Y12553D01*
X14561Y12564D01*
X14572Y12580D01*
X14576Y12600D01*
X14572Y12620D01*
X14561Y12636D01*
X14545Y12647D01*
X14525Y12651D01*
D02*
G37*
G36*
X13825D02*
X13805Y12647D01*
X13789Y12636D01*
X13778Y12620D01*
X13774Y12600D01*
X13778Y12580D01*
X13789Y12564D01*
X13805Y12553D01*
X13825Y12549D01*
X13845Y12553D01*
X13861Y12564D01*
X13872Y12580D01*
X13876Y12600D01*
X13872Y12620D01*
X13861Y12636D01*
X13845Y12647D01*
X13825Y12651D01*
D02*
G37*
G36*
X13475D02*
X13455Y12647D01*
X13439Y12636D01*
X13428Y12620D01*
X13424Y12600D01*
X13428Y12580D01*
X13439Y12564D01*
X13455Y12553D01*
X13475Y12549D01*
X13495Y12553D01*
X13511Y12564D01*
X13522Y12580D01*
X13526Y12600D01*
X13522Y12620D01*
X13511Y12636D01*
X13495Y12647D01*
X13475Y12651D01*
D02*
G37*
G36*
X13125D02*
X13105Y12647D01*
X13089Y12636D01*
X13078Y12620D01*
X13074Y12600D01*
X13078Y12580D01*
X13089Y12564D01*
X13105Y12553D01*
X13125Y12549D01*
X13145Y12553D01*
X13161Y12564D01*
X13172Y12580D01*
X13176Y12600D01*
X13172Y12620D01*
X13161Y12636D01*
X13145Y12647D01*
X13125Y12651D01*
D02*
G37*
G36*
X10675D02*
X10655Y12647D01*
X10639Y12636D01*
X10628Y12620D01*
X10624Y12600D01*
X10628Y12580D01*
X10639Y12564D01*
X10655Y12553D01*
X10675Y12549D01*
X10695Y12553D01*
X10711Y12564D01*
X10722Y12580D01*
X10726Y12600D01*
X10722Y12620D01*
X10711Y12636D01*
X10695Y12647D01*
X10675Y12651D01*
D02*
G37*
G36*
X10325D02*
X10305Y12647D01*
X10289Y12636D01*
X10278Y12620D01*
X10274Y12600D01*
X10278Y12580D01*
X10289Y12564D01*
X10305Y12553D01*
X10325Y12549D01*
X10345Y12553D01*
X10361Y12564D01*
X10372Y12580D01*
X10376Y12600D01*
X10372Y12620D01*
X10361Y12636D01*
X10345Y12647D01*
X10325Y12651D01*
D02*
G37*
G36*
X9975D02*
X9955Y12647D01*
X9939Y12636D01*
X9928Y12620D01*
X9924Y12600D01*
X9928Y12580D01*
X9939Y12564D01*
X9955Y12553D01*
X9975Y12549D01*
X9995Y12553D01*
X10011Y12564D01*
X10022Y12580D01*
X10026Y12600D01*
X10022Y12620D01*
X10011Y12636D01*
X9995Y12647D01*
X9975Y12651D01*
D02*
G37*
G36*
X8575D02*
X8555Y12647D01*
X8539Y12636D01*
X8528Y12620D01*
X8524Y12600D01*
X8528Y12580D01*
X8539Y12564D01*
X8555Y12553D01*
X8575Y12549D01*
X8595Y12553D01*
X8611Y12564D01*
X8622Y12580D01*
X8626Y12600D01*
X8622Y12620D01*
X8611Y12636D01*
X8595Y12647D01*
X8575Y12651D01*
D02*
G37*
G36*
X8225D02*
X8205Y12647D01*
X8189Y12636D01*
X8178Y12620D01*
X8174Y12600D01*
X8178Y12580D01*
X8189Y12564D01*
X8205Y12553D01*
X8225Y12549D01*
X8245Y12553D01*
X8261Y12564D01*
X8272Y12580D01*
X8276Y12600D01*
X8272Y12620D01*
X8261Y12636D01*
X8245Y12647D01*
X8225Y12651D01*
D02*
G37*
G36*
X12636Y12611D02*
X12617Y12607D01*
X12600Y12596D01*
X12589Y12580D01*
X12586Y12560D01*
X12589Y12541D01*
X12600Y12524D01*
X12617Y12513D01*
X12636Y12509D01*
X12656Y12513D01*
X12673Y12524D01*
X12684Y12541D01*
X12687Y12560D01*
X12684Y12580D01*
X12673Y12596D01*
X12656Y12607D01*
X12636Y12611D01*
D02*
G37*
G36*
X11940Y12541D02*
X11920Y12537D01*
X11904Y12526D01*
X11893Y12510D01*
X11889Y12490D01*
X11893Y12470D01*
X11904Y12454D01*
X11920Y12443D01*
X11940Y12439D01*
X11960Y12443D01*
X11976Y12454D01*
X11987Y12470D01*
X11991Y12490D01*
X11987Y12510D01*
X11976Y12526D01*
X11960Y12537D01*
X11940Y12541D01*
D02*
G37*
G36*
X15882Y12543D02*
X15812D01*
X15789Y12538D01*
X15769Y12525D01*
X15755Y12505D01*
X15751Y12481D01*
X15755Y12458D01*
X15769Y12438D01*
X15789Y12425D01*
X15812Y12420D01*
X15882D01*
X15905Y12425D01*
X15925Y12438D01*
X15939Y12458D01*
X15943Y12481D01*
X15939Y12505D01*
X15925Y12525D01*
X15905Y12538D01*
X15882Y12543D01*
D02*
G37*
G36*
X12520Y12491D02*
X12500Y12487D01*
X12484Y12476D01*
X12473Y12460D01*
X12469Y12440D01*
X12473Y12420D01*
X12484Y12404D01*
X12500Y12393D01*
X12520Y12389D01*
X12540Y12393D01*
X12556Y12404D01*
X12567Y12420D01*
X12571Y12440D01*
X12567Y12460D01*
X12556Y12476D01*
X12540Y12487D01*
X12520Y12491D01*
D02*
G37*
G36*
X11811Y12484D02*
X11791Y12480D01*
X11775Y12469D01*
X11764Y12453D01*
X11760Y12433D01*
X11764Y12414D01*
X11775Y12397D01*
X11791Y12386D01*
X11811Y12382D01*
X11831Y12386D01*
X11847Y12397D01*
X11858Y12414D01*
X11862Y12433D01*
X11858Y12453D01*
X11847Y12469D01*
X11831Y12480D01*
X11811Y12484D01*
D02*
G37*
G36*
X14961Y13114D02*
X14939Y13111D01*
X14919Y13103D01*
X14901Y13090D01*
X14888Y13072D01*
X14879Y13052D01*
X14877Y13030D01*
X14879Y13008D01*
X14888Y12988D01*
X14901Y12971D01*
X14927Y12945D01*
Y12309D01*
X14061D01*
X14053Y12316D01*
X14032Y12324D01*
X14011Y12327D01*
X13989Y12324D01*
X13969Y12316D01*
X13951Y12302D01*
X13536Y11887D01*
X13525Y11894D01*
X13526Y11900D01*
X13522Y11920D01*
X13511Y11936D01*
X13495Y11947D01*
X13475Y11951D01*
X13455Y11947D01*
X13439Y11936D01*
X13431Y11924D01*
X13417Y11924D01*
X13409Y11936D01*
X13393Y11947D01*
X13373Y11951D01*
X13354Y11947D01*
X13337Y11936D01*
X13326Y11919D01*
X13322Y11900D01*
X13326Y11880D01*
X13337Y11864D01*
X13354Y11853D01*
X13373Y11849D01*
X13393Y11853D01*
X13409Y11864D01*
X13417Y11876D01*
X13431Y11876D01*
X13439Y11864D01*
X13455Y11853D01*
X13475Y11849D01*
X13481Y11850D01*
X13488Y11839D01*
X11896Y10247D01*
X11185D01*
X11181Y10260D01*
X11187Y10264D01*
X11198Y10280D01*
X11202Y10300D01*
X11198Y10319D01*
X11187Y10336D01*
X11179Y10341D01*
X11182Y10354D01*
X11183Y10354D01*
X11199Y10365D01*
X11210Y10382D01*
X11214Y10401D01*
X11210Y10421D01*
X11199Y10437D01*
X11183Y10448D01*
X11163Y10452D01*
X11144Y10448D01*
X11127Y10437D01*
X11116Y10421D01*
X11112Y10401D01*
X11116Y10382D01*
X11127Y10365D01*
X11134Y10360D01*
X11132Y10347D01*
X11131Y10347D01*
X11115Y10336D01*
X11104Y10319D01*
X11100Y10300D01*
X11104Y10280D01*
X11115Y10264D01*
X11120Y10260D01*
X11116Y10247D01*
X9300D01*
X9278Y10245D01*
X9258Y10236D01*
X9240Y10223D01*
X9123Y10105D01*
X9109Y10088D01*
X9101Y10067D01*
X9098Y10046D01*
X9101Y10024D01*
X9109Y10004D01*
X9123Y9986D01*
X9140Y9973D01*
X9160Y9964D01*
X9182Y9962D01*
X9204Y9964D01*
X9224Y9973D01*
X9242Y9986D01*
X9335Y10079D01*
X10689D01*
X10690Y10076D01*
X10692Y10067D01*
X10678Y10048D01*
X10668Y10025D01*
X10665Y10000D01*
X10668Y9975D01*
X10678Y9952D01*
X10693Y9932D01*
X10713Y9917D01*
X10736Y9907D01*
X10761Y9904D01*
X10786Y9907D01*
X10809Y9917D01*
X10829Y9932D01*
X10844Y9952D01*
X10854Y9975D01*
X10857Y10000D01*
X10854Y10025D01*
X10844Y10048D01*
X10830Y10067D01*
X10832Y10076D01*
X10833Y10079D01*
X10943D01*
X10944Y10076D01*
X10946Y10067D01*
X10932Y10048D01*
X10922Y10025D01*
X10919Y10000D01*
X10922Y9975D01*
X10932Y9952D01*
X10947Y9932D01*
X10967Y9917D01*
X10990Y9907D01*
X11015Y9904D01*
X11040Y9907D01*
X11063Y9917D01*
X11083Y9932D01*
X11098Y9952D01*
X11108Y9975D01*
X11111Y10000D01*
X11108Y10025D01*
X11098Y10048D01*
X11084Y10067D01*
X11086Y10076D01*
X11087Y10079D01*
X11528D01*
X11529Y10076D01*
X11531Y10067D01*
X11517Y10048D01*
X11507Y10025D01*
X11504Y10000D01*
X11507Y9975D01*
X11517Y9952D01*
X11532Y9932D01*
X11552Y9917D01*
X11575Y9907D01*
X11600Y9904D01*
X11625Y9907D01*
X11648Y9917D01*
X11668Y9932D01*
X11683Y9952D01*
X11693Y9975D01*
X11696Y10000D01*
X11693Y10025D01*
X11683Y10048D01*
X11669Y10067D01*
X11671Y10076D01*
X11672Y10079D01*
X11782D01*
X11783Y10076D01*
X11785Y10067D01*
X11771Y10048D01*
X11761Y10025D01*
X11758Y10000D01*
X11761Y9975D01*
X11771Y9952D01*
X11786Y9932D01*
X11806Y9917D01*
X11829Y9907D01*
X11854Y9904D01*
X11879Y9907D01*
X11902Y9917D01*
X11922Y9932D01*
X11937Y9952D01*
X11947Y9975D01*
X11950Y10000D01*
X11947Y10025D01*
X11937Y10048D01*
X11923Y10067D01*
X11925Y10076D01*
X11926Y10079D01*
X11931D01*
X11953Y10082D01*
X11973Y10091D01*
X11991Y10104D01*
X14028Y12141D01*
X14028Y12141D01*
X15055D01*
X15077Y12144D01*
X15079Y12142D01*
X15083Y12125D01*
X15080Y12120D01*
X15076Y12101D01*
X15080Y12081D01*
X15091Y12065D01*
X15107Y12054D01*
X15127Y12050D01*
X15146Y12054D01*
X15163Y12065D01*
X15165Y12068D01*
X15179Y12065D01*
X15181Y12052D01*
X15192Y12036D01*
X15209Y12025D01*
X15228Y12021D01*
X15248Y12025D01*
X15264Y12036D01*
X15275Y12052D01*
X15279Y12072D01*
X15275Y12091D01*
X15264Y12108D01*
X15248Y12119D01*
X15228Y12123D01*
X15209Y12119D01*
X15192Y12108D01*
X15190Y12105D01*
X15177Y12107D01*
X15174Y12120D01*
X15163Y12137D01*
X15146Y12148D01*
X15127Y12152D01*
X15114Y12149D01*
X15109Y12161D01*
X15114Y12166D01*
X15128Y12183D01*
X15136Y12203D01*
X15139Y12225D01*
Y12237D01*
X15136Y12259D01*
X15128Y12279D01*
X15114Y12297D01*
X15095Y12316D01*
Y12374D01*
X15108Y12381D01*
X15119Y12374D01*
X15138Y12370D01*
X15158Y12374D01*
X15174Y12385D01*
X15185Y12401D01*
X15189Y12421D01*
X15185Y12440D01*
X15174Y12457D01*
X15158Y12468D01*
X15138Y12472D01*
X15119Y12468D01*
X15108Y12461D01*
X15095Y12467D01*
Y12979D01*
X15093Y13001D01*
X15084Y13021D01*
X15071Y13039D01*
X15020Y13090D01*
X15003Y13103D01*
X14982Y13111D01*
X14961Y13114D01*
D02*
G37*
G36*
X14643Y12472D02*
X14624Y12468D01*
X14607Y12457D01*
X14596Y12440D01*
X14592Y12421D01*
X14596Y12401D01*
X14607Y12385D01*
X14624Y12374D01*
X14643Y12370D01*
X14663Y12374D01*
X14679Y12385D01*
X14690Y12401D01*
X14694Y12421D01*
X14690Y12440D01*
X14679Y12457D01*
X14663Y12468D01*
X14643Y12472D01*
D02*
G37*
G36*
X12650Y12471D02*
X12630Y12467D01*
X12614Y12456D01*
X12603Y12440D01*
X12599Y12420D01*
X12603Y12400D01*
X12614Y12384D01*
X12630Y12373D01*
X12650Y12369D01*
X12670Y12373D01*
X12686Y12384D01*
X12697Y12400D01*
X12701Y12420D01*
X12697Y12440D01*
X12686Y12456D01*
X12670Y12467D01*
X12650Y12471D01*
D02*
G37*
G36*
X11950Y12424D02*
X11930Y12420D01*
X11914Y12409D01*
X11903Y12393D01*
X11899Y12373D01*
X11903Y12353D01*
X11914Y12337D01*
X11930Y12326D01*
X11950Y12322D01*
X11970Y12326D01*
X11986Y12337D01*
X11997Y12353D01*
X12001Y12373D01*
X11997Y12393D01*
X11986Y12409D01*
X11970Y12420D01*
X11950Y12424D01*
D02*
G37*
G36*
X11790Y12371D02*
X11770Y12367D01*
X11754Y12356D01*
X11743Y12340D01*
X11739Y12320D01*
X11743Y12300D01*
X11754Y12284D01*
X11770Y12273D01*
X11790Y12269D01*
X11810Y12273D01*
X11826Y12284D01*
X11837Y12300D01*
X11841Y12320D01*
X11837Y12340D01*
X11826Y12356D01*
X11810Y12367D01*
X11790Y12371D01*
D02*
G37*
G36*
X11239Y12357D02*
X11220Y12353D01*
X11203Y12342D01*
X11192Y12326D01*
X11189Y12306D01*
X11192Y12287D01*
X11203Y12270D01*
X11220Y12259D01*
X11239Y12255D01*
X11259Y12259D01*
X11276Y12270D01*
X11287Y12287D01*
X11290Y12306D01*
X11287Y12326D01*
X11276Y12342D01*
X11259Y12353D01*
X11239Y12357D01*
D02*
G37*
G36*
X13650Y12301D02*
X13630Y12297D01*
X13614Y12286D01*
X13603Y12270D01*
X13599Y12250D01*
X13603Y12230D01*
X13614Y12214D01*
X13630Y12203D01*
X13650Y12199D01*
X13670Y12203D01*
X13686Y12214D01*
X13697Y12230D01*
X13701Y12250D01*
X13697Y12270D01*
X13686Y12286D01*
X13670Y12297D01*
X13650Y12301D01*
D02*
G37*
G36*
X10850D02*
X10830Y12297D01*
X10814Y12286D01*
X10803Y12270D01*
X10799Y12250D01*
X10803Y12230D01*
X10814Y12214D01*
X10830Y12203D01*
X10850Y12199D01*
X10870Y12203D01*
X10886Y12214D01*
X10897Y12230D01*
X10901Y12250D01*
X10897Y12270D01*
X10886Y12286D01*
X10870Y12297D01*
X10850Y12301D01*
D02*
G37*
G36*
X10500D02*
X10480Y12297D01*
X10464Y12286D01*
X10453Y12270D01*
X10449Y12250D01*
X10453Y12230D01*
X10464Y12214D01*
X10480Y12203D01*
X10500Y12199D01*
X10520Y12203D01*
X10536Y12214D01*
X10547Y12230D01*
X10551Y12250D01*
X10547Y12270D01*
X10536Y12286D01*
X10520Y12297D01*
X10500Y12301D01*
D02*
G37*
G36*
X10150D02*
X10130Y12297D01*
X10114Y12286D01*
X10103Y12270D01*
X10099Y12250D01*
X10103Y12230D01*
X10114Y12214D01*
X10130Y12203D01*
X10150Y12199D01*
X10170Y12203D01*
X10186Y12214D01*
X10197Y12230D01*
X10201Y12250D01*
X10197Y12270D01*
X10186Y12286D01*
X10170Y12297D01*
X10150Y12301D01*
D02*
G37*
G36*
X8750D02*
X8730Y12297D01*
X8714Y12286D01*
X8703Y12270D01*
X8699Y12250D01*
X8703Y12230D01*
X8714Y12214D01*
X8730Y12203D01*
X8750Y12199D01*
X8770Y12203D01*
X8786Y12214D01*
X8797Y12230D01*
X8801Y12250D01*
X8797Y12270D01*
X8786Y12286D01*
X8770Y12297D01*
X8750Y12301D01*
D02*
G37*
G36*
X8400D02*
X8380Y12297D01*
X8364Y12286D01*
X8353Y12270D01*
X8349Y12250D01*
X8353Y12230D01*
X8364Y12214D01*
X8380Y12203D01*
X8400Y12199D01*
X8420Y12203D01*
X8436Y12214D01*
X8447Y12230D01*
X8451Y12250D01*
X8447Y12270D01*
X8436Y12286D01*
X8420Y12297D01*
X8400Y12301D01*
D02*
G37*
G36*
X10975Y12296D02*
X10955Y12292D01*
X10939Y12281D01*
X10928Y12264D01*
X10924Y12245D01*
X10928Y12225D01*
X10939Y12209D01*
X10955Y12198D01*
X10975Y12194D01*
X10994Y12198D01*
X11011Y12209D01*
X11022Y12225D01*
X11026Y12245D01*
X11022Y12264D01*
X11011Y12281D01*
X10994Y12292D01*
X10975Y12296D01*
D02*
G37*
G36*
X11163Y12243D02*
X11144Y12239D01*
X11127Y12228D01*
X11116Y12212D01*
X11112Y12192D01*
X11116Y12172D01*
X11127Y12156D01*
X11144Y12145D01*
X11163Y12141D01*
X11183Y12145D01*
X11199Y12156D01*
X11210Y12172D01*
X11214Y12192D01*
X11210Y12212D01*
X11199Y12228D01*
X11183Y12239D01*
X11163Y12243D01*
D02*
G37*
G36*
X13284Y12230D02*
X13265Y12226D01*
X13248Y12215D01*
X13237Y12199D01*
X13233Y12179D01*
X13237Y12160D01*
X13248Y12143D01*
X13265Y12132D01*
X13284Y12128D01*
X13304Y12132D01*
X13320Y12143D01*
X13331Y12160D01*
X13335Y12179D01*
X13331Y12199D01*
X13320Y12215D01*
X13304Y12226D01*
X13284Y12230D01*
D02*
G37*
G36*
X11275Y12208D02*
X11255Y12204D01*
X11239Y12193D01*
X11228Y12177D01*
X11224Y12157D01*
X11228Y12137D01*
X11239Y12121D01*
X11255Y12110D01*
X11275Y12106D01*
X11295Y12110D01*
X11311Y12121D01*
X11322Y12137D01*
X11326Y12157D01*
X11322Y12177D01*
X11311Y12193D01*
X11295Y12204D01*
X11275Y12208D01*
D02*
G37*
G36*
X12636Y12065D02*
X12617Y12061D01*
X12600Y12050D01*
X12589Y12034D01*
X12586Y12014D01*
X12589Y11995D01*
X12600Y11978D01*
X12617Y11967D01*
X12636Y11963D01*
X12656Y11967D01*
X12673Y11978D01*
X12684Y11995D01*
X12687Y12014D01*
X12684Y12034D01*
X12673Y12050D01*
X12656Y12061D01*
X12636Y12065D01*
D02*
G37*
G36*
X11811Y12052D02*
X11791Y12049D01*
X11775Y12038D01*
X11764Y12021D01*
X11760Y12001D01*
X11764Y11982D01*
X11775Y11965D01*
X11791Y11954D01*
X11811Y11951D01*
X11817Y11952D01*
X11820Y11950D01*
X11827Y11941D01*
X11824Y11925D01*
X11827Y11906D01*
X11838Y11889D01*
X11855Y11878D01*
X11875Y11874D01*
X11894Y11878D01*
X11911Y11889D01*
X11922Y11906D01*
X11925Y11925D01*
X11922Y11945D01*
X11911Y11961D01*
X11894Y11972D01*
X11875Y11976D01*
X11869Y11975D01*
X11866Y11977D01*
X11859Y11986D01*
X11862Y12001D01*
X11858Y12021D01*
X11847Y12038D01*
X11831Y12049D01*
X11811Y12052D01*
D02*
G37*
G36*
X11239Y11976D02*
X11220Y11972D01*
X11203Y11961D01*
X11192Y11945D01*
X11189Y11925D01*
X11192Y11906D01*
X11203Y11889D01*
X11220Y11878D01*
X11239Y11874D01*
X11259Y11878D01*
X11276Y11889D01*
X11287Y11906D01*
X11290Y11925D01*
X11287Y11945D01*
X11276Y11961D01*
X11259Y11972D01*
X11239Y11976D01*
D02*
G37*
G36*
X14175Y11951D02*
X14155Y11947D01*
X14139Y11936D01*
X14128Y11920D01*
X14124Y11900D01*
X14128Y11880D01*
X14139Y11864D01*
X14155Y11853D01*
X14175Y11849D01*
X14195Y11853D01*
X14211Y11864D01*
X14222Y11880D01*
X14226Y11900D01*
X14222Y11920D01*
X14211Y11936D01*
X14195Y11947D01*
X14175Y11951D01*
D02*
G37*
G36*
X13125D02*
X13105Y11947D01*
X13089Y11936D01*
X13078Y11920D01*
X13074Y11900D01*
X13078Y11880D01*
X13089Y11864D01*
X13105Y11853D01*
X13125Y11849D01*
X13145Y11853D01*
X13161Y11864D01*
X13172Y11880D01*
X13176Y11900D01*
X13172Y11920D01*
X13161Y11936D01*
X13145Y11947D01*
X13125Y11951D01*
D02*
G37*
G36*
X12775D02*
X12755Y11947D01*
X12739Y11936D01*
X12728Y11920D01*
X12724Y11900D01*
X12728Y11880D01*
X12739Y11864D01*
X12755Y11853D01*
X12775Y11849D01*
X12795Y11853D01*
X12811Y11864D01*
X12822Y11880D01*
X12826Y11900D01*
X12822Y11920D01*
X12811Y11936D01*
X12795Y11947D01*
X12775Y11951D01*
D02*
G37*
G36*
X10675D02*
X10655Y11947D01*
X10639Y11936D01*
X10628Y11920D01*
X10624Y11900D01*
X10628Y11880D01*
X10639Y11864D01*
X10655Y11853D01*
X10675Y11849D01*
X10695Y11853D01*
X10711Y11864D01*
X10722Y11880D01*
X10726Y11900D01*
X10722Y11920D01*
X10711Y11936D01*
X10695Y11947D01*
X10675Y11951D01*
D02*
G37*
G36*
X10325D02*
X10305Y11947D01*
X10289Y11936D01*
X10278Y11920D01*
X10274Y11900D01*
X10278Y11880D01*
X10289Y11864D01*
X10305Y11853D01*
X10325Y11849D01*
X10345Y11853D01*
X10361Y11864D01*
X10372Y11880D01*
X10376Y11900D01*
X10372Y11920D01*
X10361Y11936D01*
X10345Y11947D01*
X10325Y11951D01*
D02*
G37*
G36*
X9975D02*
X9955Y11947D01*
X9939Y11936D01*
X9928Y11920D01*
X9924Y11900D01*
X9928Y11880D01*
X9939Y11864D01*
X9955Y11853D01*
X9975Y11849D01*
X9995Y11853D01*
X10011Y11864D01*
X10022Y11880D01*
X10026Y11900D01*
X10022Y11920D01*
X10011Y11936D01*
X9995Y11947D01*
X9975Y11951D01*
D02*
G37*
G36*
X8575D02*
X8555Y11947D01*
X8539Y11936D01*
X8528Y11920D01*
X8524Y11900D01*
X8528Y11880D01*
X8539Y11864D01*
X8555Y11853D01*
X8575Y11849D01*
X8595Y11853D01*
X8611Y11864D01*
X8622Y11880D01*
X8626Y11900D01*
X8622Y11920D01*
X8611Y11936D01*
X8595Y11947D01*
X8575Y11951D01*
D02*
G37*
G36*
X8225D02*
X8205Y11947D01*
X8189Y11936D01*
X8178Y11920D01*
X8174Y11900D01*
X8178Y11880D01*
X8189Y11864D01*
X8205Y11853D01*
X8225Y11849D01*
X8245Y11853D01*
X8261Y11864D01*
X8272Y11880D01*
X8276Y11900D01*
X8272Y11920D01*
X8261Y11936D01*
X8245Y11947D01*
X8225Y11951D01*
D02*
G37*
G36*
X11735Y11951D02*
X11715Y11947D01*
X11699Y11936D01*
X11688Y11919D01*
X11684Y11900D01*
X11688Y11880D01*
X11699Y11864D01*
X11715Y11853D01*
X11735Y11849D01*
X11754Y11853D01*
X11771Y11864D01*
X11782Y11880D01*
X11786Y11900D01*
X11782Y11919D01*
X11771Y11936D01*
X11754Y11947D01*
X11735Y11951D01*
D02*
G37*
G36*
X15071Y11911D02*
X15055Y11908D01*
X15042Y11899D01*
X15033Y11886D01*
X15030Y11871D01*
X15033Y11855D01*
X15042Y11842D01*
X15055Y11833D01*
X15071Y11830D01*
X15086Y11833D01*
X15099Y11842D01*
X15108Y11855D01*
X15111Y11871D01*
X15108Y11886D01*
X15099Y11899D01*
X15086Y11908D01*
X15071Y11911D01*
D02*
G37*
G36*
X14960D02*
X14945Y11908D01*
X14932Y11899D01*
X14923Y11886D01*
X14920Y11871D01*
X14923Y11855D01*
X14932Y11842D01*
X14945Y11833D01*
X14960Y11830D01*
X14976Y11833D01*
X14989Y11842D01*
X14998Y11855D01*
X15001Y11871D01*
X14998Y11886D01*
X14989Y11899D01*
X14976Y11908D01*
X14960Y11911D01*
D02*
G37*
G36*
X15608Y11913D02*
X15589Y11909D01*
X15572Y11898D01*
X15561Y11881D01*
X15557Y11862D01*
X15561Y11842D01*
X15572Y11826D01*
X15589Y11815D01*
X15608Y11811D01*
X15628Y11815D01*
X15644Y11826D01*
X15655Y11842D01*
X15659Y11862D01*
X15655Y11881D01*
X15644Y11898D01*
X15628Y11909D01*
X15608Y11913D01*
D02*
G37*
G36*
X11430Y11862D02*
X11410Y11858D01*
X11394Y11847D01*
X11383Y11831D01*
X11379Y11811D01*
X11383Y11791D01*
X11394Y11775D01*
X11410Y11764D01*
X11430Y11760D01*
X11450Y11764D01*
X11466Y11775D01*
X11477Y11791D01*
X11481Y11811D01*
X11477Y11831D01*
X11466Y11847D01*
X11450Y11858D01*
X11430Y11862D01*
D02*
G37*
G36*
X11938Y11849D02*
X11918Y11845D01*
X11902Y11834D01*
X11891Y11818D01*
X11887Y11798D01*
X11891Y11779D01*
X11902Y11762D01*
X11918Y11751D01*
X11938Y11747D01*
X11958Y11751D01*
X11974Y11762D01*
X11985Y11779D01*
X11989Y11798D01*
X11985Y11818D01*
X11974Y11834D01*
X11958Y11845D01*
X11938Y11849D01*
D02*
G37*
G36*
X15071Y11801D02*
X15055Y11798D01*
X15042Y11789D01*
X15033Y11776D01*
X15030Y11761D01*
X15033Y11745D01*
X15042Y11732D01*
X15055Y11723D01*
X15071Y11720D01*
X15086Y11723D01*
X15099Y11732D01*
X15108Y11745D01*
X15111Y11761D01*
X15108Y11776D01*
X15099Y11789D01*
X15086Y11798D01*
X15071Y11801D01*
D02*
G37*
G36*
X14960D02*
X14945Y11798D01*
X14932Y11789D01*
X14923Y11776D01*
X14920Y11761D01*
X14923Y11745D01*
X14932Y11732D01*
X14945Y11723D01*
X14960Y11720D01*
X14976Y11723D01*
X14989Y11732D01*
X14998Y11745D01*
X15001Y11761D01*
X14998Y11776D01*
X14989Y11789D01*
X14976Y11798D01*
X14960Y11801D01*
D02*
G37*
G36*
X11213Y11867D02*
X11193Y11863D01*
X11177Y11852D01*
X11166Y11835D01*
X11162Y11816D01*
X11166Y11796D01*
X11177Y11780D01*
X11193Y11769D01*
X11205Y11766D01*
X11215Y11753D01*
X11214Y11747D01*
X11218Y11728D01*
X11229Y11711D01*
X11245Y11700D01*
X11265Y11697D01*
X11284Y11700D01*
X11301Y11711D01*
X11312Y11728D01*
X11316Y11747D01*
X11312Y11767D01*
X11301Y11784D01*
X11284Y11795D01*
X11273Y11797D01*
X11263Y11810D01*
X11264Y11816D01*
X11260Y11835D01*
X11249Y11852D01*
X11232Y11863D01*
X11213Y11867D01*
D02*
G37*
G36*
X14592Y11735D02*
X14573Y11731D01*
X14556Y11720D01*
X14545Y11704D01*
X14541Y11684D01*
X14545Y11664D01*
X14556Y11648D01*
X14573Y11637D01*
X14592Y11633D01*
X14612Y11637D01*
X14628Y11648D01*
X14639Y11664D01*
X14643Y11684D01*
X14639Y11704D01*
X14628Y11720D01*
X14612Y11731D01*
X14592Y11735D01*
D02*
G37*
G36*
X14746Y11742D02*
X14726Y11738D01*
X14710Y11727D01*
X14699Y11710D01*
X14695Y11691D01*
X14699Y11671D01*
X14710Y11655D01*
X14726Y11644D01*
X14746Y11640D01*
X14765Y11644D01*
X14776Y11651D01*
X14787Y11643D01*
X14784Y11627D01*
X14788Y11608D01*
X14799Y11591D01*
X14815Y11580D01*
X14835Y11576D01*
X14854Y11580D01*
X14871Y11591D01*
X14882Y11608D01*
X14886Y11627D01*
X14882Y11647D01*
X14871Y11663D01*
X14854Y11674D01*
X14835Y11678D01*
X14815Y11674D01*
X14804Y11667D01*
X14794Y11675D01*
X14797Y11691D01*
X14793Y11710D01*
X14782Y11727D01*
X14765Y11738D01*
X14746Y11742D01*
D02*
G37*
G36*
X15317Y11627D02*
X15298Y11623D01*
X15281Y11612D01*
X15270Y11596D01*
X15266Y11576D01*
X15270Y11557D01*
X15281Y11540D01*
X15298Y11529D01*
X15317Y11525D01*
X15337Y11529D01*
X15353Y11540D01*
X15364Y11557D01*
X15368Y11576D01*
X15364Y11596D01*
X15353Y11612D01*
X15337Y11623D01*
X15317Y11627D01*
D02*
G37*
G36*
X14000Y11601D02*
X13980Y11597D01*
X13964Y11586D01*
X13953Y11570D01*
X13949Y11550D01*
X13953Y11530D01*
X13964Y11514D01*
X13980Y11503D01*
X14000Y11499D01*
X14020Y11503D01*
X14036Y11514D01*
X14047Y11530D01*
X14051Y11550D01*
X14047Y11570D01*
X14036Y11586D01*
X14020Y11597D01*
X14000Y11601D01*
D02*
G37*
G36*
X13650D02*
X13630Y11597D01*
X13614Y11586D01*
X13603Y11570D01*
X13599Y11550D01*
X13603Y11530D01*
X13614Y11514D01*
X13630Y11503D01*
X13650Y11499D01*
X13670Y11503D01*
X13686Y11514D01*
X13697Y11530D01*
X13701Y11550D01*
X13697Y11570D01*
X13686Y11586D01*
X13670Y11597D01*
X13650Y11601D01*
D02*
G37*
G36*
X10500D02*
X10480Y11597D01*
X10464Y11586D01*
X10453Y11570D01*
X10449Y11550D01*
X10453Y11530D01*
X10464Y11514D01*
X10480Y11503D01*
X10500Y11499D01*
X10520Y11503D01*
X10536Y11514D01*
X10547Y11530D01*
X10551Y11550D01*
X10547Y11570D01*
X10536Y11586D01*
X10520Y11597D01*
X10500Y11601D01*
D02*
G37*
G36*
X10150D02*
X10130Y11597D01*
X10114Y11586D01*
X10103Y11570D01*
X10099Y11550D01*
X10103Y11530D01*
X10114Y11514D01*
X10130Y11503D01*
X10150Y11499D01*
X10170Y11503D01*
X10186Y11514D01*
X10197Y11530D01*
X10201Y11550D01*
X10197Y11570D01*
X10186Y11586D01*
X10170Y11597D01*
X10150Y11601D01*
D02*
G37*
G36*
X9800D02*
X9780Y11597D01*
X9764Y11586D01*
X9753Y11570D01*
X9749Y11550D01*
X9753Y11530D01*
X9764Y11514D01*
X9780Y11503D01*
X9800Y11499D01*
X9820Y11503D01*
X9836Y11514D01*
X9847Y11530D01*
X9851Y11550D01*
X9847Y11570D01*
X9836Y11586D01*
X9820Y11597D01*
X9800Y11601D01*
D02*
G37*
G36*
X9450D02*
X9430Y11597D01*
X9414Y11586D01*
X9403Y11570D01*
X9399Y11550D01*
X9403Y11530D01*
X9414Y11514D01*
X9430Y11503D01*
X9450Y11499D01*
X9470Y11503D01*
X9486Y11514D01*
X9497Y11530D01*
X9501Y11550D01*
X9497Y11570D01*
X9486Y11586D01*
X9470Y11597D01*
X9450Y11601D01*
D02*
G37*
G36*
X9100D02*
X9080Y11597D01*
X9064Y11586D01*
X9053Y11570D01*
X9049Y11550D01*
X9053Y11530D01*
X9064Y11514D01*
X9080Y11503D01*
X9100Y11499D01*
X9120Y11503D01*
X9136Y11514D01*
X9147Y11530D01*
X9151Y11550D01*
X9147Y11570D01*
X9136Y11586D01*
X9120Y11597D01*
X9100Y11601D01*
D02*
G37*
G36*
X8750D02*
X8730Y11597D01*
X8714Y11586D01*
X8703Y11570D01*
X8699Y11550D01*
X8703Y11530D01*
X8714Y11514D01*
X8730Y11503D01*
X8750Y11499D01*
X8770Y11503D01*
X8786Y11514D01*
X8797Y11530D01*
X8801Y11550D01*
X8797Y11570D01*
X8786Y11586D01*
X8770Y11597D01*
X8750Y11601D01*
D02*
G37*
G36*
X14719Y11570D02*
X14700Y11566D01*
X14683Y11555D01*
X14672Y11538D01*
X14668Y11519D01*
X14672Y11499D01*
X14683Y11483D01*
X14700Y11472D01*
X14719Y11468D01*
X14739Y11472D01*
X14755Y11483D01*
X14766Y11499D01*
X14770Y11519D01*
X14766Y11538D01*
X14755Y11555D01*
X14739Y11566D01*
X14719Y11570D01*
D02*
G37*
G36*
X15456Y11557D02*
X15436Y11553D01*
X15420Y11542D01*
X15409Y11526D01*
X15405Y11506D01*
X15409Y11487D01*
X15415Y11478D01*
X15407Y11467D01*
X15400Y11468D01*
X15380Y11464D01*
X15364Y11453D01*
X15353Y11437D01*
X15349Y11417D01*
X15353Y11397D01*
X15364Y11381D01*
X15380Y11370D01*
X15400Y11366D01*
X15420Y11370D01*
X15436Y11381D01*
X15447Y11397D01*
X15451Y11417D01*
X15447Y11437D01*
X15441Y11445D01*
X15449Y11457D01*
X15456Y11455D01*
X15475Y11459D01*
X15492Y11470D01*
X15503Y11487D01*
X15507Y11506D01*
X15503Y11526D01*
X15492Y11542D01*
X15475Y11553D01*
X15456Y11557D01*
D02*
G37*
G36*
X15254Y11386D02*
X15234Y11382D01*
X15218Y11371D01*
X15207Y11355D01*
X15203Y11335D01*
X15207Y11316D01*
X15218Y11299D01*
X15234Y11288D01*
X15254Y11284D01*
X15273Y11288D01*
X15290Y11299D01*
X15301Y11316D01*
X15305Y11335D01*
X15301Y11355D01*
X15290Y11371D01*
X15273Y11382D01*
X15254Y11386D01*
D02*
G37*
G36*
X14834Y11354D02*
X14814Y11350D01*
X14798Y11339D01*
X14787Y11323D01*
X14783Y11303D01*
X14787Y11283D01*
X14798Y11267D01*
X14814Y11256D01*
X14834Y11252D01*
X14853Y11256D01*
X14870Y11267D01*
X14881Y11283D01*
X14885Y11303D01*
X14881Y11323D01*
X14870Y11339D01*
X14853Y11350D01*
X14834Y11354D01*
D02*
G37*
G36*
X15925Y11251D02*
X15905Y11247D01*
X15889Y11236D01*
X15878Y11220D01*
X15874Y11200D01*
X15878Y11180D01*
X15889Y11164D01*
X15905Y11153D01*
X15925Y11149D01*
X15945Y11153D01*
X15961Y11164D01*
X15972Y11180D01*
X15976Y11200D01*
X15972Y11220D01*
X15961Y11236D01*
X15945Y11247D01*
X15925Y11251D01*
D02*
G37*
G36*
X13825D02*
X13805Y11247D01*
X13789Y11236D01*
X13778Y11220D01*
X13774Y11200D01*
X13778Y11180D01*
X13789Y11164D01*
X13805Y11153D01*
X13825Y11149D01*
X13845Y11153D01*
X13861Y11164D01*
X13872Y11180D01*
X13876Y11200D01*
X13872Y11220D01*
X13861Y11236D01*
X13845Y11247D01*
X13825Y11251D01*
D02*
G37*
G36*
X13475D02*
X13455Y11247D01*
X13439Y11236D01*
X13428Y11220D01*
X13424Y11200D01*
X13428Y11180D01*
X13439Y11164D01*
X13455Y11153D01*
X13475Y11149D01*
X13495Y11153D01*
X13511Y11164D01*
X13522Y11180D01*
X13526Y11200D01*
X13522Y11220D01*
X13511Y11236D01*
X13495Y11247D01*
X13475Y11251D01*
D02*
G37*
G36*
X12425D02*
X12405Y11247D01*
X12389Y11236D01*
X12378Y11220D01*
X12374Y11200D01*
X12378Y11180D01*
X12389Y11164D01*
X12405Y11153D01*
X12425Y11149D01*
X12445Y11153D01*
X12461Y11164D01*
X12472Y11180D01*
X12476Y11200D01*
X12472Y11220D01*
X12461Y11236D01*
X12445Y11247D01*
X12425Y11251D01*
D02*
G37*
G36*
X12075D02*
X12055Y11247D01*
X12039Y11236D01*
X12028Y11220D01*
X12024Y11200D01*
X12028Y11180D01*
X12039Y11164D01*
X12055Y11153D01*
X12075Y11149D01*
X12095Y11153D01*
X12111Y11164D01*
X12122Y11180D01*
X12126Y11200D01*
X12122Y11220D01*
X12111Y11236D01*
X12095Y11247D01*
X12075Y11251D01*
D02*
G37*
G36*
X10325D02*
X10305Y11247D01*
X10289Y11236D01*
X10278Y11220D01*
X10274Y11200D01*
X10278Y11180D01*
X10289Y11164D01*
X10305Y11153D01*
X10325Y11149D01*
X10345Y11153D01*
X10361Y11164D01*
X10372Y11180D01*
X10376Y11200D01*
X10372Y11220D01*
X10361Y11236D01*
X10345Y11247D01*
X10325Y11251D01*
D02*
G37*
G36*
X9975D02*
X9955Y11247D01*
X9939Y11236D01*
X9928Y11220D01*
X9924Y11200D01*
X9928Y11180D01*
X9939Y11164D01*
X9955Y11153D01*
X9975Y11149D01*
X9995Y11153D01*
X10011Y11164D01*
X10022Y11180D01*
X10026Y11200D01*
X10022Y11220D01*
X10011Y11236D01*
X9995Y11247D01*
X9975Y11251D01*
D02*
G37*
G36*
X9625D02*
X9605Y11247D01*
X9589Y11236D01*
X9578Y11220D01*
X9574Y11200D01*
X9578Y11180D01*
X9589Y11164D01*
X9605Y11153D01*
X9625Y11149D01*
X9645Y11153D01*
X9661Y11164D01*
X9672Y11180D01*
X9676Y11200D01*
X9672Y11220D01*
X9661Y11236D01*
X9645Y11247D01*
X9625Y11251D01*
D02*
G37*
G36*
X9275D02*
X9255Y11247D01*
X9239Y11236D01*
X9228Y11220D01*
X9224Y11200D01*
X9228Y11180D01*
X9239Y11164D01*
X9255Y11153D01*
X9275Y11149D01*
X9295Y11153D01*
X9311Y11164D01*
X9322Y11180D01*
X9326Y11200D01*
X9322Y11220D01*
X9311Y11236D01*
X9295Y11247D01*
X9275Y11251D01*
D02*
G37*
G36*
X8925D02*
X8905Y11247D01*
X8889Y11236D01*
X8878Y11220D01*
X8874Y11200D01*
X8878Y11180D01*
X8889Y11164D01*
X8905Y11153D01*
X8925Y11149D01*
X8945Y11153D01*
X8961Y11164D01*
X8972Y11180D01*
X8976Y11200D01*
X8972Y11220D01*
X8961Y11236D01*
X8945Y11247D01*
X8925Y11251D01*
D02*
G37*
G36*
X8225D02*
X8205Y11247D01*
X8189Y11236D01*
X8178Y11220D01*
X8174Y11200D01*
X8178Y11180D01*
X8189Y11164D01*
X8205Y11153D01*
X8225Y11149D01*
X8245Y11153D01*
X8261Y11164D01*
X8272Y11180D01*
X8276Y11200D01*
X8272Y11220D01*
X8261Y11236D01*
X8245Y11247D01*
X8225Y11251D01*
D02*
G37*
G36*
X15177Y11234D02*
X15158Y11230D01*
X15141Y11219D01*
X15130Y11202D01*
X15127Y11183D01*
X15130Y11163D01*
X15141Y11147D01*
X15158Y11136D01*
X15177Y11132D01*
X15197Y11136D01*
X15214Y11147D01*
X15225Y11163D01*
X15228Y11183D01*
X15225Y11202D01*
X15214Y11219D01*
X15197Y11230D01*
X15177Y11234D01*
D02*
G37*
G36*
X14834Y11202D02*
X14814Y11198D01*
X14798Y11187D01*
X14787Y11170D01*
X14783Y11151D01*
X14787Y11131D01*
X14798Y11115D01*
X14814Y11104D01*
X14834Y11100D01*
X14853Y11104D01*
X14870Y11115D01*
X14881Y11131D01*
X14885Y11151D01*
X14881Y11170D01*
X14870Y11187D01*
X14853Y11198D01*
X14834Y11202D01*
D02*
G37*
G36*
X11227Y11189D02*
X11207Y11185D01*
X11191Y11174D01*
X11180Y11157D01*
X11176Y11138D01*
X11180Y11118D01*
X11191Y11102D01*
X11207Y11091D01*
X11227Y11087D01*
X11246Y11091D01*
X11263Y11102D01*
X11274Y11118D01*
X11278Y11138D01*
X11274Y11157D01*
X11263Y11174D01*
X11246Y11185D01*
X11227Y11189D01*
D02*
G37*
G36*
X15824Y11158D02*
X15799Y11154D01*
X15776Y11145D01*
X15756Y11129D01*
X15741Y11110D01*
X15732Y11086D01*
X15728Y11062D01*
X15732Y11037D01*
X15741Y11014D01*
X15756Y10994D01*
X15776Y10979D01*
X15799Y10969D01*
X15824Y10966D01*
X15849Y10969D01*
X15872Y10979D01*
X15892Y10994D01*
X15907Y11014D01*
X15917Y11037D01*
X15920Y11062D01*
X15917Y11086D01*
X15907Y11110D01*
X15892Y11129D01*
X15872Y11145D01*
X15849Y11154D01*
X15824Y11158D01*
D02*
G37*
G36*
X15575Y11251D02*
X15555Y11247D01*
X15539Y11236D01*
X15528Y11220D01*
X15524Y11200D01*
X15528Y11180D01*
X15538Y11165D01*
X15539Y11163D01*
X15536Y11150D01*
X15522Y11145D01*
X15502Y11129D01*
X15487Y11110D01*
X15478Y11086D01*
X15474Y11062D01*
X15478Y11037D01*
X15487Y11014D01*
X15502Y10994D01*
X15522Y10979D01*
X15545Y10969D01*
X15570Y10966D01*
X15595Y10969D01*
X15618Y10979D01*
X15638Y10994D01*
X15653Y11014D01*
X15663Y11037D01*
X15666Y11062D01*
X15663Y11086D01*
X15653Y11110D01*
X15638Y11129D01*
X15618Y11145D01*
X15608Y11149D01*
X15607Y11161D01*
X15611Y11164D01*
X15622Y11180D01*
X15626Y11200D01*
X15622Y11220D01*
X15611Y11236D01*
X15595Y11247D01*
X15575Y11251D01*
D02*
G37*
G36*
X12484Y11151D02*
X12465Y11147D01*
X12448Y11136D01*
X12437Y11119D01*
X12433Y11100D01*
X12437Y11080D01*
X12448Y11064D01*
X12456Y11058D01*
X12454Y11045D01*
X12451Y11044D01*
X12434Y11033D01*
X12423Y11017D01*
X12419Y10997D01*
X12423Y10977D01*
X12434Y10961D01*
X12451Y10950D01*
X12470Y10946D01*
X12490Y10950D01*
X12506Y10961D01*
X12517Y10977D01*
X12521Y10997D01*
X12517Y11017D01*
X12506Y11033D01*
X12498Y11039D01*
X12501Y11052D01*
X12504Y11053D01*
X12520Y11064D01*
X12531Y11080D01*
X12535Y11100D01*
X12531Y11119D01*
X12520Y11136D01*
X12504Y11147D01*
X12484Y11151D01*
D02*
G37*
G36*
X15050Y10901D02*
X15030Y10897D01*
X15014Y10886D01*
X15003Y10870D01*
X14999Y10850D01*
X15003Y10830D01*
X15014Y10814D01*
X15030Y10803D01*
X15050Y10799D01*
X15070Y10803D01*
X15086Y10814D01*
X15097Y10830D01*
X15101Y10850D01*
X15097Y10870D01*
X15086Y10886D01*
X15070Y10897D01*
X15050Y10901D01*
D02*
G37*
G36*
X14000D02*
X13980Y10897D01*
X13964Y10886D01*
X13953Y10870D01*
X13949Y10850D01*
X13953Y10830D01*
X13964Y10814D01*
X13980Y10803D01*
X14000Y10799D01*
X14020Y10803D01*
X14036Y10814D01*
X14047Y10830D01*
X14051Y10850D01*
X14047Y10870D01*
X14036Y10886D01*
X14020Y10897D01*
X14000Y10901D01*
D02*
G37*
G36*
X13650D02*
X13630Y10897D01*
X13614Y10886D01*
X13603Y10870D01*
X13599Y10850D01*
X13603Y10830D01*
X13614Y10814D01*
X13630Y10803D01*
X13650Y10799D01*
X13670Y10803D01*
X13686Y10814D01*
X13697Y10830D01*
X13701Y10850D01*
X13697Y10870D01*
X13686Y10886D01*
X13670Y10897D01*
X13650Y10901D01*
D02*
G37*
G36*
X10150D02*
X10130Y10897D01*
X10114Y10886D01*
X10103Y10870D01*
X10099Y10850D01*
X10103Y10830D01*
X10114Y10814D01*
X10130Y10803D01*
X10150Y10799D01*
X10170Y10803D01*
X10186Y10814D01*
X10197Y10830D01*
X10201Y10850D01*
X10197Y10870D01*
X10186Y10886D01*
X10170Y10897D01*
X10150Y10901D01*
D02*
G37*
G36*
X9800D02*
X9780Y10897D01*
X9764Y10886D01*
X9753Y10870D01*
X9749Y10850D01*
X9753Y10830D01*
X9764Y10814D01*
X9780Y10803D01*
X9800Y10799D01*
X9820Y10803D01*
X9836Y10814D01*
X9847Y10830D01*
X9851Y10850D01*
X9847Y10870D01*
X9836Y10886D01*
X9820Y10897D01*
X9800Y10901D01*
D02*
G37*
G36*
X12141Y10846D02*
X12122Y10842D01*
X12105Y10831D01*
X12094Y10815D01*
X12090Y10795D01*
X12094Y10775D01*
X12105Y10759D01*
X12122Y10748D01*
X12141Y10744D01*
X12161Y10748D01*
X12177Y10759D01*
X12188Y10775D01*
X12192Y10795D01*
X12188Y10815D01*
X12177Y10831D01*
X12161Y10842D01*
X12141Y10846D01*
D02*
G37*
G36*
X11510Y10815D02*
X11495Y10811D01*
X11482Y10803D01*
X11473Y10789D01*
X11470Y10774D01*
X11473Y10758D01*
X11482Y10745D01*
X11495Y10736D01*
X11510Y10733D01*
X11526Y10736D01*
X11539Y10745D01*
X11548Y10758D01*
X11551Y10774D01*
X11548Y10789D01*
X11539Y10803D01*
X11526Y10811D01*
X11510Y10815D01*
D02*
G37*
G36*
X11400D02*
X11385Y10811D01*
X11372Y10803D01*
X11363Y10789D01*
X11360Y10774D01*
X11363Y10758D01*
X11372Y10745D01*
X11385Y10736D01*
X11400Y10733D01*
X11416Y10736D01*
X11429Y10745D01*
X11438Y10758D01*
X11441Y10774D01*
X11438Y10789D01*
X11429Y10803D01*
X11416Y10811D01*
X11400Y10815D01*
D02*
G37*
G36*
X11881Y10814D02*
X11861Y10810D01*
X11845Y10799D01*
X11834Y10783D01*
X11830Y10763D01*
X11834Y10743D01*
X11845Y10727D01*
X11861Y10716D01*
X11881Y10712D01*
X11901Y10716D01*
X11917Y10727D01*
X11928Y10743D01*
X11932Y10763D01*
X11928Y10783D01*
X11917Y10799D01*
X11901Y10810D01*
X11881Y10814D01*
D02*
G37*
G36*
X15824Y10904D02*
X15799Y10900D01*
X15776Y10891D01*
X15756Y10875D01*
X15741Y10856D01*
X15732Y10832D01*
X15728Y10808D01*
X15732Y10783D01*
X15741Y10760D01*
X15756Y10740D01*
X15776Y10725D01*
X15799Y10715D01*
X15824Y10712D01*
X15849Y10715D01*
X15872Y10725D01*
X15892Y10740D01*
X15907Y10760D01*
X15917Y10783D01*
X15920Y10808D01*
X15917Y10832D01*
X15907Y10856D01*
X15892Y10875D01*
X15872Y10891D01*
X15849Y10900D01*
X15824Y10904D01*
D02*
G37*
G36*
X15570D02*
X15545Y10900D01*
X15522Y10891D01*
X15502Y10875D01*
X15487Y10856D01*
X15478Y10832D01*
X15474Y10808D01*
X15478Y10783D01*
X15487Y10760D01*
X15502Y10740D01*
X15522Y10725D01*
X15545Y10715D01*
X15570Y10712D01*
X15595Y10715D01*
X15618Y10725D01*
X15638Y10740D01*
X15653Y10760D01*
X15663Y10783D01*
X15666Y10808D01*
X15663Y10832D01*
X15653Y10856D01*
X15638Y10875D01*
X15618Y10891D01*
X15595Y10900D01*
X15570Y10904D01*
D02*
G37*
G36*
X11510Y10705D02*
X11495Y10701D01*
X11482Y10693D01*
X11473Y10679D01*
X11470Y10664D01*
X11473Y10648D01*
X11482Y10635D01*
X11495Y10626D01*
X11510Y10623D01*
X11526Y10626D01*
X11539Y10635D01*
X11548Y10648D01*
X11551Y10664D01*
X11548Y10679D01*
X11539Y10693D01*
X11526Y10701D01*
X11510Y10705D01*
D02*
G37*
G36*
X11400D02*
X11385Y10701D01*
X11372Y10693D01*
X11363Y10679D01*
X11360Y10664D01*
X11363Y10648D01*
X11372Y10635D01*
X11385Y10626D01*
X11400Y10623D01*
X11416Y10626D01*
X11429Y10635D01*
X11438Y10648D01*
X11441Y10664D01*
X11438Y10679D01*
X11429Y10693D01*
X11416Y10701D01*
X11400Y10705D01*
D02*
G37*
G36*
X10980Y10604D02*
X10960Y10600D01*
X10944Y10589D01*
X10933Y10573D01*
X10929Y10553D01*
X10933Y10533D01*
X10944Y10517D01*
X10960Y10506D01*
X10980Y10502D01*
X11000Y10506D01*
X11016Y10517D01*
X11027Y10533D01*
X11031Y10553D01*
X11027Y10573D01*
X11016Y10589D01*
X11000Y10600D01*
X10980Y10604D01*
D02*
G37*
G36*
X15824Y10650D02*
X15799Y10646D01*
X15776Y10637D01*
X15756Y10621D01*
X15741Y10602D01*
X15732Y10579D01*
X15728Y10554D01*
X15732Y10529D01*
X15741Y10506D01*
X15756Y10486D01*
X15776Y10471D01*
X15799Y10461D01*
X15824Y10458D01*
X15849Y10461D01*
X15872Y10471D01*
X15892Y10486D01*
X15907Y10506D01*
X15917Y10529D01*
X15920Y10554D01*
X15917Y10579D01*
X15907Y10602D01*
X15892Y10621D01*
X15872Y10637D01*
X15849Y10646D01*
X15824Y10650D01*
D02*
G37*
G36*
X15570D02*
X15545Y10646D01*
X15522Y10637D01*
X15502Y10621D01*
X15487Y10602D01*
X15478Y10579D01*
X15474Y10554D01*
X15478Y10529D01*
X15487Y10506D01*
X15502Y10486D01*
X15522Y10471D01*
X15545Y10461D01*
X15570Y10458D01*
X15595Y10461D01*
X15618Y10471D01*
X15638Y10486D01*
X15653Y10506D01*
X15663Y10529D01*
X15666Y10554D01*
X15663Y10579D01*
X15653Y10602D01*
X15638Y10621D01*
X15618Y10637D01*
X15595Y10646D01*
X15570Y10650D01*
D02*
G37*
G36*
X15225Y10551D02*
X15205Y10547D01*
X15189Y10536D01*
X15178Y10520D01*
X15174Y10500D01*
X15178Y10480D01*
X15189Y10464D01*
X15205Y10453D01*
X15225Y10449D01*
X15245Y10453D01*
X15261Y10464D01*
X15272Y10480D01*
X15276Y10500D01*
X15272Y10520D01*
X15261Y10536D01*
X15245Y10547D01*
X15225Y10551D01*
D02*
G37*
G36*
X13825D02*
X13805Y10547D01*
X13789Y10536D01*
X13778Y10520D01*
X13774Y10500D01*
X13778Y10480D01*
X13789Y10464D01*
X13805Y10453D01*
X13825Y10449D01*
X13845Y10453D01*
X13861Y10464D01*
X13872Y10480D01*
X13876Y10500D01*
X13872Y10520D01*
X13861Y10536D01*
X13845Y10547D01*
X13825Y10551D01*
D02*
G37*
G36*
X13125D02*
X13105Y10547D01*
X13089Y10536D01*
X13078Y10520D01*
X13074Y10500D01*
X13078Y10480D01*
X13089Y10464D01*
X13105Y10453D01*
X13125Y10449D01*
X13145Y10453D01*
X13161Y10464D01*
X13172Y10480D01*
X13176Y10500D01*
X13172Y10520D01*
X13161Y10536D01*
X13145Y10547D01*
X13125Y10551D01*
D02*
G37*
G36*
X12775D02*
X12755Y10547D01*
X12739Y10536D01*
X12728Y10520D01*
X12724Y10500D01*
X12728Y10480D01*
X12739Y10464D01*
X12755Y10453D01*
X12775Y10449D01*
X12795Y10453D01*
X12811Y10464D01*
X12822Y10480D01*
X12826Y10500D01*
X12822Y10520D01*
X12811Y10536D01*
X12795Y10547D01*
X12775Y10551D01*
D02*
G37*
G36*
X8225D02*
X8205Y10547D01*
X8189Y10536D01*
X8178Y10520D01*
X8174Y10500D01*
X8178Y10480D01*
X8189Y10464D01*
X8205Y10453D01*
X8225Y10449D01*
X8245Y10453D01*
X8261Y10464D01*
X8272Y10480D01*
X8276Y10500D01*
X8272Y10520D01*
X8261Y10536D01*
X8245Y10547D01*
X8225Y10551D01*
D02*
G37*
G36*
X15824Y10396D02*
X15799Y10392D01*
X15776Y10383D01*
X15756Y10367D01*
X15741Y10348D01*
X15732Y10325D01*
X15728Y10300D01*
X15732Y10275D01*
X15741Y10252D01*
X15756Y10232D01*
X15776Y10217D01*
X15799Y10207D01*
X15824Y10204D01*
X15849Y10207D01*
X15872Y10217D01*
X15892Y10232D01*
X15907Y10252D01*
X15917Y10275D01*
X15920Y10300D01*
X15917Y10325D01*
X15907Y10348D01*
X15892Y10367D01*
X15872Y10383D01*
X15849Y10392D01*
X15824Y10396D01*
D02*
G37*
G36*
X15570D02*
X15545Y10392D01*
X15522Y10383D01*
X15502Y10367D01*
X15487Y10348D01*
X15478Y10325D01*
X15474Y10300D01*
X15478Y10275D01*
X15487Y10252D01*
X15502Y10232D01*
X15522Y10217D01*
X15545Y10207D01*
X15570Y10204D01*
X15595Y10207D01*
X15618Y10217D01*
X15638Y10232D01*
X15653Y10252D01*
X15663Y10275D01*
X15666Y10300D01*
X15663Y10325D01*
X15653Y10348D01*
X15638Y10367D01*
X15618Y10383D01*
X15595Y10392D01*
X15570Y10396D01*
D02*
G37*
G36*
X15400Y10201D02*
X15380Y10197D01*
X15364Y10186D01*
X15353Y10170D01*
X15349Y10150D01*
X15353Y10130D01*
X15364Y10114D01*
X15380Y10103D01*
X15400Y10099D01*
X15420Y10103D01*
X15436Y10114D01*
X15447Y10130D01*
X15451Y10150D01*
X15447Y10170D01*
X15436Y10186D01*
X15420Y10197D01*
X15400Y10201D01*
D02*
G37*
G36*
X15050D02*
X15030Y10197D01*
X15014Y10186D01*
X15003Y10170D01*
X14999Y10150D01*
X15003Y10130D01*
X15014Y10114D01*
X15030Y10103D01*
X15050Y10099D01*
X15070Y10103D01*
X15086Y10114D01*
X15097Y10130D01*
X15101Y10150D01*
X15097Y10170D01*
X15086Y10186D01*
X15070Y10197D01*
X15050Y10201D01*
D02*
G37*
G36*
X13650D02*
X13630Y10197D01*
X13614Y10186D01*
X13603Y10170D01*
X13599Y10150D01*
X13603Y10130D01*
X13614Y10114D01*
X13630Y10103D01*
X13650Y10099D01*
X13670Y10103D01*
X13686Y10114D01*
X13697Y10130D01*
X13701Y10150D01*
X13697Y10170D01*
X13686Y10186D01*
X13670Y10197D01*
X13650Y10201D01*
D02*
G37*
G36*
X12950D02*
X12930Y10197D01*
X12914Y10186D01*
X12903Y10170D01*
X12899Y10150D01*
X12903Y10130D01*
X12914Y10114D01*
X12930Y10103D01*
X12950Y10099D01*
X12970Y10103D01*
X12986Y10114D01*
X12997Y10130D01*
X13001Y10150D01*
X12997Y10170D01*
X12986Y10186D01*
X12970Y10197D01*
X12950Y10201D01*
D02*
G37*
G36*
X12600D02*
X12580Y10197D01*
X12564Y10186D01*
X12553Y10170D01*
X12549Y10150D01*
X12553Y10130D01*
X12564Y10114D01*
X12580Y10103D01*
X12600Y10099D01*
X12620Y10103D01*
X12636Y10114D01*
X12647Y10130D01*
X12651Y10150D01*
X12647Y10170D01*
X12636Y10186D01*
X12620Y10197D01*
X12600Y10201D01*
D02*
G37*
G36*
X8750D02*
X8730Y10197D01*
X8714Y10186D01*
X8703Y10170D01*
X8699Y10150D01*
X8703Y10130D01*
X8714Y10114D01*
X8730Y10103D01*
X8750Y10099D01*
X8770Y10103D01*
X8786Y10114D01*
X8797Y10130D01*
X8801Y10150D01*
X8797Y10170D01*
X8786Y10186D01*
X8770Y10197D01*
X8750Y10201D01*
D02*
G37*
G36*
X14846Y10059D02*
X14827Y10055D01*
X14810Y10044D01*
X14799Y10027D01*
X14795Y10008D01*
X14799Y9988D01*
X14810Y9972D01*
X14827Y9961D01*
X14846Y9957D01*
X14866Y9961D01*
X14882Y9972D01*
X14893Y9988D01*
X14897Y10008D01*
X14893Y10027D01*
X14882Y10044D01*
X14866Y10055D01*
X14846Y10059D01*
D02*
G37*
G36*
X8225Y9851D02*
X8205Y9847D01*
X8189Y9836D01*
X8178Y9820D01*
X8174Y9800D01*
X8178Y9780D01*
X8189Y9764D01*
X8205Y9753D01*
X8225Y9749D01*
X8245Y9753D01*
X8261Y9764D01*
X8272Y9780D01*
X8276Y9800D01*
X8272Y9820D01*
X8261Y9836D01*
X8245Y9847D01*
X8225Y9851D01*
D02*
G37*
G36*
X10990Y9613D02*
X10965Y9610D01*
X10942Y9600D01*
X10922Y9585D01*
X10907Y9565D01*
X10897Y9542D01*
X10894Y9517D01*
X10897Y9492D01*
X10898Y9491D01*
X10887Y9485D01*
X10886Y9486D01*
X10870Y9497D01*
X10850Y9501D01*
X10830Y9497D01*
X10814Y9486D01*
X10803Y9470D01*
X10799Y9450D01*
X10803Y9430D01*
X10814Y9414D01*
X10830Y9403D01*
X10850Y9399D01*
X10870Y9403D01*
X10886Y9414D01*
X10897Y9430D01*
X10901Y9450D01*
X10899Y9458D01*
X10911Y9464D01*
X10922Y9449D01*
X10942Y9434D01*
X10965Y9424D01*
X10990Y9421D01*
X11015Y9424D01*
X11038Y9434D01*
X11058Y9449D01*
X11073Y9469D01*
X11083Y9492D01*
X11086Y9517D01*
X11083Y9542D01*
X11073Y9565D01*
X11058Y9585D01*
X11038Y9600D01*
X11015Y9610D01*
X10990Y9613D01*
D02*
G37*
G36*
X11752Y9608D02*
X11729Y9605D01*
X11707Y9596D01*
X11688Y9581D01*
X11673Y9562D01*
X11664Y9540D01*
X11661Y9517D01*
X11664Y9494D01*
X11673Y9472D01*
X11688Y9453D01*
X11707Y9438D01*
X11729Y9429D01*
X11752Y9426D01*
X11775Y9429D01*
X11797Y9438D01*
X11816Y9453D01*
X11831Y9472D01*
X11840Y9494D01*
X11843Y9517D01*
X11840Y9540D01*
X11831Y9562D01*
X11816Y9581D01*
X11797Y9596D01*
X11775Y9605D01*
X11752Y9608D01*
D02*
G37*
G36*
X11498D02*
X11475Y9605D01*
X11453Y9596D01*
X11434Y9581D01*
X11419Y9562D01*
X11410Y9540D01*
X11407Y9517D01*
X11410Y9494D01*
X11419Y9472D01*
X11434Y9453D01*
X11453Y9438D01*
X11475Y9429D01*
X11498Y9426D01*
X11521Y9429D01*
X11543Y9438D01*
X11562Y9453D01*
X11577Y9472D01*
X11586Y9494D01*
X11589Y9517D01*
X11586Y9540D01*
X11577Y9562D01*
X11562Y9581D01*
X11543Y9596D01*
X11521Y9605D01*
X11498Y9608D01*
D02*
G37*
G36*
X11244Y9613D02*
X11219Y9610D01*
X11196Y9600D01*
X11176Y9585D01*
X11161Y9565D01*
X11151Y9542D01*
X11148Y9517D01*
X11151Y9492D01*
X11161Y9469D01*
X11176Y9449D01*
X11196Y9434D01*
X11219Y9424D01*
X11244Y9421D01*
X11269Y9424D01*
X11292Y9434D01*
X11312Y9449D01*
X11327Y9469D01*
X11337Y9492D01*
X11340Y9517D01*
X11337Y9542D01*
X11327Y9565D01*
X11312Y9585D01*
X11292Y9600D01*
X11269Y9610D01*
X11244Y9613D01*
D02*
G37*
G36*
X15750Y9501D02*
X15730Y9497D01*
X15714Y9486D01*
X15703Y9470D01*
X15699Y9450D01*
X15703Y9430D01*
X15714Y9414D01*
X15730Y9403D01*
X15750Y9399D01*
X15770Y9403D01*
X15786Y9414D01*
X15797Y9430D01*
X15801Y9450D01*
X15797Y9470D01*
X15786Y9486D01*
X15770Y9497D01*
X15750Y9501D01*
D02*
G37*
G36*
X15400D02*
X15380Y9497D01*
X15364Y9486D01*
X15353Y9470D01*
X15349Y9450D01*
X15353Y9430D01*
X15364Y9414D01*
X15380Y9403D01*
X15400Y9399D01*
X15420Y9403D01*
X15436Y9414D01*
X15447Y9430D01*
X15451Y9450D01*
X15447Y9470D01*
X15436Y9486D01*
X15420Y9497D01*
X15400Y9501D01*
D02*
G37*
G36*
X15050D02*
X15030Y9497D01*
X15014Y9486D01*
X15003Y9470D01*
X14999Y9450D01*
X15003Y9430D01*
X15014Y9414D01*
X15030Y9403D01*
X15050Y9399D01*
X15070Y9403D01*
X15086Y9414D01*
X15097Y9430D01*
X15101Y9450D01*
X15097Y9470D01*
X15086Y9486D01*
X15070Y9497D01*
X15050Y9501D01*
D02*
G37*
G36*
X13650D02*
X13630Y9497D01*
X13614Y9486D01*
X13603Y9470D01*
X13599Y9450D01*
X13603Y9430D01*
X13614Y9414D01*
X13630Y9403D01*
X13650Y9399D01*
X13670Y9403D01*
X13686Y9414D01*
X13697Y9430D01*
X13701Y9450D01*
X13697Y9470D01*
X13686Y9486D01*
X13670Y9497D01*
X13650Y9501D01*
D02*
G37*
G36*
X12950D02*
X12930Y9497D01*
X12914Y9486D01*
X12903Y9470D01*
X12899Y9450D01*
X12903Y9430D01*
X12914Y9414D01*
X12930Y9403D01*
X12950Y9399D01*
X12970Y9403D01*
X12986Y9414D01*
X12997Y9430D01*
X13001Y9450D01*
X12997Y9470D01*
X12986Y9486D01*
X12970Y9497D01*
X12950Y9501D01*
D02*
G37*
G36*
X12600D02*
X12580Y9497D01*
X12564Y9486D01*
X12553Y9470D01*
X12549Y9450D01*
X12553Y9430D01*
X12564Y9414D01*
X12580Y9403D01*
X12600Y9399D01*
X12620Y9403D01*
X12636Y9414D01*
X12647Y9430D01*
X12651Y9450D01*
X12647Y9470D01*
X12636Y9486D01*
X12620Y9497D01*
X12600Y9501D01*
D02*
G37*
G36*
X10500D02*
X10480Y9497D01*
X10464Y9486D01*
X10453Y9470D01*
X10449Y9450D01*
X10453Y9430D01*
X10464Y9414D01*
X10480Y9403D01*
X10500Y9399D01*
X10520Y9403D01*
X10536Y9414D01*
X10547Y9430D01*
X10551Y9450D01*
X10547Y9470D01*
X10536Y9486D01*
X10520Y9497D01*
X10500Y9501D01*
D02*
G37*
G36*
X10150D02*
X10130Y9497D01*
X10114Y9486D01*
X10103Y9470D01*
X10099Y9450D01*
X10103Y9430D01*
X10114Y9414D01*
X10130Y9403D01*
X10150Y9399D01*
X10170Y9403D01*
X10186Y9414D01*
X10197Y9430D01*
X10201Y9450D01*
X10197Y9470D01*
X10186Y9486D01*
X10170Y9497D01*
X10150Y9501D01*
D02*
G37*
G36*
X9800D02*
X9780Y9497D01*
X9764Y9486D01*
X9753Y9470D01*
X9749Y9450D01*
X9753Y9430D01*
X9764Y9414D01*
X9780Y9403D01*
X9800Y9399D01*
X9820Y9403D01*
X9836Y9414D01*
X9847Y9430D01*
X9851Y9450D01*
X9847Y9470D01*
X9836Y9486D01*
X9820Y9497D01*
X9800Y9501D01*
D02*
G37*
G36*
X9100D02*
X9080Y9497D01*
X9064Y9486D01*
X9053Y9470D01*
X9049Y9450D01*
X9053Y9430D01*
X9064Y9414D01*
X9080Y9403D01*
X9100Y9399D01*
X9120Y9403D01*
X9136Y9414D01*
X9147Y9430D01*
X9151Y9450D01*
X9147Y9470D01*
X9136Y9486D01*
X9120Y9497D01*
X9100Y9501D01*
D02*
G37*
G36*
X8750D02*
X8730Y9497D01*
X8714Y9486D01*
X8703Y9470D01*
X8699Y9450D01*
X8703Y9430D01*
X8714Y9414D01*
X8730Y9403D01*
X8750Y9399D01*
X8770Y9403D01*
X8786Y9414D01*
X8797Y9430D01*
X8801Y9450D01*
X8797Y9470D01*
X8786Y9486D01*
X8770Y9497D01*
X8750Y9501D01*
D02*
G37*
G36*
X8400D02*
X8380Y9497D01*
X8364Y9486D01*
X8353Y9470D01*
X8349Y9450D01*
X8353Y9430D01*
X8364Y9414D01*
X8380Y9403D01*
X8400Y9399D01*
X8420Y9403D01*
X8436Y9414D01*
X8447Y9430D01*
X8451Y9450D01*
X8447Y9470D01*
X8436Y9486D01*
X8420Y9497D01*
X8400Y9501D01*
D02*
G37*
G36*
X11371Y9354D02*
X11348Y9351D01*
X11326Y9342D01*
X11307Y9327D01*
X11292Y9308D01*
X11283Y9286D01*
X11280Y9263D01*
X11283Y9240D01*
X11292Y9218D01*
X11307Y9199D01*
X11326Y9184D01*
X11348Y9175D01*
X11371Y9172D01*
X11394Y9175D01*
X11416Y9184D01*
X11435Y9199D01*
X11450Y9218D01*
X11459Y9240D01*
X11462Y9263D01*
X11459Y9286D01*
X11450Y9308D01*
X11435Y9327D01*
X11416Y9342D01*
X11394Y9351D01*
X11371Y9354D01*
D02*
G37*
G36*
X11117D02*
X11094Y9351D01*
X11072Y9342D01*
X11053Y9327D01*
X11038Y9308D01*
X11029Y9286D01*
X11026Y9263D01*
X11029Y9240D01*
X11038Y9218D01*
X11053Y9199D01*
X11072Y9184D01*
X11094Y9175D01*
X11117Y9172D01*
X11140Y9175D01*
X11162Y9184D01*
X11181Y9199D01*
X11196Y9218D01*
X11205Y9240D01*
X11208Y9263D01*
X11205Y9286D01*
X11196Y9308D01*
X11181Y9327D01*
X11162Y9342D01*
X11140Y9351D01*
X11117Y9354D01*
D02*
G37*
G36*
X11625Y9359D02*
X11600Y9356D01*
X11577Y9346D01*
X11557Y9331D01*
X11542Y9311D01*
X11532Y9288D01*
X11529Y9263D01*
X11532Y9238D01*
X11542Y9215D01*
X11557Y9195D01*
X11577Y9180D01*
X11600Y9170D01*
X11625Y9167D01*
X11650Y9170D01*
X11673Y9180D01*
X11693Y9195D01*
X11708Y9215D01*
X11718Y9238D01*
X11721Y9263D01*
X11718Y9288D01*
X11708Y9311D01*
X11693Y9331D01*
X11673Y9346D01*
X11650Y9356D01*
X11625Y9359D01*
D02*
G37*
G36*
X10863D02*
X10838Y9356D01*
X10815Y9346D01*
X10795Y9331D01*
X10780Y9311D01*
X10770Y9288D01*
X10767Y9263D01*
X10770Y9238D01*
X10780Y9215D01*
X10795Y9195D01*
X10815Y9180D01*
X10838Y9170D01*
X10863Y9167D01*
X10888Y9170D01*
X10911Y9180D01*
X10931Y9195D01*
X10946Y9215D01*
X10956Y9238D01*
X10959Y9263D01*
X10956Y9288D01*
X10946Y9311D01*
X10931Y9331D01*
X10911Y9346D01*
X10888Y9356D01*
X10863Y9359D01*
D02*
G37*
G36*
X15925Y9151D02*
X15905Y9147D01*
X15889Y9136D01*
X15878Y9120D01*
X15874Y9100D01*
X15878Y9080D01*
X15889Y9064D01*
X15905Y9053D01*
X15925Y9049D01*
X15945Y9053D01*
X15961Y9064D01*
X15972Y9080D01*
X15976Y9100D01*
X15972Y9120D01*
X15961Y9136D01*
X15945Y9147D01*
X15925Y9151D01*
D02*
G37*
G36*
X15575D02*
X15555Y9147D01*
X15539Y9136D01*
X15528Y9120D01*
X15524Y9100D01*
X15528Y9080D01*
X15539Y9064D01*
X15555Y9053D01*
X15575Y9049D01*
X15595Y9053D01*
X15611Y9064D01*
X15622Y9080D01*
X15626Y9100D01*
X15622Y9120D01*
X15611Y9136D01*
X15595Y9147D01*
X15575Y9151D01*
D02*
G37*
G36*
X15225D02*
X15205Y9147D01*
X15189Y9136D01*
X15178Y9120D01*
X15174Y9100D01*
X15178Y9080D01*
X15189Y9064D01*
X15205Y9053D01*
X15225Y9049D01*
X15245Y9053D01*
X15261Y9064D01*
X15272Y9080D01*
X15276Y9100D01*
X15272Y9120D01*
X15261Y9136D01*
X15245Y9147D01*
X15225Y9151D01*
D02*
G37*
G36*
X14175D02*
X14155Y9147D01*
X14139Y9136D01*
X14128Y9120D01*
X14124Y9100D01*
X14128Y9080D01*
X14139Y9064D01*
X14155Y9053D01*
X14175Y9049D01*
X14195Y9053D01*
X14211Y9064D01*
X14222Y9080D01*
X14226Y9100D01*
X14222Y9120D01*
X14211Y9136D01*
X14195Y9147D01*
X14175Y9151D01*
D02*
G37*
G36*
X13475D02*
X13455Y9147D01*
X13439Y9136D01*
X13428Y9120D01*
X13424Y9100D01*
X13428Y9080D01*
X13439Y9064D01*
X13455Y9053D01*
X13475Y9049D01*
X13495Y9053D01*
X13511Y9064D01*
X13522Y9080D01*
X13526Y9100D01*
X13522Y9120D01*
X13511Y9136D01*
X13495Y9147D01*
X13475Y9151D01*
D02*
G37*
G36*
X13125D02*
X13105Y9147D01*
X13089Y9136D01*
X13078Y9120D01*
X13074Y9100D01*
X13078Y9080D01*
X13089Y9064D01*
X13105Y9053D01*
X13125Y9049D01*
X13145Y9053D01*
X13161Y9064D01*
X13172Y9080D01*
X13176Y9100D01*
X13172Y9120D01*
X13161Y9136D01*
X13145Y9147D01*
X13125Y9151D01*
D02*
G37*
G36*
X12775D02*
X12755Y9147D01*
X12739Y9136D01*
X12728Y9120D01*
X12724Y9100D01*
X12728Y9080D01*
X12739Y9064D01*
X12755Y9053D01*
X12775Y9049D01*
X12795Y9053D01*
X12811Y9064D01*
X12822Y9080D01*
X12826Y9100D01*
X12822Y9120D01*
X12811Y9136D01*
X12795Y9147D01*
X12775Y9151D01*
D02*
G37*
G36*
X12425D02*
X12405Y9147D01*
X12389Y9136D01*
X12378Y9120D01*
X12374Y9100D01*
X12378Y9080D01*
X12389Y9064D01*
X12405Y9053D01*
X12425Y9049D01*
X12445Y9053D01*
X12461Y9064D01*
X12472Y9080D01*
X12476Y9100D01*
X12472Y9120D01*
X12461Y9136D01*
X12445Y9147D01*
X12425Y9151D01*
D02*
G37*
G36*
X10675D02*
X10655Y9147D01*
X10639Y9136D01*
X10628Y9120D01*
X10624Y9100D01*
X10628Y9080D01*
X10639Y9064D01*
X10655Y9053D01*
X10675Y9049D01*
X10695Y9053D01*
X10711Y9064D01*
X10722Y9080D01*
X10726Y9100D01*
X10722Y9120D01*
X10711Y9136D01*
X10695Y9147D01*
X10675Y9151D01*
D02*
G37*
G36*
X10325D02*
X10305Y9147D01*
X10289Y9136D01*
X10278Y9120D01*
X10274Y9100D01*
X10278Y9080D01*
X10289Y9064D01*
X10305Y9053D01*
X10325Y9049D01*
X10345Y9053D01*
X10361Y9064D01*
X10372Y9080D01*
X10376Y9100D01*
X10372Y9120D01*
X10361Y9136D01*
X10345Y9147D01*
X10325Y9151D01*
D02*
G37*
G36*
X9975D02*
X9955Y9147D01*
X9939Y9136D01*
X9928Y9120D01*
X9924Y9100D01*
X9928Y9080D01*
X9939Y9064D01*
X9955Y9053D01*
X9975Y9049D01*
X9995Y9053D01*
X10011Y9064D01*
X10022Y9080D01*
X10026Y9100D01*
X10022Y9120D01*
X10011Y9136D01*
X9995Y9147D01*
X9975Y9151D01*
D02*
G37*
G36*
X9275D02*
X9255Y9147D01*
X9239Y9136D01*
X9228Y9120D01*
X9224Y9100D01*
X9228Y9080D01*
X9239Y9064D01*
X9255Y9053D01*
X9275Y9049D01*
X9295Y9053D01*
X9311Y9064D01*
X9322Y9080D01*
X9326Y9100D01*
X9322Y9120D01*
X9311Y9136D01*
X9295Y9147D01*
X9275Y9151D01*
D02*
G37*
G36*
X8925D02*
X8905Y9147D01*
X8889Y9136D01*
X8878Y9120D01*
X8874Y9100D01*
X8878Y9080D01*
X8889Y9064D01*
X8905Y9053D01*
X8925Y9049D01*
X8945Y9053D01*
X8961Y9064D01*
X8972Y9080D01*
X8976Y9100D01*
X8972Y9120D01*
X8961Y9136D01*
X8945Y9147D01*
X8925Y9151D01*
D02*
G37*
G36*
X8225D02*
X8205Y9147D01*
X8189Y9136D01*
X8178Y9120D01*
X8174Y9100D01*
X8178Y9080D01*
X8189Y9064D01*
X8205Y9053D01*
X8225Y9049D01*
X8245Y9053D01*
X8261Y9064D01*
X8272Y9080D01*
X8276Y9100D01*
X8272Y9120D01*
X8261Y9136D01*
X8245Y9147D01*
X8225Y9151D01*
D02*
G37*
G36*
X9089Y9067D02*
X9058Y9063D01*
X9029Y9051D01*
X9004Y9031D01*
X8984Y9006D01*
X8972Y8977D01*
X8968Y8946D01*
X8972Y8915D01*
X8984Y8885D01*
X9004Y8860D01*
X9029Y8841D01*
X9058Y8829D01*
X9089Y8825D01*
X9121Y8829D01*
X9150Y8841D01*
X9175Y8860D01*
X9194Y8885D01*
X9206Y8915D01*
X9210Y8946D01*
X9206Y8977D01*
X9194Y9006D01*
X9175Y9031D01*
X9150Y9051D01*
X9121Y9063D01*
X9089Y9067D01*
D02*
G37*
G36*
X12097Y9074D02*
X12061Y9069D01*
X12027Y9055D01*
X11998Y9033D01*
X11975Y9004D01*
X11961Y8970D01*
X11956Y8933D01*
X11961Y8896D01*
X11975Y8862D01*
X11998Y8833D01*
X12027Y8811D01*
X12061Y8797D01*
X12097Y8792D01*
X12134Y8797D01*
X12168Y8811D01*
X12197Y8833D01*
X12220Y8862D01*
X12234Y8896D01*
X12239Y8933D01*
X12234Y8970D01*
X12220Y9004D01*
X12197Y9033D01*
X12168Y9055D01*
X12134Y9069D01*
X12097Y9074D01*
D02*
G37*
G36*
X10518D02*
X10481Y9069D01*
X10447Y9055D01*
X10418Y9033D01*
X10395Y9004D01*
X10381Y8970D01*
X10376Y8933D01*
X10381Y8896D01*
X10395Y8862D01*
X10418Y8833D01*
X10447Y8811D01*
X10481Y8797D01*
X10518Y8792D01*
X10554Y8797D01*
X10588Y8811D01*
X10617Y8833D01*
X10640Y8862D01*
X10654Y8896D01*
X10659Y8933D01*
X10654Y8970D01*
X10640Y9004D01*
X10617Y9033D01*
X10588Y9055D01*
X10554Y9069D01*
X10518Y9074D01*
D02*
G37*
G36*
X15750Y8801D02*
X15730Y8797D01*
X15714Y8786D01*
X15703Y8770D01*
X15699Y8750D01*
X15703Y8730D01*
X15714Y8714D01*
X15730Y8703D01*
X15750Y8699D01*
X15770Y8703D01*
X15786Y8714D01*
X15797Y8730D01*
X15801Y8750D01*
X15797Y8770D01*
X15786Y8786D01*
X15770Y8797D01*
X15750Y8801D01*
D02*
G37*
G36*
X15400D02*
X15380Y8797D01*
X15364Y8786D01*
X15353Y8770D01*
X15349Y8750D01*
X15353Y8730D01*
X15364Y8714D01*
X15380Y8703D01*
X15400Y8699D01*
X15420Y8703D01*
X15436Y8714D01*
X15447Y8730D01*
X15451Y8750D01*
X15447Y8770D01*
X15436Y8786D01*
X15420Y8797D01*
X15400Y8801D01*
D02*
G37*
G36*
X14700D02*
X14680Y8797D01*
X14664Y8786D01*
X14653Y8770D01*
X14649Y8750D01*
X14653Y8730D01*
X14664Y8714D01*
X14680Y8703D01*
X14700Y8699D01*
X14720Y8703D01*
X14736Y8714D01*
X14747Y8730D01*
X14751Y8750D01*
X14747Y8770D01*
X14736Y8786D01*
X14720Y8797D01*
X14700Y8801D01*
D02*
G37*
G36*
X13650D02*
X13630Y8797D01*
X13614Y8786D01*
X13603Y8770D01*
X13599Y8750D01*
X13603Y8730D01*
X13614Y8714D01*
X13630Y8703D01*
X13650Y8699D01*
X13670Y8703D01*
X13686Y8714D01*
X13697Y8730D01*
X13701Y8750D01*
X13697Y8770D01*
X13686Y8786D01*
X13670Y8797D01*
X13650Y8801D01*
D02*
G37*
G36*
X12950D02*
X12930Y8797D01*
X12914Y8786D01*
X12903Y8770D01*
X12899Y8750D01*
X12903Y8730D01*
X12914Y8714D01*
X12930Y8703D01*
X12950Y8699D01*
X12970Y8703D01*
X12986Y8714D01*
X12997Y8730D01*
X13001Y8750D01*
X12997Y8770D01*
X12986Y8786D01*
X12970Y8797D01*
X12950Y8801D01*
D02*
G37*
G36*
X12600D02*
X12580Y8797D01*
X12564Y8786D01*
X12553Y8770D01*
X12549Y8750D01*
X12553Y8730D01*
X12564Y8714D01*
X12580Y8703D01*
X12600Y8699D01*
X12620Y8703D01*
X12636Y8714D01*
X12647Y8730D01*
X12651Y8750D01*
X12647Y8770D01*
X12636Y8786D01*
X12620Y8797D01*
X12600Y8801D01*
D02*
G37*
G36*
X12250D02*
X12230Y8797D01*
X12214Y8786D01*
X12203Y8770D01*
X12199Y8750D01*
X12203Y8730D01*
X12214Y8714D01*
X12230Y8703D01*
X12250Y8699D01*
X12270Y8703D01*
X12286Y8714D01*
X12297Y8730D01*
X12301Y8750D01*
X12297Y8770D01*
X12286Y8786D01*
X12270Y8797D01*
X12250Y8801D01*
D02*
G37*
G36*
X11550D02*
X11530Y8797D01*
X11514Y8786D01*
X11503Y8770D01*
X11499Y8750D01*
X11503Y8730D01*
X11514Y8714D01*
X11530Y8703D01*
X11550Y8699D01*
X11570Y8703D01*
X11586Y8714D01*
X11597Y8730D01*
X11601Y8750D01*
X11597Y8770D01*
X11586Y8786D01*
X11570Y8797D01*
X11550Y8801D01*
D02*
G37*
G36*
X11200D02*
X11180Y8797D01*
X11164Y8786D01*
X11153Y8770D01*
X11149Y8750D01*
X11153Y8730D01*
X11164Y8714D01*
X11180Y8703D01*
X11200Y8699D01*
X11220Y8703D01*
X11236Y8714D01*
X11247Y8730D01*
X11251Y8750D01*
X11247Y8770D01*
X11236Y8786D01*
X11220Y8797D01*
X11200Y8801D01*
D02*
G37*
G36*
X10150D02*
X10130Y8797D01*
X10114Y8786D01*
X10103Y8770D01*
X10099Y8750D01*
X10103Y8730D01*
X10114Y8714D01*
X10130Y8703D01*
X10150Y8699D01*
X10170Y8703D01*
X10186Y8714D01*
X10197Y8730D01*
X10201Y8750D01*
X10197Y8770D01*
X10186Y8786D01*
X10170Y8797D01*
X10150Y8801D01*
D02*
G37*
G36*
X9800D02*
X9780Y8797D01*
X9764Y8786D01*
X9753Y8770D01*
X9749Y8750D01*
X9753Y8730D01*
X9764Y8714D01*
X9780Y8703D01*
X9800Y8699D01*
X9820Y8703D01*
X9836Y8714D01*
X9847Y8730D01*
X9851Y8750D01*
X9847Y8770D01*
X9836Y8786D01*
X9820Y8797D01*
X9800Y8801D01*
D02*
G37*
G36*
X9450D02*
X9430Y8797D01*
X9414Y8786D01*
X9403Y8770D01*
X9399Y8750D01*
X9403Y8730D01*
X9414Y8714D01*
X9430Y8703D01*
X9450Y8699D01*
X9470Y8703D01*
X9486Y8714D01*
X9497Y8730D01*
X9501Y8750D01*
X9497Y8770D01*
X9486Y8786D01*
X9470Y8797D01*
X9450Y8801D01*
D02*
G37*
G36*
X9100D02*
X9080Y8797D01*
X9064Y8786D01*
X9053Y8770D01*
X9049Y8750D01*
X9053Y8730D01*
X9064Y8714D01*
X9080Y8703D01*
X9100Y8699D01*
X9120Y8703D01*
X9136Y8714D01*
X9147Y8730D01*
X9151Y8750D01*
X9147Y8770D01*
X9136Y8786D01*
X9120Y8797D01*
X9100Y8801D01*
D02*
G37*
G36*
X8750D02*
X8730Y8797D01*
X8714Y8786D01*
X8703Y8770D01*
X8699Y8750D01*
X8703Y8730D01*
X8714Y8714D01*
X8730Y8703D01*
X8750Y8699D01*
X8770Y8703D01*
X8786Y8714D01*
X8797Y8730D01*
X8801Y8750D01*
X8797Y8770D01*
X8786Y8786D01*
X8770Y8797D01*
X8750Y8801D01*
D02*
G37*
G36*
X8400D02*
X8380Y8797D01*
X8364Y8786D01*
X8353Y8770D01*
X8349Y8750D01*
X8353Y8730D01*
X8364Y8714D01*
X8380Y8703D01*
X8400Y8699D01*
X8420Y8703D01*
X8436Y8714D01*
X8447Y8730D01*
X8451Y8750D01*
X8447Y8770D01*
X8436Y8786D01*
X8420Y8797D01*
X8400Y8801D01*
D02*
G37*
G36*
X11879Y8806D02*
X11844Y8803D01*
X11811Y8793D01*
X11780Y8776D01*
X11753Y8754D01*
X11731Y8727D01*
X11714Y8696D01*
X11704Y8663D01*
X11701Y8628D01*
X11704Y8593D01*
X11714Y8560D01*
X11731Y8529D01*
X11753Y8502D01*
X11780Y8480D01*
X11811Y8463D01*
X11844Y8453D01*
X11879Y8450D01*
X11914Y8453D01*
X11947Y8463D01*
X11978Y8480D01*
X12005Y8502D01*
X12027Y8529D01*
X12044Y8560D01*
X12054Y8593D01*
X12057Y8628D01*
X12054Y8663D01*
X12044Y8696D01*
X12027Y8727D01*
X12005Y8754D01*
X11978Y8776D01*
X11947Y8793D01*
X11914Y8803D01*
X11879Y8806D01*
D02*
G37*
G36*
X10736D02*
X10701Y8803D01*
X10668Y8793D01*
X10637Y8776D01*
X10610Y8754D01*
X10588Y8727D01*
X10571Y8696D01*
X10561Y8663D01*
X10558Y8628D01*
X10561Y8593D01*
X10571Y8560D01*
X10588Y8529D01*
X10610Y8502D01*
X10637Y8480D01*
X10668Y8463D01*
X10669Y8463D01*
X10669Y8450D01*
X10655Y8447D01*
X10639Y8436D01*
X10628Y8420D01*
X10624Y8400D01*
X10628Y8380D01*
X10639Y8364D01*
X10655Y8353D01*
X10675Y8349D01*
X10695Y8353D01*
X10711Y8364D01*
X10722Y8380D01*
X10726Y8400D01*
X10722Y8420D01*
X10711Y8436D01*
X10705Y8440D01*
X10710Y8452D01*
X10736Y8450D01*
X10771Y8453D01*
X10804Y8463D01*
X10835Y8480D01*
X10862Y8502D01*
X10884Y8529D01*
X10901Y8560D01*
X10911Y8593D01*
X10914Y8628D01*
X10911Y8663D01*
X10901Y8696D01*
X10884Y8727D01*
X10862Y8754D01*
X10835Y8776D01*
X10804Y8793D01*
X10771Y8803D01*
X10736Y8806D01*
D02*
G37*
G36*
X9114Y8622D02*
X9064D01*
X9034Y8618D01*
X9006Y8606D01*
X8982Y8588D01*
X8964Y8564D01*
X8952Y8536D01*
X8948Y8506D01*
X8952Y8476D01*
X8963Y8450D01*
X8959Y8444D01*
X8954Y8441D01*
X8945Y8447D01*
X8925Y8451D01*
X8905Y8447D01*
X8889Y8436D01*
X8878Y8420D01*
X8874Y8400D01*
X8878Y8380D01*
X8889Y8364D01*
X8905Y8353D01*
X8925Y8349D01*
X8945Y8353D01*
X8961Y8364D01*
X8972Y8380D01*
X8976Y8400D01*
X8973Y8416D01*
X8977Y8419D01*
X8984Y8422D01*
X9006Y8405D01*
X9034Y8394D01*
X9064Y8390D01*
X9114D01*
X9144Y8394D01*
X9172Y8405D01*
X9196Y8424D01*
X9215Y8448D01*
X9226Y8476D01*
X9230Y8506D01*
X9226Y8536D01*
X9215Y8564D01*
X9196Y8588D01*
X9172Y8606D01*
X9144Y8618D01*
X9114Y8622D01*
D02*
G37*
G36*
X15925Y8451D02*
X15905Y8447D01*
X15889Y8436D01*
X15878Y8420D01*
X15874Y8400D01*
X15878Y8380D01*
X15889Y8364D01*
X15905Y8353D01*
X15925Y8349D01*
X15945Y8353D01*
X15961Y8364D01*
X15972Y8380D01*
X15976Y8400D01*
X15972Y8420D01*
X15961Y8436D01*
X15945Y8447D01*
X15925Y8451D01*
D02*
G37*
G36*
X15575D02*
X15555Y8447D01*
X15539Y8436D01*
X15528Y8420D01*
X15524Y8400D01*
X15528Y8380D01*
X15539Y8364D01*
X15555Y8353D01*
X15575Y8349D01*
X15595Y8353D01*
X15611Y8364D01*
X15622Y8380D01*
X15626Y8400D01*
X15622Y8420D01*
X15611Y8436D01*
X15595Y8447D01*
X15575Y8451D01*
D02*
G37*
G36*
X15225D02*
X15205Y8447D01*
X15189Y8436D01*
X15178Y8420D01*
X15174Y8400D01*
X15178Y8380D01*
X15189Y8364D01*
X15205Y8353D01*
X15225Y8349D01*
X15245Y8353D01*
X15261Y8364D01*
X15272Y8380D01*
X15276Y8400D01*
X15272Y8420D01*
X15261Y8436D01*
X15245Y8447D01*
X15225Y8451D01*
D02*
G37*
G36*
X14175D02*
X14155Y8447D01*
X14139Y8436D01*
X14128Y8420D01*
X14124Y8400D01*
X14128Y8380D01*
X14139Y8364D01*
X14155Y8353D01*
X14175Y8349D01*
X14195Y8353D01*
X14211Y8364D01*
X14222Y8380D01*
X14226Y8400D01*
X14222Y8420D01*
X14211Y8436D01*
X14195Y8447D01*
X14175Y8451D01*
D02*
G37*
G36*
X13475D02*
X13455Y8447D01*
X13439Y8436D01*
X13428Y8420D01*
X13424Y8400D01*
X13428Y8380D01*
X13439Y8364D01*
X13455Y8353D01*
X13475Y8349D01*
X13495Y8353D01*
X13511Y8364D01*
X13522Y8380D01*
X13526Y8400D01*
X13522Y8420D01*
X13511Y8436D01*
X13495Y8447D01*
X13475Y8451D01*
D02*
G37*
G36*
X13125D02*
X13105Y8447D01*
X13089Y8436D01*
X13078Y8420D01*
X13074Y8400D01*
X13078Y8380D01*
X13089Y8364D01*
X13105Y8353D01*
X13125Y8349D01*
X13145Y8353D01*
X13161Y8364D01*
X13172Y8380D01*
X13176Y8400D01*
X13172Y8420D01*
X13161Y8436D01*
X13145Y8447D01*
X13125Y8451D01*
D02*
G37*
G36*
X12775D02*
X12755Y8447D01*
X12739Y8436D01*
X12728Y8420D01*
X12724Y8400D01*
X12728Y8380D01*
X12739Y8364D01*
X12755Y8353D01*
X12775Y8349D01*
X12795Y8353D01*
X12811Y8364D01*
X12822Y8380D01*
X12826Y8400D01*
X12822Y8420D01*
X12811Y8436D01*
X12795Y8447D01*
X12775Y8451D01*
D02*
G37*
G36*
X12425D02*
X12405Y8447D01*
X12389Y8436D01*
X12378Y8420D01*
X12374Y8400D01*
X12378Y8380D01*
X12389Y8364D01*
X12405Y8353D01*
X12425Y8349D01*
X12445Y8353D01*
X12461Y8364D01*
X12472Y8380D01*
X12476Y8400D01*
X12472Y8420D01*
X12461Y8436D01*
X12445Y8447D01*
X12425Y8451D01*
D02*
G37*
G36*
X12075D02*
X12055Y8447D01*
X12039Y8436D01*
X12028Y8420D01*
X12024Y8400D01*
X12028Y8380D01*
X12039Y8364D01*
X12055Y8353D01*
X12075Y8349D01*
X12095Y8353D01*
X12111Y8364D01*
X12122Y8380D01*
X12126Y8400D01*
X12122Y8420D01*
X12111Y8436D01*
X12095Y8447D01*
X12075Y8451D01*
D02*
G37*
G36*
X11725D02*
X11705Y8447D01*
X11689Y8436D01*
X11678Y8420D01*
X11674Y8400D01*
X11678Y8380D01*
X11689Y8364D01*
X11705Y8353D01*
X11725Y8349D01*
X11745Y8353D01*
X11761Y8364D01*
X11772Y8380D01*
X11776Y8400D01*
X11772Y8420D01*
X11761Y8436D01*
X11745Y8447D01*
X11725Y8451D01*
D02*
G37*
G36*
X11375D02*
X11355Y8447D01*
X11339Y8436D01*
X11328Y8420D01*
X11324Y8400D01*
X11328Y8380D01*
X11339Y8364D01*
X11355Y8353D01*
X11375Y8349D01*
X11395Y8353D01*
X11411Y8364D01*
X11422Y8380D01*
X11426Y8400D01*
X11422Y8420D01*
X11411Y8436D01*
X11395Y8447D01*
X11375Y8451D01*
D02*
G37*
G36*
X11025D02*
X11005Y8447D01*
X10989Y8436D01*
X10978Y8420D01*
X10974Y8400D01*
X10978Y8380D01*
X10989Y8364D01*
X11005Y8353D01*
X11025Y8349D01*
X11045Y8353D01*
X11061Y8364D01*
X11072Y8380D01*
X11076Y8400D01*
X11072Y8420D01*
X11061Y8436D01*
X11045Y8447D01*
X11025Y8451D01*
D02*
G37*
G36*
X10325D02*
X10305Y8447D01*
X10289Y8436D01*
X10278Y8420D01*
X10274Y8400D01*
X10278Y8380D01*
X10289Y8364D01*
X10305Y8353D01*
X10325Y8349D01*
X10345Y8353D01*
X10361Y8364D01*
X10372Y8380D01*
X10376Y8400D01*
X10372Y8420D01*
X10361Y8436D01*
X10345Y8447D01*
X10325Y8451D01*
D02*
G37*
G36*
X9975D02*
X9955Y8447D01*
X9939Y8436D01*
X9928Y8420D01*
X9924Y8400D01*
X9928Y8380D01*
X9939Y8364D01*
X9955Y8353D01*
X9975Y8349D01*
X9995Y8353D01*
X10011Y8364D01*
X10022Y8380D01*
X10026Y8400D01*
X10022Y8420D01*
X10011Y8436D01*
X9995Y8447D01*
X9975Y8451D01*
D02*
G37*
G36*
X9275D02*
X9255Y8447D01*
X9239Y8436D01*
X9228Y8420D01*
X9224Y8400D01*
X9228Y8380D01*
X9239Y8364D01*
X9255Y8353D01*
X9275Y8349D01*
X9295Y8353D01*
X9311Y8364D01*
X9322Y8380D01*
X9326Y8400D01*
X9322Y8420D01*
X9311Y8436D01*
X9295Y8447D01*
X9275Y8451D01*
D02*
G37*
G36*
X8225D02*
X8205Y8447D01*
X8189Y8436D01*
X8178Y8420D01*
X8174Y8400D01*
X8178Y8380D01*
X8189Y8364D01*
X8205Y8353D01*
X8225Y8349D01*
X8245Y8353D01*
X8261Y8364D01*
X8272Y8380D01*
X8276Y8400D01*
X8272Y8420D01*
X8261Y8436D01*
X8245Y8447D01*
X8225Y8451D01*
D02*
G37*
G36*
X14821Y8287D02*
X14796Y8284D01*
X14773Y8274D01*
X14753Y8259D01*
X14738Y8239D01*
X14728Y8216D01*
X14725Y8192D01*
X14728Y8167D01*
X14738Y8144D01*
X14753Y8124D01*
X14773Y8109D01*
X14796Y8099D01*
X14821Y8096D01*
X14846Y8099D01*
X14869Y8109D01*
X14889Y8124D01*
X14904Y8144D01*
X14913Y8167D01*
X14917Y8192D01*
X14913Y8216D01*
X14904Y8239D01*
X14889Y8259D01*
X14869Y8274D01*
X14846Y8284D01*
X14821Y8287D01*
D02*
G37*
G36*
X14567D02*
X14542Y8284D01*
X14519Y8274D01*
X14499Y8259D01*
X14484Y8239D01*
X14474Y8216D01*
X14471Y8192D01*
X14474Y8167D01*
X14484Y8144D01*
X14499Y8124D01*
X14519Y8109D01*
X14542Y8099D01*
X14567Y8096D01*
X14592Y8099D01*
X14615Y8109D01*
X14635Y8124D01*
X14650Y8144D01*
X14659Y8167D01*
X14663Y8192D01*
X14659Y8216D01*
X14650Y8239D01*
X14635Y8259D01*
X14615Y8274D01*
X14592Y8284D01*
X14567Y8287D01*
D02*
G37*
G36*
X13805D02*
X13780Y8284D01*
X13757Y8274D01*
X13737Y8259D01*
X13722Y8239D01*
X13712Y8216D01*
X13709Y8192D01*
X13712Y8167D01*
X13722Y8144D01*
X13737Y8124D01*
X13757Y8109D01*
X13780Y8099D01*
X13805Y8096D01*
X13830Y8099D01*
X13853Y8109D01*
X13873Y8124D01*
X13888Y8144D01*
X13897Y8167D01*
X13901Y8192D01*
X13897Y8216D01*
X13888Y8239D01*
X13873Y8259D01*
X13853Y8274D01*
X13830Y8284D01*
X13805Y8287D01*
D02*
G37*
G36*
X13551D02*
X13526Y8284D01*
X13503Y8274D01*
X13483Y8259D01*
X13468Y8239D01*
X13458Y8216D01*
X13455Y8192D01*
X13458Y8167D01*
X13468Y8144D01*
X13483Y8124D01*
X13503Y8109D01*
X13526Y8099D01*
X13551Y8096D01*
X13576Y8099D01*
X13599Y8109D01*
X13619Y8124D01*
X13634Y8144D01*
X13643Y8167D01*
X13647Y8192D01*
X13643Y8216D01*
X13634Y8239D01*
X13619Y8259D01*
X13599Y8274D01*
X13576Y8284D01*
X13551Y8287D01*
D02*
G37*
G36*
X12789D02*
X12764Y8284D01*
X12741Y8274D01*
X12721Y8259D01*
X12706Y8239D01*
X12696Y8216D01*
X12693Y8192D01*
X12696Y8167D01*
X12706Y8144D01*
X12721Y8124D01*
X12741Y8109D01*
X12764Y8099D01*
X12789Y8096D01*
X12814Y8099D01*
X12837Y8109D01*
X12857Y8124D01*
X12872Y8144D01*
X12881Y8167D01*
X12885Y8192D01*
X12881Y8216D01*
X12872Y8239D01*
X12857Y8259D01*
X12837Y8274D01*
X12814Y8284D01*
X12789Y8287D01*
D02*
G37*
%LPD*%
D118*
X15824Y10046D02*
D03*
X15570D02*
D03*
X15824Y9792D02*
D03*
X15570D02*
D03*
X13043Y8192D02*
D03*
D119*
X13335Y15812D02*
D03*
D125*
X8297Y13852D02*
D03*
X10583D02*
D03*
D127*
X11087Y11468D02*
D03*
X12624Y12662D02*
D03*
X14480Y15240D02*
D03*
X14044Y14865D02*
D03*
X13098Y13620D02*
D03*
X11594Y11996D02*
D03*
X13034Y14710D02*
D03*
X11350Y11190D02*
D03*
X15055Y12225D02*
D03*
X14237Y14529D02*
D03*
X11303Y13805D02*
D03*
X11239Y13322D02*
D03*
X10262Y10325D02*
D03*
X10185D02*
D03*
X10262Y10401D02*
D03*
X10185D02*
D03*
X10262Y10478D02*
D03*
X10185D02*
D03*
X10046Y9969D02*
D03*
X14707Y11125D02*
D03*
X15930Y11757D02*
D03*
X8522Y10757D02*
D03*
Y10655D02*
D03*
X14592Y11443D02*
D03*
X11595Y11252D02*
D03*
X10516Y10973D02*
D03*
X11436Y9862D02*
D03*
X12065Y10020D02*
D03*
X10858Y9868D02*
D03*
X12510Y12840D02*
D03*
X13335Y14541D02*
D03*
X8522Y10858D02*
D03*
X9182Y10046D02*
D03*
X11163Y12548D02*
D03*
X11176Y13043D02*
D03*
X12878Y12014D02*
D03*
X14961Y13030D02*
D03*
X15176Y11646D02*
D03*
X15049Y10579D02*
D03*
X14313Y11671D02*
D03*
X14186Y11011D02*
D03*
D129*
X15504Y9743D02*
X15566Y9805D01*
X10301Y13852D02*
X10583D01*
X10111Y13662D02*
X10301Y13852D01*
X10111Y13184D02*
Y13662D01*
X8522Y11595D02*
X10111Y13184D01*
X14028Y12225D02*
X15055D01*
X14011Y12243D02*
X14028Y12225D01*
X15055D02*
Y12237D01*
X15011Y12281D02*
X15055Y12237D01*
X11931Y10163D02*
X14011Y12243D01*
X15011Y12281D02*
Y12979D01*
X9300Y10163D02*
X11931D01*
X9182Y10046D02*
X9300Y10163D01*
X8707Y9743D02*
X15504D01*
X15570Y9792D02*
X15824D01*
X8462Y9988D02*
X8707Y9743D01*
X8462Y9988D02*
Y10595D01*
X8522Y10655D01*
Y10757D02*
Y10858D01*
Y10655D02*
Y10757D01*
Y10858D02*
Y11595D01*
X14961Y13030D02*
X15011Y12979D01*
M02*
