G04*
G04 #@! TF.GenerationSoftware,Altium Limited,Altium Designer,19.1.7 (138)*
G04*
G04 Layer_Color=32896*
%FSLAX42Y42*%
%MOMM*%
G71*
G01*
G75*
%ADD11C,0.25*%
%ADD13C,0.10*%
%ADD14C,0.30*%
%ADD15C,0.03*%
%ADD16C,0.15*%
%ADD17C,0.20*%
D11*
X15183Y11581D02*
G03*
X15183Y11581I-12J0D01*
G01*
D13*
X11572Y12647D02*
G03*
X11572Y12647I-5J0D01*
G01*
D14*
X8424Y13471D02*
Y15503D01*
X8170Y15503D02*
X8424Y15503D01*
X8170Y13471D02*
Y15503D01*
Y13471D02*
X8424D01*
X8170Y15249D02*
X8424D01*
X10456D02*
X10710D01*
X10456Y13471D02*
X10710D01*
X10456D02*
Y15503D01*
X10710Y15503D01*
Y13471D02*
Y15503D01*
X8170Y13217D02*
Y13471D01*
Y13217D02*
X10456D01*
X10710Y13471D01*
D15*
X9522Y15737D02*
Y15758D01*
Y15637D02*
Y15737D01*
X9511Y15635D02*
X9522Y15637D01*
X9501Y15630D02*
X9511Y15635D01*
X9492Y15624D02*
X9501Y15630D01*
X9484Y15617D02*
X9492Y15624D01*
X9478Y15608D02*
X9484Y15617D01*
X9473Y15598D02*
X9478Y15608D01*
X9470Y15587D02*
X9473Y15598D01*
X9469Y15576D02*
X9470Y15587D01*
X9469Y15576D02*
X9471Y15564D01*
X9474Y15552D01*
X9480Y15541D01*
X9487Y15532D01*
X9497Y15525D01*
X9507Y15519D01*
X9519Y15515D01*
X9531Y15514D01*
X9544Y15515D01*
X9555Y15519D01*
X9566Y15525D01*
X9575Y15532D01*
X9583Y15541D01*
X9589Y15552D01*
X9592Y15564D01*
X9593Y15576D01*
X9592Y15587D02*
X9593Y15576D01*
X9589Y15598D02*
X9592Y15587D01*
X9585Y15607D02*
X9589Y15598D01*
X9579Y15616D02*
X9585Y15607D01*
X9571Y15624D02*
X9579Y15616D01*
X9562Y15630D02*
X9571Y15624D01*
X9553Y15634D02*
X9562Y15630D01*
X9542Y15637D02*
X9553Y15634D01*
X9542Y15637D02*
Y15737D01*
X9654D01*
X9675D01*
X9786D01*
Y15637D02*
Y15737D01*
X9775Y15635D02*
X9786Y15637D01*
X9765Y15630D02*
X9775Y15635D01*
X9756Y15624D02*
X9765Y15630D01*
X9749Y15617D02*
X9756Y15624D01*
X9742Y15608D02*
X9749Y15617D01*
X9738Y15598D02*
X9742Y15608D01*
X9735Y15587D02*
X9738Y15598D01*
X9734Y15576D02*
X9735Y15587D01*
X9734Y15576D02*
X9735Y15564D01*
X9739Y15552D01*
X9744Y15541D01*
X9752Y15532D01*
X9761Y15525D01*
X9772Y15519D01*
X9783Y15515D01*
X9796Y15514D01*
X9808Y15515D01*
X9820Y15519D01*
X9830Y15525D01*
X9840Y15532D01*
X9847Y15541D01*
X9853Y15552D01*
X9857Y15564D01*
X9858Y15576D01*
X9857Y15587D02*
X9858Y15576D01*
X9854Y15598D02*
X9857Y15587D01*
X9849Y15607D02*
X9854Y15598D01*
X9843Y15616D02*
X9849Y15607D01*
X9836Y15624D02*
X9843Y15616D01*
X9827Y15630D02*
X9836Y15624D01*
X9817Y15634D02*
X9827Y15630D01*
X9807Y15637D02*
X9817Y15634D01*
X9807Y15637D02*
Y15737D01*
X9919D01*
X9939D01*
X10051D01*
Y15637D02*
Y15737D01*
X10040Y15635D02*
X10051Y15637D01*
X10030Y15630D02*
X10040Y15635D01*
X10022Y15624D02*
X10030Y15630D01*
X10014Y15617D02*
X10022Y15624D01*
X10008Y15608D02*
X10014Y15617D01*
X10003Y15598D02*
X10008Y15608D01*
X10000Y15587D02*
X10003Y15598D01*
X9999Y15576D02*
X10000Y15587D01*
X9999Y15576D02*
X10000Y15564D01*
X10004Y15552D01*
X10009Y15541D01*
X10017Y15532D01*
X10026Y15525D01*
X10037Y15519D01*
X10048Y15515D01*
X10061Y15514D01*
X10073Y15515D01*
X10085Y15519D01*
X10096Y15525D01*
X10105Y15532D01*
X10112Y15541D01*
X10118Y15552D01*
X10122Y15564D01*
X10123Y15576D01*
X10122Y15587D02*
X10123Y15576D01*
X10119Y15598D02*
X10122Y15587D01*
X10114Y15607D02*
X10119Y15598D01*
X10108Y15616D02*
X10114Y15607D01*
X10101Y15624D02*
X10108Y15616D01*
X10092Y15630D02*
X10101Y15624D01*
X10082Y15634D02*
X10092Y15630D01*
X10072Y15637D02*
X10082Y15634D01*
X10072Y15637D02*
X10072Y15677D01*
X10072Y15758D02*
X10072Y15677D01*
X9939Y15758D02*
X10072D01*
X9939D02*
Y15858D01*
X9950Y15861D01*
X9959Y15866D01*
X9968Y15872D01*
X9976Y15879D01*
X9982Y15888D01*
X9987Y15897D01*
X9989Y15908D01*
X9990Y15919D01*
X9989Y15932D02*
X9990Y15919D01*
X9986Y15943D02*
X9989Y15932D01*
X9980Y15954D02*
X9986Y15943D01*
X9972Y15963D02*
X9980Y15954D01*
X9963Y15971D02*
X9972Y15963D01*
X9953Y15976D02*
X9963Y15971D01*
X9941Y15980D02*
X9953Y15976D01*
X9928Y15981D02*
X9941Y15980D01*
X9916D02*
X9928Y15981D01*
X9904Y15976D02*
X9916Y15980D01*
X9894Y15971D02*
X9904Y15976D01*
X9884Y15963D02*
X9894Y15971D01*
X9877Y15954D02*
X9884Y15963D01*
X9871Y15943D02*
X9877Y15954D01*
X9868Y15932D02*
X9871Y15943D01*
X9866Y15919D02*
X9868Y15932D01*
X9866Y15919D02*
X9867Y15908D01*
X9870Y15897D01*
X9875Y15887D01*
X9881Y15879D01*
X9889Y15871D01*
X9898Y15865D01*
X9908Y15861D01*
X9919Y15858D01*
Y15758D02*
Y15858D01*
X9807Y15758D02*
X9919D01*
X9786D02*
X9807D01*
X9675D02*
X9786D01*
X9675D02*
Y15858D01*
X9685Y15861D01*
X9695Y15866D01*
X9704Y15872D01*
X9711Y15879D01*
X9717Y15888D01*
X9722Y15897D01*
X9725Y15908D01*
X9726Y15919D01*
X9725Y15932D02*
X9726Y15919D01*
X9721Y15943D02*
X9725Y15932D01*
X9715Y15954D02*
X9721Y15943D01*
X9708Y15963D02*
X9715Y15954D01*
X9699Y15971D02*
X9708Y15963D01*
X9688Y15976D02*
X9699Y15971D01*
X9676Y15980D02*
X9688Y15976D01*
X9664Y15981D02*
X9676Y15980D01*
X9651D02*
X9664Y15981D01*
X9640Y15976D02*
X9651Y15980D01*
X9629Y15971D02*
X9640Y15976D01*
X9620Y15963D02*
X9629Y15971D01*
X9612Y15954D02*
X9620Y15963D01*
X9607Y15943D02*
X9612Y15954D01*
X9603Y15932D02*
X9607Y15943D01*
X9602Y15919D02*
X9603Y15932D01*
X9602Y15919D02*
X9603Y15908D01*
X9606Y15897D01*
X9611Y15887D01*
X9617Y15879D01*
X9625Y15871D01*
X9633Y15865D01*
X9643Y15861D01*
X9654Y15858D01*
Y15758D02*
Y15858D01*
X9542Y15758D02*
X9654D01*
X9522D02*
X9542D01*
X9916Y15980D02*
X9941D01*
X9651D02*
X9677D01*
X9907Y15977D02*
X9950D01*
X9642D02*
X9685D01*
X9901Y15975D02*
X9956D01*
X9636D02*
X9691D01*
X9896Y15972D02*
X9960D01*
X9632D02*
X9696D01*
X9892Y15970D02*
X9964D01*
X9628D02*
X9700D01*
X9889Y15967D02*
X9968D01*
X9625D02*
X9703D01*
X9886Y15965D02*
X9971D01*
X9622D02*
X9706D01*
X9884Y15962D02*
X9973D01*
X9619D02*
X9709D01*
X9881Y15960D02*
X9975D01*
X9617D02*
X9711D01*
X9879Y15957D02*
X9978D01*
X9615D02*
X9713D01*
X9877Y15955D02*
X9979D01*
X9613D02*
X9715D01*
X9876Y15952D02*
X9981D01*
X9611D02*
X9717D01*
X9874Y15949D02*
X9983D01*
X9610D02*
X9718D01*
X9873Y15947D02*
X9984D01*
X9608D02*
X9719D01*
X9872Y15944D02*
X9985D01*
X9607D02*
X9721D01*
X9871Y15942D02*
X9986D01*
X9606D02*
X9722D01*
X9870Y15939D02*
X9987D01*
X9605D02*
X9723D01*
X9869Y15937D02*
X9988D01*
X9604D02*
X9723D01*
X9868Y15934D02*
X9989D01*
X9604D02*
X9724D01*
X9868Y15932D02*
X9989D01*
X9603D02*
X9725D01*
X9867Y15929D02*
X9990D01*
X9603D02*
X9725D01*
X9867Y15927D02*
X9990D01*
X9602D02*
X9726D01*
X9866Y15924D02*
X9990D01*
X9602D02*
X9726D01*
X9866Y15922D02*
X9990D01*
X9602D02*
X9726D01*
X9866Y15919D02*
X9990D01*
X9602D02*
X9726D01*
X9866Y15916D02*
X9990D01*
X9602D02*
X9726D01*
X9867Y15914D02*
X9990D01*
X9602D02*
X9726D01*
X9867Y15911D02*
X9990D01*
X9602D02*
X9725D01*
X9867Y15909D02*
X9990D01*
X9603D02*
X9725D01*
X9868Y15906D02*
X9989D01*
X9603D02*
X9725D01*
X9868Y15904D02*
X9989D01*
X9604D02*
X9724D01*
X9869Y15901D02*
X9988D01*
X9604D02*
X9723D01*
X9870Y15899D02*
X9987D01*
X9605D02*
X9722D01*
X9871Y15896D02*
X9986D01*
X9606D02*
X9722D01*
X9872Y15894D02*
X9985D01*
X9607D02*
X9720D01*
X9873Y15891D02*
X9984D01*
X9609D02*
X9719D01*
X9874Y15889D02*
X9982D01*
X9610D02*
X9718D01*
X9876Y15886D02*
X9981D01*
X9611D02*
X9716D01*
X9878Y15883D02*
X9979D01*
X9613D02*
X9715D01*
X9880Y15881D02*
X9977D01*
X9615D02*
X9713D01*
X9882Y15878D02*
X9975D01*
X9617D02*
X9711D01*
X9884Y15876D02*
X9973D01*
X9620D02*
X9708D01*
X9887Y15873D02*
X9970D01*
X9622D02*
X9706D01*
X9890Y15871D02*
X9967D01*
X9625D02*
X9703D01*
X9893Y15868D02*
X9964D01*
X9629D02*
X9699D01*
X9897Y15866D02*
X9960D01*
X9633D02*
X9695D01*
X9902Y15863D02*
X9955D01*
X9637D02*
X9690D01*
X9908Y15861D02*
X9949D01*
X9644D02*
X9684D01*
X9918Y15858D02*
X9939D01*
X9654D02*
X9675D01*
X9919Y15855D02*
X9939D01*
X9654D02*
X9675D01*
X9919Y15853D02*
X9939D01*
X9654D02*
X9675D01*
X9919Y15850D02*
X9939D01*
X9654D02*
X9675D01*
X9919Y15848D02*
X9939D01*
X9654D02*
X9675D01*
X9919Y15845D02*
X9939D01*
X9654D02*
X9675D01*
X9919Y15843D02*
X9939D01*
X9654D02*
X9675D01*
X9919Y15840D02*
X9939D01*
X9654D02*
X9675D01*
X9919Y15838D02*
X9939D01*
X9654D02*
X9675D01*
X9919Y15835D02*
X9939D01*
X9654D02*
X9675D01*
X9919Y15833D02*
X9939D01*
X9654D02*
X9675D01*
X9919Y15830D02*
X9939D01*
X9654D02*
X9675D01*
X9919Y15828D02*
X9939D01*
X9654D02*
X9675D01*
X9919Y15825D02*
X9939D01*
X9654D02*
X9675D01*
X9919Y15822D02*
X9939D01*
X9654D02*
X9675D01*
X9919Y15820D02*
X9939D01*
X9654D02*
X9675D01*
X9919Y15817D02*
X9939D01*
X9654D02*
X9675D01*
X9919Y15815D02*
X9939D01*
X9654D02*
X9675D01*
X9919Y15812D02*
X9939D01*
X9654D02*
X9675D01*
X9919Y15810D02*
X9939D01*
X9654D02*
X9675D01*
X9919Y15807D02*
X9939D01*
X9654D02*
X9675D01*
X9919Y15805D02*
X9939D01*
X9654D02*
X9675D01*
X9919Y15802D02*
X9939D01*
X9654D02*
X9675D01*
X9919Y15800D02*
X9939D01*
X9654D02*
X9675D01*
X9919Y15797D02*
X9939D01*
X9654D02*
X9675D01*
X9919Y15795D02*
X9939D01*
X9654D02*
X9675D01*
X9919Y15792D02*
X9939D01*
X9654D02*
X9675D01*
X9919Y15789D02*
X9939D01*
X9654D02*
X9675D01*
X9919Y15787D02*
X9939D01*
X9654D02*
X9675D01*
X9919Y15784D02*
X9939D01*
X9654D02*
X9675D01*
X9919Y15782D02*
X9939D01*
X9654D02*
X9675D01*
X9919Y15779D02*
X9939D01*
X9654D02*
X9675D01*
X9919Y15777D02*
X9939D01*
X9654D02*
X9675D01*
X9919Y15774D02*
X9939D01*
X9654D02*
X9675D01*
X9919Y15772D02*
X9939D01*
X9654D02*
X9675D01*
X9919Y15769D02*
X9939D01*
X9654D02*
X9675D01*
X9919Y15767D02*
X9939D01*
X9654D02*
X9675D01*
X9919Y15764D02*
X9939D01*
X9654D02*
X9675D01*
X9919Y15762D02*
X9939D01*
X9654D02*
X9675D01*
X9919Y15759D02*
X9939D01*
X9654D02*
X9675D01*
X9522Y15756D02*
X10072D01*
X9522Y15754D02*
X10072D01*
X9522Y15751D02*
X10072D01*
X9522Y15749D02*
X10072D01*
X9522Y15746D02*
X10072D01*
X9522Y15744D02*
X10072D01*
X9522Y15741D02*
X10072D01*
X9522Y15739D02*
X10072D01*
X10051Y15736D02*
X10072D01*
X9786D02*
X9807D01*
X9522D02*
X9542D01*
X10051Y15734D02*
X10072D01*
X9786D02*
X9807D01*
X9522D02*
X9542D01*
X10051Y15731D02*
X10072D01*
X9786D02*
X9807D01*
X9522D02*
X9542D01*
X10051Y15728D02*
X10072D01*
X9786D02*
X9807D01*
X9522D02*
X9542D01*
X10051Y15726D02*
X10072D01*
X9786D02*
X9807D01*
X9522D02*
X9542D01*
X10051Y15723D02*
X10072D01*
X9786D02*
X9807D01*
X9522D02*
X9542D01*
X10051Y15721D02*
X10072D01*
X9786D02*
X9807D01*
X9522D02*
X9542D01*
X10051Y15718D02*
X10072D01*
X9786D02*
X9807D01*
X9522D02*
X9542D01*
X10051Y15716D02*
X10072D01*
X9786D02*
X9807D01*
X9522D02*
X9542D01*
X10051Y15713D02*
X10072D01*
X9786D02*
X9807D01*
X9522D02*
X9542D01*
X10051Y15711D02*
X10072D01*
X9786D02*
X9807D01*
X9522D02*
X9542D01*
X10051Y15708D02*
X10072D01*
X9786D02*
X9807D01*
X9522D02*
X9542D01*
X10051Y15706D02*
X10072D01*
X9786D02*
X9807D01*
X9522D02*
X9542D01*
X10051Y15703D02*
X10072D01*
X9786D02*
X9807D01*
X9522D02*
X9542D01*
X10051Y15701D02*
X10072D01*
X9786D02*
X9807D01*
X9522D02*
X9542D01*
X10051Y15698D02*
X10072D01*
X9786D02*
X9807D01*
X9522D02*
X9542D01*
X10051Y15695D02*
X10072D01*
X9786D02*
X9807D01*
X9522D02*
X9542D01*
X10051Y15693D02*
X10072D01*
X9786D02*
X9807D01*
X9522D02*
X9542D01*
X10051Y15690D02*
X10072D01*
X9786D02*
X9807D01*
X9522D02*
X9542D01*
X10051Y15688D02*
X10072D01*
X9786D02*
X9807D01*
X9522D02*
X9542D01*
X10051Y15685D02*
X10072D01*
X9786D02*
X9807D01*
X9522D02*
X9542D01*
X10051Y15683D02*
X10072D01*
X9786D02*
X9807D01*
X9522D02*
X9542D01*
X10051Y15680D02*
X10072D01*
X9786D02*
X9807D01*
X9522D02*
X9542D01*
X10051Y15678D02*
X10072D01*
X9786D02*
X9807D01*
X9522D02*
X9542D01*
X10051Y15675D02*
X10072D01*
X9786D02*
X9807D01*
X9522D02*
X9542D01*
X10051Y15673D02*
X10072D01*
X9786D02*
X9807D01*
X9522D02*
X9542D01*
X10051Y15670D02*
X10072D01*
X9786D02*
X9807D01*
X9522D02*
X9542D01*
X10051Y15668D02*
X10072D01*
X9786D02*
X9807D01*
X9522D02*
X9542D01*
X10051Y15665D02*
X10072D01*
X9786D02*
X9807D01*
X9522D02*
X9542D01*
X10051Y15662D02*
X10072D01*
X9786D02*
X9807D01*
X9522D02*
X9542D01*
X10051Y15660D02*
X10072D01*
X9786D02*
X9807D01*
X9522D02*
X9542D01*
X10051Y15657D02*
X10072D01*
X9786D02*
X9807D01*
X9522D02*
X9542D01*
X10051Y15655D02*
X10072D01*
X9786D02*
X9807D01*
X9522D02*
X9542D01*
X10051Y15652D02*
X10072D01*
X9786D02*
X9807D01*
X9522D02*
X9542D01*
X10051Y15650D02*
X10072D01*
X9786D02*
X9807D01*
X9522D02*
X9542D01*
X10051Y15647D02*
X10072D01*
X9786D02*
X9807D01*
X9522D02*
X9542D01*
X10051Y15645D02*
X10072D01*
X9786D02*
X9807D01*
X9522D02*
X9542D01*
X10051Y15642D02*
X10072D01*
X9786D02*
X9807D01*
X9522D02*
X9542D01*
X10051Y15640D02*
X10072D01*
X9786D02*
X9807D01*
X9522D02*
X9542D01*
X10050Y15637D02*
X10072D01*
X9785D02*
X9807D01*
X9520D02*
X9543D01*
X10040Y15635D02*
X10082D01*
X9775D02*
X9817D01*
X9511D02*
X9552D01*
X10034Y15632D02*
X10088D01*
X9769D02*
X9823D01*
X9504D02*
X9558D01*
X10029Y15629D02*
X10093D01*
X9764D02*
X9827D01*
X9500D02*
X9563D01*
X10025Y15627D02*
X10096D01*
X9760D02*
X9831D01*
X9496D02*
X9567D01*
X10022Y15624D02*
X10100D01*
X9757D02*
X9835D01*
X9492D02*
X9570D01*
X10019Y15622D02*
X10103D01*
X9754D02*
X9838D01*
X9489D02*
X9573D01*
X10016Y15619D02*
X10105D01*
X9751D02*
X9840D01*
X9487D02*
X9576D01*
X10014Y15617D02*
X10108D01*
X9749D02*
X9843D01*
X9484D02*
X9578D01*
X10012Y15614D02*
X10110D01*
X9747D02*
X9845D01*
X9482D02*
X9580D01*
X10010Y15612D02*
X10112D01*
X9745D02*
X9847D01*
X9480D02*
X9582D01*
X10008Y15609D02*
X10113D01*
X9743D02*
X9848D01*
X9479D02*
X9584D01*
X10007Y15607D02*
X10115D01*
X9742D02*
X9850D01*
X9477D02*
X9585D01*
X10005Y15604D02*
X10116D01*
X9740D02*
X9851D01*
X9476D02*
X9587D01*
X10004Y15601D02*
X10118D01*
X9739D02*
X9852D01*
X9475D02*
X9588D01*
X10003Y15599D02*
X10119D01*
X9738D02*
X9853D01*
X9474D02*
X9589D01*
X10002Y15596D02*
X10120D01*
X9737D02*
X9854D01*
X9473D02*
X9590D01*
X10001Y15594D02*
X10120D01*
X9736D02*
X9855D01*
X9472D02*
X9591D01*
X10001Y15591D02*
X10121D01*
X9736D02*
X9856D01*
X9471D02*
X9591D01*
X10000Y15589D02*
X10122D01*
X9735D02*
X9857D01*
X9471D02*
X9592D01*
X10000Y15586D02*
X10122D01*
X9735D02*
X9857D01*
X9470D02*
X9593D01*
X9999Y15584D02*
X10123D01*
X9734D02*
X9857D01*
X9470D02*
X9593D01*
X9999Y15581D02*
X10123D01*
X9734D02*
X9858D01*
X9469D02*
X9593D01*
X9999Y15579D02*
X10123D01*
X9734D02*
X9858D01*
X9469D02*
X9593D01*
X9999Y15576D02*
X10123D01*
X9734D02*
X9858D01*
X9469D02*
X9593D01*
X9999Y15574D02*
X10123D01*
X9734D02*
X9858D01*
X9469D02*
X9593D01*
X9999Y15571D02*
X10123D01*
X9734D02*
X9858D01*
X9469D02*
X9593D01*
X9999Y15568D02*
X10123D01*
X9734D02*
X9857D01*
X9470D02*
X9593D01*
X10000Y15566D02*
X10122D01*
X9735D02*
X9857D01*
X9470D02*
X9593D01*
X10000Y15563D02*
X10122D01*
X9735D02*
X9857D01*
X9471D02*
X9592D01*
X10001Y15561D02*
X10121D01*
X9736D02*
X9856D01*
X9471D02*
X9592D01*
X10001Y15558D02*
X10120D01*
X9736D02*
X9855D01*
X9472D02*
X9591D01*
X10002Y15556D02*
X10120D01*
X9737D02*
X9854D01*
X9473D02*
X9590D01*
X10003Y15553D02*
X10119D01*
X9738D02*
X9854D01*
X9474D02*
X9589D01*
X10004Y15551D02*
X10118D01*
X9739D02*
X9852D01*
X9475D02*
X9588D01*
X10005Y15548D02*
X10116D01*
X9740D02*
X9851D01*
X9476D02*
X9587D01*
X10007Y15546D02*
X10115D01*
X9742D02*
X9850D01*
X9477D02*
X9585D01*
X10008Y15543D02*
X10114D01*
X9743D02*
X9848D01*
X9479D02*
X9584D01*
X10010Y15541D02*
X10112D01*
X9745D02*
X9847D01*
X9480D02*
X9582D01*
X10012Y15538D02*
X10110D01*
X9747D02*
X9845D01*
X9482D02*
X9580D01*
X10014Y15535D02*
X10108D01*
X9749D02*
X9843D01*
X9484D02*
X9578D01*
X10016Y15533D02*
X10106D01*
X9751D02*
X9840D01*
X9487D02*
X9576D01*
X10019Y15530D02*
X10103D01*
X9754D02*
X9838D01*
X9489D02*
X9573D01*
X10022Y15528D02*
X10100D01*
X9757D02*
X9835D01*
X9492D02*
X9570D01*
X10025Y15525D02*
X10097D01*
X9760D02*
X9832D01*
X9496D02*
X9567D01*
X10029Y15523D02*
X10093D01*
X9764D02*
X9828D01*
X9499D02*
X9563D01*
X10034Y15520D02*
X10088D01*
X9769D02*
X9823D01*
X9504D02*
X9558D01*
X10040Y15518D02*
X10082D01*
X9775D02*
X9817D01*
X9510D02*
X9552D01*
X10049Y15515D02*
X10073D01*
X9784D02*
X9808D01*
X9519D02*
X9543D01*
D16*
X14846Y11646D02*
Y11688D01*
Y11646D02*
X14888D01*
X14846Y11943D02*
Y11986D01*
X14888D01*
X15143D02*
X15185D01*
Y11943D02*
Y11986D01*
Y11646D02*
Y11688D01*
X15143Y11646D02*
X15185D01*
X11689Y10782D02*
X11718D01*
X11573Y10782D02*
X11603Y10782D01*
X11718Y10782D02*
X11718Y10782D01*
X14389Y11196D02*
Y11216D01*
X14389Y11136D02*
Y11156D01*
X14389Y11323D02*
Y11343D01*
X14389Y11263D02*
Y11283D01*
X14389Y11450D02*
Y11470D01*
X14389Y11390D02*
Y11410D01*
X14389Y11577D02*
Y11597D01*
X14389Y11517D02*
Y11537D01*
X11704Y10513D02*
X11724D01*
X11644Y10513D02*
X11664D01*
X11590Y10513D02*
X11610D01*
X11530Y10513D02*
X11550D01*
X11361Y10513D02*
X11381D01*
X11301Y10513D02*
X11321D01*
X11475Y10513D02*
X11495D01*
X11415Y10513D02*
X11435D01*
X11399Y10932D02*
X11419D01*
X11339Y10932D02*
X11359D01*
X11526Y10932D02*
X11546D01*
X11466Y10932D02*
X11486D01*
X12450Y12520D02*
Y12540D01*
X12450Y12580D02*
Y12600D01*
X12190Y12580D02*
Y12600D01*
X12190Y12520D02*
Y12540D01*
X11382Y12707D02*
Y12727D01*
X11382Y12647D02*
Y12667D01*
X11382Y12580D02*
Y12600D01*
X11382Y12520D02*
Y12540D01*
X11288Y13513D02*
X11308D01*
X11348Y13513D02*
X11368D01*
X11348Y12890D02*
X11368D01*
X11288Y12891D02*
X11308D01*
X11564Y11811D02*
X11584D01*
X11504Y11811D02*
X11524D01*
X12838Y12217D02*
X12858D01*
X12898Y12217D02*
X12918D01*
X12987Y13551D02*
X13007D01*
X12927Y13551D02*
X12947D01*
X12657Y11821D02*
X12676D01*
X12597Y11821D02*
X12616D01*
X12529Y11821D02*
X12550D01*
X12470Y11821D02*
X12489D01*
X13114Y13284D02*
X13134D01*
X13054Y13284D02*
X13074D01*
X12987Y13284D02*
X13007D01*
X12927Y13284D02*
X12947D01*
X13488Y14574D02*
Y14594D01*
X13488Y14514D02*
Y14534D01*
X13488Y14688D02*
Y14709D01*
X13488Y14629D02*
Y14648D01*
X14049Y14712D02*
Y14732D01*
X14049Y14772D02*
Y14792D01*
X13734Y14910D02*
X13754D01*
X13674Y14910D02*
X13694D01*
X13869Y14910D02*
X13889D01*
X13809Y14910D02*
X13829D01*
X14051Y14584D02*
Y14604D01*
X14051Y14644D02*
Y14664D01*
X15251Y11796D02*
X15271D01*
X15311Y11796D02*
X15331D01*
X14770Y12080D02*
X14790D01*
X14710Y12080D02*
X14730D01*
X14552Y11239D02*
X14572D01*
X14612Y11239D02*
X14632D01*
X11831Y11074D02*
X11851D01*
X11771Y11074D02*
X11791D01*
X14349Y14336D02*
X14369D01*
X14409Y14336D02*
X14429D01*
X11415Y13513D02*
X11435D01*
X11475Y13513D02*
X11495D01*
X12965Y12217D02*
X12985D01*
X13025Y12217D02*
X13045D01*
X9389Y15807D02*
Y15857D01*
X9377D01*
X9364Y15845D01*
Y15807D01*
Y15845D01*
X9352Y15857D01*
X9339Y15845D01*
Y15807D01*
X9314D02*
X9289D01*
X9302D01*
Y15857D01*
X9314D01*
X9252Y15807D02*
Y15882D01*
Y15832D02*
X9214Y15857D01*
X9252Y15832D02*
X9214Y15807D01*
X9177Y15857D02*
Y15807D01*
Y15832D01*
X9164Y15845D01*
X9152Y15857D01*
X9139D01*
X9089Y15807D02*
X9064D01*
X9052Y15820D01*
Y15845D01*
X9064Y15857D01*
X9089D01*
X9102Y15845D01*
Y15820D01*
X9089Y15807D01*
X9389Y15603D02*
Y15528D01*
X9352D01*
X9339Y15541D01*
Y15553D01*
X9352Y15566D01*
X9389D01*
X9352D01*
X9339Y15578D01*
Y15591D01*
X9352Y15603D01*
X9389D01*
X9314D02*
Y15541D01*
X9302Y15528D01*
X9277D01*
X9264Y15541D01*
Y15603D01*
X9189Y15591D02*
X9202Y15603D01*
X9227D01*
X9239Y15591D01*
Y15578D01*
X9227Y15566D01*
X9202D01*
X9189Y15553D01*
Y15541D01*
X9202Y15528D01*
X9227D01*
X9239Y15541D01*
X10329Y15312D02*
Y15387D01*
X10292D01*
X10279Y15375D01*
Y15350D01*
X10292Y15337D01*
X10329D01*
X10254Y15387D02*
Y15312D01*
X10229Y15337D01*
X10204Y15312D01*
Y15387D01*
X10179Y15312D02*
Y15387D01*
X10154Y15362D01*
X10129Y15387D01*
Y15312D01*
X10329Y13826D02*
X10279D01*
X10304Y13851D02*
Y13801D01*
X10204Y13863D02*
X10254D01*
Y13826D01*
X10229Y13838D01*
X10217D01*
X10204Y13826D01*
Y13801D01*
X10217Y13788D01*
X10242D01*
X10254Y13801D01*
X10179Y13863D02*
Y13813D01*
X10154Y13788D01*
X10129Y13813D01*
Y13863D01*
X10279Y13597D02*
X10292Y13609D01*
X10317D01*
X10329Y13597D01*
Y13547D01*
X10317Y13534D01*
X10292D01*
X10279Y13547D01*
Y13572D01*
X10304D01*
X10254Y13534D02*
Y13609D01*
X10204Y13534D01*
Y13609D01*
X10179D02*
Y13534D01*
X10142D01*
X10129Y13547D01*
Y13597D01*
X10142Y13609D01*
X10179D01*
X10329Y14625D02*
X10279D01*
X10304D01*
Y14550D01*
X10254Y14625D02*
X10204Y14550D01*
Y14625D02*
X10254Y14550D01*
X10329Y14804D02*
Y14879D01*
X10292D01*
X10279Y14867D01*
Y14842D01*
X10292Y14829D01*
X10329D01*
X10304D02*
X10279Y14804D01*
X10254Y14879D02*
X10204Y14804D01*
Y14879D02*
X10254Y14804D01*
X10329Y15133D02*
X10304D01*
X10317D01*
Y15058D01*
X10329D01*
X10304D01*
X10267D02*
Y15133D01*
X10217Y15058D01*
Y15133D01*
X10192D02*
X10142D01*
X10167D01*
Y15058D01*
X10279Y14359D02*
X10292Y14371D01*
X10317D01*
X10329Y14359D01*
Y14346D01*
X10317Y14334D01*
X10292D01*
X10279Y14321D01*
Y14309D01*
X10292Y14296D01*
X10317D01*
X10329Y14309D01*
X10204Y14359D02*
X10217Y14371D01*
X10242D01*
X10254Y14359D01*
Y14309D01*
X10242Y14296D01*
X10217D01*
X10204Y14309D01*
X10179Y14371D02*
Y14296D01*
X10129D01*
X10279Y14105D02*
X10292Y14117D01*
X10317D01*
X10329Y14105D01*
Y14092D01*
X10317Y14080D01*
X10292D01*
X10279Y14067D01*
Y14055D01*
X10292Y14042D01*
X10317D01*
X10329Y14055D01*
X10254Y14117D02*
Y14042D01*
X10217D01*
X10204Y14055D01*
Y14105D01*
X10217Y14117D01*
X10254D01*
X10179Y14042D02*
Y14092D01*
X10154Y14117D01*
X10129Y14092D01*
Y14042D01*
Y14080D01*
X10179D01*
X8755Y15312D02*
Y15362D01*
X8730Y15387D01*
X8705Y15362D01*
Y15312D01*
Y15350D01*
X8755D01*
X8680Y15312D02*
Y15387D01*
X8630Y15312D01*
Y15387D01*
X8831Y13597D02*
X8844Y13609D01*
X8869D01*
X8881Y13597D01*
Y13547D01*
X8869Y13534D01*
X8844D01*
X8831Y13547D01*
Y13572D01*
X8856D01*
X8806Y13534D02*
Y13609D01*
X8756Y13534D01*
Y13609D01*
X8731D02*
Y13534D01*
X8694D01*
X8681Y13547D01*
Y13597D01*
X8694Y13609D01*
X8731D01*
X8958Y13826D02*
X8908D01*
X8933Y13851D02*
Y13801D01*
X8883Y13851D02*
X8870Y13863D01*
X8845D01*
X8833Y13851D01*
Y13838D01*
X8845Y13826D01*
X8858D01*
X8845D01*
X8833Y13813D01*
Y13801D01*
X8845Y13788D01*
X8870D01*
X8883Y13801D01*
X8808Y13788D02*
Y13801D01*
X8795D01*
Y13788D01*
X8808D01*
X8745Y13851D02*
X8733Y13863D01*
X8708D01*
X8695Y13851D01*
Y13838D01*
X8708Y13826D01*
X8720D01*
X8708D01*
X8695Y13813D01*
Y13801D01*
X8708Y13788D01*
X8733D01*
X8745Y13801D01*
X8670Y13863D02*
Y13813D01*
X8645Y13788D01*
X8620Y13813D01*
Y13863D01*
X8928Y14042D02*
Y14117D01*
X8903Y14092D01*
X8878Y14117D01*
Y14042D01*
X8815Y14117D02*
X8840D01*
X8853Y14105D01*
Y14055D01*
X8840Y14042D01*
X8815D01*
X8803Y14055D01*
Y14105D01*
X8815Y14117D01*
X8728Y14105D02*
X8740Y14117D01*
X8765D01*
X8778Y14105D01*
Y14092D01*
X8765Y14080D01*
X8740D01*
X8728Y14067D01*
Y14055D01*
X8740Y14042D01*
X8765D01*
X8778Y14055D01*
X8703Y14117D02*
X8678D01*
X8690D01*
Y14042D01*
X8703D01*
X8678D01*
X8817Y14613D02*
X8829Y14625D01*
X8854D01*
X8867Y14613D01*
Y14600D01*
X8854Y14588D01*
X8829D01*
X8817Y14575D01*
Y14563D01*
X8829Y14550D01*
X8854D01*
X8867Y14563D01*
X8742Y14613D02*
X8754Y14625D01*
X8779D01*
X8792Y14613D01*
Y14563D01*
X8779Y14550D01*
X8754D01*
X8742Y14563D01*
X8717Y14625D02*
Y14550D01*
Y14575D01*
X8667Y14625D01*
X8704Y14588D01*
X8667Y14550D01*
X8935Y14296D02*
Y14371D01*
X8910Y14346D01*
X8885Y14371D01*
Y14296D01*
X8860Y14371D02*
X8835D01*
X8848D01*
Y14296D01*
X8860D01*
X8835D01*
X8748Y14359D02*
X8760Y14371D01*
X8785D01*
X8798Y14359D01*
Y14346D01*
X8785Y14334D01*
X8760D01*
X8748Y14321D01*
Y14309D01*
X8760Y14296D01*
X8785D01*
X8798Y14309D01*
X8685Y14371D02*
X8710D01*
X8723Y14359D01*
Y14309D01*
X8710Y14296D01*
X8685D01*
X8673Y14309D01*
Y14359D01*
X8685Y14371D01*
X8702Y14867D02*
X8714Y14879D01*
X8739D01*
X8752Y14867D01*
Y14817D01*
X8739Y14804D01*
X8714D01*
X8702Y14817D01*
X8627Y14867D02*
X8639Y14879D01*
X8664D01*
X8677Y14867D01*
Y14854D01*
X8664Y14842D01*
X8639D01*
X8627Y14829D01*
Y14817D01*
X8639Y14804D01*
X8664D01*
X8677Y14817D01*
X8850Y15058D02*
Y15133D01*
X8812D01*
X8800Y15121D01*
Y15096D01*
X8812Y15083D01*
X8850D01*
X8825D02*
X8800Y15058D01*
X8725Y15121D02*
X8737Y15133D01*
X8762D01*
X8775Y15121D01*
Y15108D01*
X8762Y15096D01*
X8737D01*
X8725Y15083D01*
Y15071D01*
X8737Y15058D01*
X8762D01*
X8775Y15071D01*
X8700Y15133D02*
X8650D01*
X8675D01*
Y15058D01*
X9529Y13471D02*
X9504D01*
X9517D01*
Y13546D01*
X9529Y13533D01*
X13156Y12166D02*
X13169Y12153D01*
Y12128D01*
X13156Y12116D01*
X13106D01*
X13094Y12128D01*
Y12153D01*
X13106Y12166D01*
X13169Y12191D02*
Y12241D01*
X13156D01*
X13106Y12191D01*
X13094D01*
X13156Y12266D02*
X13169Y12278D01*
Y12303D01*
X13156Y12316D01*
X13144D01*
X13131Y12303D01*
Y12291D01*
Y12303D01*
X13119Y12316D01*
X13106D01*
X13094Y12303D01*
Y12278D01*
X13106Y12266D01*
X11480Y13220D02*
X11492Y13207D01*
Y13182D01*
X11480Y13170D01*
X11430D01*
X11417Y13182D01*
Y13207D01*
X11430Y13220D01*
X11492Y13245D02*
Y13295D01*
X11480D01*
X11430Y13245D01*
X11417D01*
Y13370D02*
Y13320D01*
X11467Y13370D01*
X11480D01*
X11492Y13357D01*
Y13332D01*
X11480Y13320D01*
X11875Y13397D02*
Y13335D01*
X11862Y13322D01*
X11837D01*
X11825Y13335D01*
Y13397D01*
X11750D02*
X11800D01*
Y13360D01*
X11775Y13372D01*
X11762D01*
X11750Y13360D01*
Y13335D01*
X11762Y13322D01*
X11787D01*
X11800Y13335D01*
X14787Y11929D02*
Y11866D01*
X14774Y11854D01*
X14749D01*
X14737Y11866D01*
Y11929D01*
X14712Y11854D02*
X14687D01*
X14699D01*
Y11929D01*
X14712Y11916D01*
X14207Y14985D02*
X14282D01*
Y15022D01*
X14269Y15035D01*
X14244D01*
X14232Y15022D01*
Y14985D01*
Y15010D02*
X14207Y15035D01*
X14282Y15110D02*
X14269Y15085D01*
X14244Y15060D01*
X14219D01*
X14207Y15072D01*
Y15097D01*
X14219Y15110D01*
X14232D01*
X14244Y15097D01*
Y15060D01*
X14282Y15185D02*
X14269Y15160D01*
X14244Y15135D01*
X14219D01*
X14207Y15147D01*
Y15172D01*
X14219Y15185D01*
X14232D01*
X14244Y15172D01*
Y15135D01*
X9246Y10363D02*
Y10438D01*
X9208D01*
X9196Y10426D01*
Y10401D01*
X9208Y10388D01*
X9246D01*
X9221D02*
X9196Y10363D01*
X9121Y10438D02*
X9146Y10426D01*
X9171Y10401D01*
Y10376D01*
X9158Y10363D01*
X9133D01*
X9121Y10376D01*
Y10388D01*
X9133Y10401D01*
X9171D01*
X9096Y10426D02*
X9083Y10438D01*
X9058D01*
X9046Y10426D01*
Y10376D01*
X9058Y10363D01*
X9083D01*
X9096Y10376D01*
Y10426D01*
X9652Y10693D02*
Y10768D01*
X9615D01*
X9602Y10756D01*
Y10731D01*
X9615Y10718D01*
X9652D01*
X9627D02*
X9602Y10693D01*
X9527Y10768D02*
X9577D01*
Y10731D01*
X9552Y10743D01*
X9540D01*
X9527Y10731D01*
Y10706D01*
X9540Y10693D01*
X9565D01*
X9577Y10706D01*
X9502Y10768D02*
X9452D01*
Y10756D01*
X9502Y10706D01*
Y10693D01*
X14478Y14237D02*
X14553D01*
Y14274D01*
X14540Y14287D01*
X14515D01*
X14503Y14274D01*
Y14237D01*
Y14262D02*
X14478Y14287D01*
X14553Y14362D02*
Y14312D01*
X14515D01*
X14528Y14337D01*
Y14349D01*
X14515Y14362D01*
X14490D01*
X14478Y14349D01*
Y14324D01*
X14490Y14312D01*
X14478Y14387D02*
Y14412D01*
Y14399D01*
X14553D01*
X14540Y14387D01*
X11900Y10986D02*
X11975D01*
Y11023D01*
X11962Y11035D01*
X11937D01*
X11925Y11023D01*
Y10986D01*
Y11010D02*
X11900Y11035D01*
X11962Y11060D02*
X11975Y11073D01*
Y11098D01*
X11962Y11110D01*
X11950D01*
X11937Y11098D01*
Y11085D01*
Y11098D01*
X11925Y11110D01*
X11912D01*
X11900Y11098D01*
Y11073D01*
X11912Y11060D01*
X11975Y11185D02*
X11962Y11160D01*
X11937Y11135D01*
X11912D01*
X11900Y11148D01*
Y11173D01*
X11912Y11185D01*
X11925D01*
X11937Y11173D01*
Y11135D01*
X13424Y15151D02*
X13499D01*
Y15189D01*
X13486Y15201D01*
X13461D01*
X13449Y15189D01*
Y15151D01*
Y15176D02*
X13424Y15201D01*
X13486Y15226D02*
X13499Y15239D01*
Y15264D01*
X13486Y15276D01*
X13474D01*
X13461Y15264D01*
Y15251D01*
Y15264D01*
X13449Y15276D01*
X13436D01*
X13424Y15264D01*
Y15239D01*
X13436Y15226D01*
X13424Y15301D02*
Y15326D01*
Y15314D01*
X13499D01*
X13486Y15301D01*
X12941Y15138D02*
X13016D01*
Y15176D01*
X13004Y15188D01*
X12979D01*
X12966Y15176D01*
Y15138D01*
Y15163D02*
X12941Y15188D01*
X13004Y15213D02*
X13016Y15226D01*
Y15251D01*
X13004Y15263D01*
X12991D01*
X12979Y15251D01*
Y15238D01*
Y15251D01*
X12966Y15263D01*
X12954D01*
X12941Y15251D01*
Y15226D01*
X12954Y15213D01*
X13004Y15288D02*
X13016Y15301D01*
Y15326D01*
X13004Y15338D01*
X12954D01*
X12941Y15326D01*
Y15301D01*
X12954Y15288D01*
X13004D01*
X15062Y12129D02*
Y12203D01*
X15025D01*
X15012Y12191D01*
Y12166D01*
X15025Y12153D01*
X15062D01*
X15037D02*
X15012Y12129D01*
X14987D02*
X14962D01*
X14975D01*
Y12203D01*
X14987Y12191D01*
X14875Y12129D02*
X14925D01*
X14875Y12178D01*
Y12191D01*
X14887Y12203D01*
X14912D01*
X14925Y12191D01*
X14580Y11980D02*
X14655D01*
Y12017D01*
X14642Y12030D01*
X14617D01*
X14605Y12017D01*
Y11980D01*
Y12005D02*
X14580Y12030D01*
Y12055D02*
Y12080D01*
Y12067D01*
X14655D01*
X14642Y12055D01*
Y12117D02*
X14655Y12130D01*
Y12155D01*
X14642Y12167D01*
X14592D01*
X14580Y12155D01*
Y12130D01*
X14592Y12117D01*
X14642D01*
X14923Y10770D02*
Y10845D01*
X14885D01*
X14873Y10832D01*
Y10807D01*
X14885Y10795D01*
X14923D01*
X14898D02*
X14873Y10770D01*
X14848Y10782D02*
X14835Y10770D01*
X14810D01*
X14798Y10782D01*
Y10832D01*
X14810Y10845D01*
X14835D01*
X14848Y10832D01*
Y10820D01*
X14835Y10807D01*
X14798D01*
X14681Y11176D02*
X14756D01*
Y11213D01*
X14744Y11226D01*
X14719D01*
X14706Y11213D01*
Y11176D01*
Y11201D02*
X14681Y11226D01*
X14744Y11251D02*
X14756Y11263D01*
Y11288D01*
X14744Y11301D01*
X14731D01*
X14719Y11288D01*
X14706Y11301D01*
X14694D01*
X14681Y11288D01*
Y11263D01*
X14694Y11251D01*
X14706D01*
X14719Y11263D01*
X14731Y11251D01*
X14744D01*
X14719Y11263D02*
Y11288D01*
X14725Y12235D02*
X14800D01*
Y12272D01*
X14787Y12285D01*
X14762D01*
X14750Y12272D01*
Y12235D01*
Y12260D02*
X14725Y12285D01*
X14800Y12360D02*
X14787Y12335D01*
X14762Y12310D01*
X14737D01*
X14725Y12322D01*
Y12347D01*
X14737Y12360D01*
X14750D01*
X14762Y12347D01*
Y12310D01*
X15380Y11747D02*
X15455D01*
Y11785D01*
X15442Y11797D01*
X15417D01*
X15405Y11785D01*
Y11747D01*
Y11772D02*
X15380Y11797D01*
Y11860D02*
X15455D01*
X15417Y11822D01*
Y11872D01*
X14238Y14859D02*
Y14909D01*
X14250Y14921D01*
X14275D01*
X14288Y14909D01*
Y14859D01*
X14275Y14846D01*
X14250D01*
X14263Y14871D02*
X14238Y14846D01*
X14250D02*
X14238Y14859D01*
X14163Y14921D02*
X14213D01*
Y14884D01*
X14188Y14896D01*
X14175D01*
X14163Y14884D01*
Y14859D01*
X14175Y14846D01*
X14200D01*
X14213Y14859D01*
X11835Y10794D02*
Y10744D01*
X11798D01*
Y10769D01*
Y10744D01*
X11760D01*
Y10819D02*
Y10844D01*
Y10832D01*
X11835D01*
X11823Y10819D01*
X13945Y15556D02*
X13958Y15569D01*
X13983D01*
X13995Y15556D01*
Y15506D01*
X13983Y15494D01*
X13958D01*
X13945Y15506D01*
X13870Y15569D02*
X13895Y15556D01*
X13920Y15531D01*
Y15506D01*
X13908Y15494D01*
X13883D01*
X13870Y15506D01*
Y15519D01*
X13883Y15531D01*
X13920D01*
X13845Y15569D02*
X13795D01*
Y15556D01*
X13845Y15506D01*
Y15494D01*
X13958Y15429D02*
X13971Y15442D01*
X13996D01*
X14008Y15429D01*
Y15379D01*
X13996Y15367D01*
X13971D01*
X13958Y15379D01*
X13883Y15442D02*
X13908Y15429D01*
X13933Y15404D01*
Y15379D01*
X13921Y15367D01*
X13896D01*
X13883Y15379D01*
Y15392D01*
X13896Y15404D01*
X13933D01*
X13808Y15442D02*
X13833Y15429D01*
X13858Y15404D01*
Y15379D01*
X13846Y15367D01*
X13821D01*
X13808Y15379D01*
Y15392D01*
X13821Y15404D01*
X13858D01*
X14099Y14523D02*
X14112Y14535D01*
X14137D01*
X14149Y14523D01*
Y14473D01*
X14137Y14460D01*
X14112D01*
X14099Y14473D01*
X14024Y14535D02*
X14049Y14523D01*
X14074Y14498D01*
Y14473D01*
X14062Y14460D01*
X14037D01*
X14024Y14473D01*
Y14485D01*
X14037Y14498D01*
X14074D01*
X13950Y14535D02*
X14000D01*
Y14498D01*
X13975Y14510D01*
X13962D01*
X13950Y14498D01*
Y14473D01*
X13962Y14460D01*
X13987D01*
X14000Y14473D01*
X13885Y14604D02*
X13898Y14592D01*
Y14567D01*
X13885Y14554D01*
X13835D01*
X13823Y14567D01*
Y14592D01*
X13835Y14604D01*
X13898Y14679D02*
X13885Y14654D01*
X13860Y14629D01*
X13835D01*
X13823Y14642D01*
Y14667D01*
X13835Y14679D01*
X13848D01*
X13860Y14667D01*
Y14629D01*
X13823Y14742D02*
X13898D01*
X13860Y14704D01*
Y14754D01*
X13737Y14617D02*
X13750Y14605D01*
Y14580D01*
X13737Y14567D01*
X13687D01*
X13675Y14580D01*
Y14605D01*
X13687Y14617D01*
X13750Y14692D02*
X13737Y14667D01*
X13712Y14642D01*
X13687D01*
X13675Y14655D01*
Y14680D01*
X13687Y14692D01*
X13700D01*
X13712Y14680D01*
Y14642D01*
X13737Y14717D02*
X13750Y14730D01*
Y14755D01*
X13737Y14767D01*
X13725D01*
X13712Y14755D01*
Y14742D01*
Y14755D01*
X13700Y14767D01*
X13687D01*
X13675Y14755D01*
Y14730D01*
X13687Y14717D01*
X14366Y14776D02*
X14379Y14789D01*
X14404D01*
X14416Y14776D01*
Y14726D01*
X14404Y14714D01*
X14379D01*
X14366Y14726D01*
X14291Y14789D02*
X14316Y14776D01*
X14341Y14751D01*
Y14726D01*
X14329Y14714D01*
X14304D01*
X14291Y14726D01*
Y14739D01*
X14304Y14751D01*
X14341D01*
X14216Y14714D02*
X14266D01*
X14216Y14764D01*
Y14776D01*
X14229Y14789D01*
X14254D01*
X14266Y14776D01*
X14138Y15043D02*
X14151Y15030D01*
Y15005D01*
X14138Y14993D01*
X14088D01*
X14076Y15005D01*
Y15030D01*
X14088Y15043D01*
X14151Y15118D02*
X14138Y15093D01*
X14113Y15068D01*
X14088D01*
X14076Y15080D01*
Y15105D01*
X14088Y15118D01*
X14101D01*
X14113Y15105D01*
Y15068D01*
X14076Y15143D02*
Y15168D01*
Y15155D01*
X14151D01*
X14138Y15143D01*
X13539Y14820D02*
X13552Y14832D01*
X13577D01*
X13589Y14820D01*
Y14770D01*
X13577Y14757D01*
X13552D01*
X13539Y14770D01*
X13464Y14832D02*
X13489Y14820D01*
X13514Y14795D01*
Y14770D01*
X13502Y14757D01*
X13477D01*
X13464Y14770D01*
Y14782D01*
X13477Y14795D01*
X13514D01*
X13439Y14820D02*
X13427Y14832D01*
X13402D01*
X13389Y14820D01*
Y14770D01*
X13402Y14757D01*
X13427D01*
X13439Y14770D01*
Y14820D01*
X13539Y14452D02*
X13552Y14464D01*
X13577D01*
X13589Y14452D01*
Y14402D01*
X13577Y14389D01*
X13552D01*
X13539Y14402D01*
X13464Y14464D02*
X13514D01*
Y14427D01*
X13489Y14439D01*
X13477D01*
X13464Y14427D01*
Y14402D01*
X13477Y14389D01*
X13502D01*
X13514Y14402D01*
X13439D02*
X13427Y14389D01*
X13402D01*
X13389Y14402D01*
Y14452D01*
X13402Y14464D01*
X13427D01*
X13439Y14452D01*
Y14439D01*
X13427Y14427D01*
X13389D01*
X13987Y15033D02*
X14000Y15021D01*
Y14996D01*
X13987Y14983D01*
X13937D01*
X13925Y14996D01*
Y15021D01*
X13937Y15033D01*
X14000Y15108D02*
Y15058D01*
X13962D01*
X13975Y15083D01*
Y15096D01*
X13962Y15108D01*
X13937D01*
X13925Y15096D01*
Y15071D01*
X13937Y15058D01*
X13987Y15133D02*
X14000Y15146D01*
Y15171D01*
X13987Y15183D01*
X13975D01*
X13962Y15171D01*
X13950Y15183D01*
X13937D01*
X13925Y15171D01*
Y15146D01*
X13937Y15133D01*
X13950D01*
X13962Y15146D01*
X13975Y15133D01*
X13987D01*
X13962Y15146D02*
Y15171D01*
X13613Y15036D02*
X13626Y15023D01*
Y14998D01*
X13613Y14986D01*
X13563D01*
X13551Y14998D01*
Y15023D01*
X13563Y15036D01*
X13626Y15111D02*
Y15061D01*
X13588D01*
X13601Y15086D01*
Y15098D01*
X13588Y15111D01*
X13563D01*
X13551Y15098D01*
Y15073D01*
X13563Y15061D01*
X13626Y15186D02*
X13613Y15161D01*
X13588Y15136D01*
X13563D01*
X13551Y15148D01*
Y15173D01*
X13563Y15186D01*
X13576D01*
X13588Y15173D01*
Y15136D01*
X13732Y15260D02*
X13745Y15247D01*
Y15222D01*
X13732Y15210D01*
X13682D01*
X13670Y15222D01*
Y15247D01*
X13682Y15260D01*
X13745Y15335D02*
Y15285D01*
X13707D01*
X13720Y15310D01*
Y15322D01*
X13707Y15335D01*
X13682D01*
X13670Y15322D01*
Y15297D01*
X13682Y15285D01*
X13745Y15410D02*
Y15360D01*
X13707D01*
X13720Y15385D01*
Y15397D01*
X13707Y15410D01*
X13682D01*
X13670Y15397D01*
Y15372D01*
X13682Y15360D01*
X9537Y10286D02*
X9549Y10274D01*
Y10249D01*
X9537Y10236D01*
X9487D01*
X9474Y10249D01*
Y10274D01*
X9487Y10286D01*
X9549Y10361D02*
Y10311D01*
X9512D01*
X9524Y10336D01*
Y10349D01*
X9512Y10361D01*
X9487D01*
X9474Y10349D01*
Y10324D01*
X9487Y10311D01*
X9474Y10436D02*
Y10386D01*
X9524Y10436D01*
X9537D01*
X9549Y10424D01*
Y10399D01*
X9537Y10386D01*
X9602Y10629D02*
X9615Y10641D01*
X9640D01*
X9652Y10629D01*
Y10579D01*
X9640Y10566D01*
X9615D01*
X9602Y10579D01*
X9540Y10566D02*
Y10641D01*
X9577Y10604D01*
X9527D01*
X9452Y10641D02*
X9477Y10629D01*
X9502Y10604D01*
Y10579D01*
X9490Y10566D01*
X9465D01*
X9452Y10579D01*
Y10591D01*
X9465Y10604D01*
X9502D01*
X12991Y12991D02*
X13004Y12979D01*
Y12954D01*
X12991Y12941D01*
X12941D01*
X12929Y12954D01*
Y12979D01*
X12941Y12991D01*
X12991Y13016D02*
X13004Y13029D01*
Y13054D01*
X12991Y13066D01*
X12979D01*
X12966Y13054D01*
Y13041D01*
Y13054D01*
X12954Y13066D01*
X12941D01*
X12929Y13054D01*
Y13029D01*
X12941Y13016D01*
X13004Y13091D02*
Y13141D01*
X12991D01*
X12941Y13091D01*
X12929D01*
X13118Y12991D02*
X13131Y12979D01*
Y12954D01*
X13118Y12941D01*
X13068D01*
X13056Y12954D01*
Y12979D01*
X13068Y12991D01*
X13118Y13016D02*
X13131Y13029D01*
Y13054D01*
X13118Y13066D01*
X13106D01*
X13093Y13054D01*
Y13041D01*
Y13054D01*
X13081Y13066D01*
X13068D01*
X13056Y13054D01*
Y13029D01*
X13068Y13016D01*
X13131Y13141D02*
X13118Y13116D01*
X13093Y13091D01*
X13068D01*
X13056Y13104D01*
Y13129D01*
X13068Y13141D01*
X13081D01*
X13093Y13129D01*
Y13091D01*
X12407Y11772D02*
X12419Y11760D01*
Y11735D01*
X12407Y11722D01*
X12357D01*
X12344Y11735D01*
Y11760D01*
X12357Y11772D01*
X12407Y11797D02*
X12419Y11810D01*
Y11835D01*
X12407Y11847D01*
X12394D01*
X12382Y11835D01*
Y11822D01*
Y11835D01*
X12369Y11847D01*
X12357D01*
X12344Y11835D01*
Y11810D01*
X12357Y11797D01*
X12419Y11922D02*
Y11872D01*
X12382D01*
X12394Y11897D01*
Y11910D01*
X12382Y11922D01*
X12357D01*
X12344Y11910D01*
Y11885D01*
X12357Y11872D01*
X12788Y11785D02*
X12800Y11772D01*
Y11747D01*
X12788Y11735D01*
X12738D01*
X12725Y11747D01*
Y11772D01*
X12738Y11785D01*
X12788Y11810D02*
X12800Y11822D01*
Y11847D01*
X12788Y11860D01*
X12775D01*
X12763Y11847D01*
Y11835D01*
Y11847D01*
X12750Y11860D01*
X12738D01*
X12725Y11847D01*
Y11822D01*
X12738Y11810D01*
X12725Y11922D02*
X12800D01*
X12763Y11885D01*
Y11935D01*
X12864Y13512D02*
X12877Y13499D01*
Y13474D01*
X12864Y13462D01*
X12814D01*
X12802Y13474D01*
Y13499D01*
X12814Y13512D01*
X12864Y13537D02*
X12877Y13549D01*
Y13574D01*
X12864Y13587D01*
X12852D01*
X12839Y13574D01*
Y13562D01*
Y13574D01*
X12827Y13587D01*
X12814D01*
X12802Y13574D01*
Y13549D01*
X12814Y13537D01*
X12802Y13662D02*
Y13612D01*
X12852Y13662D01*
X12864D01*
X12877Y13649D01*
Y13624D01*
X12864Y13612D01*
X12775Y12178D02*
X12788Y12166D01*
Y12141D01*
X12775Y12129D01*
X12725D01*
X12713Y12141D01*
Y12166D01*
X12725Y12178D01*
X12775Y12203D02*
X12788Y12216D01*
Y12241D01*
X12775Y12253D01*
X12763D01*
X12750Y12241D01*
Y12228D01*
Y12241D01*
X12738Y12253D01*
X12725D01*
X12713Y12241D01*
Y12216D01*
X12725Y12203D01*
X12713Y12278D02*
Y12303D01*
Y12291D01*
X12788D01*
X12775Y12278D01*
X11696Y11759D02*
X11708Y11747D01*
Y11722D01*
X11696Y11709D01*
X11646D01*
X11633Y11722D01*
Y11747D01*
X11646Y11759D01*
X11696Y11784D02*
X11708Y11797D01*
Y11822D01*
X11696Y11834D01*
X11683D01*
X11671Y11822D01*
Y11809D01*
Y11822D01*
X11658Y11834D01*
X11646D01*
X11633Y11822D01*
Y11797D01*
X11646Y11784D01*
X11696Y11859D02*
X11708Y11872D01*
Y11897D01*
X11696Y11909D01*
X11646D01*
X11633Y11897D01*
Y11872D01*
X11646Y11859D01*
X11696D01*
X11226Y12839D02*
X11238Y12826D01*
Y12801D01*
X11226Y12789D01*
X11176D01*
X11163Y12801D01*
Y12826D01*
X11176Y12839D01*
X11163Y12914D02*
Y12864D01*
X11213Y12914D01*
X11226D01*
X11238Y12901D01*
Y12876D01*
X11226Y12864D01*
X11176Y12939D02*
X11163Y12951D01*
Y12976D01*
X11176Y12989D01*
X11226D01*
X11238Y12976D01*
Y12951D01*
X11226Y12939D01*
X11213D01*
X11201Y12951D01*
Y12989D01*
X11353Y13220D02*
X11365Y13207D01*
Y13182D01*
X11353Y13170D01*
X11303D01*
X11290Y13182D01*
Y13207D01*
X11303Y13220D01*
X11290Y13295D02*
Y13245D01*
X11340Y13295D01*
X11353D01*
X11365Y13282D01*
Y13257D01*
X11353Y13245D01*
X11365Y13320D02*
Y13370D01*
X11353D01*
X11303Y13320D01*
X11290D01*
X11444Y12458D02*
X11456Y12470D01*
X11481D01*
X11493Y12458D01*
Y12408D01*
X11481Y12395D01*
X11456D01*
X11444Y12408D01*
X11369Y12395D02*
X11419D01*
X11369Y12445D01*
Y12458D01*
X11381Y12470D01*
X11406D01*
X11419Y12458D01*
X11294Y12470D02*
X11319Y12458D01*
X11344Y12433D01*
Y12408D01*
X11331Y12395D01*
X11306D01*
X11294Y12408D01*
Y12420D01*
X11306Y12433D01*
X11344D01*
X11480Y12813D02*
X11492Y12801D01*
Y12776D01*
X11480Y12764D01*
X11430D01*
X11417Y12776D01*
Y12801D01*
X11430Y12813D01*
X11417Y12888D02*
Y12838D01*
X11467Y12888D01*
X11480D01*
X11492Y12876D01*
Y12851D01*
X11480Y12838D01*
X11492Y12963D02*
Y12913D01*
X11455D01*
X11467Y12938D01*
Y12951D01*
X11455Y12963D01*
X11430D01*
X11417Y12951D01*
Y12926D01*
X11430Y12913D01*
X12242Y12457D02*
X12254Y12470D01*
X12279D01*
X12292Y12457D01*
Y12407D01*
X12279Y12395D01*
X12254D01*
X12242Y12407D01*
X12167Y12395D02*
X12217D01*
X12167Y12445D01*
Y12457D01*
X12179Y12470D01*
X12204D01*
X12217Y12457D01*
X12104Y12395D02*
Y12470D01*
X12142Y12432D01*
X12092D01*
X12502Y12457D02*
X12514Y12470D01*
X12539D01*
X12552Y12457D01*
Y12407D01*
X12539Y12395D01*
X12514D01*
X12502Y12407D01*
X12427Y12395D02*
X12477D01*
X12427Y12445D01*
Y12457D01*
X12439Y12470D01*
X12464D01*
X12477Y12457D01*
X12402D02*
X12389Y12470D01*
X12364D01*
X12352Y12457D01*
Y12445D01*
X12364Y12432D01*
X12377D01*
X12364D01*
X12352Y12420D01*
Y12407D01*
X12364Y12395D01*
X12389D01*
X12402Y12407D01*
X11531Y11137D02*
X11543Y11125D01*
Y11100D01*
X11531Y11087D01*
X11481D01*
X11468Y11100D01*
Y11125D01*
X11481Y11137D01*
X11468Y11162D02*
Y11187D01*
Y11175D01*
X11543D01*
X11531Y11162D01*
X11543Y11275D02*
Y11225D01*
X11506D01*
X11518Y11250D01*
Y11262D01*
X11506Y11275D01*
X11481D01*
X11468Y11262D01*
Y11237D01*
X11481Y11225D01*
X11277Y10908D02*
X11289Y10896D01*
Y10871D01*
X11277Y10858D01*
X11227D01*
X11214Y10871D01*
Y10896D01*
X11227Y10908D01*
X11214Y10933D02*
Y10958D01*
Y10946D01*
X11289D01*
X11277Y10933D01*
X11214Y11033D02*
X11289D01*
X11252Y10996D01*
Y11046D01*
X11480Y10223D02*
X11492Y10210D01*
Y10185D01*
X11480Y10173D01*
X11430D01*
X11417Y10185D01*
Y10210D01*
X11430Y10223D01*
X11417Y10248D02*
Y10273D01*
Y10260D01*
X11492D01*
X11480Y10248D01*
Y10310D02*
X11492Y10323D01*
Y10348D01*
X11480Y10360D01*
X11467D01*
X11455Y10348D01*
Y10335D01*
Y10348D01*
X11442Y10360D01*
X11430D01*
X11417Y10348D01*
Y10323D01*
X11430Y10310D01*
X11353Y10223D02*
X11365Y10210D01*
Y10185D01*
X11353Y10173D01*
X11303D01*
X11290Y10185D01*
Y10210D01*
X11303Y10223D01*
X11290Y10248D02*
Y10273D01*
Y10260D01*
X11365D01*
X11353Y10248D01*
X11290Y10360D02*
Y10310D01*
X11340Y10360D01*
X11353D01*
X11365Y10348D01*
Y10323D01*
X11353Y10310D01*
X11607Y10223D02*
X11619Y10210D01*
Y10185D01*
X11607Y10173D01*
X11557D01*
X11544Y10185D01*
Y10210D01*
X11557Y10223D01*
X11544Y10248D02*
Y10273D01*
Y10260D01*
X11619D01*
X11607Y10248D01*
X11544Y10310D02*
Y10335D01*
Y10323D01*
X11619D01*
X11607Y10310D01*
X11734Y10223D02*
X11746Y10210D01*
Y10185D01*
X11734Y10173D01*
X11684D01*
X11671Y10185D01*
Y10210D01*
X11684Y10223D01*
X11671Y10248D02*
Y10273D01*
Y10260D01*
X11746D01*
X11734Y10248D01*
Y10310D02*
X11746Y10323D01*
Y10348D01*
X11734Y10360D01*
X11684D01*
X11671Y10348D01*
Y10323D01*
X11684Y10310D01*
X11734D01*
X14885Y10705D02*
X14898Y10718D01*
X14923D01*
X14935Y10705D01*
Y10655D01*
X14923Y10643D01*
X14898D01*
X14885Y10655D01*
X14860Y10705D02*
X14848Y10718D01*
X14823D01*
X14810Y10705D01*
Y10693D01*
X14823Y10680D01*
X14810Y10668D01*
Y10655D01*
X14823Y10643D01*
X14848D01*
X14860Y10655D01*
Y10668D01*
X14848Y10680D01*
X14860Y10693D01*
Y10705D01*
X14848Y10680D02*
X14823D01*
X14174Y11581D02*
X14187Y11594D01*
X14212D01*
X14224Y11581D01*
Y11531D01*
X14212Y11519D01*
X14187D01*
X14174Y11531D01*
X14112Y11519D02*
Y11594D01*
X14149Y11556D01*
X14099D01*
X14174Y11454D02*
X14187Y11467D01*
X14212D01*
X14224Y11454D01*
Y11404D01*
X14212Y11392D01*
X14187D01*
X14174Y11404D01*
X14149Y11454D02*
X14137Y11467D01*
X14112D01*
X14099Y11454D01*
Y11442D01*
X14112Y11429D01*
X14124D01*
X14112D01*
X14099Y11417D01*
Y11404D01*
X14112Y11392D01*
X14137D01*
X14149Y11404D01*
X14174Y11327D02*
X14187Y11340D01*
X14212D01*
X14224Y11327D01*
Y11277D01*
X14212Y11265D01*
X14187D01*
X14174Y11277D01*
X14099Y11265D02*
X14149D01*
X14099Y11315D01*
Y11327D01*
X14112Y11340D01*
X14137D01*
X14149Y11327D01*
X14161Y11200D02*
X14174Y11213D01*
X14199D01*
X14211Y11200D01*
Y11150D01*
X14199Y11138D01*
X14174D01*
X14161Y11150D01*
X14136Y11138D02*
X14111D01*
X14124D01*
Y11213D01*
X14136Y11200D01*
D17*
X11607Y12647D02*
Y12714D01*
Y13220D02*
Y13287D01*
X12447Y12647D02*
Y12714D01*
Y13220D02*
Y13287D01*
X11607Y12647D02*
X11677D01*
X12376D02*
X12447D01*
X11607Y13287D02*
X11677D01*
X12376D02*
X12447D01*
M02*
