G04*
G04 #@! TF.GenerationSoftware,Altium Limited,Altium Designer,19.1.7 (138)*
G04*
G04 Layer_Color=128*
%FSLAX42Y42*%
%MOMM*%
G71*
G01*
G75*
%ADD56R,0.97X0.80*%
%ADD57R,0.80X0.97*%
%ADD130R,1.75X1.75*%
%ADD131O,0.90X0.25*%
%ADD132O,0.25X0.90*%
%ADD133R,1.05X0.45*%
%ADD135R,1.50X0.80*%
%ADD142R,0.93X1.23*%
D56*
X11684Y10592D02*
D03*
Y10434D02*
D03*
X11570Y10592D02*
D03*
Y10434D02*
D03*
X11341Y10592D02*
D03*
Y10434D02*
D03*
X11455Y10592D02*
D03*
Y10434D02*
D03*
X11379Y11011D02*
D03*
Y10853D02*
D03*
X11506Y11011D02*
D03*
Y10853D02*
D03*
X11328Y13434D02*
D03*
Y13592D02*
D03*
Y12969D02*
D03*
Y12812D02*
D03*
X11544Y11890D02*
D03*
Y11732D02*
D03*
X12878Y12139D02*
D03*
Y12296D02*
D03*
X12967Y13630D02*
D03*
Y13472D02*
D03*
X12636Y11900D02*
D03*
Y11742D02*
D03*
X12510Y11900D02*
D03*
Y11742D02*
D03*
X13094Y13363D02*
D03*
Y13205D02*
D03*
X12967Y13363D02*
D03*
Y13205D02*
D03*
X13714Y14989D02*
D03*
Y14831D02*
D03*
X13849Y14989D02*
D03*
Y14831D02*
D03*
X15291Y11717D02*
D03*
Y11875D02*
D03*
X14750Y12159D02*
D03*
Y12001D02*
D03*
X14592Y11161D02*
D03*
Y11318D02*
D03*
X11811Y11153D02*
D03*
Y10996D02*
D03*
X14389Y14257D02*
D03*
Y14415D02*
D03*
X11455Y13434D02*
D03*
Y13592D02*
D03*
X13005Y12139D02*
D03*
Y12296D02*
D03*
D57*
X14310Y11176D02*
D03*
X14468D02*
D03*
X14310Y11303D02*
D03*
X14468D02*
D03*
X14310Y11430D02*
D03*
X14468D02*
D03*
X14310Y11557D02*
D03*
X14468D02*
D03*
X12529Y12560D02*
D03*
X12371D02*
D03*
X12111D02*
D03*
X12269D02*
D03*
X11303Y12687D02*
D03*
X11461D02*
D03*
X11303Y12560D02*
D03*
X11461D02*
D03*
X13410Y14554D02*
D03*
X13567D02*
D03*
X13410Y14668D02*
D03*
X13567D02*
D03*
X14128Y14752D02*
D03*
X13970D02*
D03*
X14130Y14624D02*
D03*
X13972D02*
D03*
D130*
X15015Y11815D02*
D03*
D131*
X15165Y11740D02*
D03*
Y11790D02*
D03*
Y11840D02*
D03*
Y11890D02*
D03*
X14865D02*
D03*
Y11840D02*
D03*
Y11790D02*
D03*
Y11740D02*
D03*
D132*
X15090Y11965D02*
D03*
X15040D02*
D03*
X14990D02*
D03*
X14940D02*
D03*
Y11665D02*
D03*
X14990D02*
D03*
X15040D02*
D03*
X15090D02*
D03*
D133*
X11635Y12776D02*
D03*
Y12903D02*
D03*
Y13030D02*
D03*
Y13157D02*
D03*
X12419Y12776D02*
D03*
Y12903D02*
D03*
Y13030D02*
D03*
Y13157D02*
D03*
D135*
X11646Y10847D02*
D03*
Y10717D02*
D03*
D142*
X11914Y12824D02*
D03*
Y12967D02*
D03*
Y13110D02*
D03*
X12027Y12824D02*
D03*
Y12967D02*
D03*
Y13110D02*
D03*
X12140Y12824D02*
D03*
Y12967D02*
D03*
Y13110D02*
D03*
M02*
